<svg width="143" height="131" viewBox="0 0 143 131" fill="none" xmlns="http://www.w3.org/2000/svg">
<path d="M1.51439 1.00649C1.51439 1.14083 1.46103 1.26965 1.36604 1.36464C1.27106 1.45963 1.14223 1.51299 1.0079 1.51299C0.873568 1.51299 0.744739 1.45963 0.649753 1.36464C0.554767 1.26965 0.501404 1.14083 0.501404 1.00649C0.501404 0.872164 0.554767 0.743335 0.649753 0.648349C0.744739 0.553363 0.873568 0.5 1.0079 0.5C1.14223 0.5 1.27106 0.553363 1.36604 0.648349C1.46103 0.743335 1.51439 0.872164 1.51439 1.00649Z" stroke="#4831D4"/>
<path d="M14.2411 1.00649C14.2411 1.14083 14.1878 1.26965 14.0928 1.36464C13.9978 1.45963 13.869 1.51299 13.7346 1.51299C13.6003 1.51299 13.4715 1.45963 13.3765 1.36464C13.2815 1.26965 13.2281 1.14083 13.2281 1.00649C13.2281 0.872165 13.2815 0.743336 13.3765 0.648349C13.4715 0.553363 13.6003 0.5 13.7346 0.5C13.869 0.5 13.9978 0.553363 14.0928 0.648349C14.1878 0.743336 14.2411 0.872165 14.2411 1.00649Z" stroke="#4831D4"/>
<path d="M26.9687 1.01956C26.9705 1.08715 26.9587 1.15441 26.9341 1.21737C26.9095 1.28034 26.8725 1.33773 26.8253 1.38617C26.7781 1.43461 26.7217 1.47312 26.6594 1.49941C26.5971 1.52571 26.5302 1.53927 26.4626 1.5393C26.395 1.53932 26.328 1.5258 26.2657 1.49955C26.2034 1.47329 26.147 1.43482 26.0998 1.38641C26.0526 1.33801 26.0156 1.28064 25.9909 1.21769C25.9662 1.15474 25.9544 1.08749 25.9561 1.01989C25.9595 0.88787 26.0143 0.762383 26.1088 0.67018C26.2034 0.577976 26.3302 0.52635 26.4623 0.526306C26.5943 0.526262 26.7212 0.577804 26.8158 0.669944C26.9104 0.762084 26.9653 0.887535 26.9687 1.01956Z" stroke="#4831D4"/>
<path d="M39.6962 1.01956C39.698 1.08715 39.6862 1.15441 39.6616 1.21737C39.6369 1.28034 39.5999 1.33773 39.5528 1.38617C39.5056 1.43461 39.4492 1.47312 39.3869 1.49941C39.3246 1.52571 39.2577 1.53927 39.1901 1.5393C39.1225 1.53932 39.0555 1.5258 38.9932 1.49955C38.9309 1.47329 38.8745 1.43482 38.8273 1.38641C38.7801 1.33801 38.743 1.28064 38.7184 1.21769C38.6937 1.15474 38.6819 1.08748 38.6836 1.01989C38.6869 0.887874 38.7417 0.762385 38.8363 0.67018C38.9308 0.577976 39.0577 0.52635 39.1897 0.526306C39.3218 0.526262 39.4487 0.577803 39.5433 0.669944C39.6379 0.762084 39.6928 0.887535 39.6962 1.01956Z" stroke="#4831D4"/>
<path d="M52.4235 1.00649C52.4235 1.14083 52.3701 1.26966 52.2752 1.36464C52.1802 1.45963 52.0513 1.51299 51.917 1.51299C51.7827 1.51299 51.6539 1.45963 51.5589 1.36464C51.4639 1.26966 51.4105 1.14083 51.4105 1.00649C51.4105 0.872163 51.4639 0.743334 51.5589 0.648349C51.6539 0.553363 51.7827 0.5 51.917 0.5C52.0513 0.5 52.1802 0.553363 52.2752 0.648349C52.3701 0.743334 52.4235 0.872163 52.4235 1.00649Z" stroke="#4831D4"/>
<path d="M65.151 1.00649C65.151 1.14082 65.0976 1.26965 65.0026 1.36464C64.9076 1.45963 64.7788 1.51299 64.6445 1.51299C64.5102 1.51299 64.3813 1.45963 64.2863 1.36464C64.1914 1.26966 64.138 1.14083 64.138 1.00649C64.138 0.872163 64.1914 0.743334 64.2863 0.648349C64.3813 0.553363 64.5102 0.5 64.6445 0.5C64.7788 0.5 64.9076 0.553361 65.0026 0.648349C65.0976 0.743339 65.151 0.87217 65.151 1.00649Z" stroke="#4831D4"/>
<path d="M77.8786 1.01956C77.8804 1.08715 77.8686 1.15441 77.8439 1.21737C77.8193 1.28034 77.7823 1.33773 77.7351 1.38617C77.688 1.43461 77.6316 1.47312 77.5693 1.49941C77.507 1.52571 77.4401 1.53927 77.3724 1.5393C77.3048 1.53932 77.2379 1.5258 77.1756 1.49955C77.1133 1.47329 77.0569 1.43482 77.0097 1.38641C76.9625 1.33801 76.9254 1.28065 76.9007 1.21769C76.8761 1.15473 76.8642 1.08748 76.8659 1.01989C76.8693 0.887874 76.9241 0.762385 77.0187 0.67018C77.1132 0.577976 77.24 0.52635 77.3721 0.526306C77.5042 0.526262 77.631 0.577803 77.7257 0.669944C77.8203 0.762084 77.8751 0.887535 77.8786 1.01956Z" stroke="#4831D4"/>
<path d="M90.6056 1.02488C90.6081 1.09292 90.5969 1.16075 90.5726 1.22433C90.5483 1.2879 90.5114 1.34594 90.4642 1.39497C90.417 1.444 90.3603 1.48299 90.2977 1.50963C90.2351 1.53627 90.1677 1.55002 90.0996 1.55004C90.0315 1.55006 89.9642 1.53636 89.9015 1.50976C89.8389 1.48316 89.7822 1.44421 89.7349 1.39521C89.6877 1.34621 89.6508 1.2882 89.6264 1.22464C89.6021 1.16108 89.5908 1.09325 89.5933 1.02522C89.598 0.894174 89.6534 0.770079 89.7478 0.679036C89.8421 0.587992 89.9682 0.537092 90.0993 0.537048C90.2304 0.537005 90.3564 0.587819 90.4509 0.678801C90.5453 0.769783 90.6008 0.893842 90.6056 1.02488Z" stroke="#4831D4"/>
<path d="M103.333 1.00663C103.333 1.07316 103.32 1.13902 103.295 1.20047C103.269 1.26193 103.232 1.31778 103.185 1.36483C103.138 1.41188 103.082 1.4492 103.021 1.47468C102.959 1.50015 102.894 1.51327 102.827 1.5133C102.761 1.51332 102.695 1.50024 102.633 1.47481C102.572 1.44937 102.516 1.41208 102.469 1.36507C102.422 1.31805 102.384 1.26223 102.359 1.20078C102.334 1.13933 102.32 1.07347 102.32 1.00697C102.32 0.872646 102.374 0.743797 102.469 0.648774C102.564 0.553756 102.692 0.50035 102.827 0.500305C102.961 0.50026 103.09 0.55358 103.185 0.648535C103.28 0.743482 103.333 0.872291 103.333 1.00663Z" stroke="#4831D4"/>
<path d="M116.06 1.00649C116.06 1.14082 116.007 1.26965 115.912 1.36464C115.817 1.45963 115.688 1.51299 115.554 1.51299C115.419 1.51299 115.291 1.45963 115.196 1.36464C115.101 1.26966 115.047 1.14083 115.047 1.00649C115.047 0.872157 115.101 0.74333 115.196 0.648349C115.291 0.553365 115.419 0.5 115.554 0.5C115.688 0.5 115.817 0.553361 115.912 0.648349C116.007 0.743339 116.06 0.87217 116.06 1.00649Z" stroke="#4831D4"/>
<path d="M128.788 1.02488C128.791 1.09292 128.779 1.16075 128.755 1.22433C128.731 1.28792 128.694 1.34595 128.647 1.39497C128.599 1.44399 128.543 1.48298 128.48 1.50963C128.417 1.53627 128.35 1.55002 128.282 1.55004C128.214 1.55006 128.147 1.53636 128.084 1.50976C128.021 1.48316 127.965 1.4442 127.917 1.39521C127.87 1.34623 127.833 1.28822 127.809 1.22464C127.785 1.16108 127.773 1.09325 127.776 1.02522C127.78 0.894174 127.836 0.770079 127.93 0.679036C128.025 0.587988 128.151 0.537092 128.282 0.537048C128.413 0.537005 128.539 0.587819 128.633 0.678801C128.728 0.769783 128.783 0.893842 128.788 1.02488Z" stroke="#4831D4"/>
<path d="M141.515 1.01956C141.517 1.08715 141.505 1.15441 141.481 1.21737C141.456 1.28035 141.419 1.33774 141.372 1.38617C141.325 1.43461 141.268 1.47312 141.206 1.49941C141.144 1.52571 141.077 1.53927 141.009 1.5393C140.941 1.53932 140.875 1.5258 140.812 1.49955C140.75 1.47329 140.694 1.43483 140.646 1.38641C140.599 1.338 140.562 1.28063 140.537 1.21769C140.513 1.15475 140.501 1.0875 140.503 1.01989C140.506 0.887867 140.561 0.76238 140.655 0.67018C140.75 0.577976 140.877 0.52635 141.009 0.526306C141.141 0.526262 141.268 0.577805 141.362 0.669944C141.457 0.762079 141.512 0.887528 141.515 1.01956Z" stroke="#4831D4"/>
<path d="M1.51433 13.905C1.51433 14.0395 1.4609 14.1685 1.36579 14.2636C1.27067 14.3587 1.14167 14.4122 1.00717 14.4122C0.872657 14.4122 0.743657 14.3587 0.648546 14.2636C0.553434 14.1685 0.5 14.0395 0.5 13.905C0.5 13.7705 0.553433 13.6415 0.648546 13.5464C0.743657 13.4513 0.872657 13.3978 1.00717 13.3978C1.14167 13.3978 1.27067 13.4513 1.36579 13.5464C1.4609 13.6415 1.51433 13.7705 1.51433 13.905Z" stroke="#4831D4"/>
<path d="M14.2411 13.9051C14.2411 14.0394 14.1878 14.1683 14.0928 14.2633C13.9978 14.3582 13.869 14.4116 13.7346 14.4116C13.6003 14.4116 13.4715 14.3582 13.3765 14.2633C13.2815 14.1683 13.2281 14.0394 13.2281 13.9051C13.2281 13.7708 13.2815 13.642 13.3765 13.547C13.4715 13.452 13.6003 13.3986 13.7346 13.3986C13.869 13.3986 13.9978 13.452 14.0928 13.547C14.1878 13.642 14.2411 13.7708 14.2411 13.9051Z" stroke="#4831D4"/>
<path d="M26.9686 13.9051C26.9686 14.0394 26.9153 14.1683 26.8203 14.2633C26.7253 14.3582 26.5965 14.4116 26.4621 14.4116C26.3278 14.4116 26.199 14.3582 26.104 14.2633C26.009 14.1683 25.9556 14.0394 25.9556 13.9051C25.9556 13.7708 26.009 13.642 26.104 13.547C26.199 13.452 26.3278 13.3986 26.4621 13.3986C26.5965 13.3986 26.7253 13.452 26.8203 13.547C26.9153 13.642 26.9686 13.7708 26.9686 13.9051Z" stroke="#4831D4"/>
<path d="M39.696 13.9051C39.696 14.0394 39.6427 14.1683 39.5477 14.2633C39.4527 14.3582 39.3239 14.4116 39.1895 14.4116C39.0552 14.4116 38.9264 14.3582 38.8314 14.2633C38.7364 14.1683 38.683 14.0394 38.683 13.9051C38.683 13.7708 38.7364 13.642 38.8314 13.547C38.9264 13.452 39.0552 13.3986 39.1895 13.3986C39.3239 13.3986 39.4527 13.452 39.5477 13.547C39.6427 13.642 39.696 13.7708 39.696 13.9051Z" stroke="#4831D4"/>
<path d="M52.4235 13.905C52.4235 14.0394 52.3701 14.1684 52.2751 14.2634C52.18 14.3585 52.0511 14.4119 51.9167 14.4119C51.7823 14.4119 51.6534 14.3585 51.5583 14.2634C51.4633 14.1684 51.4099 14.0394 51.4099 13.905C51.4099 13.7706 51.4633 13.6417 51.5583 13.5466C51.6534 13.4516 51.7823 13.3982 51.9167 13.3982C52.0511 13.3982 52.18 13.4516 52.2751 13.5466C52.3701 13.6417 52.4235 13.7706 52.4235 13.905Z" stroke="#4831D4"/>
<path d="M65.1503 13.9051V13.9313C65.1473 13.9889 65.1345 14.0456 65.1124 14.0991C65.0869 14.1606 65.0496 14.2164 65.0025 14.2635C64.9555 14.3106 64.8996 14.3479 64.8381 14.3734C64.7766 14.3988 64.7107 14.4119 64.6442 14.4119C64.5776 14.4119 64.5117 14.3988 64.4502 14.3734C64.3887 14.3479 64.3328 14.3106 64.2858 14.2635C64.2387 14.2164 64.2014 14.1606 64.1759 14.0991C64.1504 14.0376 64.1373 13.9717 64.1373 13.9051C64.1373 13.7708 64.1907 13.642 64.2857 13.547C64.3807 13.452 64.5095 13.3986 64.6438 13.3986C64.7782 13.3986 64.907 13.452 65.002 13.547C65.097 13.642 65.1503 13.7708 65.1503 13.9051Z" stroke="#4831D4"/>
<path d="M77.8785 13.9051C77.8785 14.0394 77.8251 14.1683 77.7301 14.2633C77.6351 14.3582 77.5063 14.4116 77.372 14.4116C77.2376 14.4116 77.1088 14.3582 77.0138 14.2633C76.9188 14.1683 76.8655 14.0394 76.8655 13.9051C76.8655 13.7708 76.9188 13.642 77.0138 13.547C77.1088 13.452 77.2376 13.3986 77.372 13.3986C77.5063 13.3986 77.6351 13.452 77.7301 13.547C77.8251 13.642 77.8785 13.7708 77.8785 13.9051Z" stroke="#4831D4"/>
<path d="M90.6052 13.9051C90.6052 14.0394 90.5519 14.1683 90.4569 14.2633C90.3619 14.3582 90.2331 14.4116 90.0987 14.4116C89.9644 14.4116 89.8356 14.3582 89.7406 14.2633C89.6456 14.1683 89.5923 14.0394 89.5923 13.9051C89.5923 13.7708 89.6456 13.642 89.7406 13.547C89.8356 13.452 89.9644 13.3986 90.0987 13.3986C90.2331 13.3986 90.3619 13.452 90.4569 13.547C90.5519 13.642 90.6052 13.7708 90.6052 13.9051Z" stroke="#4831D4"/>
<path d="M103.333 13.9051C103.333 14.0395 103.28 14.1683 103.185 14.2633C103.09 14.3582 102.961 14.4116 102.827 14.4116C102.693 14.4116 102.564 14.3582 102.469 14.2633C102.374 14.1683 102.32 14.0394 102.32 13.9051C102.32 13.7708 102.374 13.642 102.469 13.547C102.564 13.452 102.693 13.3986 102.827 13.3986C102.961 13.3986 103.09 13.452 103.185 13.547C103.28 13.642 103.333 13.7708 103.333 13.9051Z" stroke="#4831D4"/>
<path d="M116.06 13.9051C116.06 14.0394 116.007 14.1683 115.912 14.2633C115.817 14.3582 115.688 14.4116 115.554 14.4116C115.419 14.4116 115.291 14.3582 115.196 14.2633C115.101 14.1683 115.047 14.0395 115.047 13.9051C115.047 13.7708 115.101 13.642 115.196 13.547C115.291 13.452 115.419 13.3986 115.554 13.3986C115.688 13.3986 115.817 13.452 115.912 13.547C116.007 13.642 116.06 13.7708 116.06 13.9051Z" stroke="#4831D4"/>
<path d="M128.788 13.9051C128.788 14.0395 128.734 14.1683 128.639 14.2633C128.544 14.3582 128.415 14.4116 128.281 14.4116C128.147 14.4116 128.018 14.3582 127.923 14.2633C127.828 14.1683 127.775 14.0394 127.775 13.9051C127.775 13.7708 127.828 13.642 127.923 13.547C128.018 13.452 128.147 13.3986 128.281 13.3986C128.415 13.3986 128.544 13.452 128.639 13.547C128.734 13.642 128.788 13.7708 128.788 13.9051Z" stroke="#4831D4"/>
<path d="M141.515 13.9051C141.515 14.0395 141.462 14.1683 141.367 14.2633C141.272 14.3582 141.143 14.4116 141.009 14.4116C140.874 14.4116 140.745 14.3582 140.65 14.2633C140.555 14.1683 140.502 14.0394 140.502 13.9051C140.502 13.7708 140.555 13.642 140.65 13.547C140.745 13.452 140.874 13.3986 141.009 13.3986C141.143 13.3986 141.272 13.452 141.367 13.547C141.462 13.642 141.515 13.7708 141.515 13.9051Z" stroke="#4831D4"/>
<path d="M1.51433 26.8036C1.51433 26.9379 1.46097 27.0668 1.36598 27.1618C1.271 27.2567 1.14217 27.3101 1.00784 27.3101C0.873506 27.3101 0.744677 27.2567 0.649692 27.1618C0.554706 27.0668 0.501343 26.9379 0.501343 26.8036C0.501343 26.6693 0.554706 26.5405 0.649692 26.4455C0.744677 26.3505 0.873506 26.2971 1.00784 26.2971C1.14217 26.2971 1.271 26.3505 1.36598 26.4455C1.46097 26.5405 1.51433 26.6693 1.51433 26.8036Z" stroke="#4831D4"/>
<path d="M14.2411 26.8036C14.2411 26.9379 14.1878 27.0668 14.0928 27.1618C13.9978 27.2567 13.869 27.3101 13.7346 27.3101C13.6003 27.3101 13.4715 27.2567 13.3765 27.1618C13.2815 27.0668 13.2281 26.9379 13.2281 26.8036C13.2281 26.6693 13.2815 26.5405 13.3765 26.4455C13.4715 26.3505 13.6003 26.2971 13.7346 26.2971C13.869 26.2971 13.9978 26.3505 14.0928 26.4455C14.1878 26.5405 14.2411 26.6693 14.2411 26.8036Z" stroke="#4831D4"/>
<path d="M26.9687 26.8167C26.9705 26.8843 26.9587 26.9515 26.9341 27.0145C26.9095 27.0775 26.8725 27.1349 26.8253 27.1833C26.7781 27.2317 26.7217 27.2702 26.6594 27.2965C26.5971 27.3228 26.5302 27.3364 26.4626 27.3364C26.395 27.3364 26.328 27.3229 26.2657 27.2967C26.2034 27.2704 26.147 27.2319 26.0998 27.1835C26.0526 27.1351 26.0156 27.0778 25.9909 27.0148C25.9662 26.9519 25.9544 26.8846 25.9561 26.817C25.9595 26.685 26.0143 26.5595 26.1088 26.4673C26.2034 26.3751 26.3302 26.3235 26.4623 26.3234C26.5943 26.3234 26.7212 26.3749 26.8158 26.4671C26.9104 26.5592 26.9653 26.6847 26.9687 26.8167Z" stroke="#4831D4"/>
<path d="M39.6962 26.8167C39.698 26.8843 39.6862 26.9515 39.6616 27.0145C39.6369 27.0775 39.5999 27.1349 39.5528 27.1833C39.5056 27.2317 39.4492 27.2702 39.3869 27.2965C39.3246 27.3228 39.2577 27.3364 39.1901 27.3364C39.1225 27.3364 39.0555 27.3229 38.9932 27.2967C38.9309 27.2704 38.8745 27.2319 38.8273 27.1835C38.7801 27.1351 38.743 27.0778 38.7184 27.0148C38.6937 26.9519 38.6819 26.8846 38.6836 26.817C38.6869 26.685 38.7417 26.5595 38.8363 26.4673C38.9308 26.3751 39.0577 26.3235 39.1897 26.3234C39.3218 26.3234 39.4487 26.3749 39.5433 26.4671C39.6379 26.5592 39.6928 26.6847 39.6962 26.8167Z" stroke="#4831D4"/>
<path d="M52.4235 26.8036C52.4235 26.9379 52.3701 27.0668 52.2752 27.1618C52.1802 27.2567 52.0513 27.3101 51.917 27.3101C51.7827 27.3101 51.6539 27.2567 51.5589 27.1618C51.4639 27.0668 51.4105 26.9379 51.4105 26.8036C51.4105 26.6693 51.4639 26.5405 51.5589 26.4455C51.6539 26.3505 51.7827 26.2971 51.917 26.2971C52.0513 26.2971 52.1802 26.3505 52.2752 26.4455C52.3701 26.5405 52.4235 26.6693 52.4235 26.8036Z" stroke="#4831D4"/>
<path d="M65.151 26.8036C65.151 26.9379 65.0976 27.0668 65.0026 27.1618C64.9076 27.2567 64.7788 27.3101 64.6445 27.3101C64.5102 27.3101 64.3813 27.2567 64.2863 27.1618C64.1914 27.0668 64.138 26.9379 64.138 26.8036C64.138 26.6693 64.1914 26.5405 64.2863 26.4455C64.3813 26.3505 64.5102 26.2971 64.6445 26.2971C64.7788 26.2971 64.9076 26.3505 65.0026 26.4455C65.0976 26.5405 65.151 26.6693 65.151 26.8036Z" stroke="#4831D4"/>
<path d="M77.8786 26.8167C77.8804 26.8843 77.8686 26.9515 77.8439 27.0145C77.8193 27.0775 77.7823 27.1349 77.7351 27.1833C77.688 27.2317 77.6316 27.2702 77.5693 27.2965C77.507 27.3228 77.4401 27.3364 77.3724 27.3364C77.3048 27.3364 77.2379 27.3229 77.1756 27.2967C77.1133 27.2704 77.0569 27.2319 77.0097 27.1835C76.9625 27.1351 76.9254 27.0778 76.9007 27.0148C76.8761 26.9518 76.8642 26.8846 76.8659 26.817C76.8693 26.685 76.9241 26.5595 77.0187 26.4673C77.1132 26.3751 77.24 26.3235 77.3721 26.3234C77.5042 26.3234 77.631 26.3749 77.7257 26.4671C77.8203 26.5592 77.8751 26.6847 77.8786 26.8167Z" stroke="#4831D4"/>
<path d="M90.6056 26.8221C90.6081 26.8902 90.5969 26.958 90.5726 27.0216C90.5483 27.0851 90.5114 27.1432 90.4642 27.1922C90.417 27.2412 90.3603 27.2802 90.2977 27.3069C90.2351 27.3335 90.1677 27.3473 90.0996 27.3473C90.0315 27.3473 89.9642 27.3336 89.9015 27.307C89.8389 27.2804 89.7822 27.2414 89.7349 27.1925C89.6877 27.1435 89.6508 27.0854 89.6264 27.0219C89.6021 26.9583 89.5908 26.8905 89.5933 26.8225C89.598 26.6914 89.6534 26.5673 89.7478 26.4763C89.8421 26.3852 89.9682 26.3343 90.0993 26.3343C90.2304 26.3342 90.3564 26.3851 90.4509 26.476C90.5453 26.567 90.6008 26.6911 90.6056 26.8221Z" stroke="#4831D4"/>
<path d="M103.333 26.8038C103.333 26.8703 103.32 26.9361 103.295 26.9976C103.269 27.059 103.232 27.1149 103.185 27.1619C103.138 27.209 103.082 27.2463 103.021 27.2718C102.959 27.2973 102.894 27.3104 102.827 27.3104C102.761 27.3104 102.695 27.2974 102.633 27.2719C102.572 27.2465 102.516 27.2092 102.469 27.1622C102.422 27.1152 102.384 27.0593 102.359 26.9979C102.334 26.9364 102.32 26.8706 102.32 26.8041C102.32 26.6698 102.374 26.5409 102.469 26.4459C102.564 26.3509 102.692 26.2975 102.827 26.2974C102.961 26.2974 103.09 26.3507 103.185 26.4457C103.28 26.5406 103.333 26.6694 103.333 26.8038Z" stroke="#4831D4"/>
<path d="M116.06 26.8036C116.06 26.9379 116.007 27.0668 115.912 27.1618C115.817 27.2567 115.688 27.3101 115.554 27.3101C115.419 27.3101 115.291 27.2567 115.196 27.1618C115.101 27.0668 115.047 26.938 115.047 26.8036C115.047 26.6693 115.101 26.5404 115.196 26.4455C115.291 26.3505 115.419 26.2971 115.554 26.2971C115.688 26.2971 115.817 26.3505 115.912 26.4455C116.007 26.5405 116.06 26.6693 116.06 26.8036Z" stroke="#4831D4"/>
<path d="M128.788 26.8221C128.791 26.8902 128.779 26.958 128.755 27.0216C128.731 27.0852 128.694 27.1432 128.647 27.1922C128.599 27.2412 128.543 27.2802 128.48 27.3069C128.417 27.3335 128.35 27.3473 128.282 27.3473C128.214 27.3473 128.147 27.3336 128.084 27.307C128.021 27.2804 127.965 27.2414 127.917 27.1925C127.87 27.1435 127.833 27.0855 127.809 27.0219C127.785 26.9583 127.773 26.8905 127.776 26.8225C127.78 26.6914 127.836 26.5673 127.93 26.4763C128.025 26.3852 128.151 26.3343 128.282 26.3343C128.413 26.3342 128.539 26.3851 128.633 26.476C128.728 26.567 128.783 26.6911 128.788 26.8221Z" stroke="#4831D4"/>
<path d="M141.515 26.8167C141.517 26.8843 141.505 26.9515 141.481 27.0145C141.456 27.0775 141.419 27.1349 141.372 27.1833C141.325 27.2317 141.268 27.2702 141.206 27.2965C141.144 27.3228 141.077 27.3364 141.009 27.3364C140.941 27.3364 140.875 27.3229 140.812 27.2967C140.75 27.2704 140.694 27.2319 140.646 27.1835C140.599 27.1351 140.562 27.0777 140.537 27.0148C140.513 26.9519 140.501 26.8846 140.503 26.817C140.506 26.685 140.561 26.5595 140.655 26.4673C140.75 26.3751 140.877 26.3235 141.009 26.3234C141.141 26.3234 141.268 26.3749 141.362 26.4671C141.457 26.5592 141.512 26.6846 141.515 26.8167Z" stroke="#4831D4"/>
<path d="M0.5 39.7023V39.7022C0.5 39.5677 0.553433 39.4387 0.648546 39.3436C0.743657 39.2484 0.872657 39.195 1.00717 39.195C1.14167 39.195 1.27067 39.2484 1.36579 39.3436C1.4609 39.4387 1.51433 39.5677 1.51433 39.7022V39.7027C1.51433 39.7027 1.51433 39.7028 1.51433 39.7028C1.51424 39.8373 1.46077 39.9662 1.36567 40.0612C1.27052 40.1563 1.14151 40.2097 1.007 40.2097C0.872489 40.2096 0.743507 40.1562 0.648426 40.061C0.553345 39.9659 0.499955 39.8368 0.5 39.7023Z" stroke="#4831D4"/>
<path d="M13.2281 39.7024V39.7022C13.2281 39.5679 13.2815 39.4391 13.3765 39.3441C13.4715 39.2491 13.6003 39.1957 13.7346 39.1957C13.869 39.1957 13.9978 39.2491 14.0928 39.3441C14.1878 39.4391 14.2411 39.5679 14.2411 39.7022V39.7027C14.2411 39.7028 14.2411 39.7028 14.2411 39.7029C14.2411 39.7694 14.228 39.8352 14.2025 39.8966C14.177 39.958 14.1397 40.0138 14.0927 40.0608C14.0456 40.1079 13.9898 40.1451 13.9283 40.1706C13.8669 40.196 13.801 40.2091 13.7345 40.2091C13.668 40.209 13.6021 40.1959 13.5407 40.1704C13.4792 40.145 13.4234 40.1076 13.3764 40.0606C13.3294 40.0135 13.2921 39.9577 13.2666 39.8962C13.2412 39.8348 13.2281 39.7689 13.2281 39.7024Z" stroke="#4831D4"/>
<path d="M26.9686 39.7028C26.9686 39.8372 26.9153 39.966 26.8203 40.061C26.7253 40.156 26.5965 40.2093 26.4621 40.2093C26.3278 40.2093 26.199 40.156 26.104 40.061C26.009 39.966 25.9556 39.8372 25.9556 39.7028C25.9556 39.5685 26.009 39.4397 26.104 39.3447C26.199 39.2497 26.3278 39.1964 26.4621 39.1964C26.5965 39.1964 26.7253 39.2497 26.8203 39.3447C26.9153 39.4397 26.9686 39.5685 26.9686 39.7028Z" stroke="#4831D4"/>
<path d="M39.696 39.7028C39.696 39.8372 39.6427 39.966 39.5477 40.061C39.4527 40.156 39.3239 40.2093 39.1895 40.2093C39.0552 40.2093 38.9264 40.156 38.8314 40.061C38.7364 39.966 38.683 39.8372 38.683 39.7028C38.683 39.5685 38.7364 39.4397 38.8314 39.3447C38.9264 39.2497 39.0552 39.1964 39.1895 39.1964C39.3239 39.1964 39.4527 39.2497 39.5477 39.3447C39.6427 39.4397 39.696 39.5685 39.696 39.7028Z" stroke="#4831D4"/>
<path d="M51.4099 39.7024V39.7022C51.4099 39.5678 51.4633 39.4389 51.5583 39.3438C51.6534 39.2488 51.7823 39.1954 51.9167 39.1954C52.0511 39.1954 52.18 39.2488 52.2751 39.3438C52.3701 39.4389 52.4235 39.5678 52.4235 39.7022V39.7027C52.4235 39.7028 52.4235 39.7028 52.4235 39.7029C52.4235 39.7694 52.4104 39.8352 52.3849 39.8967C52.3594 39.9581 52.3221 40.014 52.275 40.061C52.2279 40.1081 52.172 40.1454 52.1105 40.1709C52.049 40.1963 51.9831 40.2094 51.9165 40.2094C51.85 40.2093 51.7841 40.1962 51.7226 40.1707C51.6611 40.1452 51.6053 40.1079 51.5582 40.0608C51.5112 40.0137 51.4739 39.9578 51.4484 39.8963C51.4229 39.8348 51.4099 39.7689 51.4099 39.7024Z" stroke="#4831D4"/>
<path d="M64.1373 39.7024V39.7022C64.1373 39.5679 64.1907 39.4391 64.2857 39.3441C64.3807 39.2491 64.5095 39.1957 64.6438 39.1957C64.7782 39.1957 64.907 39.2491 65.002 39.3441C65.097 39.4391 65.1503 39.5679 65.1503 39.7022V39.7287C65.1439 39.8537 65.0914 39.9722 65.0024 40.0611C64.9073 40.1561 64.7784 40.2094 64.644 40.2094C64.5096 40.2094 64.3807 40.1559 64.2857 40.0608C64.1906 39.9658 64.1373 39.8368 64.1373 39.7024Z" stroke="#4831D4"/>
<path d="M77.8785 39.7028C77.8785 39.8372 77.8251 39.966 77.7301 40.061C77.6351 40.156 77.5063 40.2093 77.372 40.2093C77.2376 40.2093 77.1088 40.156 77.0138 40.061C76.9188 39.966 76.8655 39.8372 76.8655 39.7028C76.8655 39.5685 76.9188 39.4397 77.0138 39.3447C77.1088 39.2497 77.2376 39.1964 77.372 39.1964C77.5063 39.1964 77.6351 39.2497 77.7301 39.3447C77.8251 39.4397 77.8785 39.5685 77.8785 39.7028Z" stroke="#4831D4"/>
<path d="M90.6052 39.7028C90.6052 39.8372 90.5519 39.966 90.4569 40.061C90.3619 40.156 90.2331 40.2093 90.0987 40.2093C89.9644 40.2093 89.8356 40.156 89.7406 40.061C89.6456 39.966 89.5923 39.8372 89.5923 39.7028C89.5923 39.5685 89.6456 39.4397 89.7406 39.3447C89.8356 39.2497 89.9644 39.1964 90.0987 39.1964C90.2331 39.1964 90.3619 39.2497 90.4569 39.3447C90.5519 39.4397 90.6052 39.5685 90.6052 39.7028Z" stroke="#4831D4"/>
<path d="M103.333 39.7028C103.333 39.8372 103.28 39.966 103.185 40.061C103.09 40.156 102.961 40.2093 102.827 40.2093C102.693 40.2093 102.564 40.156 102.469 40.061C102.374 39.966 102.32 39.8372 102.32 39.7028C102.32 39.5685 102.374 39.4397 102.469 39.3447C102.564 39.2497 102.693 39.1964 102.827 39.1964C102.961 39.1964 103.09 39.2497 103.185 39.3447C103.28 39.4397 103.333 39.5685 103.333 39.7028Z" stroke="#4831D4"/>
<path d="M115.047 39.7024V39.7022C115.047 39.5679 115.101 39.4391 115.196 39.3441C115.291 39.2491 115.419 39.1957 115.554 39.1957C115.688 39.1957 115.817 39.2491 115.912 39.3441C116.007 39.4391 116.06 39.5679 116.06 39.7022V39.7027C116.06 39.7028 116.06 39.7028 116.06 39.7029C116.06 39.8372 116.007 39.9659 115.912 40.0608C115.817 40.1558 115.688 40.2091 115.554 40.2091C115.419 40.209 115.29 40.1556 115.195 40.0606C115.1 39.9656 115.047 39.8367 115.047 39.7024Z" stroke="#4831D4"/>
<path d="M128.788 39.7028C128.788 39.8372 128.734 39.966 128.639 40.061C128.544 40.156 128.415 40.2093 128.281 40.2093C128.147 40.2093 128.018 40.156 127.923 40.061C127.828 39.966 127.775 39.8372 127.775 39.7028C127.775 39.5685 127.828 39.4397 127.923 39.3447C128.018 39.2497 128.147 39.1964 128.281 39.1964C128.415 39.1964 128.544 39.2497 128.639 39.3447C128.734 39.4397 128.788 39.5685 128.788 39.7028Z" stroke="#4831D4"/>
<path d="M141.515 39.7028C141.515 39.8372 141.462 39.966 141.367 40.061C141.272 40.156 141.143 40.2093 141.009 40.2093C140.874 40.2093 140.745 40.156 140.65 40.061C140.555 39.966 140.502 39.8372 140.502 39.7028C140.502 39.5685 140.555 39.4397 140.65 39.3447C140.745 39.2497 140.874 39.1964 141.009 39.1964C141.143 39.1964 141.272 39.2497 141.367 39.3447C141.462 39.4397 141.515 39.5685 141.515 39.7028Z" stroke="#4831D4"/>
<path d="M1.51433 52.6008C1.51433 52.7353 1.4609 52.8643 1.36579 52.9594C1.27068 53.0545 1.14168 53.108 1.00717 53.108C0.872654 53.108 0.743655 53.0545 0.648546 52.9594C0.553434 52.8643 0.5 52.7353 0.5 52.6008C0.5 52.4663 0.553432 52.3373 0.648546 52.2422C0.74366 52.1471 0.87266 52.0936 1.00717 52.0936C1.14167 52.0936 1.27067 52.1471 1.36579 52.2422C1.4609 52.3373 1.51433 52.4663 1.51433 52.6008Z" stroke="#4831D4"/>
<path d="M14.2411 52.6007C14.2411 52.7351 14.1878 52.8639 14.0928 52.9589C13.9978 53.0539 13.869 53.1072 13.7346 53.1072C13.6003 53.1072 13.4715 53.0539 13.3765 52.9589C13.2815 52.8639 13.2281 52.7351 13.2281 52.6007C13.2281 52.4664 13.2815 52.3376 13.3765 52.2426C13.4715 52.1476 13.6003 52.0942 13.7346 52.0942C13.869 52.0942 13.9978 52.1476 14.0928 52.2426C14.1878 52.3376 14.2411 52.4664 14.2411 52.6007Z" stroke="#4831D4"/>
<path d="M26.9686 52.6007C26.9686 52.7351 26.9153 52.8639 26.8203 52.9589C26.7253 53.0539 26.5965 53.1072 26.4621 53.1072C26.3278 53.1072 26.199 53.0539 26.104 52.9589C26.009 52.8639 25.9556 52.7351 25.9556 52.6007C25.9556 52.4664 26.009 52.3376 26.104 52.2426C26.199 52.1476 26.3278 52.0942 26.4621 52.0942C26.5965 52.0942 26.7253 52.1476 26.8203 52.2426C26.9153 52.3376 26.9686 52.4664 26.9686 52.6007Z" stroke="#4831D4"/>
<path d="M39.696 52.6007C39.696 52.7351 39.6427 52.8639 39.5477 52.9589C39.4527 53.0539 39.3239 53.1072 39.1895 53.1072C39.0552 53.1072 38.9264 53.0539 38.8314 52.9589C38.7364 52.8639 38.683 52.7351 38.683 52.6007C38.683 52.4664 38.7364 52.3376 38.8314 52.2426C38.9264 52.1476 39.0552 52.0942 39.1895 52.0942C39.3239 52.0942 39.4527 52.1476 39.5477 52.2426C39.6427 52.3376 39.696 52.4664 39.696 52.6007Z" stroke="#4831D4"/>
<path d="M52.4235 52.6008C52.4235 52.7352 52.3701 52.8641 52.2751 52.9591C52.18 53.0542 52.0511 53.1076 51.9167 53.1076C51.7823 53.1076 51.6534 53.0542 51.5583 52.9591C51.4633 52.8641 51.4099 52.7352 51.4099 52.6008C51.4099 52.4663 51.4633 52.3374 51.5583 52.2424C51.6534 52.1473 51.7823 52.0939 51.9167 52.0939C52.0511 52.0939 52.18 52.1473 52.2751 52.2424C52.3701 52.3374 52.4235 52.4663 52.4235 52.6008Z" stroke="#4831D4"/>
<path d="M65.1503 52.6007V52.6269C65.1473 52.6845 65.1345 52.7413 65.1124 52.7947C65.0869 52.8562 65.0496 52.912 65.0025 52.9591C64.9555 53.0062 64.8996 53.0435 64.8381 53.069C64.7766 53.0945 64.7107 53.1076 64.6442 53.1076C64.5776 53.1076 64.5117 53.0945 64.4502 53.069C64.3887 53.0435 64.3328 53.0062 64.2858 52.9591C64.2387 52.912 64.2014 52.8562 64.1759 52.7947C64.1504 52.7332 64.1373 52.6673 64.1373 52.6007C64.1373 52.4664 64.1907 52.3376 64.2857 52.2426C64.3807 52.1476 64.5095 52.0942 64.6438 52.0942C64.7782 52.0942 64.907 52.1476 65.002 52.2426C65.097 52.3376 65.1503 52.4664 65.1503 52.6007Z" stroke="#4831D4"/>
<path d="M77.8785 52.6007C77.8785 52.7351 77.8251 52.8639 77.7301 52.9589C77.6351 53.0539 77.5063 53.1072 77.372 53.1072C77.2376 53.1072 77.1088 53.0539 77.0138 52.9589C76.9188 52.8639 76.8655 52.7351 76.8655 52.6007C76.8655 52.4664 76.9188 52.3376 77.0138 52.2426C77.1088 52.1476 77.2376 52.0942 77.372 52.0942C77.5063 52.0942 77.6351 52.1476 77.7301 52.2426C77.8251 52.3376 77.8785 52.4664 77.8785 52.6007Z" stroke="#4831D4"/>
<path d="M90.6052 52.6007C90.6052 52.7351 90.5519 52.8639 90.4569 52.9589C90.3619 53.0539 90.2331 53.1072 90.0987 53.1072C89.9644 53.1072 89.8356 53.0539 89.7406 52.9589C89.6456 52.8639 89.5923 52.7351 89.5923 52.6007C89.5923 52.4664 89.6456 52.3376 89.7406 52.2426C89.8356 52.1476 89.9644 52.0942 90.0987 52.0942C90.2331 52.0942 90.3619 52.1476 90.4569 52.2426C90.5519 52.3376 90.6052 52.4664 90.6052 52.6007Z" stroke="#4831D4"/>
<path d="M103.333 52.6007C103.333 52.7351 103.28 52.8639 103.185 52.9589C103.09 53.0539 102.961 53.1072 102.827 53.1072C102.693 53.1072 102.564 53.0539 102.469 52.9589C102.374 52.8639 102.32 52.7351 102.32 52.6007C102.32 52.4664 102.374 52.3376 102.469 52.2426C102.564 52.1476 102.693 52.0942 102.827 52.0942C102.961 52.0942 103.09 52.1476 103.185 52.2426C103.28 52.3376 103.333 52.4664 103.333 52.6007Z" stroke="#4831D4"/>
<path d="M116.06 52.6007C116.06 52.7351 116.007 52.8639 115.912 52.9589C115.817 53.0539 115.688 53.1072 115.554 53.1072C115.419 53.1072 115.291 53.0539 115.196 52.9589C115.101 52.8639 115.047 52.7351 115.047 52.6007C115.047 52.4664 115.101 52.3376 115.196 52.2426C115.291 52.1476 115.419 52.0942 115.554 52.0942C115.688 52.0942 115.817 52.1476 115.912 52.2426C116.007 52.3376 116.06 52.4664 116.06 52.6007Z" stroke="#4831D4"/>
<path d="M128.788 52.6007C128.788 52.7351 128.734 52.8639 128.639 52.9589C128.544 53.0539 128.415 53.1072 128.281 53.1072C128.147 53.1072 128.018 53.0539 127.923 52.9589C127.828 52.8639 127.775 52.7351 127.775 52.6007C127.775 52.4664 127.828 52.3376 127.923 52.2426C128.018 52.1476 128.147 52.0942 128.281 52.0942C128.415 52.0942 128.544 52.1476 128.639 52.2426C128.734 52.3376 128.788 52.4664 128.788 52.6007Z" stroke="#4831D4"/>
<path d="M141.515 52.6007C141.515 52.7351 141.462 52.8639 141.367 52.9589C141.272 53.0539 141.143 53.1072 141.009 53.1072C140.874 53.1072 140.745 53.0539 140.65 52.9589C140.555 52.8639 140.502 52.7351 140.502 52.6007C140.502 52.4664 140.555 52.3376 140.65 52.2426C140.745 52.1476 140.874 52.0942 141.009 52.0942C141.143 52.0942 141.272 52.1476 141.367 52.2426C141.462 52.3376 141.515 52.4664 141.515 52.6007Z" stroke="#4831D4"/>
<path d="M1.51433 65.4999C1.51429 65.6344 1.46081 65.7634 1.36567 65.8585C1.27052 65.9535 1.1415 66.0069 1.007 66.0069C0.872489 66.0068 0.743507 65.9534 0.648426 65.8582C0.553346 65.7631 0.499955 65.6341 0.5 65.4995C0.500045 65.365 0.553521 65.2361 0.648665 65.141C0.743808 65.0459 0.872825 64.9925 1.00733 64.9926C1.14185 64.9926 1.27083 65.0461 1.36591 65.1412C1.46099 65.2364 1.51438 65.3654 1.51433 65.4999Z" stroke="#4831D4"/>
<path d="M14.2411 65.4998C14.2411 65.5663 14.228 65.6322 14.2025 65.6936C14.177 65.7551 14.1397 65.8109 14.0927 65.8579C14.0456 65.9049 13.9898 65.9422 13.9283 65.9677C13.8669 65.9931 13.801 66.0062 13.7345 66.0062C13.668 66.0061 13.6021 65.993 13.5407 65.9675C13.4792 65.9421 13.4234 65.9047 13.3764 65.8577C13.3294 65.8106 13.2921 65.7548 13.2666 65.6933C13.2412 65.6319 13.2281 65.566 13.2281 65.4995C13.2282 65.3652 13.2816 65.2363 13.3766 65.1414C13.4716 65.0464 13.6005 64.9931 13.7348 64.9932C13.8691 64.9932 13.998 65.0466 14.0929 65.1416C14.1879 65.2366 14.2412 65.3655 14.2411 65.4998Z" stroke="#4831D4"/>
<path d="M26.9686 65.5C26.9686 65.6343 26.9153 65.7631 26.8203 65.8581C26.7253 65.9531 26.5965 66.0065 26.4621 66.0065C26.3278 66.0065 26.199 65.9531 26.104 65.8581C26.009 65.7631 25.9556 65.6343 25.9556 65.5C25.9556 65.3656 26.009 65.2368 26.104 65.1418C26.199 65.0468 26.3278 64.9935 26.4621 64.9935C26.5965 64.9935 26.7253 65.0468 26.8203 65.1418C26.9153 65.2368 26.9686 65.3656 26.9686 65.5Z" stroke="#4831D4"/>
<path d="M39.696 65.5C39.696 65.6343 39.6427 65.7631 39.5477 65.8581C39.4527 65.9531 39.3239 66.0065 39.1895 66.0065C39.0552 66.0065 38.9264 65.9531 38.8314 65.8581C38.7364 65.7631 38.683 65.6343 38.683 65.5C38.683 65.3656 38.7364 65.2368 38.8314 65.1418C38.9264 65.0468 39.0552 64.9935 39.1895 64.9935C39.3239 64.9935 39.4527 65.0468 39.5477 65.1418C39.6427 65.2368 39.696 65.3656 39.696 65.5Z" stroke="#4831D4"/>
<path d="M52.4235 65.4998C52.4235 65.5664 52.4104 65.6323 52.3849 65.6937C52.3594 65.7552 52.3221 65.8111 52.275 65.8581C52.2279 65.9052 52.172 65.9425 52.1105 65.9679C52.049 65.9934 51.9831 66.0065 51.9165 66.0065C51.85 66.0064 51.7841 65.9933 51.7226 65.9678C51.6611 65.9423 51.6053 65.905 51.5582 65.8579C51.5112 65.8108 51.4738 65.7549 51.4484 65.6934C51.4229 65.6319 51.4099 65.566 51.4099 65.4995C51.4099 65.365 51.4634 65.2361 51.5584 65.1411C51.6535 65.0461 51.7825 64.9928 51.9169 64.9928C52.0513 64.9928 52.1802 65.0463 52.2752 65.1414C52.3702 65.2364 52.4236 65.3654 52.4235 65.4998Z" stroke="#4831D4"/>
<path d="M65.1503 65.526C65.1438 65.6509 65.0913 65.7693 65.0024 65.8582C64.9073 65.9532 64.7784 66.0065 64.644 66.0065C64.5096 66.0064 64.3807 65.953 64.2857 65.8579C64.1906 65.7628 64.1373 65.6339 64.1373 65.4995C64.1374 65.3652 64.1908 65.2363 64.2858 65.1414C64.3808 65.0464 64.5097 64.9931 64.644 64.9932C64.7783 64.9932 64.9071 65.0466 65.0021 65.1416C65.097 65.2366 65.1504 65.3655 65.1503 65.4998L65.1503 65.526Z" stroke="#4831D4"/>
<path d="M77.8785 65.5C77.8785 65.6343 77.8251 65.7631 77.7301 65.8581C77.6351 65.9531 77.5063 66.0065 77.372 66.0065C77.2376 66.0065 77.1088 65.9531 77.0138 65.8581C76.9188 65.7631 76.8655 65.6343 76.8655 65.5C76.8655 65.3656 76.9188 65.2368 77.0138 65.1418C77.1088 65.0468 77.2376 64.9935 77.372 64.9935C77.5063 64.9935 77.6351 65.0468 77.7301 65.1418C77.8251 65.2368 77.8785 65.3656 77.8785 65.5Z" stroke="#4831D4"/>
<path d="M90.6052 65.5C90.6052 65.6343 90.5519 65.7631 90.4569 65.8581C90.3619 65.9531 90.2331 66.0065 90.0987 66.0065C89.9644 66.0065 89.8356 65.9531 89.7406 65.8581C89.6456 65.7631 89.5923 65.6343 89.5923 65.5C89.5923 65.3656 89.6456 65.2368 89.7406 65.1418C89.8356 65.0468 89.9644 64.9935 90.0987 64.9935C90.2331 64.9935 90.3619 65.0468 90.4569 65.1418C90.5519 65.2368 90.6052 65.3656 90.6052 65.5Z" stroke="#4831D4"/>
<path d="M103.333 65.5C103.333 65.6343 103.28 65.7631 103.185 65.8581C103.09 65.9531 102.961 66.0065 102.827 66.0065C102.693 66.0065 102.564 65.9531 102.469 65.8581C102.374 65.7631 102.32 65.6343 102.32 65.5C102.32 65.3656 102.374 65.2368 102.469 65.1418C102.564 65.0468 102.693 64.9935 102.827 64.9935C102.961 64.9935 103.09 65.0468 103.185 65.1418C103.28 65.2368 103.333 65.3656 103.333 65.5Z" stroke="#4831D4"/>
<path d="M116.06 65.4998C116.06 65.5663 116.047 65.6322 116.022 65.6936C115.996 65.7551 115.959 65.8109 115.912 65.8579C115.865 65.9049 115.809 65.9422 115.747 65.9677C115.686 65.9931 115.62 66.0062 115.554 66.0062C115.487 66.0061 115.421 65.993 115.36 65.9675C115.298 65.9421 115.242 65.9047 115.195 65.8577C115.148 65.8106 115.111 65.7548 115.086 65.6933C115.06 65.6319 115.047 65.566 115.047 65.4995C115.047 65.3651 115.101 65.2363 115.196 65.1414C115.291 65.0464 115.42 64.9931 115.554 64.9932C115.688 64.9932 115.817 65.0466 115.912 65.1416C116.007 65.2367 116.06 65.3655 116.06 65.4998Z" stroke="#4831D4"/>
<path d="M128.788 65.5C128.788 65.6343 128.734 65.7631 128.639 65.8581C128.544 65.9531 128.415 66.0065 128.281 66.0065C128.147 66.0065 128.018 65.9531 127.923 65.8581C127.828 65.7631 127.775 65.6343 127.775 65.5C127.775 65.3656 127.828 65.2368 127.923 65.1418C128.018 65.0468 128.147 64.9935 128.281 64.9935C128.415 64.9935 128.544 65.0468 128.639 65.1418C128.734 65.2368 128.788 65.3656 128.788 65.5Z" stroke="#4831D4"/>
<path d="M141.515 65.5C141.515 65.6343 141.462 65.7631 141.367 65.8581C141.272 65.9531 141.143 66.0065 141.009 66.0065C140.874 66.0065 140.745 65.9531 140.65 65.8581C140.555 65.7631 140.502 65.6343 140.502 65.5C140.502 65.3656 140.555 65.2368 140.65 65.1418C140.745 65.0468 140.874 64.9935 141.009 64.9935C141.143 64.9935 141.272 65.0468 141.367 65.1418C141.462 65.2368 141.515 65.3656 141.515 65.5Z" stroke="#4831D4"/>
<path d="M0.5 78.3981V78.3979C0.5 78.2634 0.553432 78.1344 0.648546 78.0393C0.74366 77.9442 0.87266 77.8907 1.00717 77.8907C1.14167 77.8907 1.27067 77.9442 1.36579 78.0393C1.4609 78.1344 1.51433 78.2634 1.51433 78.3979V78.3984C1.51433 78.3985 1.51433 78.3985 1.51433 78.3986C1.51424 78.533 1.46077 78.662 1.36567 78.757C1.27052 78.8521 1.14151 78.9055 1.007 78.9054C0.872489 78.9054 0.743507 78.8519 0.648426 78.7568C0.553346 78.6616 0.499955 78.5326 0.5 78.3981Z" stroke="#4831D4"/>
<path d="M13.2281 78.398V78.3979C13.2281 78.2635 13.2815 78.1347 13.3765 78.0397C13.4715 77.9447 13.6003 77.8914 13.7346 77.8914C13.869 77.8914 13.9978 77.9447 14.0928 78.0397C14.1878 78.1347 14.2411 78.2635 14.2411 78.3979V78.3984C14.2411 78.3984 14.2411 78.3985 14.2411 78.3985C14.2411 78.465 14.228 78.5308 14.2025 78.5922C14.177 78.6536 14.1397 78.7094 14.0927 78.7565C14.0456 78.8035 13.9898 78.8408 13.9283 78.8662C13.8669 78.8916 13.801 78.9047 13.7345 78.9047C13.668 78.9047 13.6021 78.8915 13.5407 78.8661C13.4792 78.8406 13.4234 78.8033 13.3764 78.7562C13.3294 78.7092 13.2921 78.6533 13.2666 78.5919C13.2412 78.5304 13.2281 78.4645 13.2281 78.398Z" stroke="#4831D4"/>
<path d="M26.9686 78.3986C26.9686 78.5329 26.9153 78.6617 26.8203 78.7567C26.7253 78.8517 26.5965 78.9051 26.4621 78.9051C26.3278 78.9051 26.199 78.8517 26.104 78.7567C26.009 78.6617 25.9556 78.5329 25.9556 78.3986C25.9556 78.2643 26.009 78.1354 26.104 78.0404C26.199 77.9455 26.3278 77.8921 26.4621 77.8921C26.5965 77.8921 26.7253 77.9455 26.8203 78.0404C26.9153 78.1354 26.9686 78.2643 26.9686 78.3986Z" stroke="#4831D4"/>
<path d="M39.696 78.3986C39.696 78.5329 39.6427 78.6617 39.5477 78.7567C39.4527 78.8517 39.3239 78.9051 39.1895 78.9051C39.0552 78.9051 38.9264 78.8517 38.8314 78.7567C38.7364 78.6617 38.683 78.5329 38.683 78.3986C38.683 78.2643 38.7364 78.1354 38.8314 78.0404C38.9264 77.9455 39.0552 77.8921 39.1895 77.8921C39.3239 77.8921 39.4527 77.9455 39.5477 78.0404C39.6427 78.1354 39.696 78.2643 39.696 78.3986Z" stroke="#4831D4"/>
<path d="M51.4099 78.398V78.3979C51.4099 78.2635 51.4633 78.1345 51.5583 78.0395C51.6534 77.9444 51.7823 77.8911 51.9167 77.8911C52.0511 77.8911 52.1801 77.9445 52.2751 78.0395C52.3701 78.1345 52.4235 78.2635 52.4235 78.3979V78.3984C52.4235 78.3984 52.4235 78.3985 52.4235 78.3986C52.4235 78.4651 52.4104 78.5309 52.3849 78.5923C52.3594 78.6538 52.3221 78.7097 52.275 78.7567C52.2279 78.8038 52.172 78.8411 52.1105 78.8665C52.049 78.892 51.9831 78.9051 51.9165 78.905C51.85 78.905 51.7841 78.8919 51.7226 78.8664C51.6611 78.8409 51.6053 78.8036 51.5582 78.7565C51.5112 78.7094 51.4739 78.6535 51.4484 78.592C51.4229 78.5305 51.4099 78.4646 51.4099 78.398Z" stroke="#4831D4"/>
<path d="M64.1373 78.398V78.3979C64.1373 78.2635 64.1907 78.1347 64.2857 78.0397C64.3807 77.9447 64.5095 77.8914 64.6438 77.8914C64.7782 77.8914 64.907 77.9447 65.002 78.0397C65.097 78.1347 65.1503 78.2635 65.1503 78.3979V78.4244C65.1473 78.482 65.1345 78.5388 65.1123 78.5923C65.0869 78.6538 65.0495 78.7096 65.0024 78.7567C64.9554 78.8037 64.8995 78.841 64.838 78.8665C64.7765 78.892 64.7105 78.905 64.644 78.905C64.5774 78.905 64.5115 78.8919 64.4501 78.8664C64.3886 78.8409 64.3327 78.8035 64.2857 78.7565C64.2386 78.7094 64.2013 78.6535 64.1758 78.592C64.1504 78.5305 64.1373 78.4646 64.1373 78.398Z" stroke="#4831D4"/>
<path d="M77.8785 78.3986C77.8785 78.5329 77.8251 78.6617 77.7301 78.7567C77.6351 78.8517 77.5063 78.9051 77.372 78.9051C77.2376 78.9051 77.1088 78.8517 77.0138 78.7567C76.9188 78.6617 76.8655 78.5329 76.8655 78.3986C76.8655 78.2643 76.9188 78.1354 77.0138 78.0404C77.1088 77.9455 77.2376 77.8921 77.372 77.8921C77.5063 77.8921 77.6351 77.9455 77.7301 78.0404C77.8251 78.1354 77.8785 78.2643 77.8785 78.3986Z" stroke="#4831D4"/>
<path d="M90.6052 78.3986C90.6052 78.5329 90.5519 78.6617 90.4569 78.7567C90.3619 78.8517 90.2331 78.9051 90.0987 78.9051C89.9644 78.9051 89.8356 78.8517 89.7406 78.7567C89.6456 78.6617 89.5923 78.5329 89.5923 78.3986C89.5923 78.2643 89.6456 78.1354 89.7406 78.0404C89.8356 77.9455 89.9644 77.8921 90.0987 77.8921C90.2331 77.8921 90.3619 77.9455 90.4569 78.0404C90.5519 78.1354 90.6052 78.2643 90.6052 78.3986Z" stroke="#4831D4"/>
<path d="M103.333 78.3986C103.333 78.5329 103.28 78.6618 103.185 78.7567C103.09 78.8517 102.961 78.9051 102.827 78.9051C102.693 78.9051 102.564 78.8517 102.469 78.7567C102.374 78.6617 102.32 78.5329 102.32 78.3986C102.32 78.2643 102.374 78.1354 102.469 78.0404C102.564 77.9455 102.693 77.8921 102.827 77.8921C102.961 77.8921 103.09 77.9455 103.185 78.0404C103.28 78.1354 103.333 78.2642 103.333 78.3986Z" stroke="#4831D4"/>
<path d="M115.047 78.398V78.3979C115.047 78.2635 115.101 78.1347 115.196 78.0397C115.291 77.9447 115.419 77.8914 115.554 77.8914C115.688 77.8914 115.817 77.9447 115.912 78.0397C116.007 78.1347 116.06 78.2635 116.06 78.3979V78.3984C116.06 78.3984 116.06 78.3985 116.06 78.3985C116.06 78.5328 116.007 78.6615 115.912 78.7565C115.817 78.8514 115.688 78.9047 115.554 78.9047C115.419 78.9046 115.29 78.8512 115.195 78.7562C115.1 78.6612 115.047 78.5324 115.047 78.398Z" stroke="#4831D4"/>
<path d="M128.788 78.3986C128.788 78.5329 128.734 78.6618 128.639 78.7567C128.544 78.8517 128.415 78.9051 128.281 78.9051C128.147 78.9051 128.018 78.8517 127.923 78.7567C127.828 78.6617 127.775 78.5329 127.775 78.3986C127.775 78.2643 127.828 78.1354 127.923 78.0404C128.018 77.9455 128.147 77.8921 128.281 77.8921C128.415 77.8921 128.544 77.9455 128.639 78.0404C128.734 78.1354 128.788 78.2642 128.788 78.3986Z" stroke="#4831D4"/>
<path d="M141.515 78.3986C141.515 78.5329 141.462 78.6618 141.367 78.7567C141.272 78.8517 141.143 78.9051 141.009 78.9051C140.874 78.9051 140.745 78.8517 140.65 78.7567C140.555 78.6617 140.502 78.5329 140.502 78.3986C140.502 78.2643 140.555 78.1354 140.65 78.0404C140.745 77.9455 140.874 77.8921 141.009 77.8921C141.143 77.8921 141.272 77.9455 141.367 78.0404C141.462 78.1354 141.515 78.2642 141.515 78.3986Z" stroke="#4831D4"/>
<path d="M1.51433 91.2965C1.51433 91.4308 1.46097 91.5596 1.36598 91.6546C1.27099 91.7496 1.14216 91.803 1.00784 91.803C0.873513 91.803 0.744682 91.7496 0.649692 91.6546C0.554704 91.5596 0.501343 91.4308 0.501343 91.2965C0.501343 91.1621 0.554708 91.0333 0.649692 90.9383C0.744673 90.8433 0.8735 90.79 1.00784 90.79C1.14218 90.79 1.271 90.8433 1.36598 90.9383C1.46097 91.0333 1.51433 91.1621 1.51433 91.2965Z" stroke="#4831D4"/>
<path d="M14.2411 91.2965C14.2411 91.4308 14.1878 91.5596 14.0928 91.6546C13.9978 91.7496 13.869 91.803 13.7346 91.803C13.6003 91.803 13.4715 91.7496 13.3765 91.6546C13.2815 91.5596 13.2281 91.4308 13.2281 91.2965C13.2281 91.1621 13.2815 91.0333 13.3765 90.9383C13.4715 90.8433 13.6003 90.79 13.7346 90.79C13.869 90.79 13.9978 90.8433 14.0928 90.9383C14.1878 91.0333 14.2411 91.1621 14.2411 91.2965Z" stroke="#4831D4"/>
<path d="M26.9688 91.3097C26.9706 91.3773 26.9588 91.4446 26.9342 91.5076C26.9096 91.5705 26.8726 91.628 26.8254 91.6764C26.7783 91.7249 26.7219 91.7634 26.6596 91.7897C26.5973 91.816 26.5304 91.8296 26.4628 91.8296C26.3952 91.8297 26.3282 91.8162 26.2659 91.79C26.2036 91.7637 26.1472 91.7253 26.1 91.6769C26.0527 91.6285 26.0157 91.5711 25.991 91.5082C25.9663 91.4452 25.9544 91.378 25.9561 91.3104C25.9594 91.1784 26.0142 91.0529 26.1087 90.9606C26.2032 90.8684 26.3301 90.8167 26.4621 90.8167C26.5942 90.8166 26.7211 90.8681 26.8157 90.9602C26.9104 91.0523 26.9653 91.1777 26.9688 91.3097Z" stroke="#4831D4"/>
<path d="M39.6962 91.3097C39.698 91.3773 39.6863 91.4446 39.6616 91.5076C39.637 91.5705 39.6 91.628 39.5529 91.6764C39.5057 91.7249 39.4493 91.7634 39.3871 91.7897C39.3248 91.816 39.2579 91.8296 39.1902 91.8296C39.1226 91.8297 39.0557 91.8162 38.9934 91.79C38.9311 91.7637 38.8746 91.7253 38.8274 91.6769C38.7802 91.6285 38.7431 91.5711 38.7184 91.5082C38.6937 91.4452 38.6819 91.378 38.6836 91.3104C38.6869 91.1784 38.7417 91.0529 38.8362 90.9606C38.9307 90.8684 39.0575 90.8167 39.1896 90.8167C39.3216 90.8166 39.4485 90.8681 39.5432 90.9602C39.6378 91.0523 39.6927 91.1777 39.6962 91.3097Z" stroke="#4831D4"/>
<path d="M52.4235 91.2965C52.4235 91.4308 52.3702 91.5596 52.2752 91.6546C52.1802 91.7496 52.0513 91.803 51.917 91.803C51.7827 91.803 51.6539 91.7496 51.5589 91.6546C51.4639 91.5596 51.4105 91.4308 51.4105 91.2965C51.4105 91.1621 51.4639 91.0333 51.5589 90.9383C51.6539 90.8433 51.7827 90.79 51.917 90.79C52.0514 90.79 52.1802 90.8433 52.2752 90.9383C52.3701 91.0333 52.4235 91.1621 52.4235 91.2965Z" stroke="#4831D4"/>
<path d="M65.151 91.2965C65.151 91.4308 65.0976 91.5596 65.0026 91.6546C64.9076 91.7496 64.7788 91.803 64.6445 91.803C64.5102 91.803 64.3813 91.7496 64.2863 91.6546C64.1914 91.5596 64.138 91.4308 64.138 91.2965C64.138 91.1621 64.1914 91.0333 64.2863 90.9383C64.3813 90.8433 64.5102 90.79 64.6445 90.79C64.7788 90.79 64.9077 90.8433 65.0026 90.9383C65.0976 91.0333 65.151 91.1621 65.151 91.2965Z" stroke="#4831D4"/>
<path d="M77.8786 91.3097C77.8804 91.3773 77.8686 91.4446 77.844 91.5076C77.8194 91.5705 77.7824 91.628 77.7353 91.6764C77.6881 91.7249 77.6317 91.7634 77.5694 91.7897C77.5072 91.816 77.4402 91.8296 77.3726 91.8296C77.305 91.8297 77.2381 91.8162 77.1757 91.79C77.1134 91.7637 77.057 91.7253 77.0098 91.6769C76.9626 91.6285 76.9255 91.5711 76.9008 91.5082C76.8761 91.4452 76.8642 91.378 76.8659 91.3104C76.8693 91.1784 76.924 91.0529 77.0185 90.9606C77.1131 90.8684 77.2399 90.8167 77.3719 90.8167C77.504 90.8166 77.6309 90.8681 77.7255 90.9602C77.8202 91.0523 77.8751 91.1777 77.8786 91.3097Z" stroke="#4831D4"/>
<path d="M90.6056 91.315C90.6081 91.383 90.5969 91.4508 90.5726 91.5145C90.5484 91.578 90.5115 91.6361 90.4643 91.6851C90.4171 91.7342 90.3605 91.7732 90.2979 91.7998C90.2352 91.8265 90.1679 91.8403 90.0998 91.8403C90.0317 91.8404 89.9643 91.8267 89.9017 91.8001C89.839 91.7735 89.7823 91.7346 89.7351 91.6856C89.6878 91.6366 89.6509 91.5786 89.6265 91.5151C89.6021 91.4515 89.5908 91.3837 89.5933 91.3157C89.598 91.1846 89.6533 91.0605 89.7477 90.9694C89.842 90.8784 89.968 90.8274 90.0991 90.8273C90.2303 90.8272 90.3563 90.878 90.4508 90.969C90.5452 91.0599 90.6007 91.184 90.6056 91.315Z" stroke="#4831D4"/>
<path d="M103.333 91.2968C103.333 91.3633 103.32 91.4292 103.295 91.4907C103.27 91.5521 103.232 91.608 103.185 91.6551C103.138 91.7021 103.082 91.7395 103.021 91.765C102.96 91.7905 102.894 91.8036 102.827 91.8036C102.761 91.8037 102.695 91.7906 102.633 91.7652C102.572 91.7398 102.516 91.7025 102.469 91.6555C102.422 91.6085 102.385 91.5527 102.359 91.4913C102.334 91.4299 102.32 91.364 102.32 91.2975C102.32 91.1632 102.374 91.0343 102.468 90.9392C102.563 90.8442 102.692 90.7907 102.827 90.7906C102.961 90.7906 103.09 90.8438 103.185 90.9388C103.28 91.0337 103.333 91.1625 103.333 91.2968Z" stroke="#4831D4"/>
<path d="M116.06 91.2965C116.06 91.4308 116.007 91.5596 115.912 91.6546C115.817 91.7496 115.688 91.803 115.554 91.803C115.419 91.803 115.291 91.7496 115.196 91.6546C115.101 91.5596 115.047 91.4308 115.047 91.2965C115.047 91.1621 115.101 91.0333 115.196 90.9383C115.291 90.8433 115.419 90.79 115.554 90.79C115.688 90.79 115.817 90.8433 115.912 90.9383C116.007 91.0333 116.06 91.1621 116.06 91.2965Z" stroke="#4831D4"/>
<path d="M128.788 91.315C128.791 91.383 128.779 91.4509 128.755 91.5145C128.731 91.578 128.694 91.6361 128.647 91.6851C128.6 91.7342 128.543 91.7732 128.48 91.7998C128.418 91.8265 128.35 91.8403 128.282 91.8403C128.214 91.8404 128.147 91.8267 128.084 91.8001C128.021 91.7735 127.965 91.7346 127.917 91.6856C127.87 91.6367 127.833 91.5787 127.809 91.5151C127.785 91.4515 127.773 91.3837 127.776 91.3157C127.78 91.1846 127.836 91.0605 127.93 90.9694C128.024 90.8784 128.15 90.8274 128.282 90.8273C128.413 90.8272 128.539 90.878 128.633 90.969C128.728 91.0599 128.783 91.184 128.788 91.315Z" stroke="#4831D4"/>
<path d="M141.515 91.3097C141.517 91.3773 141.505 91.4446 141.481 91.5076C141.456 91.5705 141.419 91.6279 141.372 91.6764C141.325 91.7249 141.268 91.7634 141.206 91.7897C141.144 91.816 141.077 91.8296 141.009 91.8296C140.942 91.8297 140.875 91.8162 140.812 91.79C140.75 91.7637 140.694 91.7253 140.646 91.6769C140.599 91.6285 140.562 91.5711 140.538 91.5082C140.513 91.4453 140.501 91.378 140.503 91.3104C140.506 91.1784 140.561 91.0529 140.655 90.9606C140.75 90.8684 140.877 90.8167 141.009 90.8167C141.141 90.8166 141.268 90.8681 141.362 90.9602C141.457 91.0523 141.512 91.1777 141.515 91.3097Z" stroke="#4831D4"/>
<path d="M0.5 104.195V104.195C0.5 104.061 0.553434 103.932 0.648546 103.836C0.743651 103.741 0.872647 103.688 1.00717 103.688C1.14168 103.688 1.27068 103.741 1.36579 103.836C1.4609 103.932 1.51433 104.061 1.51433 104.195V104.196C1.51433 104.196 1.51433 104.196 1.51433 104.196C1.51429 104.262 1.50115 104.328 1.47566 104.39C1.45016 104.451 1.41278 104.507 1.36567 104.554C1.31856 104.601 1.26264 104.639 1.20109 104.664C1.13956 104.689 1.07361 104.703 1.007 104.703C0.940383 104.703 0.874438 104.689 0.812926 104.664C0.751413 104.638 0.695513 104.601 0.648426 104.554C0.601342 104.507 0.564005 104.451 0.538541 104.389C0.513074 104.328 0.499978 104.262 0.5 104.195Z" stroke="#4831D4"/>
<path d="M13.2281 104.195V104.195C13.2281 104.061 13.2815 103.932 13.3765 103.837C13.4715 103.742 13.6003 103.689 13.7346 103.689C13.869 103.689 13.9978 103.742 14.0928 103.837C14.1878 103.932 14.2411 104.061 14.2411 104.195V104.196C14.2411 104.196 14.2411 104.196 14.2411 104.196C14.2411 104.262 14.228 104.328 14.2025 104.389C14.177 104.451 14.1397 104.507 14.0927 104.554C14.0456 104.601 13.9898 104.638 13.9283 104.663C13.8668 104.689 13.801 104.702 13.7345 104.702C13.668 104.702 13.6021 104.689 13.5407 104.663C13.4792 104.638 13.4234 104.6 13.3764 104.553C13.3294 104.506 13.2921 104.45 13.2666 104.389C13.2412 104.328 13.2281 104.262 13.2281 104.195Z" stroke="#4831D4"/>
<path d="M26.9686 104.196C26.9686 104.33 26.9153 104.459 26.8203 104.554C26.7253 104.649 26.5964 104.702 26.4621 104.702C26.3278 104.702 26.199 104.649 26.104 104.554C26.009 104.459 25.9556 104.33 25.9556 104.196C25.9556 104.061 26.009 103.933 26.104 103.838C26.199 103.743 26.3278 103.689 26.4621 103.689C26.5965 103.689 26.7253 103.743 26.8203 103.838C26.9153 103.933 26.9686 104.061 26.9686 104.196Z" stroke="#4831D4"/>
<path d="M39.696 104.196C39.696 104.33 39.6427 104.459 39.5477 104.554C39.4527 104.649 39.3239 104.702 39.1895 104.702C39.0552 104.702 38.9264 104.649 38.8314 104.554C38.7364 104.459 38.683 104.33 38.683 104.196C38.683 104.061 38.7364 103.933 38.8314 103.838C38.9264 103.743 39.0552 103.689 39.1895 103.689C39.3239 103.689 39.4527 103.743 39.5477 103.838C39.6427 103.933 39.696 104.061 39.696 104.196Z" stroke="#4831D4"/>
<path d="M51.4099 104.195V104.195C51.4099 104.061 51.4633 103.932 51.5583 103.837C51.6534 103.742 51.7823 103.688 51.9167 103.688C52.0511 103.688 52.18 103.742 52.2751 103.837C52.3701 103.932 52.4235 104.061 52.4235 104.195V104.196C52.4235 104.196 52.4235 104.196 52.4235 104.196C52.4235 104.262 52.4104 104.328 52.3849 104.389C52.3594 104.451 52.3221 104.507 52.275 104.554C52.2279 104.601 52.172 104.638 52.1105 104.664C52.049 104.689 51.9831 104.702 51.9165 104.702C51.85 104.702 51.7841 104.689 51.7226 104.664C51.6611 104.638 51.6053 104.601 51.5582 104.554C51.5112 104.507 51.4739 104.451 51.4484 104.389C51.4229 104.328 51.4099 104.262 51.4099 104.195Z" stroke="#4831D4"/>
<path d="M64.1373 104.195V104.195C64.1373 104.061 64.1907 103.932 64.2857 103.837C64.3807 103.742 64.5095 103.689 64.6438 103.689C64.7781 103.689 64.907 103.742 65.002 103.837C65.097 103.932 65.1503 104.061 65.1503 104.195V104.222C65.1473 104.279 65.1345 104.336 65.1123 104.389C65.0869 104.451 65.0495 104.507 65.0024 104.554C64.9554 104.601 64.8995 104.638 64.838 104.664C64.7765 104.689 64.7105 104.702 64.644 104.702C64.5774 104.702 64.5115 104.689 64.4501 104.664C64.3886 104.638 64.3327 104.601 64.2857 104.554C64.2386 104.507 64.2013 104.451 64.1758 104.389C64.1504 104.328 64.1373 104.262 64.1373 104.195Z" stroke="#4831D4"/>
<path d="M77.8785 104.196C77.8785 104.33 77.8251 104.459 77.7301 104.554C77.6351 104.649 77.5063 104.702 77.372 104.702C77.2376 104.702 77.1088 104.649 77.0138 104.554C76.9188 104.459 76.8655 104.33 76.8655 104.196C76.8655 104.061 76.9188 103.933 77.0138 103.838C77.1088 103.743 77.2376 103.689 77.372 103.689C77.5063 103.689 77.6351 103.743 77.7301 103.838C77.8251 103.933 77.8785 104.061 77.8785 104.196Z" stroke="#4831D4"/>
<path d="M90.6052 104.196C90.6052 104.33 90.5519 104.459 90.4569 104.554C90.3619 104.649 90.2331 104.702 90.0987 104.702C89.9644 104.702 89.8356 104.649 89.7406 104.554C89.6456 104.459 89.5923 104.33 89.5923 104.196C89.5923 104.061 89.6456 103.933 89.7406 103.838C89.8356 103.743 89.9644 103.689 90.0987 103.689C90.2331 103.689 90.3619 103.743 90.4569 103.838C90.5519 103.933 90.6052 104.061 90.6052 104.196Z" stroke="#4831D4"/>
<path d="M103.333 104.196C103.333 104.33 103.28 104.459 103.185 104.554C103.09 104.649 102.961 104.702 102.827 104.702C102.693 104.702 102.564 104.649 102.469 104.554C102.374 104.459 102.32 104.33 102.32 104.196C102.32 104.061 102.374 103.933 102.469 103.838C102.564 103.743 102.693 103.689 102.827 103.689C102.961 103.689 103.09 103.743 103.185 103.838C103.28 103.933 103.333 104.061 103.333 104.196Z" stroke="#4831D4"/>
<path d="M115.047 104.195V104.195C115.047 104.061 115.101 103.932 115.196 103.837C115.291 103.742 115.419 103.689 115.554 103.689C115.688 103.689 115.817 103.742 115.912 103.837C116.007 103.932 116.06 104.061 116.06 104.195V104.196C116.06 104.196 116.06 104.196 116.06 104.196C116.06 104.33 116.007 104.459 115.912 104.554C115.817 104.649 115.688 104.702 115.554 104.702C115.419 104.702 115.29 104.648 115.195 104.553C115.1 104.458 115.047 104.33 115.047 104.195Z" stroke="#4831D4"/>
<path d="M128.788 104.196C128.788 104.33 128.734 104.459 128.639 104.554C128.544 104.649 128.415 104.702 128.281 104.702C128.147 104.702 128.018 104.649 127.923 104.554C127.828 104.459 127.775 104.33 127.775 104.196C127.775 104.061 127.828 103.933 127.923 103.838C128.018 103.743 128.147 103.689 128.281 103.689C128.415 103.689 128.544 103.743 128.639 103.838C128.734 103.933 128.788 104.061 128.788 104.196Z" stroke="#4831D4"/>
<path d="M141.515 104.196C141.515 104.33 141.462 104.459 141.367 104.554C141.272 104.649 141.143 104.702 141.009 104.702C140.874 104.702 140.745 104.649 140.65 104.554C140.555 104.459 140.502 104.33 140.502 104.196C140.502 104.061 140.555 103.933 140.65 103.838C140.745 103.743 140.874 103.689 141.009 103.689C141.143 103.689 141.272 103.743 141.367 103.838C141.462 103.933 141.515 104.061 141.515 104.196Z" stroke="#4831D4"/>
<path d="M1.51433 117.094C1.51433 117.229 1.46097 117.357 1.36598 117.452C1.271 117.547 1.14218 117.601 1.00784 117.601C0.8735 117.601 0.744673 117.547 0.649692 117.452C0.554708 117.357 0.501343 117.229 0.501343 117.094C0.501343 116.96 0.554704 116.831 0.649692 116.736C0.744682 116.641 0.873513 116.588 1.00784 116.588C1.14216 116.588 1.27099 116.641 1.36598 116.736C1.46097 116.831 1.51433 116.96 1.51433 117.094Z" stroke="#4831D4"/>
<path d="M14.2411 117.094C14.2411 117.229 14.1878 117.357 14.0928 117.452C13.9978 117.547 13.869 117.601 13.7346 117.601C13.6003 117.601 13.4715 117.547 13.3765 117.452C13.2815 117.357 13.2281 117.229 13.2281 117.094C13.2281 116.96 13.2815 116.831 13.3765 116.736C13.4715 116.641 13.6003 116.588 13.7346 116.588C13.869 116.588 13.9978 116.641 14.0928 116.736C14.1878 116.831 14.2411 116.96 14.2411 117.094Z" stroke="#4831D4"/>
<path d="M26.9687 117.107C26.9705 117.175 26.9587 117.242 26.9341 117.305C26.9095 117.368 26.8725 117.426 26.8253 117.474C26.7781 117.522 26.7217 117.561 26.6594 117.587C26.5971 117.614 26.5302 117.627 26.4626 117.627C26.395 117.627 26.328 117.614 26.2657 117.587C26.2034 117.561 26.147 117.523 26.0998 117.474C26.0526 117.426 26.0156 117.368 25.9909 117.306C25.9662 117.243 25.9544 117.175 25.9561 117.108C25.9595 116.976 26.0143 116.85 26.1088 116.758C26.2034 116.666 26.3302 116.614 26.4623 116.614C26.5943 116.614 26.7212 116.666 26.8158 116.758C26.9104 116.85 26.9653 116.975 26.9687 117.107Z" stroke="#4831D4"/>
<path d="M39.6962 117.107C39.698 117.175 39.6862 117.242 39.6616 117.305C39.6369 117.368 39.5999 117.426 39.5528 117.474C39.5056 117.522 39.4492 117.561 39.3869 117.587C39.3246 117.614 39.2577 117.627 39.1901 117.627C39.1225 117.627 39.0555 117.614 38.9932 117.587C38.9309 117.561 38.8745 117.523 38.8273 117.474C38.7801 117.426 38.743 117.368 38.7184 117.306C38.6937 117.243 38.6819 117.175 38.6836 117.108C38.6869 116.976 38.7417 116.85 38.8363 116.758C38.9308 116.666 39.0577 116.614 39.1897 116.614C39.3218 116.614 39.4487 116.666 39.5433 116.758C39.6379 116.85 39.6928 116.975 39.6962 117.107Z" stroke="#4831D4"/>
<path d="M52.4235 117.094C52.4235 117.229 52.3701 117.357 52.2752 117.452C52.1802 117.547 52.0514 117.601 51.917 117.601C51.7827 117.601 51.6539 117.547 51.5589 117.452C51.4639 117.357 51.4105 117.229 51.4105 117.094C51.4105 116.96 51.4639 116.831 51.5589 116.736C51.6539 116.641 51.7827 116.588 51.917 116.588C52.0513 116.588 52.1802 116.641 52.2752 116.736C52.3702 116.831 52.4235 116.96 52.4235 117.094Z" stroke="#4831D4"/>
<path d="M65.151 117.094C65.151 117.229 65.0976 117.357 65.0026 117.452C64.9077 117.547 64.7788 117.601 64.6445 117.601C64.5102 117.601 64.3813 117.547 64.2863 117.452C64.1914 117.357 64.138 117.229 64.138 117.094C64.138 116.96 64.1914 116.831 64.2863 116.736C64.3813 116.641 64.5102 116.588 64.6445 116.588C64.7788 116.588 64.9076 116.641 65.0026 116.736C65.0976 116.831 65.151 116.96 65.151 117.094Z" stroke="#4831D4"/>
<path d="M77.8786 117.107C77.8804 117.175 77.8686 117.242 77.8439 117.305C77.8193 117.368 77.7823 117.426 77.7351 117.474C77.688 117.522 77.6316 117.561 77.5693 117.587C77.507 117.614 77.44 117.627 77.3724 117.627C77.3048 117.627 77.2379 117.614 77.1756 117.587C77.1133 117.561 77.0569 117.523 77.0097 117.474C76.9625 117.426 76.9254 117.368 76.9007 117.306C76.8761 117.243 76.8642 117.175 76.8659 117.108C76.8693 116.976 76.9241 116.85 77.0187 116.758C77.1132 116.666 77.24 116.614 77.3721 116.614C77.5042 116.614 77.631 116.666 77.7257 116.758C77.8203 116.85 77.8751 116.975 77.8786 117.107Z" stroke="#4831D4"/>
<path d="M90.6056 117.113C90.6081 117.181 90.5969 117.249 90.5726 117.312C90.5483 117.376 90.5114 117.434 90.4642 117.483C90.417 117.532 90.3603 117.571 90.2977 117.597C90.2351 117.624 90.1677 117.638 90.0996 117.638C90.0316 117.638 89.9642 117.624 89.9015 117.598C89.8389 117.571 89.7822 117.532 89.7349 117.483C89.6877 117.434 89.6508 117.376 89.6264 117.312C89.6021 117.249 89.5908 117.181 89.5933 117.113C89.598 116.982 89.6534 116.858 89.7478 116.767C89.8421 116.676 89.9682 116.625 90.0993 116.625C90.2304 116.625 90.3565 116.676 90.4509 116.767C90.5453 116.858 90.6008 116.982 90.6056 117.113Z" stroke="#4831D4"/>
<path d="M103.333 117.094C103.333 117.161 103.32 117.227 103.295 117.288C103.269 117.35 103.232 117.406 103.185 117.453C103.138 117.5 103.082 117.537 103.021 117.563C102.959 117.588 102.894 117.601 102.827 117.601C102.761 117.601 102.695 117.588 102.633 117.563C102.572 117.537 102.516 117.5 102.469 117.453C102.422 117.406 102.384 117.35 102.359 117.289C102.334 117.227 102.32 117.161 102.32 117.095C102.32 116.96 102.374 116.832 102.469 116.737C102.564 116.642 102.692 116.588 102.827 116.588C102.961 116.588 103.09 116.641 103.185 116.736C103.28 116.831 103.333 116.96 103.333 117.094Z" stroke="#4831D4"/>
<path d="M116.06 117.094C116.06 117.229 116.007 117.357 115.912 117.452C115.817 117.547 115.688 117.601 115.554 117.601C115.419 117.601 115.291 117.547 115.196 117.452C115.101 117.357 115.047 117.229 115.047 117.094C115.047 116.96 115.101 116.831 115.196 116.736C115.291 116.641 115.419 116.588 115.554 116.588C115.688 116.588 115.817 116.641 115.912 116.736C116.007 116.831 116.06 116.96 116.06 117.094Z" stroke="#4831D4"/>
<path d="M128.788 117.113C128.791 117.181 128.779 117.249 128.755 117.312C128.731 117.376 128.694 117.434 128.647 117.483C128.599 117.532 128.543 117.571 128.48 117.597C128.417 117.624 128.35 117.638 128.282 117.638C128.214 117.638 128.147 117.624 128.084 117.598C128.021 117.571 127.965 117.532 127.917 117.483C127.87 117.434 127.833 117.376 127.809 117.312C127.785 117.249 127.773 117.181 127.776 117.113C127.78 116.982 127.836 116.858 127.93 116.767C128.025 116.676 128.151 116.625 128.282 116.625C128.413 116.625 128.539 116.676 128.633 116.767C128.728 116.858 128.783 116.982 128.788 117.113Z" stroke="#4831D4"/>
<path d="M141.515 117.107C141.517 117.175 141.505 117.242 141.481 117.305C141.456 117.368 141.419 117.426 141.372 117.474C141.325 117.522 141.268 117.561 141.206 117.587C141.144 117.614 141.077 117.627 141.009 117.627C140.941 117.627 140.875 117.614 140.812 117.587C140.75 117.561 140.694 117.523 140.646 117.474C140.599 117.426 140.562 117.368 140.537 117.306C140.513 117.243 140.501 117.175 140.503 117.108C140.506 116.976 140.561 116.85 140.655 116.758C140.75 116.666 140.877 116.614 141.009 116.614C141.141 116.614 141.268 116.666 141.362 116.758C141.457 116.85 141.512 116.975 141.515 117.107Z" stroke="#4831D4"/>
<path d="M1.51433 129.993C1.51433 130.127 1.4609 130.256 1.36579 130.351C1.27067 130.447 1.14167 130.5 1.00717 130.5C0.87266 130.5 0.74366 130.447 0.648546 130.351C0.55343 130.256 0.5 130.127 0.5 129.993C0.5 129.858 0.553434 129.729 0.648546 129.634C0.74366 129.539 0.87266 129.486 1.00717 129.486C1.14167 129.486 1.27067 129.539 1.36579 129.634C1.4609 129.729 1.51433 129.858 1.51433 129.993Z" stroke="#4831D4"/>
<path d="M14.2411 129.993C14.2411 130.127 14.1878 130.256 14.0928 130.351C13.9978 130.446 13.869 130.499 13.7346 130.499C13.6003 130.499 13.4715 130.446 13.3765 130.351C13.2815 130.256 13.2281 130.127 13.2281 129.993C13.2281 129.859 13.2815 129.73 13.3765 129.635C13.4715 129.54 13.6003 129.486 13.7346 129.486C13.869 129.486 13.9978 129.54 14.0928 129.635C14.1878 129.73 14.2411 129.859 14.2411 129.993Z" stroke="#4831D4"/>
<path d="M26.9686 129.993C26.9686 130.127 26.9153 130.256 26.8203 130.351C26.7253 130.446 26.5964 130.499 26.4621 130.499C26.3278 130.499 26.199 130.446 26.104 130.351C26.009 130.256 25.9556 130.127 25.9556 129.993C25.9556 129.859 26.009 129.73 26.104 129.635C26.199 129.54 26.3278 129.486 26.4621 129.486C26.5965 129.486 26.7253 129.54 26.8203 129.635C26.9153 129.73 26.9686 129.859 26.9686 129.993Z" stroke="#4831D4"/>
<path d="M39.696 129.993C39.696 130.127 39.6427 130.256 39.5477 130.351C39.4527 130.446 39.3239 130.499 39.1895 130.499C39.0552 130.499 38.9264 130.446 38.8314 130.351C38.7364 130.256 38.683 130.127 38.683 129.993C38.683 129.859 38.7364 129.73 38.8314 129.635C38.9264 129.54 39.0552 129.486 39.1895 129.486C39.3239 129.486 39.4527 129.54 39.5477 129.635C39.6427 129.73 39.696 129.859 39.696 129.993Z" stroke="#4831D4"/>
<path d="M52.4235 129.993C52.4235 130.127 52.3701 130.256 52.2751 130.351C52.1801 130.446 52.0511 130.5 51.9167 130.5C51.7823 130.5 51.6534 130.446 51.5583 130.351C51.4633 130.256 51.4099 130.127 51.4099 129.993C51.4099 129.858 51.4633 129.73 51.5583 129.634C51.6534 129.539 51.7823 129.486 51.9167 129.486C52.0511 129.486 52.1801 129.539 52.2751 129.634C52.3701 129.73 52.4235 129.858 52.4235 129.993Z" stroke="#4831D4"/>
<path d="M65.1503 129.993V130.019C65.1473 130.077 65.1345 130.133 65.1124 130.187C65.0869 130.248 65.0496 130.304 65.0025 130.351C64.9555 130.398 64.8996 130.436 64.8381 130.461C64.7766 130.487 64.7107 130.5 64.6442 130.5C64.5776 130.5 64.5117 130.487 64.4502 130.461C64.3887 130.436 64.3328 130.398 64.2858 130.351C64.2387 130.304 64.2014 130.248 64.1759 130.187C64.1504 130.125 64.1373 130.059 64.1373 129.993C64.1373 129.859 64.1907 129.73 64.2857 129.635C64.3807 129.54 64.5095 129.486 64.6438 129.486C64.7782 129.486 64.907 129.54 65.002 129.635C65.097 129.73 65.1503 129.859 65.1503 129.993Z" stroke="#4831D4"/>
<path d="M77.8785 129.993C77.8785 130.127 77.8251 130.256 77.7301 130.351C77.6351 130.446 77.5063 130.499 77.372 130.499C77.2376 130.499 77.1088 130.446 77.0138 130.351C76.9188 130.256 76.8655 130.127 76.8655 129.993C76.8655 129.859 76.9188 129.73 77.0138 129.635C77.1088 129.54 77.2376 129.486 77.372 129.486C77.5063 129.486 77.6351 129.54 77.7301 129.635C77.8251 129.73 77.8785 129.859 77.8785 129.993Z" stroke="#4831D4"/>
<path d="M90.6052 129.993C90.6052 130.127 90.5519 130.256 90.4569 130.351C90.3619 130.446 90.2331 130.499 90.0987 130.499C89.9644 130.499 89.8356 130.446 89.7406 130.351C89.6456 130.256 89.5923 130.127 89.5923 129.993C89.5923 129.859 89.6456 129.73 89.7406 129.635C89.8356 129.54 89.9644 129.486 90.0987 129.486C90.2331 129.486 90.3619 129.54 90.4569 129.635C90.5519 129.73 90.6052 129.859 90.6052 129.993Z" stroke="#4831D4"/>
<path d="M103.333 129.993C103.333 130.127 103.28 130.256 103.185 130.351C103.09 130.446 102.961 130.499 102.827 130.499C102.693 130.499 102.564 130.446 102.469 130.351C102.374 130.256 102.32 130.127 102.32 129.993C102.32 129.859 102.374 129.73 102.469 129.635C102.564 129.54 102.693 129.486 102.827 129.486C102.961 129.486 103.09 129.54 103.185 129.635C103.28 129.73 103.333 129.859 103.333 129.993Z" stroke="#4831D4"/>
<path d="M116.06 129.993C116.06 130.127 116.007 130.256 115.912 130.351C115.817 130.446 115.688 130.499 115.554 130.499C115.419 130.499 115.291 130.446 115.196 130.351C115.101 130.256 115.047 130.127 115.047 129.993C115.047 129.859 115.101 129.73 115.196 129.635C115.291 129.54 115.419 129.486 115.554 129.486C115.688 129.486 115.817 129.54 115.912 129.635C116.007 129.73 116.06 129.859 116.06 129.993Z" stroke="#4831D4"/>
<path d="M128.788 129.993C128.788 130.127 128.734 130.256 128.639 130.351C128.544 130.446 128.415 130.499 128.281 130.499C128.147 130.499 128.018 130.446 127.923 130.351C127.828 130.256 127.775 130.127 127.775 129.993C127.775 129.859 127.828 129.73 127.923 129.635C128.018 129.54 128.147 129.486 128.281 129.486C128.415 129.486 128.544 129.54 128.639 129.635C128.734 129.73 128.788 129.859 128.788 129.993Z" stroke="#4831D4"/>
<path d="M141.515 129.993C141.515 130.127 141.462 130.256 141.367 130.351C141.272 130.446 141.143 130.499 141.009 130.499C140.874 130.499 140.745 130.446 140.65 130.351C140.555 130.256 140.502 130.127 140.502 129.993C140.502 129.859 140.555 129.73 140.65 129.635C140.745 129.54 140.874 129.486 141.009 129.486C141.143 129.486 141.272 129.54 141.367 129.635C141.462 129.73 141.515 129.859 141.515 129.993Z" stroke="#4831D4"/>
</svg>
