<svg width="110" height="16" viewBox="0 0 110 16" fill="none" xmlns="http://www.w3.org/2000/svg">
<path d="M14.31 7.6555C14.31 9.42052 13.6089 11.1133 12.3608 12.3613C11.1128 13.6094 9.42003 14.3105 7.65501 14.3105C5.89 14.3105 4.19727 13.6094 2.94921 12.3613C1.70115 11.1133 1 9.42052 1 7.6555C1 5.89048 1.70115 4.19775 2.94921 2.9497C4.19727 1.70164 5.89 1.00049 7.65501 1.00049C9.42003 1.00049 11.1128 1.70164 12.3608 2.9497C13.6089 4.19775 14.31 5.89048 14.31 7.6555V7.6555Z" stroke="#4831D4" stroke-width="2" stroke-miterlimit="50"/>
<path d="M37.9825 7.65544C37.9825 9.42046 37.2813 11.1132 36.0333 12.3612C34.7852 13.6093 33.0925 14.3105 31.3275 14.3105C29.5625 14.3105 27.8697 13.6093 26.6217 12.3612C25.3736 11.1132 24.6725 9.42046 24.6725 7.65544C24.6725 5.89042 25.3736 4.19769 26.6217 2.94964C27.8697 1.70158 29.5625 1.00043 31.3275 1.00043C33.0925 1.00043 34.7852 1.70158 36.0333 2.94964C37.2813 4.19769 37.9825 5.89042 37.9825 7.65544V7.65544Z" stroke="#4831D4" stroke-width="2" stroke-miterlimit="50"/>
<path d="M61.6541 7.65544C61.664 8.53564 61.4992 9.40906 61.1692 10.2251C60.8393 11.0412 60.3507 11.7837 59.7317 12.4096C59.1128 13.0355 58.3759 13.5325 57.5636 13.8716C56.7513 14.2107 55.8798 14.3854 54.9995 14.3854C54.1193 14.3854 53.2478 14.2107 52.4355 13.8716C51.6232 13.5325 50.8862 13.0355 50.2673 12.4096C49.6484 11.7837 49.1598 11.0412 48.8298 10.2251C48.4998 9.40906 48.335 8.53564 48.3449 7.65544C48.3449 5.89042 49.0461 4.19769 50.2941 2.94964C51.5422 1.70158 53.2349 1.00043 55 1.00043C56.765 1.00043 58.4577 1.70158 59.7058 2.94964C60.9538 4.19769 61.655 5.89042 61.655 7.65544H61.6541Z" stroke="#4831D4" stroke-width="2" stroke-miterlimit="50"/>
<path d="M85.3275 7.65544C85.3275 9.42046 84.6264 11.1132 83.3783 12.3612C82.1303 13.6093 80.4375 14.3105 78.6725 14.3105C76.9075 14.3105 75.2148 13.6093 73.9667 12.3612C72.7186 11.1132 72.0175 9.42046 72.0175 7.65544C72.0175 5.89042 72.7186 4.19769 73.9667 2.94964C75.2148 1.70158 76.9075 1.00043 78.6725 1.00043C80.4375 1.00043 82.1303 1.70158 83.3783 2.94964C84.6264 4.19769 85.3275 5.89042 85.3275 7.65544V7.65544Z" stroke="#4831D4" stroke-width="2" stroke-miterlimit="50"/>
<path d="M109 7.65544C109 9.42057 108.299 11.1134 107.051 12.3615C105.803 13.6097 104.11 14.3109 102.345 14.3109C100.579 14.3109 98.8866 13.6097 97.6385 12.3615C96.3903 11.1134 95.6891 9.42057 95.6891 7.65544C95.6891 5.8903 96.3903 4.19747 97.6385 2.94933C98.8866 1.7012 100.579 1 102.345 1C104.11 1 105.803 1.7012 107.051 2.94933C108.299 4.19747 109 5.8903 109 7.65544V7.65544Z" stroke="#4831D4" stroke-width="2" stroke-miterlimit="50"/>
</svg>
