<svg width="446" height="98" viewBox="0 0 446 98" fill="none" xmlns="http://www.w3.org/2000/svg">
<path d="M1.875 68.4375H1.35481L1.37539 68.9573C1.71442 77.5178 5.19942 84.3258 11.8234 89.3363C18.4343 94.3368 27.1758 96.8125 38 96.8125C49.4062 96.8125 58.4467 94.1915 65.0627 88.8902L65.063 88.8899C71.7337 83.5364 75.0625 76.2206 75.0625 67C75.0625 59.8959 72.9657 54.2158 68.7268 50.0197C64.5043 45.8399 57.8134 42.8117 48.7287 40.8859L37.854 38.5734L37.75 39.0625L37.854 38.5734C32.5828 37.4528 28.8556 36.0541 26.6095 34.4102C24.4421 32.7938 23.375 30.6911 23.375 28.0625C23.375 24.8113 24.7105 22.2317 27.4159 20.2817C30.1813 18.3184 33.8816 17.3125 38.5625 17.3125C43.0231 17.3125 46.7073 18.3755 49.6474 20.4697C52.5799 22.5586 54.2516 25.3111 54.6915 28.7509L54.7474 29.1875H55.1875H72.9375H73.456L73.4372 28.6694C73.1401 20.4786 69.7146 13.8008 63.1845 8.66983C56.7032 3.54433 48.4409 1 38.4375 1C27.9385 1 19.462 3.60477 13.0585 8.86294C6.64451 14.0879 3.4375 21.0457 3.4375 29.6875C3.4375 36.6687 5.51434 42.3827 9.70026 46.7822C13.8767 51.1716 20.1079 54.2058 28.3345 55.9268C28.3347 55.9268 28.3349 55.9269 28.3351 55.9269L40.0834 58.4266L40.0845 58.4268C45.6071 59.5894 49.4994 61.0509 51.8272 62.7767C54.1236 64.4791 55.25 66.6668 55.25 69.375C55.25 72.6066 53.7862 75.2525 50.7794 77.3379C47.7593 79.3909 43.8453 80.4375 39 80.4375C33.7319 80.4375 29.4576 79.3673 26.1428 77.2652C22.8398 75.1707 21.0196 72.3816 20.6218 68.881L20.5714 68.4375H20.125H1.875ZM111.312 94.5H111.812V94V66.9957L120.211 57.0705L146.027 94.285L146.176 94.5H146.438H169.062H170.019L169.473 93.7146L134.503 43.402L167.135 4.13205L167.816 3.3125H166.75H145.75H145.515L145.365 3.49341L112.203 43.5H111.812V3.8125V3.3125H111.312H92.4375H91.9375V3.8125V94V94.5H92.4375H111.312ZM202.188 94.5H202.688V94V3.8125V3.3125H202.188H183.312H182.812V3.8125V94V94.5H183.312H202.188ZM283.562 77.5625V77.0625H283.062H243.438V3.8125V3.3125H242.938H224.062H223.562V3.8125V94V94.5H224.062H283.062H283.562V94V77.5625ZM359.688 77.5625V77.0625H359.188H319.562V3.8125V3.3125H319.062H300.188H299.688V3.8125V94V94.5H300.188H359.188H359.688V94V77.5625ZM372.25 68.4375H371.73L371.75 68.9573C372.089 77.5178 375.574 84.3258 382.198 89.3363C388.809 94.3368 397.551 96.8125 408.375 96.8125C419.781 96.8125 428.822 94.1915 435.438 88.8902L435.438 88.8899C442.109 83.5364 445.438 76.2206 445.438 67C445.438 59.8959 443.341 54.2158 439.102 50.0197C434.879 45.8399 428.188 42.8117 419.104 40.8859L408.229 38.5734C402.957 37.4527 399.23 36.0538 396.984 34.4097C394.817 32.7933 393.75 30.6908 393.75 28.0625C393.75 24.8113 395.086 22.2317 397.791 20.2817C400.556 18.3184 404.257 17.3125 408.938 17.3125C413.398 17.3125 417.082 18.3755 420.022 20.4697C422.955 22.5586 424.627 25.3111 425.067 28.7509L425.122 29.1875H425.562H443.312H443.831L443.812 28.6694C443.515 20.4789 440.09 13.8012 433.56 8.67032C427.079 3.54449 418.816 1 408.812 1C398.313 1 389.836 3.60498 383.433 8.86359C377.019 14.0885 373.812 21.0461 373.812 29.6875C373.812 36.6687 375.889 42.3827 380.075 46.7822C384.252 51.1716 390.483 54.2058 398.709 55.9268C398.71 55.9268 398.71 55.9269 398.71 55.9269L410.458 58.4266L410.46 58.4268C415.982 59.5894 419.874 61.0509 422.202 62.7767C424.499 64.4791 425.625 66.6668 425.625 69.375C425.625 72.6064 424.161 75.2521 421.155 77.3375C418.135 79.3907 414.221 80.4375 409.375 80.4375C404.107 80.4375 399.833 79.3673 396.518 77.2652C393.215 75.1707 391.395 72.3816 390.997 68.881L390.946 68.4375H390.5H372.25Z" stroke="#474747" stroke-opacity="0.1"/>
</svg>
