<svg width="100" height="100" viewBox="0 0 252 222" fill="none" xmlns="http://www.w3.org/2000/svg">
<g clip-path="url(#clip0_266_285)">
<path d="M82.6069 84.8055C78.1991 85.5791 73.1077 87.6084 67.9862 89.5262C63.4412 91.2298 58.9198 92.9998 54.1798 94.1034C52.1012 94.5855 49.9991 94.8384 47.8905 94.2876C44.3805 93.3705 43.2855 90.4348 45.3855 87.5119C47.1705 85.0262 49.6691 83.3355 52.1869 81.7048C58.4377 77.6548 65.1255 74.3784 71.6077 70.7355C75.5269 68.5326 79.4355 66.3169 82.8619 63.3576C84.2591 62.1512 85.2941 60.6919 86.0848 59.0376C87.8055 55.4355 87.0448 52.2491 83.8134 49.8876C80.7019 47.6141 77.0741 46.5341 73.3969 45.6512C68.9269 44.5798 64.4291 43.6326 59.9484 42.6062C59.1984 42.4348 58.4527 42.1884 57.7477 41.8776C55.6562 40.9519 55.5491 39.9212 57.4391 38.5734C59.5969 37.0369 62.0377 36.2934 64.6755 36.1026C70.2727 35.6976 75.6684 36.9319 81.0705 38.0976C85.4612 39.0448 89.8198 40.1698 94.3112 40.5641C95.6977 40.6862 97.0948 40.7334 98.4855 40.7119C101.336 40.6669 103.485 39.3041 105.158 37.0562C108.261 32.8905 110.006 28.0691 111.818 23.2841C113.721 18.2591 115.356 13.1291 117.628 8.24765C118.611 6.13694 119.661 4.05408 121.343 2.38265C122.704 1.03051 124.2 0.205509 126.212 0.899795C128.278 1.61122 128.822 3.25051 128.933 5.15979C129.092 7.88979 128.4 10.4934 127.616 13.0669C125.276 20.7405 122.042 28.0819 119.241 35.5841C115.804 44.7919 112.528 54.0512 111.506 63.9126C110.893 69.8376 111.353 75.7819 111.396 81.7176C111.456 89.9784 111.778 98.2476 110.524 106.457C110.134 109.013 109.573 111.535 108.311 113.841C106.757 116.678 104.663 117.855 101.76 117.51C98.7427 117.152 96.8719 115.48 96.0105 112.44C94.9434 108.677 95.4469 104.846 95.4898 101.038C95.5198 98.4555 95.6055 95.8776 95.2262 93.3041C94.1869 86.2605 90.6577 83.6162 82.6069 84.8055Z" fill="#B41E89"/>
<path d="M80.8866 22.9695C80.0273 24.4588 79.708 25.8152 79.4637 27.1781C79.318 27.9945 79.0737 28.2988 78.1544 28.1616C73.0052 27.3966 67.843 26.7045 62.7516 25.9952C62.4923 25.6073 62.7366 25.4231 62.8844 25.2409C68.5309 18.3795 74.7151 12.0966 82.3716 7.44663C85.2173 5.71734 88.2644 4.45734 91.6244 4.09734C95.3701 3.69448 98.6444 4.75091 101.16 7.5452C105.555 12.4245 108.011 18.0431 106.577 24.7352C105.472 29.8931 102.602 33.7202 97.2559 35.0873C92.6144 36.2723 88.7037 34.6502 85.3844 31.4316C83.0637 29.1795 81.6923 26.3638 80.8866 22.9695Z" fill="#B41E89"/>
<path d="M169.397 84.861C175.228 86.1231 180.688 88.4674 186.219 90.6124C190.841 92.4038 195.426 94.311 200.396 94.9645C201.844 95.1553 203.282 95.151 204.684 94.6774C207.491 93.7303 208.511 90.9595 206.936 88.4631C205.264 85.8167 202.766 84.0403 200.237 82.3281C193.941 78.0617 187.131 74.6674 180.589 70.8188C176.271 68.2795 171.825 65.8924 168.407 62.121C164.216 57.4988 164.777 52.3045 169.796 48.6295C174.422 45.2417 179.835 43.5831 185.181 41.8024C189.396 40.3988 193.74 39.3681 197.764 37.4245C199.056 36.801 200.606 36.2395 200.661 34.521C200.713 32.9245 199.299 32.1638 198.18 31.386C195.476 29.5088 192.407 29.346 189.257 29.721C183.594 30.3938 178.38 32.5538 173.139 34.6195C168.379 36.4967 163.691 38.5688 158.698 39.786C157.037 40.191 155.359 40.4374 153.636 40.3217C151.189 40.1588 149.368 38.9781 147.915 37.056C144.872 33.0274 143.196 28.3495 141.495 23.6845C139.637 18.5845 138.077 13.3753 135.898 8.39525C134.839 5.97811 133.736 3.57597 131.822 1.66883C130.389 0.241685 128.754 -0.463317 126.774 0.393826C124.918 1.1974 124.367 2.79382 124.318 4.67954C124.211 8.74454 125.466 12.5331 126.735 16.3003C130.069 26.196 134.085 35.8474 137.218 45.8181C140.368 55.8445 141.514 66.036 140.957 76.5424C140.441 86.2731 139.956 96.0403 141.199 105.771C141.529 108.345 142.065 110.88 143.231 113.22C145.187 117.147 148.791 118.38 152.544 116.449C154.498 115.444 155.409 113.676 155.876 111.647C156.791 107.667 156.369 103.624 156.366 99.606C156.364 97.0174 156.435 94.446 156.969 91.8981C158.132 86.3524 161.822 83.7145 167.413 84.4967C168.079 84.5931 168.737 84.7388 169.397 84.861Z" fill="#B41E89"/>
<path d="M176.438 27.4116C175.444 25.2302 174.606 23.3509 173.728 21.4909C173.276 20.533 172.997 19.918 174.587 20.0637C176.52 20.2394 178.476 20.1387 180.816 20.1602C178.208 17.2737 175.811 14.623 173.276 11.8159C175.725 11.3102 178.018 10.8387 180.602 10.3052C178.408 8.8523 176.258 7.89016 174.098 6.96659C169.939 5.19016 165.651 3.95373 161.083 3.79516C154.118 3.55516 148.62 8.71516 146.303 14.6573C144.053 20.4259 144.521 26.0487 148.592 30.9966C152.691 35.9809 160.151 36.6109 165.158 32.5523C167.507 30.6494 169.29 28.3352 170.336 25.5259C170.749 24.4159 171.124 24.4587 171.973 24.9623C173.331 25.7744 174.748 26.4923 176.438 27.4116Z" fill="#B41E89"/>
<path d="M250.294 148.352L250.196 148.348L145.172 138.27C140.038 137.777 135.199 140.209 132.081 144.317C132.077 144.323 132.071 144.33 132.066 144.334C130.748 145.748 128.955 146.706 126.913 146.897C124.433 147.131 122.149 146.261 120.495 144.722C120.476 144.703 120.452 144.677 120.428 144.643C117.486 140.378 112.748 137.721 107.593 138.216L1.80414 148.348C0.856992 148.352 0.166992 149.042 0.166992 149.888C0.166992 150.735 0.856992 151.425 1.70342 151.425L107.794 140.822C111.471 140.453 114.947 142.273 116.981 145.361C117.032 145.44 117.083 145.513 117.135 145.577C119.237 148.292 122.528 150.008 126.116 150.008C129.842 150.008 133.245 148.159 135.332 145.262L135.36 145.223C137.528 142.157 141.178 140.494 144.915 140.869L250.399 151.429C251.252 151.423 252.036 150.514 251.786 149.503C251.618 148.834 250.984 148.38 250.294 148.352Z" fill="#B41E89"/>
<path d="M127.029 132.926C136.5 131.968 229.509 128.325 232.363 128.083C229.824 121.472 216.045 115.164 216.045 115.164L212.698 113.522C212.7 113.525 127.033 132.017 127.029 132.926Z" fill="url(#paint0_linear_266_285)"/>
<path d="M37.485 113.57C36.6407 113.364 34.8835 113.91 34.8835 113.91C34.8835 113.91 23.4835 119.413 20.3828 125.724C31.9885 126.789 117.448 131.593 127.029 132.892C127.031 131.94 52.1485 117.129 37.485 113.57Z" fill="url(#paint1_linear_266_285)"/>
<path d="M55.4249 108.212C50.5627 106.869 45.5806 103.395 42.3085 107.089C41.1513 108.396 40.2385 108.497 41.7427 109.472C44.4813 111.244 117.769 127.635 127.028 131.989C126.988 131.16 99.407 120.373 55.4249 108.212Z" fill="#B41E89"/>
<path d="M207.218 106.572C205.89 104.457 201.208 107.26 198.761 108.04C164.072 119.085 126.981 131.151 127.028 131.989C134.779 129.023 194.188 113.522 205.866 111.006C209.921 110.134 209.438 110.104 207.218 106.572Z" fill="#B41E89"/>
<path d="M18.0257 129.382C15.5142 129.403 4.03923 145.07 6.97709 144.793C48.0728 140.919 87.3042 134.192 127.029 134.186C127.086 133.603 30.4135 129.277 18.0257 129.382Z" fill="url(#paint2_linear_266_285)"/>
<path d="M235.652 129.334C231.834 129.287 127.076 133.695 127.026 134.186C166.429 134.179 204.369 139.106 245.994 144.724C250.063 145.273 236.816 129.347 235.652 129.334Z" fill="url(#paint3_linear_266_285)"/>
<path d="M16.8792 197.775L14.1942 197.794C12.3107 197.822 10.935 197.861 10.0671 197.914C9.29138 197.983 8.73638 198.015 8.4021 198.015C7.58781 198.015 6.94067 197.807 6.45853 197.394C5.98924 196.98 5.75781 196.485 5.75781 195.911C5.75781 195.538 5.84567 195.242 6.0171 195.028C6.19067 194.816 6.61067 194.479 7.28138 194.027C7.66924 193.759 7.93496 193.342 8.08281 192.774C8.23067 192.204 8.38924 190.987 8.56281 189.114C8.81567 186.202 8.94424 182.614 8.94424 178.352C8.94424 176.788 8.83924 175.751 8.63353 175.234C8.42567 174.72 7.94138 174.296 7.18067 173.962C6.29781 173.589 5.85853 173.038 5.85853 172.318C5.85853 171.729 6.1221 171.249 6.64924 170.874C7.17853 170.501 7.85567 170.314 8.68495 170.314C9.13924 170.314 9.71995 170.334 10.4292 170.374C11.6035 170.426 12.8742 170.454 14.2371 170.454C15.24 170.454 17.2114 170.413 20.1492 170.334C21.0707 170.306 21.9042 170.293 22.6542 170.293C24.4307 170.293 25.8642 170.437 26.955 170.724C28.0435 171.011 28.9907 171.495 29.7921 172.177C31.1014 173.287 31.755 174.769 31.755 176.627C31.755 177.549 31.5621 178.447 31.1742 179.323C30.7864 180.197 30.2657 180.896 29.61 181.419C29.1428 181.792 28.9092 182.132 28.9092 182.441C28.9092 182.773 29.19 183.054 29.7514 183.283C30.8464 183.722 31.8428 184.464 32.7364 185.507C33.66 186.589 34.1207 187.944 34.1207 189.574C34.1207 191.499 33.4178 193.256 32.0164 194.846C30.1585 196.944 27.4135 197.994 23.7792 197.994C23.2842 197.994 22.0671 197.959 20.1321 197.893C18.3642 197.827 17.2821 197.788 16.8792 197.775ZM18.2635 176.027V180.157C18.2635 180.81 18.3471 181.271 18.5142 181.539C18.6814 181.807 18.9728 181.939 19.3864 181.939C20.3742 181.939 21.1007 181.635 21.57 181.027C22.0392 180.418 22.2707 179.467 22.2707 178.17C22.2707 176.914 22.0307 175.942 21.5507 175.254C21.0685 174.566 20.3871 174.221 19.5064 174.221C19.0371 174.221 18.7135 174.352 18.5335 174.611C18.3514 174.877 18.2635 175.346 18.2635 176.027ZM18.2635 187.571V189.476C18.2635 191.227 18.39 192.388 18.645 192.962C18.8978 193.537 19.4121 193.824 20.1878 193.824C22.2192 193.824 23.2328 192.634 23.2328 190.256C23.2328 187.29 22.0992 185.807 19.8257 185.807C19.2385 185.807 18.8314 185.936 18.6042 186.189C18.375 186.444 18.2635 186.904 18.2635 187.571Z" fill="#B41E89"/>
<path d="M44.7773 177.951C45.4866 177.951 45.9173 178.052 46.0716 178.251C46.2237 178.453 46.363 179.093 46.483 180.175C46.5516 180.765 46.7573 181.058 47.1045 181.058C47.3723 181.058 47.6252 180.865 47.8673 180.475C48.9366 178.806 50.3316 177.97 52.0545 177.97C53.2695 177.97 54.268 178.365 55.0416 179.153C55.4145 179.541 55.723 180.038 55.963 180.647C56.203 181.255 56.323 181.84 56.323 182.402C56.323 183.032 56.1752 183.675 55.8837 184.337C55.5902 184.999 55.2087 185.543 54.7416 185.972C53.8866 186.786 52.8366 187.193 51.5937 187.193C50.9123 187.193 50.3402 187.073 49.8795 186.833C49.4187 186.593 48.8145 186.105 48.0645 185.37C47.7837 185.089 47.5245 184.95 47.2823 184.95C46.9095 184.95 46.6652 185.16 46.5516 185.582C46.438 186.002 46.3802 186.889 46.3802 188.239C46.3802 190.255 46.4509 191.633 46.5987 192.366C46.693 192.767 46.8237 193.045 46.9887 193.198C47.158 193.35 47.5137 193.508 48.0623 193.669C49.2645 194.031 49.8666 194.659 49.8666 195.555C49.8666 196.103 49.6737 196.579 49.2859 196.988C48.8959 197.395 48.3837 197.665 47.743 197.8C46.4595 198.068 44.5759 198.201 42.0902 198.201C39.7245 198.201 37.9287 197.993 36.6987 197.58C35.6037 197.207 35.0552 196.558 35.0552 195.636C35.0552 194.942 35.4559 194.32 36.2573 193.772C36.6473 193.519 36.913 193.288 37.0609 193.08C37.2066 192.872 37.3073 192.589 37.3609 192.227C37.573 191.012 37.6823 188.76 37.6823 185.473C37.6823 184.873 37.6137 184.44 37.4809 184.178C37.348 183.919 37.0802 183.707 36.6795 183.546C35.7302 183.173 35.2566 182.633 35.2566 181.924C35.2566 181.281 35.5845 180.73 36.238 180.27C36.8916 179.807 37.9887 179.35 39.5252 178.896C41.5866 178.279 43.3352 177.964 44.7773 177.951Z" fill="#B41E89"/>
<path d="M68.79 179.214V190.858C68.79 191.779 68.8735 192.454 69.0407 192.883C69.2078 193.312 69.5464 193.704 70.0543 194.064C70.4678 194.357 70.7464 194.61 70.8857 194.816C71.025 195.024 71.0957 195.287 71.0957 195.609C71.0957 197.332 68.9121 198.193 64.5428 198.193C62.19 198.193 60.3257 198.004 58.9521 197.632C58.4828 197.499 58.1057 197.263 57.8185 196.931C57.5293 196.597 57.3878 196.217 57.3878 195.789C57.3878 195.427 57.4607 195.146 57.6085 194.947C57.7564 194.745 58.1293 194.426 58.7314 193.984C59.145 193.676 59.4385 193.174 59.6121 192.482C59.7857 191.788 59.8735 190.751 59.8735 189.375C59.8735 188.934 59.8435 188.109 59.7835 186.898C59.7235 185.689 59.6807 184.984 59.6528 184.783C59.5735 184.234 59.1985 183.814 58.53 183.521C57.7007 183.161 57.2871 182.627 57.2871 181.918C57.2871 181.076 57.8293 180.448 58.9114 180.034C60.4071 179.46 62.01 178.972 63.7221 178.571C65.4321 178.17 66.7543 177.969 67.6885 177.969C68.4214 177.971 68.79 178.384 68.79 179.214ZM64.8214 170.437C65.9828 170.437 66.9064 170.653 67.5878 171.088C68.2693 171.521 68.61 172.106 68.61 172.843C68.61 173.872 68.0957 174.686 67.065 175.288C65.4343 176.237 63.465 176.711 61.1528 176.711C60.1778 176.711 59.4021 176.522 58.8278 176.149C58.0543 175.669 57.6664 175.001 57.6664 174.146C57.6664 172.995 58.4871 172.093 60.1307 171.439C61.8 170.769 63.3643 170.437 64.8214 170.437Z" fill="#B41E89"/>
<path d="M93.5809 176.749C93.9151 176.749 94.2109 176.94 94.4637 177.321C94.7166 177.7 94.843 178.146 94.843 178.654C94.843 179.203 94.6716 179.824 94.333 180.518C93.9923 181.213 93.5809 181.768 93.1009 182.181C92.7923 182.449 92.6401 182.663 92.6401 182.824C92.6401 182.863 92.6509 183.023 92.6787 183.304C92.7194 183.585 92.7387 183.838 92.7387 184.065C92.7387 185.657 92.2051 186.992 91.1359 188.074C90.1737 189.036 88.9351 189.784 87.418 190.318C85.9009 190.853 84.2337 191.121 82.4166 191.121C81.9751 191.121 81.5401 191.093 81.1137 191.04C80.7644 190.999 80.4987 190.98 80.3123 190.98C79.603 190.98 79.2494 191.333 79.2494 192.043C79.2494 192.497 79.4809 192.855 79.9416 193.116C80.4023 193.375 81.028 193.506 81.8166 193.506C82.348 193.506 83.1366 193.433 84.1801 193.285C86.3723 192.977 87.988 192.825 89.0294 192.825C90.6066 192.825 91.828 193.084 92.698 193.605C93.3923 194.005 93.943 194.567 94.3523 195.289C94.7594 196.011 94.963 196.785 94.963 197.614C94.963 198.964 94.468 200.271 93.4801 201.542C92.3037 203.038 90.5723 204.148 88.288 204.868C86.4966 205.429 84.4287 205.71 82.0759 205.71C79.108 205.71 76.7037 205.258 74.8609 204.347C74.0059 203.918 73.3244 203.357 72.8166 202.665C72.3066 201.97 72.0537 201.248 72.0537 200.5C72.0537 199.978 72.1973 199.498 72.4844 199.056C72.7716 198.615 73.1359 198.302 73.5773 198.115C73.978 197.955 74.1794 197.781 74.1794 197.593C74.1794 197.447 74.0101 197.233 73.678 196.952C72.6087 196.058 72.0751 195.128 72.0751 194.166C72.0751 193.525 72.3301 192.863 72.8466 192.182C73.3609 191.5 73.9994 190.973 74.7623 190.598C75.0837 190.44 75.2423 190.279 75.2423 190.118C75.2423 189.93 75.043 189.649 74.6423 189.276C73.2666 188.008 72.5766 186.523 72.5766 184.828C72.5766 183.934 72.8209 183.077 73.3094 182.263C73.798 181.448 74.4751 180.752 75.3451 180.178C77.4966 178.774 79.8816 178.073 82.5023 178.073C83.5437 178.073 84.7051 178.206 85.9887 178.474C87.2037 178.714 88.0394 178.834 88.4937 178.834C89.9487 178.834 91.3994 178.262 92.8416 177.111C93.1609 176.869 93.4094 176.749 93.5809 176.749ZM78.3301 199.138C77.9959 199.138 77.8287 199.33 77.8287 199.718C77.8287 200.507 78.2573 201.145 79.1101 201.634C79.9651 202.12 81.0751 202.365 82.438 202.365C83.7494 202.365 84.7737 202.193 85.5151 201.844C86.2566 201.497 86.6273 201.01 86.6273 200.38C86.6273 200.048 86.4859 199.763 86.2073 199.53C85.9266 199.296 85.5773 199.178 85.1637 199.178C84.9516 199.178 84.643 199.206 84.2423 199.26C83.4923 199.38 82.6587 199.44 81.7373 199.44C81.0559 199.44 80.4001 199.408 79.7723 199.339C79.303 199.298 78.9237 199.247 78.6301 199.178C78.4973 199.148 78.3966 199.138 78.3301 199.138ZM82.6994 180.898C82.0309 180.898 81.493 181.15 81.0859 181.658C80.6787 182.166 80.4751 182.841 80.4751 183.683C80.4751 185.125 80.6959 186.28 81.1373 187.15C81.5787 188.018 82.1616 188.453 82.8816 188.453C83.5909 188.453 84.1523 188.183 84.5659 187.641C84.9773 187.101 85.1873 186.377 85.1873 185.466C85.1873 184.037 84.9687 182.925 84.5359 182.128C84.0987 181.335 83.488 180.925 82.6994 180.898Z" fill="#B41E89"/>
<path d="M107.151 171.418L106.892 179.816C106.864 180.816 107.173 181.318 107.813 181.318C108.135 181.318 108.448 181.097 108.756 180.656C110.051 178.772 111.782 177.831 113.946 177.831C116.07 177.831 117.761 178.481 119.016 179.775C119.578 180.349 119.974 181.031 120.21 181.819C120.443 182.608 120.574 183.735 120.6 185.207L120.78 192.441C120.793 193.069 120.876 193.53 121.031 193.824C121.183 194.117 121.543 194.486 122.104 194.927C122.492 195.234 122.685 195.6 122.685 196.029C122.685 197.471 120.508 198.193 116.151 198.193C112.275 198.193 110.34 197.52 110.34 196.168C110.34 195.941 110.372 195.767 110.438 195.647C110.507 195.527 110.741 195.208 111.141 194.685C111.703 193.952 111.981 192.114 111.981 189.174C111.981 187.399 111.814 186.101 111.482 185.286C111.041 184.176 110.252 183.624 109.116 183.624C108.302 183.624 107.7 183.917 107.312 184.504C107.031 184.933 106.892 185.734 106.892 186.911V190.779C106.984 192.489 107.066 193.455 107.132 193.684C107.201 193.911 107.505 194.334 108.053 194.946C108.306 195.227 108.435 195.555 108.435 195.928C108.435 197.439 106.47 198.193 102.542 198.193C97.9456 198.193 95.6484 197.411 95.6484 195.849C95.6484 195.486 95.7213 195.21 95.8692 195.017C96.017 194.824 96.377 194.526 96.9513 194.126C97.4592 193.766 97.8084 192.793 98.0034 191.209C98.1984 189.626 98.2949 187.005 98.2949 183.343C98.2949 180.469 98.2134 178.481 98.0527 177.371C98.0013 176.957 97.9027 176.653 97.7613 176.458C97.622 176.265 97.3563 176.068 96.9684 175.866C96.1392 175.438 95.7256 174.945 95.7256 174.384C95.7256 173.715 96.0406 173.175 96.6684 172.761C97.2963 172.348 98.5006 171.898 100.277 171.418C102.681 170.749 104.597 170.415 106.028 170.415C106.804 170.415 107.177 170.749 107.151 171.418Z" fill="#B41E89"/>
<path d="M135.772 183.081V189.855C135.772 190.656 135.969 191.312 136.363 191.82C136.757 192.328 137.261 192.58 137.878 192.58C138.399 192.58 139.087 192.34 139.942 191.86C140.143 191.738 140.342 191.678 140.544 191.678C140.863 191.678 141.157 191.873 141.425 192.261C141.692 192.649 141.825 193.069 141.825 193.523C141.825 194.353 141.373 195.145 140.462 195.908C138.566 197.524 136.267 198.334 133.569 198.334C131.432 198.334 129.714 197.728 128.417 196.519C127.123 195.308 126.474 193.716 126.474 191.736V182.479C126.474 182.17 126.437 181.982 126.365 181.907C126.292 181.832 126.101 181.798 125.792 181.798H123.729C123.341 181.798 123.095 181.733 122.987 181.607C122.88 181.48 122.827 181.183 122.827 180.715V179.833C122.84 179.432 122.994 179.138 123.287 178.95L132.467 173.179C132.695 173.059 132.975 172.999 133.31 172.999H134.932C135.266 172.999 135.489 173.076 135.602 173.23C135.714 173.383 135.774 173.687 135.774 174.143V176.848C135.774 177.25 135.838 177.51 135.965 177.63C136.093 177.75 136.363 177.81 136.777 177.81H140.484C140.977 177.81 141.298 177.9 141.446 178.08C141.594 178.26 141.667 178.645 141.667 179.233V180.415C141.667 181.058 141.572 181.502 141.386 181.748C141.197 181.995 140.857 182.119 140.364 182.119H136.736C136.363 182.119 136.106 182.188 135.973 182.32C135.838 182.455 135.772 182.708 135.772 183.081Z" fill="#B41E89"/>
<path d="M176.338 175.908L174.193 177.971C173.404 178.721 173.01 179.403 173.01 180.015C173.01 180.35 173.1 180.684 173.28 181.018C173.46 181.35 173.796 181.807 174.294 182.381L181.789 191.06C182.458 191.833 182.919 192.326 183.171 192.532C183.424 192.742 183.806 192.958 184.314 193.183C185.036 193.492 185.546 193.832 185.848 194.205C186.15 194.578 186.3 195.067 186.3 195.669C186.3 197.083 185.291 197.793 183.274 197.793H175.678C175.157 197.793 174.746 197.679 174.444 197.452C174.144 197.225 173.666 196.663 173.01 195.768C171.969 194.338 170.593 192.695 168.883 190.839C168.133 190.038 167.61 189.512 167.308 189.266C167.008 189.017 166.729 188.895 166.476 188.895C165.703 188.895 165.315 189.626 165.315 191.081C165.315 192.27 165.568 193.093 166.076 193.545C166.168 193.614 166.384 193.76 166.719 193.987C167.439 194.456 167.801 195.037 167.801 195.731C167.801 196.612 167.211 197.244 166.037 197.625C164.861 198.007 162.883 198.197 160.104 198.197C157.631 198.197 155.826 198.05 154.693 197.756C154.211 197.623 153.821 197.379 153.521 197.023C153.221 196.672 153.071 196.271 153.071 195.83C153.071 195.122 153.471 194.516 154.275 194.006C154.635 193.766 154.892 193.502 155.046 193.213C155.199 192.926 155.344 192.442 155.477 191.76C155.745 190.25 155.878 187.925 155.878 184.785C155.878 181.046 155.736 178.393 155.456 176.829C155.349 176.188 155.203 175.728 155.016 175.447C154.828 175.166 154.502 174.892 154.033 174.624C153.285 174.197 152.912 173.602 152.912 172.841C152.912 172.2 153.144 171.686 153.613 171.298C154.08 170.91 154.828 170.617 155.856 170.415C157.219 170.148 158.931 170.015 160.989 170.015C163.084 170.015 164.642 170.216 165.658 170.617C166.566 170.99 167.021 171.658 167.021 172.62C167.021 173.021 166.95 173.332 166.811 173.552C166.671 173.773 166.305 174.118 165.718 174.585C165.504 174.772 165.306 175.22 165.126 175.927C164.946 176.636 164.856 177.33 164.856 178.012C164.856 179.135 165.109 179.696 165.617 179.696C165.926 179.696 166.221 179.563 166.509 179.293C166.796 179.028 167.374 178.359 168.242 177.29C169.245 176.047 169.746 175.198 169.746 174.744C169.746 174.504 169.618 174.144 169.365 173.662C169.191 173.33 169.104 173.021 169.104 172.74C169.104 171.75 169.637 171.054 170.709 170.645C171.778 170.238 173.601 170.034 176.179 170.034C178.236 170.034 179.76 170.167 180.748 170.435C181.963 170.767 182.571 171.476 182.571 172.558C182.571 172.987 182.445 173.383 182.192 173.752C181.939 174.12 181.622 174.356 181.249 174.463C180.969 174.555 180.319 174.611 179.306 174.622C178.596 174.635 178.067 174.718 177.711 174.873C177.356 175.029 176.899 175.374 176.338 175.908Z" fill="#B41E89"/>
<path d="M198.223 179.214V190.858C198.223 191.779 198.309 192.454 198.474 192.883C198.641 193.312 198.977 193.704 199.485 194.064C199.899 194.357 200.177 194.61 200.317 194.816C200.458 195.024 200.527 195.287 200.527 195.609C200.527 197.332 198.343 198.193 193.974 198.193C191.621 198.193 189.757 198.004 188.381 197.632C187.914 197.499 187.537 197.263 187.247 196.931C186.96 196.597 186.817 196.217 186.817 195.789C186.817 195.427 186.889 195.146 187.037 194.947C187.185 194.745 187.558 194.426 188.158 193.984C188.572 193.676 188.867 193.174 189.041 192.482C189.214 191.788 189.302 190.751 189.302 189.375C189.302 188.934 189.272 188.109 189.212 186.898C189.152 185.689 189.107 184.984 189.082 184.783C189 184.234 188.627 183.814 187.959 183.521C187.129 183.161 186.716 182.627 186.716 181.918C186.716 181.076 187.258 180.448 188.34 180.034C189.836 179.46 191.439 178.972 193.149 178.571C194.861 178.17 196.183 177.969 197.117 177.969C197.857 177.971 198.223 178.384 198.223 179.214ZM194.254 170.437C195.416 170.437 196.337 170.653 197.019 171.088C197.7 171.521 198.041 172.106 198.041 172.843C198.041 173.872 197.529 174.686 196.498 175.288C194.867 176.237 192.898 176.711 190.586 176.711C189.611 176.711 188.835 176.522 188.261 176.149C187.487 175.669 187.099 175.001 187.099 174.146C187.099 172.995 187.92 172.093 189.564 171.439C191.235 170.769 192.797 170.437 194.254 170.437Z" fill="#B41E89"/>
<path d="M225.141 172.039V190.337C225.141 191.379 225.184 192.047 225.272 192.341C225.36 192.634 225.602 192.921 226.005 193.202C226.485 193.536 226.811 193.832 226.978 194.085C227.145 194.338 227.229 194.646 227.229 195.006C227.229 196.076 226.155 196.89 224.004 197.451C222.066 197.944 220.127 198.193 218.19 198.193C217.761 198.193 217.485 198.129 217.359 198.002C217.23 197.874 217.149 197.571 217.108 197.089C217.041 196.408 216.799 196.067 216.388 196.067C216.159 196.067 215.805 196.266 215.325 196.667C213.962 197.777 212.445 198.332 210.776 198.332C208.704 198.332 206.839 197.563 205.183 196.026C204.21 195.105 203.419 194.042 202.819 192.84C202.018 191.276 201.617 189.694 201.617 188.089C201.617 186.206 202.138 184.391 203.179 182.638C204.141 181.022 205.451 179.781 207.107 178.911C208.498 178.189 209.865 177.829 211.217 177.829C212.766 177.829 214.155 178.176 215.385 178.871C215.584 178.978 215.745 179.031 215.865 179.031C216.294 179.031 216.508 178.457 216.508 177.309C216.508 176.814 216.39 176.436 216.156 176.175C215.925 175.914 215.505 175.691 214.903 175.504C214.063 175.236 213.641 174.769 213.641 174.101C213.641 173.126 214.611 172.365 216.546 171.816C219.966 170.867 222.259 170.394 223.421 170.394C224.567 170.396 225.141 170.944 225.141 172.039ZM214.258 182.119C213.388 182.119 212.702 182.58 212.194 183.504C211.513 184.734 211.172 186.349 211.172 188.353C211.172 190.17 211.5 191.539 212.154 192.461C212.623 193.129 213.257 193.464 214.059 193.464C214.926 193.464 215.556 192.958 215.953 191.951C216.345 190.941 216.544 189.315 216.544 187.069C216.544 185.014 216.313 183.643 215.844 182.961C215.481 182.428 214.952 182.147 214.258 182.119Z" fill="#B41E89"/>
<path d="M236.422 177.831C237.092 177.831 238.179 177.979 239.69 178.272C239.998 178.324 240.251 178.352 240.45 178.352C240.679 178.352 241.119 178.232 241.775 177.992C242.081 177.87 242.342 177.81 242.555 177.81C243.17 177.81 243.791 178.204 244.419 178.992C244.927 179.622 245.34 180.308 245.662 181.058C245.983 181.806 246.144 182.453 246.144 183.002C246.144 183.535 245.955 183.979 245.582 184.335C245.207 184.688 244.74 184.866 244.179 184.866C243.71 184.866 243.294 184.752 242.925 184.525C242.557 184.296 241.967 183.795 241.151 183.021C240.296 182.192 239.587 181.778 239.025 181.778C238.652 181.778 238.329 181.915 238.052 182.19C237.78 182.464 237.641 182.787 237.641 183.162C237.641 183.816 238.269 184.431 239.525 185.005C241.781 186.021 243.512 187.129 244.715 188.333C245.73 189.347 246.238 190.59 246.238 192.06C246.238 193.917 245.424 195.467 243.793 196.71C242.392 197.792 240.675 198.334 238.644 198.334C238.121 198.334 237.172 198.246 235.798 198.072C234.502 197.925 233.773 197.852 233.612 197.852C233.439 197.852 233.24 197.871 233.012 197.912C232.622 197.965 232.342 197.993 232.17 197.993C231.54 197.993 231.047 197.832 230.687 197.511C230.139 197.018 229.631 196.238 229.164 195.175C228.695 194.112 228.461 193.2 228.461 192.439C228.461 191.209 228.943 190.594 229.905 190.594C230.278 190.594 230.623 190.718 230.938 190.965C231.251 191.213 231.911 191.871 232.914 192.94C233.462 193.527 233.915 193.932 234.277 194.153C234.637 194.374 235.024 194.483 235.438 194.483C235.879 194.483 236.233 194.365 236.501 194.132C236.769 193.898 236.902 193.587 236.902 193.2C236.902 192.6 236.387 192.051 235.359 191.556C233.205 190.502 231.654 189.413 230.698 188.29C229.742 187.167 229.265 185.873 229.265 184.401C229.265 182.811 229.751 181.444 230.726 180.293C232.121 178.652 234.017 177.831 236.422 177.831Z" fill="#B41E89"/>
<path d="M16.7316 215.214V216.992C16.7316 218.066 16.6523 218.826 16.4916 219.274C16.1466 220.217 15.388 220.899 14.218 221.323C13.5087 221.584 12.7073 221.717 11.8137 221.717C10.2537 221.717 9.00444 221.346 8.06802 220.603C7.61159 220.239 7.29444 219.816 7.12087 219.334C6.94516 218.852 6.85944 218.158 6.85944 217.249C6.85944 216.894 6.8723 216.311 6.89587 215.501C6.91087 214.929 6.9173 214.549 6.9173 214.363C6.9173 213.96 6.8873 213.679 6.82516 213.525C6.76302 213.371 6.6323 213.223 6.42873 213.088C6.1073 212.88 5.94873 212.646 5.94873 212.389C5.94873 212.201 6.03016 212.031 6.19302 211.886C6.35587 211.74 6.57016 211.641 6.83802 211.588C7.37159 211.481 8.00373 211.427 8.7323 211.427C9.53373 211.427 10.2002 211.487 10.7294 211.609C11.2502 211.725 11.5094 211.991 11.5094 212.404C11.5094 212.608 11.4344 212.771 11.2844 212.893C11.2502 212.923 11.1044 212.998 10.8473 213.118C10.6909 213.186 10.5859 213.311 10.5302 213.489C10.4744 213.666 10.4466 213.964 10.4466 214.378C10.4466 214.8 10.4273 215.715 10.3887 217.119C10.3652 217.954 10.5902 218.591 11.0659 219.028C11.4537 219.388 11.9552 219.568 12.568 219.568C12.9559 219.568 13.3094 219.497 13.6244 219.354C13.9394 219.21 14.1816 219.015 14.3466 218.766C14.4773 218.578 14.5673 218.366 14.6166 218.132C14.6659 217.899 14.6894 217.581 14.6894 217.176V215.571C14.6659 214.341 14.6294 213.621 14.5844 213.411C14.5373 213.199 14.3809 213.034 14.1152 212.912C13.8623 212.801 13.6909 212.698 13.5966 212.606C13.5023 212.514 13.4573 212.4 13.4573 212.263C13.4573 211.971 13.6309 211.759 13.978 211.624C14.3252 211.491 14.8823 211.423 15.6516 211.423C16.4037 211.423 16.9502 211.489 17.2887 211.62C17.6273 211.751 17.7944 211.961 17.7944 212.246C17.7944 212.387 17.7644 212.492 17.7066 212.559C17.6487 212.625 17.4944 212.73 17.248 212.871C16.9909 213.017 16.843 213.174 16.8066 213.341C16.7637 213.512 16.7423 214.136 16.7316 215.214Z" fill="#B41E89"/>
<path d="M26.7088 213.559L25.9288 214.309C25.6416 214.581 25.4981 214.83 25.4981 215.053C25.4981 215.175 25.5302 215.295 25.5966 215.417C25.6631 215.539 25.7852 215.704 25.9652 215.912L28.6909 219.068C28.9331 219.351 29.1023 219.529 29.1945 219.604C29.2866 219.679 29.4259 219.758 29.6102 219.842C29.8716 219.953 30.0581 220.078 30.1673 220.213C30.2766 220.348 30.3323 220.525 30.3323 220.744C30.3323 221.258 29.9659 221.518 29.2309 221.518H26.4688C26.2802 221.518 26.1302 221.477 26.0209 221.393C25.9116 221.31 25.7381 221.106 25.5002 220.781C25.1209 220.26 24.6216 219.664 23.9981 218.987C23.7259 218.695 23.5352 218.505 23.4259 218.415C23.3166 218.325 23.2159 218.28 23.1238 218.28C22.8431 218.28 22.7016 218.545 22.7016 219.075C22.7016 219.508 22.7938 219.806 22.9781 219.971C23.0123 219.994 23.0895 220.048 23.2116 220.131C23.4731 220.301 23.6059 220.513 23.6059 220.765C23.6059 221.087 23.3916 221.316 22.9652 221.453C22.5366 221.593 21.8188 221.661 20.8073 221.661C19.9073 221.661 19.2516 221.608 18.8402 221.501C18.6645 221.451 18.5231 221.363 18.4138 221.235C18.3045 221.106 18.2488 220.961 18.2488 220.802C18.2488 220.545 18.3945 220.324 18.6859 220.14C18.8166 220.052 18.9109 219.955 18.9666 219.853C19.0223 219.748 19.0738 219.572 19.1231 219.323C19.2195 218.775 19.2688 217.928 19.2688 216.786C19.2688 215.425 19.2173 214.461 19.1166 213.893C19.0781 213.66 19.0245 213.493 18.9559 213.39C18.8873 213.287 18.7695 213.188 18.5981 213.092C18.3259 212.938 18.1909 212.721 18.1909 212.443C18.1909 212.209 18.2766 212.023 18.4459 211.881C18.6152 211.74 18.8873 211.633 19.2623 211.56C19.7573 211.463 20.3788 211.414 21.1288 211.414C21.8916 211.414 22.4573 211.487 22.8259 211.633C23.1559 211.768 23.3209 212.012 23.3209 212.361C23.3209 212.507 23.2952 212.62 23.2438 212.7C23.1923 212.779 23.0595 212.905 22.8473 213.075C22.7702 213.143 22.6973 213.306 22.6331 213.563C22.5666 213.82 22.5345 214.073 22.5345 214.322C22.5345 214.731 22.6266 214.935 22.8109 214.935C22.9223 214.935 23.0316 214.885 23.1345 214.789C23.2395 214.693 23.4495 214.448 23.7645 214.06C24.1288 213.608 24.3109 213.3 24.3109 213.135C24.3109 213.047 24.2638 212.916 24.1716 212.74C24.1095 212.618 24.0773 212.507 24.0773 212.406C24.0773 212.046 24.2723 211.793 24.6602 211.645C25.0481 211.498 25.7123 211.423 26.6509 211.423C27.3988 211.423 27.9538 211.472 28.3116 211.568C28.7531 211.69 28.9738 211.948 28.9738 212.342C28.9738 212.498 28.9266 212.642 28.8345 212.775C28.7423 212.908 28.6288 212.995 28.4916 213.034C28.3888 213.068 28.1531 213.088 27.7845 213.092C27.5273 213.096 27.3345 213.128 27.2059 213.184C27.0795 213.24 26.9145 213.364 26.7088 213.559Z" fill="#B41E89"/>
<path d="M35.3957 217.335C35.2114 217.335 35.0936 217.391 35.0422 217.502C34.9907 217.613 34.965 217.873 34.965 218.282C34.965 218.899 35.0036 219.379 35.0807 219.724C35.1043 219.821 35.1407 219.898 35.19 219.949C35.2393 220.003 35.3314 220.069 35.4664 220.146C35.7579 220.307 35.9036 220.519 35.9036 220.781C35.9036 221.102 35.7 221.329 35.295 221.462C34.89 221.595 34.2022 221.663 33.2357 221.663C31.4379 221.663 30.54 221.323 30.54 220.643C30.54 220.528 30.5657 220.433 30.6193 220.363C30.6729 220.292 30.795 220.193 30.9836 220.067C31.1979 219.926 31.3414 219.761 31.4164 219.568C31.4914 219.375 31.545 219.045 31.5729 218.573C31.5964 218.228 31.6093 216.992 31.6093 214.864C31.6093 214.189 31.575 213.731 31.5064 213.486C31.4379 213.242 31.2922 213.066 31.0693 212.955C30.855 212.852 30.7114 212.76 30.6386 212.674C30.5657 212.588 30.5293 212.479 30.5293 212.342C30.5293 212.162 30.5979 212.006 30.7372 211.873C30.8764 211.74 31.0693 211.641 31.3157 211.577C31.5257 211.523 31.8107 211.498 32.175 211.498C32.3357 211.498 32.7364 211.521 33.3772 211.571C33.4993 211.581 33.69 211.586 33.9536 211.586C34.3907 211.586 34.9736 211.556 35.7022 211.498C36.1629 211.463 36.4864 211.446 36.6707 211.446C37.71 211.446 38.5714 211.697 39.2507 212.196C39.8636 212.648 40.17 213.274 40.17 214.076C40.17 214.523 40.0629 214.931 39.8486 215.297C39.6343 215.663 39.3407 215.94 38.9657 216.124C38.8093 216.201 38.7322 216.293 38.7322 216.401C38.7322 216.542 38.8522 216.656 39.09 216.743C39.6 216.928 39.975 217.208 40.2129 217.581C40.4507 217.954 40.62 218.528 40.7229 219.302C40.7657 219.623 40.83 219.831 40.9114 219.926C40.995 220.02 41.1857 220.112 41.4879 220.2C41.58 220.23 41.6572 220.292 41.7214 220.386C41.7836 220.481 41.8157 220.588 41.8157 220.703C41.8157 220.853 41.7579 221.006 41.64 221.16C41.5243 221.312 41.3722 221.434 41.1879 221.52C40.7807 221.708 40.2214 221.805 39.5122 221.805C38.565 221.805 37.8879 221.554 37.4786 221.055C37.2943 220.832 37.1379 220.549 37.0093 220.208C36.8807 219.868 36.7286 219.338 36.5529 218.621C36.4414 218.16 36.2979 217.834 36.1264 217.643C35.9636 217.451 35.7172 217.35 35.3957 217.335ZM34.9736 213.617L34.8943 215.314C34.8943 215.329 34.8943 215.351 34.8943 215.381C34.8943 215.556 34.92 215.672 34.9714 215.73C35.0229 215.788 35.1257 215.818 35.2822 215.818C35.7107 215.818 36.0214 215.706 36.2143 215.486C36.4093 215.265 36.5057 214.911 36.5057 214.425C36.5057 213.486 36.1736 213.019 35.5072 213.019C35.3186 213.019 35.1836 213.062 35.1064 213.15C35.0293 213.238 34.9843 213.394 34.9736 213.617Z" fill="#B41E89"/>
<path d="M51.6343 216.482L53.0122 219.432C53.1429 219.705 53.2522 219.882 53.34 219.968C53.4279 220.054 53.5607 220.11 53.7407 220.14C54.09 220.193 54.2657 220.371 54.2657 220.671C54.2657 221.027 54.0515 221.282 53.625 221.436C53.1965 221.592 52.4979 221.67 51.525 221.67C50.4279 221.67 49.6136 221.622 49.0843 221.53C48.8422 221.487 48.6472 221.397 48.5057 221.265C48.3622 221.132 48.2915 220.969 48.2915 220.78C48.2915 220.635 48.33 220.521 48.405 220.442C48.48 220.362 48.6193 220.287 48.825 220.219C49.0543 220.142 49.1679 220.011 49.1679 219.825C49.1679 219.499 48.9707 219.306 48.5786 219.248C48.1564 219.19 47.5607 219.16 46.7936 219.16C46.1464 219.16 45.7607 219.199 45.6343 219.276C45.5572 219.325 45.4886 219.411 45.4307 219.537C45.3729 219.664 45.3429 219.786 45.3429 219.902C45.3429 220.009 45.3643 220.077 45.405 220.11C45.4457 220.142 45.5807 220.193 45.81 220.266C46.1057 220.354 46.2536 220.527 46.2536 220.791C46.2536 221.37 45.5615 221.659 44.1772 221.659C43.3907 221.659 42.8122 221.605 42.4436 221.498C42.1029 221.395 41.9336 221.172 41.9336 220.827C41.9336 220.677 41.9722 220.56 42.0472 220.478C42.1222 220.397 42.2572 220.32 42.4522 220.253C42.7672 220.142 43.0072 219.985 43.17 219.784C43.3329 219.582 43.5643 219.152 43.8665 218.49L44.895 216.237C45.2743 215.412 45.5272 214.793 45.6557 214.382C45.7843 213.97 45.8507 213.57 45.8572 213.175C45.8615 212.757 45.8872 212.468 45.9343 212.305C45.9815 212.142 46.0843 211.984 46.245 211.827C46.5793 211.487 47.0079 211.317 47.5286 211.317C48.0193 211.317 48.4886 211.51 48.9343 211.894C49.545 212.421 50.4493 213.951 51.6343 216.482ZM46.5622 217.399H47.9915C48.2529 217.399 48.3857 217.341 48.3857 217.223C48.3857 217.062 48.2036 216.67 47.8393 216.042C47.6743 215.755 47.5479 215.565 47.46 215.466C47.3722 215.37 47.28 215.32 47.1836 215.32C47.0079 215.32 46.8622 215.483 46.7464 215.809C46.7272 215.852 46.6565 216.025 46.5343 216.327C46.3307 216.822 46.2279 217.12 46.2279 217.217C46.2279 217.339 46.3393 217.399 46.5622 217.399Z" fill="#B41E89"/>
<path d="M57.677 211.416C58.2298 211.416 58.7527 211.465 59.2434 211.562C59.9034 211.692 60.2356 211.973 60.2356 212.4C60.2356 212.541 60.2034 212.646 60.137 212.717C60.0706 212.787 59.9056 212.89 59.6377 213.027C59.4148 213.139 59.267 213.385 59.1963 213.762C59.1256 214.142 59.0913 214.881 59.0913 215.978C59.0913 217.834 59.1384 218.982 59.2306 219.426C59.2648 219.567 59.3163 219.675 59.387 219.75C59.4577 219.825 59.5798 219.906 59.7556 219.994C60.077 220.14 60.2377 220.352 60.2377 220.628C60.2377 221.016 59.942 221.284 59.3484 221.43C58.7077 221.586 57.9213 221.663 56.9934 221.663C55.4098 221.663 54.617 221.361 54.617 220.759C54.617 220.54 54.7734 220.337 55.0841 220.146C55.322 220 55.4634 219.801 55.5063 219.548C55.5984 218.995 55.6456 217.819 55.6456 216.021C55.6456 214.778 55.5834 213.981 55.457 213.63C55.3884 213.43 55.2256 213.25 54.9684 213.09C54.7691 212.959 54.6363 212.85 54.5677 212.762C54.4991 212.674 54.4648 212.562 54.4648 212.427C54.4648 212.22 54.5656 212.052 54.767 211.928C54.9684 211.804 55.3241 211.695 55.8341 211.596C56.4406 211.478 57.0534 211.416 57.677 211.416Z" fill="#B41E89"/>
<path d="M64.738 211.92L68.368 215.097C68.7087 215.393 68.953 215.541 69.1051 215.541C69.358 215.541 69.4844 215.271 69.4844 214.733C69.4844 214.12 69.448 213.702 69.3751 213.48C69.3022 213.257 69.1501 213.087 68.9165 212.976C68.728 212.884 68.593 212.785 68.5158 212.68C68.4387 212.575 68.4001 212.44 68.4001 212.275C68.4001 211.866 68.6787 211.605 69.238 211.489C69.4672 211.44 69.8637 211.416 70.4337 211.416C71.1665 211.416 71.6744 211.459 71.9572 211.547C72.4051 211.682 72.628 211.941 72.628 212.32C72.628 212.635 72.4458 212.873 72.0815 213.034C71.9358 213.096 71.8351 213.154 71.7837 213.201C71.7322 213.248 71.6851 213.323 71.6444 213.42C71.5137 213.741 71.4451 214.347 71.4408 215.241V217.617C71.4408 217.982 71.443 218.481 71.4472 219.111C71.4515 219.966 71.4001 220.583 71.2951 220.962C71.1644 221.434 70.9265 221.67 70.5815 221.67C70.4315 221.67 70.3008 221.637 70.1915 221.575C70.0822 221.513 69.9001 221.367 69.6494 221.138L65.3272 217.268C65.0251 216.996 64.7765 216.859 64.5772 216.859C64.2815 216.859 64.1337 217.27 64.1337 218.091C64.1337 218.766 64.1722 219.229 64.2472 219.475C64.3222 219.722 64.4765 219.906 64.7101 220.022C65.0358 220.182 65.1987 220.39 65.1987 220.65C65.1987 221.325 64.4722 221.663 63.0194 221.663C62.3637 221.663 61.8537 221.577 61.4937 221.404C61.1315 221.232 60.9515 220.988 60.9515 220.671C60.9515 220.506 60.9858 220.382 61.0544 220.3C61.123 220.219 61.2751 220.105 61.513 219.966C61.7422 219.831 61.8794 219.589 61.9287 219.244C62.0122 218.618 62.053 217.716 62.053 216.54C62.053 215.286 61.9801 214.373 61.8344 213.799C61.7808 213.591 61.7122 213.435 61.6308 213.332C61.5472 213.229 61.4122 213.132 61.2237 213.04C61.0051 212.933 60.853 212.828 60.7672 212.727C60.6815 212.625 60.6387 212.502 60.6387 212.357C60.6387 211.89 61.0394 211.596 61.8408 211.474C62.113 211.435 62.5887 211.416 63.2701 211.416C63.658 211.416 63.9408 211.446 64.1187 211.506C64.2858 211.568 64.4958 211.705 64.738 211.92Z" fill="#B41E89"/>
<path d="M76.2385 211.416C76.7914 211.416 77.3142 211.465 77.8049 211.562C78.4649 211.692 78.7971 211.973 78.7971 212.4C78.7971 212.541 78.7649 212.646 78.6985 212.717C78.6321 212.787 78.4671 212.89 78.1992 213.027C77.9764 213.139 77.8285 213.385 77.7578 213.762C77.6871 214.142 77.6528 214.881 77.6528 215.978C77.6528 217.834 77.6999 218.982 77.7921 219.426C77.8264 219.567 77.8778 219.675 77.9485 219.75C78.0192 219.825 78.1414 219.906 78.3171 219.994C78.6385 220.14 78.7992 220.352 78.7992 220.628C78.7992 221.016 78.5035 221.284 77.9099 221.43C77.2692 221.586 76.4828 221.663 75.5549 221.663C73.9714 221.663 73.1785 221.361 73.1785 220.759C73.1785 220.54 73.3349 220.337 73.6456 220.146C73.8835 220 74.0249 219.801 74.0678 219.548C74.1599 218.995 74.2071 217.819 74.2071 216.021C74.2071 214.778 74.1449 213.981 74.0185 213.63C73.9499 213.43 73.7871 213.25 73.5299 213.09C73.3307 212.959 73.1978 212.85 73.1292 212.762C73.0606 212.674 73.0264 212.562 73.0264 212.427C73.0264 212.22 73.1271 212.052 73.3285 211.928C73.5299 211.804 73.8856 211.695 74.3956 211.596C75.0021 211.478 75.6171 211.416 76.2385 211.416Z" fill="#B41E89"/>
<path d="M88.71 216.482L90.0879 219.432C90.2186 219.705 90.3279 219.882 90.4157 219.968C90.5036 220.054 90.6364 220.11 90.8164 220.14C91.1657 220.193 91.3414 220.371 91.3414 220.671C91.3414 221.027 91.1271 221.282 90.7007 221.436C90.2721 221.592 89.5736 221.67 88.6007 221.67C87.5036 221.67 86.6893 221.622 86.16 221.53C85.9178 221.487 85.7229 221.397 85.5814 221.265C85.4379 221.132 85.3671 220.969 85.3671 220.78C85.3671 220.635 85.4057 220.521 85.4807 220.442C85.5557 220.362 85.695 220.287 85.9007 220.219C86.13 220.142 86.2436 220.011 86.2436 219.825C86.2436 219.499 86.0464 219.306 85.6543 219.248C85.2321 219.19 84.6364 219.16 83.8693 219.16C83.2221 219.16 82.8364 219.199 82.71 219.276C82.6329 219.325 82.5643 219.411 82.5064 219.537C82.4486 219.664 82.4186 219.786 82.4186 219.902C82.4186 220.009 82.44 220.077 82.4807 220.11C82.5214 220.142 82.6564 220.193 82.8857 220.266C83.1814 220.354 83.3293 220.527 83.3293 220.791C83.3293 221.37 82.6371 221.659 81.2528 221.659C80.4664 221.659 79.8878 221.605 79.5193 221.498C79.1786 221.395 79.0093 221.172 79.0093 220.827C79.0093 220.677 79.0478 220.56 79.1228 220.478C79.1978 220.397 79.3329 220.32 79.5279 220.253C79.8429 220.142 80.0829 219.985 80.2457 219.784C80.4086 219.582 80.64 219.152 80.9421 218.49L81.9707 216.237C82.35 215.412 82.6028 214.793 82.7314 214.382C82.86 213.97 82.9264 213.57 82.9328 213.175C82.9371 212.757 82.9629 212.468 83.01 212.305C83.0571 212.142 83.16 211.984 83.3207 211.827C83.655 211.487 84.0836 211.317 84.6043 211.317C85.095 211.317 85.5643 211.51 86.01 211.894C86.6207 212.421 87.5229 213.951 88.71 216.482ZM83.6379 217.399H85.0671C85.3286 217.399 85.4614 217.341 85.4614 217.223C85.4614 217.062 85.2793 216.67 84.915 216.042C84.75 215.755 84.6236 215.565 84.5357 215.466C84.4479 215.37 84.3557 215.32 84.2593 215.32C84.0836 215.32 83.9379 215.483 83.8221 215.809C83.8029 215.852 83.7321 216.025 83.61 216.327C83.4064 216.822 83.3036 217.12 83.3036 217.217C83.3014 217.339 83.4129 217.399 83.6379 217.399Z" fill="#B41E89"/>
<path d="M95.6398 211.92L99.2698 215.097C99.6105 215.393 99.8548 215.541 100.007 215.541C100.26 215.541 100.386 215.271 100.386 214.733C100.386 214.12 100.35 213.702 100.277 213.48C100.204 213.257 100.052 213.087 99.8184 212.976C99.6298 212.884 99.4948 212.785 99.4177 212.68C99.3405 212.575 99.302 212.44 99.302 212.275C99.302 211.866 99.5805 211.605 100.14 211.489C100.369 211.44 100.766 211.416 101.336 211.416C102.068 211.416 102.576 211.459 102.859 211.547C103.307 211.682 103.53 211.941 103.53 212.32C103.53 212.635 103.348 212.873 102.983 213.034C102.838 213.096 102.737 213.154 102.686 213.201C102.634 213.248 102.587 213.323 102.546 213.42C102.416 213.741 102.347 214.347 102.343 215.241V217.617C102.343 217.982 102.345 218.481 102.349 219.111C102.353 219.966 102.302 220.583 102.197 220.962C102.066 221.434 101.828 221.67 101.483 221.67C101.333 221.67 101.203 221.637 101.093 221.575C100.984 221.513 100.802 221.367 100.551 221.138L96.2291 217.268C95.927 216.996 95.6784 216.859 95.4791 216.859C95.1834 216.859 95.0355 217.27 95.0355 218.091C95.0355 218.766 95.0741 219.229 95.1491 219.475C95.2241 219.722 95.3784 219.906 95.612 220.022C95.9377 220.182 96.1005 220.39 96.1005 220.65C96.1005 221.325 95.3741 221.663 93.9212 221.663C93.2655 221.663 92.7555 221.577 92.3955 221.404C92.0334 221.232 91.8534 220.988 91.8534 220.671C91.8534 220.506 91.8877 220.382 91.9562 220.3C92.0248 220.219 92.177 220.105 92.4148 219.966C92.6441 219.831 92.7812 219.589 92.8305 219.244C92.9141 218.618 92.9548 217.716 92.9548 216.54C92.9548 215.286 92.882 214.373 92.7362 213.799C92.6827 213.591 92.6141 213.435 92.5327 213.332C92.4491 213.229 92.3141 213.132 92.1255 213.04C91.907 212.933 91.7548 212.828 91.6691 212.727C91.5834 212.625 91.5405 212.502 91.5405 212.357C91.5405 211.89 91.9412 211.596 92.7427 211.474C93.0148 211.435 93.4905 211.416 94.172 211.416C94.5598 211.416 94.8427 211.446 95.0205 211.506C95.1877 211.568 95.3977 211.705 95.6398 211.92Z" fill="#B41E89"/>
<path d="M117.082 211.365C118.331 211.365 119.422 211.723 120.354 212.437C120.986 212.927 121.498 213.564 121.892 214.346C122.276 215.124 122.469 215.902 122.469 216.677C122.469 217.824 122.089 218.85 121.331 219.752C120.69 220.52 119.852 221.072 118.817 221.407C118.181 221.61 117.542 221.713 116.902 221.713C116.062 221.713 115.256 221.537 114.489 221.188C113.561 220.766 112.834 220.127 112.309 219.27C111.799 218.445 111.544 217.532 111.544 216.538C111.544 215.381 111.872 214.361 112.528 213.476C113.111 212.69 113.895 212.111 114.883 211.742C115.543 211.492 116.276 211.365 117.082 211.365ZM116.389 213.457C115.982 213.457 115.659 213.639 115.421 214.003C115.237 214.275 115.144 214.599 115.144 214.972C115.144 215.52 115.256 216.157 115.479 216.877C115.702 217.597 115.984 218.24 116.325 218.797C116.475 219.035 116.662 219.225 116.882 219.365C117.103 219.506 117.328 219.577 117.557 219.577C117.926 219.577 118.224 219.437 118.451 219.161C118.676 218.885 118.789 218.52 118.789 218.068C118.789 217.481 118.695 216.847 118.504 216.165C118.316 215.486 118.069 214.905 117.767 214.423C117.583 214.127 117.369 213.894 117.127 213.722C116.882 213.557 116.638 213.467 116.389 213.457Z" fill="#B41E89"/>
<path d="M127.11 211.92L130.74 215.097C131.081 215.393 131.325 215.541 131.477 215.541C131.73 215.541 131.856 215.271 131.856 214.733C131.856 214.12 131.82 213.702 131.747 213.48C131.674 213.257 131.522 213.087 131.289 212.976C131.1 212.884 130.965 212.785 130.888 212.68C130.811 212.575 130.772 212.44 130.772 212.275C130.772 211.866 131.051 211.605 131.61 211.489C131.839 211.44 132.236 211.416 132.806 211.416C133.539 211.416 134.046 211.459 134.329 211.547C134.777 211.682 135 211.941 135 212.32C135 212.635 134.818 212.873 134.454 213.034C134.308 213.096 134.207 213.154 134.156 213.201C134.104 213.248 134.057 213.323 134.016 213.42C133.886 213.741 133.817 214.347 133.813 215.241V217.617C133.813 217.982 133.815 218.481 133.819 219.111C133.824 219.966 133.772 220.583 133.667 220.962C133.536 221.434 133.299 221.67 132.954 221.67C132.804 221.67 132.673 221.637 132.564 221.575C132.454 221.513 132.272 221.367 132.021 221.138L127.699 217.268C127.397 216.996 127.149 216.859 126.949 216.859C126.654 216.859 126.506 217.27 126.506 218.091C126.506 218.766 126.544 219.229 126.619 219.475C126.694 219.722 126.849 219.906 127.082 220.022C127.408 220.182 127.571 220.39 127.571 220.65C127.571 221.325 126.844 221.663 125.391 221.663C124.736 221.663 124.226 221.577 123.866 221.404C123.504 221.232 123.324 220.988 123.324 220.671C123.324 220.506 123.358 220.382 123.426 220.3C123.495 220.219 123.647 220.105 123.885 219.966C124.114 219.831 124.251 219.589 124.301 219.244C124.384 218.618 124.425 217.716 124.425 216.54C124.425 215.286 124.352 214.373 124.206 213.799C124.153 213.591 124.084 213.435 124.003 213.332C123.919 213.229 123.784 213.132 123.596 213.04C123.377 212.933 123.225 212.828 123.139 212.727C123.054 212.625 123.011 212.502 123.011 212.357C123.011 211.89 123.411 211.596 124.213 211.474C124.485 211.435 124.961 211.416 125.642 211.416C126.03 211.416 126.313 211.446 126.491 211.506C126.658 211.568 126.868 211.705 127.11 211.92Z" fill="#B41E89"/>
<path d="M140.177 214.755V218.1C140.177 218.852 140.243 219.339 140.374 219.557C140.535 219.814 140.871 219.943 141.388 219.943C141.941 219.943 142.38 219.821 142.699 219.579C143.018 219.336 143.243 218.957 143.37 218.441C143.443 218.126 143.608 217.967 143.865 217.967C144.122 217.967 144.332 218.083 144.495 218.314C144.658 218.546 144.739 218.846 144.739 219.214C144.739 219.816 144.516 220.461 144.068 221.145C143.927 221.364 143.803 221.514 143.698 221.593C143.591 221.672 143.462 221.713 143.312 221.713L141.694 221.516H136.601C136.266 221.516 136.031 221.477 135.893 221.4C135.694 221.289 135.596 221.121 135.596 220.896C135.596 220.761 135.628 220.659 135.694 220.594C135.761 220.528 135.919 220.436 136.172 220.314C136.448 220.183 136.626 219.999 136.703 219.761C136.766 219.561 136.798 218.981 136.798 218.019C136.798 217.571 136.785 216.928 136.761 216.088C136.738 215.282 136.723 214.674 136.718 214.266C136.718 213.879 136.688 213.611 136.628 213.469C136.568 213.326 136.44 213.223 136.245 213.159C135.923 213.047 135.72 212.957 135.632 212.889C135.476 212.766 135.398 212.629 135.398 212.473C135.398 212.117 135.692 211.849 136.281 211.663C136.781 211.502 137.451 211.423 138.293 211.423C139.236 211.423 139.941 211.472 140.406 211.569C141.008 211.699 141.311 211.963 141.311 212.355C141.311 212.516 141.27 212.634 141.191 212.713C141.111 212.79 140.914 212.895 140.603 213.026C140.419 213.109 140.301 213.249 140.254 213.448C140.203 213.649 140.177 214.084 140.177 214.755Z" fill="#B41E89"/>
<path d="M148.056 211.416C148.609 211.416 149.132 211.465 149.623 211.562C150.283 211.692 150.615 211.973 150.615 212.4C150.615 212.541 150.583 212.646 150.516 212.717C150.45 212.787 150.285 212.89 150.017 213.027C149.794 213.139 149.646 213.385 149.576 213.762C149.505 214.142 149.471 214.881 149.471 215.978C149.471 217.834 149.518 218.982 149.61 219.426C149.644 219.567 149.696 219.675 149.766 219.75C149.837 219.825 149.959 219.906 150.135 219.994C150.456 220.14 150.617 220.352 150.617 220.628C150.617 221.016 150.321 221.284 149.728 221.43C149.087 221.586 148.301 221.663 147.373 221.663C145.789 221.663 144.996 221.361 144.996 220.759C144.996 220.54 145.153 220.337 145.464 220.146C145.701 220 145.843 219.801 145.886 219.548C145.978 218.995 146.025 217.819 146.025 216.021C146.025 214.778 145.963 213.981 145.836 213.63C145.768 213.43 145.605 213.25 145.348 213.09C145.149 212.959 145.016 212.85 144.947 212.762C144.879 212.674 144.844 212.562 144.844 212.427C144.844 212.22 144.945 212.052 145.146 211.928C145.348 211.804 145.704 211.695 146.214 211.596C146.82 211.478 147.435 211.416 148.056 211.416Z" fill="#B41E89"/>
<path d="M155.119 211.92L158.749 215.097C159.09 215.393 159.334 215.541 159.486 215.541C159.739 215.541 159.866 215.271 159.866 214.733C159.866 214.12 159.829 213.702 159.756 213.48C159.684 213.257 159.531 213.087 159.298 212.976C159.109 212.884 158.974 212.785 158.897 212.68C158.82 212.575 158.781 212.44 158.781 212.275C158.781 211.866 159.06 211.605 159.619 211.489C159.849 211.44 160.245 211.416 160.815 211.416C161.548 211.416 162.056 211.459 162.339 211.547C162.786 211.682 163.009 211.941 163.009 212.32C163.009 212.635 162.827 212.873 162.463 213.034C162.317 213.096 162.216 213.154 162.165 213.201C162.114 213.248 162.066 213.323 162.026 213.42C161.895 213.741 161.826 214.347 161.822 215.241V217.617C161.822 217.982 161.824 218.481 161.829 219.111C161.833 219.966 161.781 220.583 161.676 220.962C161.546 221.434 161.308 221.67 160.963 221.67C160.813 221.67 160.682 221.637 160.573 221.575C160.464 221.513 160.281 221.367 160.031 221.138L155.709 217.268C155.406 216.996 155.158 216.859 154.959 216.859C154.663 216.859 154.515 217.27 154.515 218.091C154.515 218.766 154.554 219.229 154.629 219.475C154.704 219.722 154.858 219.906 155.091 220.022C155.417 220.182 155.58 220.39 155.58 220.65C155.58 221.325 154.854 221.663 153.401 221.663C152.745 221.663 152.235 221.577 151.875 221.404C151.513 221.232 151.333 220.988 151.333 220.671C151.333 220.506 151.367 220.382 151.436 220.3C151.504 220.219 151.656 220.105 151.894 219.966C152.124 219.831 152.261 219.589 152.31 219.244C152.394 218.618 152.434 217.716 152.434 216.54C152.434 215.286 152.361 214.373 152.216 213.799C152.162 213.591 152.094 213.435 152.012 213.332C151.929 213.229 151.794 213.132 151.605 213.04C151.386 212.933 151.234 212.828 151.149 212.727C151.063 212.625 151.02 212.502 151.02 212.357C151.02 211.89 151.421 211.596 152.222 211.474C152.494 211.435 152.97 211.416 153.651 211.416C154.039 211.416 154.322 211.446 154.5 211.506C154.665 211.568 154.875 211.705 155.119 211.92Z" fill="#B41E89"/>
<path d="M165.008 211.569H168.754C169.513 211.569 170.066 211.554 170.413 211.522C170.76 211.49 171.098 211.425 171.428 211.329C171.531 211.299 171.611 211.286 171.668 211.286C171.921 211.286 172.144 211.421 172.339 211.693C172.661 212.135 172.819 212.67 172.819 213.296C172.819 213.611 172.753 213.862 172.618 214.044C172.485 214.226 172.301 214.318 172.067 214.318C171.906 214.318 171.782 214.286 171.692 214.22C171.602 214.153 171.482 214.008 171.332 213.778C171.118 213.453 170.848 213.236 170.52 213.127C170.192 213.018 169.654 212.962 168.906 212.962C168.347 212.962 168.008 213.063 167.886 213.26C167.824 213.367 167.786 213.51 167.773 213.69C167.76 213.87 167.756 214.329 167.756 215.068C167.756 215.36 167.805 215.542 167.901 215.61C167.998 215.681 168.253 215.715 168.666 215.715C168.87 215.715 169.018 215.673 169.11 215.589C169.202 215.503 169.26 215.351 169.286 215.133C169.32 214.852 169.354 214.657 169.391 214.554C169.427 214.449 169.493 214.359 169.592 214.28C169.695 214.192 169.813 214.149 169.95 214.149C170.149 214.149 170.318 214.243 170.46 214.434C170.563 214.575 170.648 214.824 170.719 215.182C170.79 215.54 170.824 215.913 170.824 216.3C170.824 217.068 170.704 217.698 170.466 218.188C170.336 218.456 170.136 218.589 169.868 218.589C169.703 218.589 169.59 218.546 169.526 218.463C169.463 218.377 169.414 218.201 169.38 217.933C169.307 217.385 168.986 217.11 168.418 217.11C168.199 217.11 168.049 217.179 167.97 217.318C167.891 217.458 167.85 217.713 167.85 218.088C167.85 218.317 167.865 218.61 167.897 218.973C167.929 219.335 167.961 219.575 167.996 219.69C168.034 219.836 168.154 219.937 168.356 219.993C168.557 220.048 168.893 220.076 169.365 220.076C170.093 220.076 170.642 219.982 171.013 219.795C171.381 219.609 171.683 219.27 171.917 218.78C172.052 218.499 172.176 218.308 172.286 218.212C172.395 218.115 172.536 218.066 172.712 218.066C172.916 218.066 173.085 218.154 173.218 218.332C173.351 218.51 173.419 218.733 173.419 218.998C173.419 219.29 173.344 219.654 173.194 220.091C173.044 220.528 172.86 220.916 172.641 221.257C172.53 221.422 172.438 221.533 172.365 221.589C172.292 221.645 172.2 221.673 172.088 221.673C171.996 221.673 171.863 221.658 171.688 221.63C171.377 221.572 170.961 221.535 170.441 221.52H164.261C164.012 221.52 163.821 221.467 163.684 221.355C163.547 221.246 163.481 221.092 163.481 220.893C163.481 220.751 163.511 220.65 163.568 220.586C163.626 220.524 163.761 220.443 163.969 220.346C164.115 220.284 164.222 220.205 164.293 220.113C164.363 220.02 164.417 219.883 164.458 219.705C164.618 218.973 164.698 217.983 164.698 216.74C164.698 214.865 164.582 213.682 164.348 213.191C164.299 213.095 164.246 213.026 164.188 212.988C164.13 212.949 164.008 212.902 163.823 212.848C163.547 212.767 163.408 212.58 163.408 212.295C163.408 212.139 163.453 212.002 163.547 211.88C163.639 211.758 163.761 211.678 163.911 211.64C164.098 211.593 164.464 211.569 165.008 211.569Z" fill="#B41E89"/>
<path d="M185.678 211.365C186.178 211.365 186.836 211.49 187.646 211.736C187.742 211.766 187.821 211.779 187.879 211.779C187.928 211.779 188.074 211.736 188.316 211.648C188.393 211.618 188.477 211.605 188.565 211.605C188.891 211.605 189.233 211.862 189.596 212.379C189.958 212.893 190.138 213.384 190.138 213.851C190.138 214.123 190.056 214.352 189.893 214.539C189.731 214.725 189.533 214.82 189.3 214.82C189.105 214.82 188.948 214.781 188.826 214.704C188.704 214.627 188.438 214.395 188.025 214.012C187.442 213.467 186.868 213.195 186.304 213.195C186.032 213.195 185.816 213.262 185.653 213.392C185.49 213.523 185.408 213.697 185.408 213.911C185.408 214.333 185.779 214.652 186.523 214.867C187.528 215.162 188.173 215.379 188.453 215.516C189.692 216.118 190.311 217.005 190.311 218.175C190.311 219.21 189.889 220.057 189.043 220.712C188.177 221.383 187.048 221.717 185.653 221.717C185.031 221.717 184.376 221.642 183.686 221.495C182.996 221.347 182.498 221.173 182.192 220.974C181.958 220.817 181.748 220.479 181.562 219.956C181.376 219.433 181.281 218.925 181.281 218.43C181.281 218.192 181.331 218.012 181.427 217.89C181.549 217.734 181.701 217.657 181.886 217.657C182.07 217.657 182.248 217.751 182.417 217.942C182.52 218.049 182.76 218.392 183.139 218.968C183.319 219.24 183.604 219.467 183.996 219.645C184.388 219.825 184.791 219.915 185.209 219.915C185.569 219.915 185.861 219.849 186.083 219.714C186.306 219.581 186.418 219.41 186.418 219.2C186.418 219.005 186.33 218.837 186.156 218.696C185.983 218.555 185.698 218.424 185.303 218.302C184.609 218.083 184.08 217.882 183.716 217.7C183.351 217.517 183.011 217.288 182.696 217.012C181.928 216.332 181.545 215.559 181.545 214.693C181.545 214.267 181.643 213.849 181.843 213.444C182.042 213.039 182.325 212.687 182.689 212.392C183.506 211.708 184.502 211.365 185.678 211.365Z" fill="#B41E89"/>
<path d="M196.457 211.365C197.167 211.365 197.852 211.522 198.512 211.832C198.823 211.978 199.04 212.051 199.162 212.051C199.25 212.051 199.391 212.03 199.584 211.985C199.646 211.97 199.717 211.963 199.796 211.963C200.049 211.963 200.269 212.079 200.458 212.312C200.925 212.876 201.159 213.577 201.159 214.41C201.159 214.997 200.957 215.428 200.555 215.7C200.336 215.846 200.089 215.919 199.817 215.919C199.569 215.919 199.367 215.865 199.213 215.758C199.057 215.651 198.907 215.462 198.761 215.19C198.551 214.807 198.382 214.53 198.251 214.363C198.12 214.196 197.96 214.044 197.769 213.907C197.297 213.577 196.805 213.412 196.29 213.412C195.789 213.412 195.392 213.592 195.099 213.954C194.805 214.316 194.657 214.8 194.657 215.409C194.657 216.245 194.87 217.01 195.292 217.704C195.864 218.632 196.687 219.097 197.756 219.097C198.15 219.097 198.54 219.03 198.926 218.9C199.312 218.769 199.612 218.597 199.826 218.39C200.01 218.214 200.16 218.128 200.278 218.128C200.447 218.128 200.593 218.207 200.715 218.366C200.837 218.525 200.897 218.715 200.897 218.938C200.897 219.221 200.812 219.536 200.642 219.885C200.473 220.235 200.267 220.509 200.029 220.708C199.927 220.792 199.717 220.865 199.395 220.927C199.211 220.961 198.965 221.051 198.658 221.197C197.938 221.542 197.19 221.713 196.412 221.713C195.6 221.713 194.792 221.531 193.985 221.167C193.046 220.745 192.307 220.095 191.762 219.221C191.229 218.37 190.961 217.481 190.961 216.553C190.961 215.475 191.295 214.492 191.966 213.602C192.549 212.831 193.31 212.24 194.248 211.832C194.964 211.522 195.699 211.365 196.457 211.365Z" fill="#B41E89"/>
<path d="M204.926 211.41C206.441 211.41 207.199 211.723 207.199 212.351C207.199 212.52 207.161 212.659 207.083 212.767C207.006 212.874 206.858 212.992 206.64 213.124C206.451 213.24 206.329 213.394 206.28 213.583C206.228 213.772 206.203 214.157 206.203 214.734C206.203 215.074 206.265 215.282 206.391 215.359C206.464 215.409 206.576 215.437 206.723 215.447C206.871 215.456 207.221 215.462 207.769 215.462C208.271 215.462 208.581 215.437 208.701 215.383C208.823 215.329 208.883 215.197 208.883 214.982C208.883 214.342 208.853 213.894 208.796 213.641C208.738 213.388 208.622 213.217 208.453 213.124C208.238 213.002 208.097 212.899 208.031 212.814C207.962 212.728 207.928 212.617 207.928 212.475C207.928 212.276 208.003 212.096 208.153 211.933C208.303 211.77 208.5 211.659 208.742 211.601C209.248 211.479 209.882 211.419 210.645 211.419C211.538 211.419 212.198 211.5 212.623 211.663C213.047 211.826 213.261 212.079 213.261 212.424C213.261 212.715 213.111 212.934 212.809 213.079C212.621 213.167 212.496 213.251 212.438 213.33C212.381 213.409 212.333 213.559 212.299 213.778C212.28 213.9 212.256 214.438 212.226 215.396C212.196 216.354 212.183 217.114 212.183 217.678C212.183 218.664 212.22 219.292 212.293 219.557C212.331 219.703 212.376 219.799 212.423 219.849C212.473 219.898 212.625 219.994 212.882 220.14C213.066 220.243 213.158 220.397 213.158 220.607C213.158 220.976 212.938 221.246 212.498 221.413C212.059 221.58 211.346 221.664 210.36 221.664C209.494 221.664 208.856 221.578 208.442 221.409C208.067 221.252 207.881 221.012 207.881 220.687C207.881 220.41 208.024 220.194 208.311 220.037C208.453 219.96 208.547 219.881 208.598 219.804C208.65 219.727 208.699 219.583 208.748 219.373C208.836 218.964 208.879 218.464 208.879 217.871C208.879 217.564 208.834 217.376 208.744 217.303C208.654 217.23 208.421 217.194 208.041 217.194C207.171 217.194 206.618 217.243 206.381 217.339C206.284 217.378 206.222 217.492 206.198 217.682C206.168 217.916 206.156 218.203 206.156 218.542C206.156 219.094 206.233 219.493 206.389 219.737C206.443 219.814 206.569 219.915 206.768 220.035C206.972 220.151 207.075 220.344 207.075 220.612C207.075 220.952 206.839 221.212 206.368 221.392C205.896 221.572 205.223 221.662 204.349 221.662C203.552 221.662 202.901 221.578 202.397 221.413C202.178 221.34 202.007 221.237 201.883 221.102C201.758 220.969 201.696 220.822 201.696 220.661C201.696 220.5 201.735 220.376 201.812 220.29C201.889 220.202 202.061 220.091 202.322 219.956C202.457 219.887 202.553 219.799 202.609 219.694C202.665 219.587 202.708 219.407 202.738 219.154C202.811 218.587 202.847 217.843 202.847 216.924C202.847 216.754 202.845 216.551 202.841 216.319C202.821 215.154 202.811 214.487 202.811 214.322C202.815 213.904 202.781 213.628 202.706 213.495C202.631 213.362 202.431 213.214 202.112 213.054C201.898 212.951 201.791 212.799 201.791 212.595C201.791 212.104 202.266 211.764 203.22 211.575C203.775 211.466 204.343 211.41 204.926 211.41Z" fill="#B41E89"/>
<path d="M219.355 211.365C220.605 211.365 221.696 211.723 222.628 212.437C223.26 212.927 223.772 213.564 224.166 214.346C224.55 215.124 224.743 215.902 224.743 216.677C224.743 217.824 224.363 218.85 223.605 219.752C222.964 220.52 222.126 221.072 221.091 221.407C220.455 221.61 219.816 221.713 219.176 221.713C218.336 221.713 217.53 221.537 216.763 221.188C215.835 220.766 215.108 220.127 214.583 219.27C214.073 218.445 213.818 217.532 213.818 216.538C213.818 215.381 214.146 214.361 214.802 213.476C215.385 212.69 216.169 212.111 217.157 211.742C217.817 211.492 218.55 211.365 219.355 211.365ZM218.663 213.457C218.256 213.457 217.933 213.639 217.695 214.003C217.51 214.275 217.418 214.599 217.418 214.972C217.418 215.52 217.53 216.157 217.753 216.877C217.975 217.597 218.258 218.24 218.599 218.797C218.749 219.035 218.935 219.225 219.156 219.365C219.377 219.506 219.602 219.577 219.831 219.577C220.2 219.577 220.498 219.437 220.725 219.161C220.95 218.885 221.063 218.52 221.063 218.068C221.063 217.481 220.969 216.847 220.778 216.165C220.59 215.486 220.343 214.905 220.041 214.423C219.857 214.127 219.643 213.894 219.4 213.722C219.156 213.557 218.912 213.467 218.663 213.457Z" fill="#B41E89"/>
<path d="M230.974 211.365C232.223 211.365 233.314 211.723 234.246 212.437C234.878 212.927 235.391 213.564 235.785 214.346C236.168 215.124 236.361 215.902 236.361 216.677C236.361 217.824 235.982 218.85 235.223 219.752C234.583 220.52 233.745 221.072 232.71 221.407C232.073 221.61 231.435 221.713 230.794 221.713C229.954 221.713 229.148 221.537 228.381 221.188C227.453 220.766 226.727 220.127 226.202 219.27C225.692 218.445 225.437 217.532 225.437 216.538C225.437 215.381 225.765 214.361 226.421 213.476C227.003 212.69 227.788 212.111 228.776 211.742C229.433 211.492 230.166 211.365 230.974 211.365ZM230.282 213.457C229.875 213.457 229.551 213.639 229.313 214.003C229.129 214.275 229.037 214.599 229.037 214.972C229.037 215.52 229.148 216.157 229.371 216.877C229.594 217.597 229.877 218.24 230.218 218.797C230.368 219.035 230.554 219.225 230.775 219.365C230.996 219.506 231.221 219.577 231.45 219.577C231.818 219.577 232.116 219.437 232.343 219.161C232.568 218.885 232.682 218.52 232.682 218.068C232.682 217.481 232.588 216.847 232.397 216.165C232.208 215.486 231.962 214.905 231.66 214.423C231.476 214.127 231.261 213.894 231.019 213.722C230.775 213.557 230.528 213.467 230.282 213.457Z" fill="#B41E89"/>
<path d="M241.68 214.755V218.1C241.68 218.852 241.746 219.339 241.877 219.557C242.038 219.814 242.374 219.943 242.891 219.943C243.443 219.943 243.883 219.821 244.202 219.579C244.521 219.336 244.746 218.957 244.873 218.441C244.946 218.126 245.111 217.967 245.368 217.967C245.625 217.967 245.835 218.083 245.998 218.314C246.161 218.546 246.242 218.846 246.242 219.214C246.242 219.816 246.019 220.461 245.571 221.145C245.43 221.364 245.306 221.514 245.201 221.593C245.094 221.672 244.965 221.713 244.815 221.713L243.197 221.516H238.104C237.769 221.516 237.533 221.477 237.396 221.4C237.197 221.289 237.098 221.121 237.098 220.896C237.098 220.761 237.131 220.659 237.197 220.594C237.264 220.528 237.422 220.436 237.675 220.314C237.951 220.183 238.129 219.999 238.206 219.761C238.269 219.561 238.301 218.981 238.301 218.019C238.301 217.571 238.288 216.928 238.264 216.088C238.241 215.282 238.226 214.674 238.221 214.266C238.221 213.879 238.191 213.611 238.131 213.469C238.071 213.326 237.943 213.223 237.748 213.159C237.426 213.047 237.223 212.957 237.135 212.889C236.979 212.766 236.901 212.629 236.901 212.473C236.901 212.117 237.195 211.849 237.784 211.663C238.284 211.502 238.954 211.423 239.796 211.423C240.739 211.423 241.444 211.472 241.909 211.569C242.511 211.699 242.814 211.963 242.814 212.355C242.814 212.516 242.773 212.634 242.693 212.713C242.614 212.79 242.417 212.895 242.106 213.026C241.922 213.109 241.804 213.249 241.757 213.448C241.703 213.649 241.68 214.084 241.68 214.755Z" fill="#B41E89"/>
</g>
<defs>
<linearGradient id="paint0_linear_266_285" x1="127.029" y1="123.225" x2="232.363" y2="123.225" gradientUnits="userSpaceOnUse">
<stop stop-color="#00AEEF"/>
<stop offset="1" stop-color="#1C75BC"/>
</linearGradient>
<linearGradient id="paint1_linear_266_285" x1="20.3831" y1="123.208" x2="127.028" y2="123.208" gradientUnits="userSpaceOnUse">
<stop stop-color="#1C75BC"/>
<stop offset="1" stop-color="#00AEEF"/>
</linearGradient>
<linearGradient id="paint2_linear_266_285" x1="6.49887" y1="137.088" x2="127.028" y2="137.088" gradientUnits="userSpaceOnUse">
<stop stop-color="#FFDE17"/>
<stop offset="1" stop-color="#FFF200"/>
</linearGradient>
<linearGradient id="paint3_linear_266_285" x1="127.028" y1="137.035" x2="246.769" y2="137.035" gradientUnits="userSpaceOnUse">
<stop stop-color="#FFF200"/>
<stop offset="1" stop-color="#FFDE17"/>
</linearGradient>
<clipPath id="clip0_266_285">
<rect width="252" height="222" fill="white"/>
</clipPath>
</defs>
</svg>
