<svg width="128" height="62" viewBox="0 0 128 62" fill="none" xmlns="http://www.w3.org/2000/svg">
<path fill-rule="evenodd" clip-rule="evenodd" d="M11.4368 0L0.828613 31.1651H5.1471L15.7553 0H11.4368Z" fill="#F5A006"/>
<path d="M127.828 10.952V14.7701C127.491 14.704 127.18 14.6776 126.908 14.6776C125.377 14.6776 124.184 15.1268 123.328 16.0383C122.459 16.9499 122.031 18.2578 122.031 19.962V28.2587H118.102V11.1502H121.85V13.6471C122.978 11.8504 124.975 10.952 127.828 10.952Z" fill="#3F3D56"/>
<path d="M111.812 13.4093C113.498 15.0475 114.328 17.1481 114.328 19.6978C114.328 22.2608 113.485 24.3746 111.812 26.0128C110.126 27.6509 107.987 28.47 105.354 28.47C102.773 28.47 100.646 27.6509 98.9476 26.0128C97.2617 24.3614 96.4058 22.2608 96.4058 19.6978C96.4058 17.1349 97.2487 15.0343 98.9476 13.4093C100.633 11.7711 102.773 10.952 105.354 10.952C107.974 10.952 110.126 11.7711 111.812 13.4093ZM110.36 19.6978C110.36 18.0993 109.893 16.8046 108.946 15.827C108 14.8361 106.806 14.3473 105.354 14.3473C103.902 14.3473 102.708 14.8361 101.775 15.827C100.841 16.8178 100.374 18.0993 100.374 19.6978C100.374 21.3096 100.841 22.5911 101.775 23.5819C102.708 24.5595 103.902 25.0483 105.354 25.0483C106.806 25.0483 108 24.5595 108.946 23.5819C109.893 22.6043 110.36 21.3096 110.36 19.6978Z" fill="#3F3D56"/>
<path d="M94.0324 24.4803L95.1348 27.3339C94.1881 28.1002 92.9301 28.4833 91.3609 28.4833C89.5194 28.4833 88.0929 27.9945 87.0813 27.0037C86.0698 26.026 85.577 24.5992 85.577 22.71V14.4795H82.8018V11.2691H85.577V7.35864H89.5064V11.2691H94.0195V14.4795H89.5064V22.6175C89.5064 24.335 90.2846 25.1805 91.8408 25.1805C92.7097 25.1805 93.4488 24.9427 94.0324 24.4803Z" fill="#3F3D56"/>
<path d="M80.0007 18.2182V28.2587H76.2787V26.1713C75.2931 27.7038 73.5424 28.47 70.9876 28.47C69.1072 28.47 67.5899 27.9944 66.4487 27.0432C65.2945 26.092 64.7368 24.8634 64.7368 23.3441C64.7368 21.8116 65.2945 20.5698 66.4227 19.645C67.551 18.707 69.3147 18.2446 71.7268 18.2446H76.0712V17.9936C76.0712 16.7914 75.7211 15.8666 75.0208 15.2324C74.3205 14.5851 73.2701 14.268 71.8824 14.268C69.8205 14.268 68.1346 14.8361 66.7858 15.9591L65.2426 13.0658C67.0452 11.6654 69.4184 10.952 72.3493 10.952C74.8263 10.952 76.7197 11.5597 78.0295 12.762C79.3393 13.9774 80.0007 15.7873 80.0007 18.2182ZM76.0583 22.9081V20.9265H71.9991C69.7426 20.9265 68.6014 21.6795 68.6014 23.1988C68.6014 23.9254 68.8867 24.4935 69.4573 24.9294C70.0279 25.3522 70.806 25.5636 71.8176 25.5636C72.8032 25.5636 73.6721 25.339 74.4502 24.8766C75.2024 24.4274 75.747 23.7537 76.0583 22.9081Z" fill="#3F3D56"/>
<path d="M61.4951 25.6957C59.9648 27.5585 57.7083 28.4832 54.7256 28.4832C51.9374 28.4832 49.6938 27.6774 47.9949 26.026C46.2961 24.3878 45.4531 22.2872 45.4531 19.6978C45.4531 17.1613 46.2701 15.0607 47.9042 13.4225C49.5382 11.7711 51.6261 10.952 54.129 10.952C56.606 10.952 58.642 11.7579 60.2372 13.3829C61.8323 15.0079 62.6234 17.1481 62.6234 19.7903C62.6234 20.0677 62.5974 20.4641 62.5585 20.9793H59.3812H49.3696C49.603 22.2476 50.1996 23.2384 51.1722 23.9782C52.1448 24.7181 53.3639 25.088 54.8034 25.088C56.6579 25.088 58.1752 24.4671 59.3683 23.2252L61.4951 25.6957ZM49.3437 18.3239H58.8755C58.7069 17.082 58.1881 16.078 57.3322 15.3117C56.4763 14.5455 55.3999 14.1623 54.116 14.1623C52.8581 14.1623 51.7947 14.5455 50.9258 15.2985C50.0699 16.0515 49.5382 17.0688 49.3437 18.3239Z" fill="#3F3D56"/>
<path d="M43.6502 10.952V14.7701C43.313 14.704 43.0017 14.6776 42.7294 14.6776C41.1991 14.6776 40.006 15.1268 39.1501 16.0383C38.2812 16.9499 37.8533 18.2578 37.8533 19.962V28.2587H33.9238V11.1502H37.6717V13.6471C38.8 11.8504 40.7971 10.952 43.6502 10.952Z" fill="#3F3D56"/>
<path d="M30.5391 14.9287L27.5045 16.7254C26.5319 15.1401 25.1443 14.3474 23.3287 14.3474C21.8503 14.3474 20.6442 14.8362 19.6716 15.8006C18.6989 16.7782 18.2191 18.0729 18.2191 19.6979C18.2191 21.3229 18.6989 22.6176 19.6456 23.5952C20.5923 24.5728 21.8243 25.0484 23.3157 25.0484C25.1443 25.0484 26.5319 24.269 27.4915 22.6836L30.5132 24.4672C29.8648 25.7486 28.9051 26.7395 27.6601 27.4397C26.4152 28.1399 24.9757 28.4833 23.3287 28.4833C20.6572 28.4833 18.4914 27.6642 16.7926 26.0261C15.0807 24.3747 14.2378 22.2741 14.2378 19.7111C14.2378 17.1482 15.0807 15.0476 16.7926 13.4226C18.4914 11.7844 20.6701 10.9653 23.3287 10.9653C24.9886 10.9653 26.4411 11.3088 27.6861 11.9826C28.97 12.6696 29.9037 13.6472 30.5391 14.9287Z" fill="#3F3D56"/>
<path d="M125.209 46.4108L119.646 59.0803C119.205 60.1504 118.673 60.8902 118.089 61.3394C117.493 61.7886 116.793 61.9999 115.95 61.9999C115.418 61.9999 114.912 61.9207 114.445 61.7489C113.978 61.5772 113.576 61.3262 113.239 60.9695L113.94 59.8333C114.51 60.4014 115.185 60.692 115.976 60.692C116.481 60.692 116.909 60.5467 117.272 60.2693C117.636 59.9786 117.973 59.4898 118.271 58.8028L118.764 57.7063L113.797 46.4108H115.353L119.529 56.0285L123.705 46.4108H125.209Z" fill="#3F3D56"/>
<path d="M111.994 51.1537V57.7196H110.49V51.3122C110.49 50.1364 110.217 49.2381 109.66 48.6171C109.102 47.9962 108.324 47.6923 107.3 47.6923C106.145 47.6923 105.238 48.049 104.576 48.7757C103.915 49.5023 103.591 50.5063 103.591 51.7746V57.7064H102.086V51.299C102.086 50.1232 101.801 49.2248 101.243 48.6039C100.686 47.983 99.8946 47.6791 98.87 47.6791C97.7288 47.6791 96.821 48.0358 96.1596 48.7625C95.4982 49.4891 95.1611 50.4931 95.1611 51.7614V57.6932H93.6567V46.3844H95.0962V48.4454C95.4853 47.7584 96.0429 47.23 96.7432 46.86C97.4435 46.4901 98.2605 46.3052 99.1813 46.3052C100.102 46.3052 100.906 46.5033 101.593 46.9129C102.268 47.3092 102.787 47.9037 103.124 48.6964C103.539 47.9434 104.122 47.3621 104.887 46.9393C105.653 46.5165 106.534 46.3052 107.52 46.3052C108.921 46.3052 110.01 46.7147 110.801 47.5338C111.605 48.3661 111.994 49.5683 111.994 51.1537Z" fill="#3F3D56"/>
<path d="M90.6091 52.0652L90.5962 52.5408H81.2978C81.3886 53.7166 81.8295 54.6678 82.6336 55.3944C83.4246 56.121 84.4491 56.4778 85.6682 56.4778C86.3685 56.4778 86.9909 56.3589 87.5745 56.1078C88.1581 55.8568 88.6509 55.4869 89.0789 54.9981L89.9218 55.9889C89.429 56.5966 88.8065 57.059 88.0673 57.3629C87.3281 57.68 86.5111 57.8385 85.6293 57.8385C84.488 57.8385 83.4765 57.5875 82.5946 57.0987C81.7128 56.6099 81.0255 55.9229 80.5327 55.0509C80.0399 54.179 79.7935 53.1882 79.7935 52.0784C79.7935 50.9687 80.0399 49.9779 80.5067 49.1059C80.9736 48.234 81.635 47.547 82.452 47.0582C83.269 46.5694 84.2027 46.3184 85.2272 46.3184C86.2517 46.3184 87.1725 46.5694 87.9895 47.0582C88.8065 47.547 89.442 48.2208 89.9088 49.0927C90.3757 49.9514 90.6091 50.9423 90.6091 52.0652ZM81.2978 51.4047H89.1826C89.0789 50.2817 88.6639 49.3834 87.9376 48.6832C87.2114 47.983 86.3036 47.6395 85.2272 47.6395C84.1509 47.6395 83.256 47.983 82.5428 48.6832C81.8036 49.3701 81.4015 50.2685 81.2978 51.4047Z" fill="#3F3D56"/>
<path d="M76.7329 41.7605V57.7196H75.3064V55.4869C74.8525 56.2399 74.2559 56.8212 73.5167 57.2308C72.7775 57.6271 71.9475 57.8385 71.0138 57.8385C69.9763 57.8385 69.0296 57.5875 68.1867 57.1119C67.3437 56.6231 66.6823 55.9361 66.2025 55.0641C65.7357 54.1922 65.4893 53.2014 65.4893 52.0784C65.4893 50.9555 65.7357 49.9646 66.2025 49.0795C66.6823 48.2075 67.3567 47.5338 68.1867 47.0582C69.0296 46.5826 69.9763 46.3316 71.0138 46.3316C71.9086 46.3316 72.7257 46.5297 73.4519 46.8996C74.1781 47.2828 74.7747 47.8376 75.2286 48.5643V41.7737H76.7329V41.7605ZM75.2545 52.0652C75.2545 51.2065 75.0729 50.427 74.7098 49.7665C74.3467 49.0927 73.8539 48.5642 73.2314 48.2075C72.6089 47.8376 71.9086 47.6527 71.1305 47.6527C70.3395 47.6527 69.6392 47.8376 69.0037 48.2075C68.3812 48.5642 67.8884 49.0927 67.5253 49.7665C67.1622 50.4402 66.9806 51.2065 66.9806 52.0652C66.9806 52.9239 67.1622 53.6902 67.5253 54.364C67.8884 55.0377 68.3683 55.553 69.0037 55.9229C69.6392 56.2928 70.3395 56.4777 71.1305 56.4777C71.8957 56.4777 72.6089 56.2928 73.2314 55.9229C73.8539 55.553 74.3597 55.0377 74.7098 54.364C75.0859 53.6902 75.2545 52.9239 75.2545 52.0652Z" fill="#3F3D56"/>
<path d="M62.4806 50.7045V57.7196H61.0411V55.9625C60.7039 56.5438 60.2111 57.0062 59.5497 57.3365C58.9013 57.6535 58.1232 57.8253 57.2154 57.8253C55.9834 57.8253 54.9978 57.5346 54.2586 56.9269C53.5323 56.3192 53.1562 55.5265 53.1562 54.5357C53.1562 53.5713 53.4934 52.8051 54.1808 52.2105C54.8551 51.6293 55.9445 51.3254 57.4358 51.3254H60.9633V50.6384C60.9633 49.674 60.7039 48.921 60.1592 48.4057C59.6275 47.9037 58.8494 47.6527 57.8249 47.6527C57.1116 47.6527 56.4502 47.7716 55.7888 47.9962C55.1404 48.2472 54.5828 48.5643 54.1159 48.987L53.4416 47.8376C53.9992 47.3488 54.6736 46.9789 55.4646 46.7147C56.2557 46.4505 57.0857 46.3184 57.9546 46.3184C59.407 46.3184 60.5223 46.6883 61.2875 47.4281C62.0915 48.1679 62.4806 49.2644 62.4806 50.7045ZM60.9762 54.3243V52.4748H57.4877C55.5813 52.4748 54.6476 53.1485 54.6476 54.4961C54.6476 55.1566 54.894 55.6851 55.3868 56.055C55.8796 56.4381 56.5669 56.6231 57.4488 56.6231C58.2918 56.6231 59.018 56.4249 59.6275 56.0418C60.237 55.6322 60.6779 55.0642 60.9762 54.3243Z" fill="#3F3D56"/>
<path d="M51.159 48.5511L50.0307 49.3305C49.6676 48.7756 49.2008 48.3529 48.6431 48.0754C48.0725 47.798 47.463 47.6527 46.8016 47.6527C46.0105 47.6527 45.2713 47.8376 44.6359 48.2076C43.9874 48.5643 43.4946 49.0927 43.1315 49.7665C42.7684 50.4402 42.5869 51.2065 42.5869 52.0652C42.5869 52.9372 42.7684 53.7034 43.1315 54.3772C43.4946 55.0377 43.9874 55.553 44.6359 55.9229C45.2713 56.2928 45.9976 56.4778 46.8016 56.4778C47.476 56.4778 48.0725 56.3324 48.6431 56.0682C49.2008 55.804 49.6676 55.3812 50.0307 54.8264L51.159 55.6058C50.7181 56.3456 50.1215 56.9005 49.3564 57.2704C48.6042 57.6535 47.7483 57.8385 46.8016 57.8385C45.6993 57.8385 44.7267 57.5875 43.8578 57.1119C42.9889 56.6231 42.3016 55.9361 41.8217 55.0509C41.3289 54.1658 41.0825 53.175 41.0825 52.0784C41.0825 50.9687 41.3289 49.9779 41.8217 49.1059C42.3145 48.234 43.0018 47.547 43.8578 47.0582C44.7267 46.5694 45.6993 46.3184 46.8016 46.3184C47.7613 46.3184 48.6172 46.5165 49.3694 46.8864C50.1345 47.2696 50.7181 47.8244 51.159 48.5511Z" fill="#3F3D56"/>
<path d="M33.4185 42.6589L40.175 57.7197H38.528L36.7513 53.6903H28.5164L26.7397 57.7197H25.1187L31.8752 42.6589H33.4185ZM36.1937 52.4088L32.6404 44.3235L29.087 52.4088H36.1937Z" fill="#3F3D56"/>
<path d="M19.4642 42.6589V44.0461H14.2639V57.7197H12.7077V44.0461H7.50732V42.6589H19.4642Z" fill="#3F3D56"/>
<path d="M5.01743 42.6589H3.44824V57.7197H5.01743V42.6589Z" fill="#3F3D56"/>
</svg>
