<svg width="93" height="95" viewBox="0 0 93 95" fill="none" xmlns="http://www.w3.org/2000/svg">
<path d="M37.0887 78.1779L31.1343 86.766C30.2002 88.1133 28.6648 88.9171 27.0253 88.9171H5.18262C2.42119 88.9171 0.182617 86.6785 0.182617 83.9171V79.0778C0.182617 76.3164 2.42119 74.0778 5.18261 74.0778H7.27214C8.47057 74.0778 9.62914 73.6474 10.5368 72.8649L14.0745 69.8152C14.9681 69.0448 15.5606 67.9832 15.747 66.8181L17.1413 58.1035C17.1831 57.8422 17.2041 57.5781 17.2041 57.3135V35.4787C17.2041 34.7426 17.0416 34.0157 16.7282 33.3497L15.8139 31.4069C15.5804 30.9106 15.2289 30.4791 14.7902 30.1501L8.45893 25.4016C7.90488 24.9861 8.19876 24.1044 8.89133 24.1044C9.53703 24.1044 9.85688 23.3206 9.39552 22.8689L7.60225 21.113L2.41953 16.0382C1.11853 14.7643 0.896481 12.7497 1.88881 11.223C2.59405 10.138 3.80026 9.48342 5.09429 9.48342H26.8145C28.3271 9.48342 29.7583 10.1681 30.7075 11.3458L36.8205 18.9305C38.9082 21.5208 42.8962 21.3879 44.8068 18.6643L49.7539 11.612C50.6899 10.2778 52.2174 9.48342 53.8472 9.48342H76.9517C78.7849 9.48342 80.271 10.9695 80.271 12.8027C80.271 13.483 80.0619 14.1469 79.6721 14.7045L63.9334 37.2169C63.3462 38.0568 63.0312 39.0569 63.0312 40.0817V54.5341C63.0312 55.7385 63.466 56.9024 64.2555 57.8119L79.0467 74.8498C79.8362 75.7593 80.271 76.9232 80.271 78.1276V85.4447C80.271 88.2061 78.0324 90.4447 75.271 90.4447H57.2025C55.6492 90.4447 54.184 89.7227 53.2376 88.4909L45.1626 77.9806C43.0992 75.2948 39.0186 75.3945 37.0887 78.1779Z" fill="url(#paint0_linear_52_2)"/>
<mask id="mask0_52_2" style="mask-type:alpha" maskUnits="userSpaceOnUse" x="0" y="9" width="81" height="82">
<path d="M37.0887 78.1779L31.1343 86.766C30.2002 88.1133 28.6648 88.9171 27.0253 88.9171H5.18262C2.42119 88.9171 0.182617 86.6785 0.182617 83.9171V79.0778C0.182617 76.3164 2.42119 74.0778 5.18261 74.0778H7.27214C8.47057 74.0778 9.62914 73.6474 10.5368 72.8649L14.0745 69.8152C14.9681 69.0448 15.5606 67.9832 15.747 66.8181L17.1413 58.1035C17.1831 57.8422 17.2041 57.5781 17.2041 57.3135V35.4787C17.2041 34.7426 17.0416 34.0157 16.7282 33.3497L15.8139 31.4069C15.5804 30.9106 15.2289 30.4791 14.7902 30.1501L8.45893 25.4016C7.90488 24.9861 8.19876 24.1044 8.89133 24.1044C9.53703 24.1044 9.85688 23.3206 9.39552 22.8689L7.60225 21.113L2.41953 16.0382C1.11853 14.7643 0.896481 12.7497 1.88881 11.223C2.59405 10.138 3.80026 9.48342 5.09429 9.48342H26.8145C28.3271 9.48342 29.7583 10.1681 30.7075 11.3458L36.8205 18.9305C38.9082 21.5208 42.8962 21.3879 44.8068 18.6643L49.7539 11.612C50.6899 10.2778 52.2174 9.48342 53.8472 9.48342H76.9517C78.7849 9.48342 80.271 10.9695 80.271 12.8027C80.271 13.483 80.0619 14.1469 79.6721 14.7045L63.9334 37.2169C63.3462 38.0568 63.0312 39.0569 63.0312 40.0817V54.5341C63.0312 55.7385 63.466 56.9024 64.2555 57.8119L79.0467 74.8498C79.8362 75.7593 80.271 76.9232 80.271 78.1276V85.4447C80.271 88.2061 78.0324 90.4447 75.271 90.4447H57.2025C55.6492 90.4447 54.184 89.7227 53.2376 88.4909L45.1626 77.9806C43.0992 75.2948 39.0186 75.3945 37.0887 78.1779Z" fill="url(#paint1_linear_52_2)"/>
</mask>
<g mask="url(#mask0_52_2)">
<g style="mix-blend-mode:darken" filter="url(#filter0_f_52_2)">
<ellipse cx="73.8296" cy="81.5401" rx="20.0766" ry="9.16542" transform="rotate(168.556 73.8296 81.5401)" fill="#F16765"/>
<ellipse cx="64.0411" cy="68.3815" rx="20.0766" ry="9.16542" transform="rotate(168.556 64.0411 68.3815)" fill="#55B5C0"/>
<ellipse cx="45.4893" cy="77.926" rx="20.0766" ry="9.16542" transform="rotate(168.556 45.4893 77.926)" fill="#D46A82"/>
<ellipse cx="24.1168" cy="88.9323" rx="20.0766" ry="9.16542" transform="rotate(168.556 24.1168 88.9323)" fill="#CD42F3"/>
<ellipse cx="21.4268" cy="73.4459" rx="20.0766" ry="9.16542" transform="rotate(168.556 21.4268 73.4459)" fill="#FF5A9C"/>
<ellipse cx="39.8106" cy="65.2713" rx="20.0766" ry="9.16542" transform="rotate(168.556 39.8106 65.2713)" fill="#C2BAFF"/>
<ellipse cx="31.9112" cy="54.8472" rx="20.0766" ry="9.16542" transform="rotate(168.556 31.9112 54.8472)" fill="#5199FF"/>
<ellipse cx="28.5342" cy="38.1642" rx="20.0766" ry="9.16542" transform="rotate(168.556 28.5342 38.1642)" fill="#74C9FC"/>
<ellipse cx="18.4512" cy="45.5489" rx="20.0766" ry="9.16542" transform="rotate(168.556 18.4512 45.5489)" fill="#74C9FC"/>
<ellipse cx="3.67095" cy="20.9323" rx="20.0766" ry="9.16542" transform="rotate(168.556 3.67095 20.9323)" fill="#A46C93"/>
<ellipse cx="-0.488715" cy="35.5788" rx="20.0766" ry="9.16542" transform="rotate(168.556 -0.488715 35.5788)" fill="#E9517F"/>
<ellipse cx="24.9937" cy="25.0764" rx="20.0766" ry="9.16542" transform="rotate(168.556 24.9937 25.0764)" fill="#702D8C"/>
<ellipse cx="56.7877" cy="41.3505" rx="20.0766" ry="9.16542" transform="rotate(168.556 56.7877 41.3505)" fill="#5199FF"/>
<ellipse cx="53.4102" cy="24.6674" rx="20.0766" ry="9.16542" transform="rotate(168.556 53.4102 24.6674)" fill="#FC6765"/>
<ellipse cx="43.1939" cy="11.5953" rx="20.0766" ry="9.16542" transform="rotate(168.556 43.1939 11.5953)" fill="#933BF1"/>
<ellipse cx="69.6397" cy="10.2494" rx="20.0766" ry="9.16542" transform="rotate(168.556 69.6397 10.2494)" fill="#55E7ED"/>
<ellipse cx="61.4429" cy="55.5483" rx="20.0766" ry="9.16542" transform="rotate(168.556 61.4429 55.5483)" fill="#C2BAFF"/>
</g>
</g>
<g filter="url(#filter1_d_52_2)">
<path d="M41.453 73.8134L35.4986 82.4015C34.5644 83.7488 33.0291 84.5526 31.3896 84.5526H9.54688C6.78545 84.5526 4.54688 82.314 4.54688 79.5526V74.7133C4.54688 71.9519 6.78545 69.7133 9.54687 69.7133H11.6364C12.8348 69.7133 13.9934 69.2829 14.9011 68.5004L18.4387 65.4507C19.3324 64.6803 19.9248 63.6187 20.1112 62.4536L21.5056 53.739C21.5474 53.4777 21.5684 53.2136 21.5684 52.949V31.1142C21.5684 30.3781 21.4059 29.6512 21.0925 28.9852L20.1782 27.0424C19.9447 26.5461 19.5932 26.1146 19.1544 25.7856L12.8232 21.0371C12.2691 20.6216 12.563 19.74 13.2556 19.74C13.9013 19.74 14.2211 18.9561 13.7598 18.5044L11.9665 16.7485L6.78379 11.6737C5.48279 10.3998 5.26074 8.38516 6.25307 6.85849C6.95831 5.77352 8.16451 5.11892 9.45855 5.11892H31.1788C32.6913 5.11892 34.1226 5.80363 35.0717 6.9813L41.1848 14.566C43.2725 17.1563 47.2605 17.0234 49.1711 14.2998L54.1182 7.24751C55.0541 5.91326 56.5817 5.11892 58.2115 5.11892H81.3159C83.1491 5.11892 84.6352 6.60501 84.6352 8.43819C84.6352 9.11854 84.4262 9.78245 84.0363 10.34L68.2976 32.8524C67.7104 33.6923 67.3955 34.6924 67.3955 35.7172V50.1696C67.3955 51.374 67.8302 52.5379 68.6198 53.4474L83.4109 70.4853C84.2005 71.3948 84.6352 72.5587 84.6352 73.7631V81.0802C84.6352 83.8416 82.3966 86.0802 79.6352 86.0802H61.5668C60.0134 86.0802 58.5483 85.3582 57.6019 84.1264L49.5269 73.6161C47.4634 70.9303 43.3828 71.03 41.453 73.8134Z" fill="url(#paint2_linear_52_2)"/>
<mask id="mask1_52_2" style="mask-type:alpha" maskUnits="userSpaceOnUse" x="4" y="5" width="81" height="82">
<path d="M41.453 73.8134L35.4986 82.4015C34.5644 83.7488 33.0291 84.5526 31.3896 84.5526H9.54688C6.78545 84.5526 4.54688 82.314 4.54688 79.5526V74.7133C4.54688 71.9519 6.78545 69.7133 9.54687 69.7133H11.6364C12.8348 69.7133 13.9934 69.2829 14.9011 68.5004L18.4387 65.4507C19.3324 64.6803 19.9248 63.6187 20.1112 62.4536L21.5056 53.739C21.5474 53.4777 21.5684 53.2136 21.5684 52.949V31.1142C21.5684 30.3781 21.4059 29.6512 21.0925 28.9852L20.1782 27.0424C19.9447 26.5461 19.5932 26.1146 19.1544 25.7856L12.8232 21.0371C12.2691 20.6216 12.563 19.74 13.2556 19.74C13.9013 19.74 14.2211 18.9561 13.7598 18.5044L11.9665 16.7485L6.78379 11.6737C5.48279 10.3998 5.26074 8.38516 6.25307 6.85849C6.95831 5.77352 8.16451 5.11892 9.45855 5.11892H31.1788C32.6913 5.11892 34.1226 5.80363 35.0717 6.9813L41.1848 14.566C43.2725 17.1563 47.2605 17.0234 49.1711 14.2998L54.1182 7.24751C55.0541 5.91326 56.5817 5.11892 58.2115 5.11892H81.3159C83.1491 5.11892 84.6352 6.60501 84.6352 8.43819C84.6352 9.11854 84.4262 9.78245 84.0363 10.34L68.2976 32.8524C67.7104 33.6923 67.3955 34.6924 67.3955 35.7172V50.1696C67.3955 51.374 67.8302 52.5379 68.6198 53.4474L83.4109 70.4853C84.2005 71.3948 84.6352 72.5587 84.6352 73.7631V81.0802C84.6352 83.8416 82.3966 86.0802 79.6352 86.0802H61.5668C60.0134 86.0802 58.5483 85.3582 57.6019 84.1264L49.5269 73.6161C47.4634 70.9303 43.3828 71.03 41.453 73.8134Z" fill="url(#paint3_linear_52_2)"/>
</mask>
<g mask="url(#mask1_52_2)">
<g style="mix-blend-mode:darken" filter="url(#filter2_f_52_2)">
<ellipse cx="89.7103" cy="37.7156" rx="20.0766" ry="9.16542" transform="rotate(-64.5628 89.7103 37.7156)" fill="#F16765"/>
<ellipse cx="73.3099" cy="37.648" rx="20.0766" ry="9.16542" transform="rotate(-64.5628 73.3099 37.648)" fill="#55B5C0"/>
<ellipse cx="69.8099" cy="58.2154" rx="20.0766" ry="9.16542" transform="rotate(-64.5628 69.8099 58.2154)" fill="#D46A82"/>
<ellipse cx="65.7865" cy="81.9167" rx="20.0766" ry="9.16542" transform="rotate(-64.5628 65.7865 81.9167)" fill="#CD42F3"/>
<ellipse cx="51.785" cy="74.7738" rx="20.0766" ry="9.16542" transform="rotate(-64.5628 51.785 74.7738)" fill="#FF5A9C"/>
<ellipse cx="56.2796" cy="55.163" rx="20.0766" ry="9.16542" transform="rotate(-64.5628 56.2796 55.163)" fill="#C2BAFF"/>
<ellipse cx="43.201" cy="55.2252" rx="20.0766" ry="9.16542" transform="rotate(-64.5628 43.201 55.2252)" fill="#5199FF"/>
<ellipse cx="27.8295" cy="47.9142" rx="20.0766" ry="9.16542" transform="rotate(-64.5628 27.8295 47.9142)" fill="#74C9FC"/>
<ellipse cx="27.6854" cy="60.4113" rx="20.0766" ry="9.16542" transform="rotate(-64.5628 27.6854 60.4113)" fill="#74C9FC"/>
<ellipse cx="-0.875628" cy="57.4596" rx="20.0766" ry="9.16542" transform="rotate(-64.5628 -0.875628 57.4596)" fill="#A46C93"/>
<ellipse cx="8.34312" cy="69.5771" rx="20.0766" ry="9.16542" transform="rotate(-64.5628 8.34312 69.5771)" fill="#E9517F"/>
<ellipse cx="15.2367" cy="42.891" rx="20.0766" ry="9.16542" transform="rotate(-64.5628 15.2367 42.891)" fill="#702D8C"/>
<ellipse cx="47.3353" cy="27.2269" rx="20.0766" ry="9.16542" transform="rotate(-64.5628 47.3353 27.2269)" fill="#5199FF"/>
<ellipse cx="31.9637" cy="19.9158" rx="20.0766" ry="9.16542" transform="rotate(-64.5628 31.9637 19.9158)" fill="#FC6765"/>
<ellipse cx="15.3763" cy="20.2423" rx="20.0766" ry="9.16542" transform="rotate(-64.5628 15.3763 20.2423)" fill="#933BF1"/>
<ellipse cx="30.1712" cy="-1.71877" rx="20.0766" ry="9.16542" transform="rotate(-64.5628 30.1712 -1.71877)" fill="#55E7ED"/>
<ellipse cx="61.4857" cy="32.0241" rx="20.0766" ry="9.16542" transform="rotate(-64.5628 61.4857 32.0241)" fill="#C2BAFF"/>
</g>
</g>
</g>
<g filter="url(#filter3_d_52_2)">
<path d="M45.8177 69.4489L39.8633 78.037C38.9292 79.3843 37.3939 80.1881 35.7544 80.1881H13.9116C11.1502 80.1881 8.91162 77.9495 8.91162 75.1881V70.3488C8.91162 67.5874 11.1502 65.3488 13.9116 65.3488H16.0011C17.1996 65.3488 18.3581 64.9184 19.2658 64.1359L22.8035 61.0862C23.6971 60.3158 24.2896 59.2542 24.476 58.0891L25.8703 49.3745C25.9121 49.1133 25.9331 48.8491 25.9331 48.5846V26.7497C25.9331 26.0137 25.7706 25.2867 25.4572 24.6207L24.543 22.6779C24.3094 22.1817 23.9579 21.7502 23.5192 21.4211L17.1879 16.6727C16.6339 16.2571 16.9278 15.3755 17.6203 15.3755C18.266 15.3755 18.5859 14.5916 18.1245 14.1399L16.3312 12.384L11.1485 7.30924C9.84754 6.03535 9.62548 4.02068 10.6178 2.49401C11.3231 1.40904 12.5293 0.754442 13.8233 0.754442H35.5435C37.0561 0.754442 38.4873 1.43915 39.4365 2.61682L45.5495 10.2015C47.6372 12.7918 51.6252 12.6589 53.5358 9.93532L58.4829 2.88303C59.4189 1.54878 60.9464 0.754442 62.5762 0.754442H85.6807C87.5139 0.754442 89 2.24053 89 4.07371C89 4.75405 88.7909 5.41797 88.4011 5.97556L72.6624 28.4879C72.0752 29.3278 71.7602 30.3279 71.7602 31.3528V45.8051C71.7602 47.0095 72.195 48.1734 72.9845 49.0829L87.7757 66.1208C88.5652 67.0303 89 68.1942 89 69.3986V76.7157C89 79.4771 86.7614 81.7157 84 81.7157H65.9315C64.3782 81.7157 62.913 80.9937 61.9666 79.7619L53.8917 69.2516C51.8282 66.5658 47.7476 66.6655 45.8177 69.4489Z" fill="url(#paint4_linear_52_2)"/>
<mask id="mask2_52_2" style="mask-type:alpha" maskUnits="userSpaceOnUse" x="8" y="0" width="81" height="82">
<path d="M45.8177 69.4489L39.8633 78.037C38.9292 79.3843 37.3939 80.1881 35.7544 80.1881H13.9116C11.1502 80.1881 8.91162 77.9495 8.91162 75.1881V70.3488C8.91162 67.5874 11.1502 65.3488 13.9116 65.3488H16.0011C17.1996 65.3488 18.3581 64.9184 19.2658 64.1359L22.8035 61.0862C23.6971 60.3158 24.2896 59.2542 24.476 58.0891L25.8703 49.3745C25.9121 49.1133 25.9331 48.8491 25.9331 48.5846V26.7497C25.9331 26.0137 25.7706 25.2867 25.4572 24.6207L24.543 22.6779C24.3094 22.1817 23.9579 21.7502 23.5192 21.4211L17.1879 16.6727C16.6339 16.2571 16.9278 15.3755 17.6203 15.3755C18.266 15.3755 18.5859 14.5916 18.1245 14.1399L16.3312 12.384L11.1485 7.30924C9.84754 6.03535 9.62548 4.02068 10.6178 2.49401C11.3231 1.40904 12.5293 0.754442 13.8233 0.754442H35.5435C37.0561 0.754442 38.4873 1.43915 39.4365 2.61682L45.5495 10.2015C47.6372 12.7918 51.6252 12.6589 53.5358 9.93532L58.4829 2.88303C59.4189 1.54878 60.9464 0.754442 62.5762 0.754442H85.6807C87.5139 0.754442 89 2.24053 89 4.07371C89 4.75405 88.7909 5.41797 88.4011 5.97556L72.6624 28.4879C72.0752 29.3278 71.7602 30.3279 71.7602 31.3528V45.8051C71.7602 47.0095 72.195 48.1734 72.9845 49.0829L87.7757 66.1208C88.5652 67.0303 89 68.1942 89 69.3986V76.7157C89 79.4771 86.7614 81.7157 84 81.7157H65.9315C64.3782 81.7157 62.913 80.9937 61.9666 79.7619L53.8917 69.2516C51.8282 66.5658 47.7476 66.6655 45.8177 69.4489Z" fill="url(#paint5_linear_52_2)"/>
</mask>
<g mask="url(#mask2_52_2)">
<g style="mix-blend-mode:darken" filter="url(#filter4_f_52_2)">
<ellipse cx="22.0054" cy="4.24604" rx="20.0766" ry="9.16542" fill="#F16765"/>
<ellipse cx="28.9883" cy="19.0853" rx="20.0766" ry="9.16542" fill="#55B5C0"/>
<ellipse cx="49.0649" cy="13.4115" rx="20.0766" ry="9.16542" fill="#D46A82"/>
<ellipse cx="72.1968" cy="6.86473" rx="20.0766" ry="9.16542" fill="#CD42F3"/>
<ellipse cx="71.7602" cy="22.5769" rx="20.0766" ry="9.16542" fill="#FF5A9C"/>
<ellipse cx="52.1201" cy="26.9414" rx="20.0766" ry="9.16542" fill="#C2BAFF"/>
<ellipse cx="57.7939" cy="38.7255" rx="20.0766" ry="9.16542" fill="#5199FF"/>
<ellipse cx="57.7939" cy="55.747" rx="20.0766" ry="9.16542" fill="#74C9FC"/>
<ellipse cx="69.1416" cy="50.5096" rx="20.0766" ry="9.16542" fill="#74C9FC"/>
<ellipse cx="78.7436" cy="77.5694" rx="20.0766" ry="9.16542" fill="#A46C93"/>
<ellipse cx="85.7265" cy="64.0395" rx="20.0766" ry="9.16542" fill="#E9517F"/>
<ellipse cx="58.667" cy="69.2769" rx="20.0766" ry="9.16542" fill="#702D8C"/>
<ellipse cx="30.7344" cy="47.018" rx="20.0766" ry="9.16542" fill="#5199FF"/>
<ellipse cx="30.7344" cy="64.0395" rx="20.0766" ry="9.16542" fill="#FC6765"/>
<ellipse cx="38.1538" cy="78.8788" rx="20.0766" ry="9.16542" fill="#933BF1"/>
<ellipse cx="11.9668" cy="74.9507" rx="20.0766" ry="9.16542" fill="#55E7ED"/>
<ellipse cx="24.6396" cy="31.0553" rx="15.7997" ry="10.3889" fill="#C2BAFF"/>
</g>
</g>
</g>
<defs>
<filter id="filter0_f_52_2" x="-40.2515" y="-19.5799" width="153.844" height="138.341" filterUnits="userSpaceOnUse" color-interpolation-filters="sRGB">
<feFlood flood-opacity="0" result="BackgroundImageFix"/>
<feBlend mode="normal" in="SourceGraphic" in2="BackgroundImageFix" result="shape"/>
<feGaussianBlur stdDeviation="10" result="effect1_foregroundBlur_52_2"/>
</filter>
<filter id="filter1_d_52_2" x="0.546875" y="5.11892" width="88.0884" height="88.9612" filterUnits="userSpaceOnUse" color-interpolation-filters="sRGB">
<feFlood flood-opacity="0" result="BackgroundImageFix"/>
<feColorMatrix in="SourceAlpha" type="matrix" values="0 0 0 0 0 0 0 0 0 0 0 0 0 0 0 0 0 0 127 0" result="hardAlpha"/>
<feOffset dy="4"/>
<feGaussianBlur stdDeviation="2"/>
<feComposite in2="hardAlpha" operator="out"/>
<feColorMatrix type="matrix" values="0 0 0 0 0 0 0 0 0 0 0 0 0 0 0 0 0 0 0.25 0"/>
<feBlend mode="normal" in2="BackgroundImageFix" result="effect1_dropShadow_52_2"/>
<feBlend mode="normal" in="SourceGraphic" in2="effect1_dropShadow_52_2" result="shape"/>
</filter>
<filter id="filter2_f_52_2" x="-32.8286" y="-40.2755" width="154.492" height="160.749" filterUnits="userSpaceOnUse" color-interpolation-filters="sRGB">
<feFlood flood-opacity="0" result="BackgroundImageFix"/>
<feBlend mode="normal" in="SourceGraphic" in2="BackgroundImageFix" result="shape"/>
<feGaussianBlur stdDeviation="10" result="effect1_foregroundBlur_52_2"/>
</filter>
<filter id="filter3_d_52_2" x="4.91162" y="0.754442" width="88.0884" height="88.9612" filterUnits="userSpaceOnUse" color-interpolation-filters="sRGB">
<feFlood flood-opacity="0" result="BackgroundImageFix"/>
<feColorMatrix in="SourceAlpha" type="matrix" values="0 0 0 0 0 0 0 0 0 0 0 0 0 0 0 0 0 0 127 0" result="hardAlpha"/>
<feOffset dy="4"/>
<feGaussianBlur stdDeviation="2"/>
<feComposite in2="hardAlpha" operator="out"/>
<feColorMatrix type="matrix" values="0 0 0 0 0 0 0 0 0 0 0 0 0 0 0 0 0 0 0.25 0"/>
<feBlend mode="normal" in2="BackgroundImageFix" result="effect1_dropShadow_52_2"/>
<feBlend mode="normal" in="SourceGraphic" in2="effect1_dropShadow_52_2" result="shape"/>
</filter>
<filter id="filter4_f_52_2" x="-18.1099" y="-14.9194" width="133.913" height="112.964" filterUnits="userSpaceOnUse" color-interpolation-filters="sRGB">
<feFlood flood-opacity="0" result="BackgroundImageFix"/>
<feBlend mode="normal" in="SourceGraphic" in2="BackgroundImageFix" result="shape"/>
<feGaussianBlur stdDeviation="5" result="effect1_foregroundBlur_52_2"/>
</filter>
<linearGradient id="paint0_linear_52_2" x1="0.182616" y1="13.4115" x2="80.4892" y2="90.6629" gradientUnits="userSpaceOnUse">
<stop stop-color="#FF6D60"/>
<stop offset="0.213542" stop-color="#58C0F5"/>
<stop offset="0.526042" stop-color="#7E057E"/>
<stop offset="1" stop-color="#4B64C9"/>
</linearGradient>
<linearGradient id="paint1_linear_52_2" x1="0.182616" y1="13.4115" x2="80.4892" y2="90.6629" gradientUnits="userSpaceOnUse">
<stop stop-color="#FF6D60"/>
<stop offset="0.213542" stop-color="#58C0F5"/>
<stop offset="0.526042" stop-color="#7E057E"/>
<stop offset="1" stop-color="#4B64C9"/>
</linearGradient>
<linearGradient id="paint2_linear_52_2" x1="4.54687" y1="9.04696" x2="84.8534" y2="86.2984" gradientUnits="userSpaceOnUse">
<stop stop-color="#FF6D60"/>
<stop offset="0.213542" stop-color="#58C0F5"/>
<stop offset="0.526042" stop-color="#7E057E"/>
<stop offset="1" stop-color="#4B64C9"/>
</linearGradient>
<linearGradient id="paint3_linear_52_2" x1="4.54687" y1="9.04696" x2="84.8534" y2="86.2984" gradientUnits="userSpaceOnUse">
<stop stop-color="#FF6D60"/>
<stop offset="0.213542" stop-color="#58C0F5"/>
<stop offset="0.526042" stop-color="#7E057E"/>
<stop offset="1" stop-color="#4B64C9"/>
</linearGradient>
<linearGradient id="paint4_linear_52_2" x1="8.91162" y1="4.68248" x2="89.2182" y2="81.9339" gradientUnits="userSpaceOnUse">
<stop stop-color="#FF6D60"/>
<stop offset="0.213542" stop-color="#58C0F5"/>
<stop offset="0.526042" stop-color="#7E057E"/>
<stop offset="1" stop-color="#4B64C9"/>
</linearGradient>
<linearGradient id="paint5_linear_52_2" x1="8.91162" y1="4.68248" x2="89.2182" y2="81.9339" gradientUnits="userSpaceOnUse">
<stop stop-color="#FF6D60"/>
<stop offset="0.213542" stop-color="#58C0F5"/>
<stop offset="0.526042" stop-color="#7E057E"/>
<stop offset="1" stop-color="#4B64C9"/>
</linearGradient>
</defs>
</svg>
