<svg width="158" height="40" viewBox="0 0 158 40" fill="none" xmlns="http://www.w3.org/2000/svg">
<path d="M105.172 39.0071C105.172 39.0071 105.168 39.0178 105.164 39.0213H105.196L105.168 39.0071H105.172Z" fill="url(#paint0_linear_762_1294)"/>
<path d="M85.3647 31.9938H90.8066V19.7109H114.812V15.4553H90.8066V7.98304H116.076V3.73096H85.3647V31.9938Z" fill="#2F2E41"/>
<path d="M157.784 13.5656V12.8362C157.784 11.7794 157.699 10.7974 157.534 9.92559C157.361 9.01469 157.051 8.18208 156.608 7.44909C156.158 6.70187 155.542 6.04716 154.785 5.4992C154.036 4.95835 153.095 4.51002 151.98 4.16487C150.901 3.8304 149.609 3.57777 148.136 3.4141C146.687 3.25398 144.98 3.17212 143.06 3.17212H132.913C130.558 3.17212 128.542 3.30376 126.916 3.55995C125.245 3.82326 123.84 4.23247 122.742 4.77687C121.598 5.33907 120.701 6.06492 120.069 6.92956C119.457 7.76574 119.01 8.75849 118.733 9.87221C118.467 10.9468 118.31 12.1708 118.27 13.5158C118.229 14.8181 118.209 16.2806 118.209 17.864C118.209 19.4474 118.229 20.9098 118.27 22.2121C118.31 23.5571 118.467 24.7811 118.733 25.8557C119.01 26.973 119.457 27.9622 120.069 28.7983C120.701 29.663 121.598 30.3888 122.742 30.951C123.844 31.4954 125.249 31.9046 126.916 32.1679C128.542 32.4241 130.558 32.5558 132.913 32.5558H143.08C145 32.5558 146.711 32.474 148.156 32.3138C149.633 32.1502 150.929 31.8904 152.008 31.5417C153.123 31.1823 154.069 30.7091 154.809 30.1433C155.558 29.5705 156.166 28.8837 156.616 28.0938C157.055 27.3252 157.365 26.4428 157.534 25.4679C157.699 24.5321 157.78 23.4752 157.78 22.3295V17.131H137.139V21.383H152.338V22.3295C152.338 23.2262 152.294 24.0161 152.205 24.6779C152.125 25.2899 151.972 25.8165 151.75 26.24C151.545 26.6314 151.271 26.9481 150.909 27.2043C150.539 27.4676 150.023 27.681 149.387 27.8376C148.695 28.0084 147.834 28.1294 146.828 28.197C145.785 28.2646 144.525 28.3002 143.08 28.3002H132.913C131.259 28.3002 129.854 28.2575 128.731 28.1721C127.668 28.0902 126.787 27.9301 126.119 27.6917C125.511 27.4747 125.068 27.1829 124.758 26.7951C124.428 26.3823 124.178 25.8094 124.017 25.0871C123.844 24.3079 123.74 23.3222 123.708 22.1658C123.675 20.9738 123.659 19.5257 123.659 17.864C123.659 16.2023 123.671 14.7398 123.7 13.5585C123.724 12.4021 123.824 11.42 124.001 10.6408C124.162 9.92204 124.412 9.34915 124.75 8.9364C125.068 8.54855 125.519 8.25325 126.127 8.0362C126.799 7.7978 127.676 7.63409 128.739 7.55581C129.862 7.47041 131.267 7.42772 132.921 7.42772H143.068C144.924 7.42772 146.501 7.48465 147.761 7.59851C148.925 7.7017 149.858 7.94013 150.539 8.29951C151.167 8.63398 151.609 9.11786 151.887 9.77613C152.193 10.5056 152.35 11.5339 152.35 12.8362V13.5656H157.792H157.784Z" fill="#2F2E41"/>
<path d="M49.6907 3.73096H44.2488V14.7081H49.6907V3.73096Z" fill="url(#paint1_linear_762_1294)"/>
<path d="M61.142 16.3697L74.8111 8.01861C73.3339 7.29274 72.2955 5.95484 72.1224 4.3999L57.5516 13.1282C59.2905 13.5872 60.659 14.8183 61.142 16.3697Z" fill="url(#paint2_linear_762_1294)"/>
<path d="M49.6907 20.708H44.2488V32.2224H49.6907V20.708Z" fill="url(#paint3_linear_762_1294)"/>
<path d="M74.1389 26.8593L61.1541 18.8213C60.6832 20.3762 59.3187 21.6145 57.5839 22.0842L72.1143 30.9228C72.1023 30.7982 72.0982 30.6737 72.0982 30.5491C72.0982 29.0511 72.8992 27.7168 74.1389 26.8593Z" fill="url(#paint4_linear_762_1294)"/>
<path d="M82.4185 31.9832C82.4185 31.9832 82.4185 31.9903 82.4144 31.9938H82.4386L82.4185 31.9832Z" fill="url(#paint5_linear_762_1294)"/>
<path d="M51.3651 15.4372H40.8839C40.8839 15.1882 40.8758 14.9462 40.8678 14.7078C40.8597 14.2951 40.8477 13.9001 40.8356 13.5122C40.7873 12.1708 40.6303 10.9468 40.3646 9.87221C40.0869 8.75849 39.6401 7.7693 39.0404 6.92956C38.4165 6.06136 37.5189 5.33551 36.3758 4.77331C35.2769 4.22891 33.8722 3.8197 32.1978 3.55995C30.5716 3.3002 28.5551 3.17212 26.2004 3.17212H14.7934C12.4387 3.17212 10.4182 3.3002 8.79606 3.55995C7.12565 3.82326 5.72091 4.23246 4.62207 4.77331C3.47895 5.33551 2.58136 6.0614 1.94942 6.92605C1.33761 7.76222 0.890851 8.75493 0.613122 9.86865C0.347467 10.9432 0.19048 12.1708 0.15023 13.5122C0.109979 14.8181 0.0898438 16.277 0.0898438 17.8604C0.0898438 19.4438 0.109979 20.9027 0.15023 22.2085C0.19048 23.5535 0.343442 24.7775 0.613122 25.8521C0.890851 26.9694 1.34164 27.9586 1.94942 28.7983C2.58136 29.663 3.47895 30.3888 4.62207 30.951C5.72493 31.4954 7.12968 31.9046 8.79606 32.1644C10.4222 32.4241 12.4428 32.5522 14.7934 32.5522H26.2004C28.5551 32.5522 30.5716 32.4241 32.1978 32.1644C33.8682 31.9046 35.2729 31.4919 36.3758 30.951C37.5189 30.3888 38.4165 29.663 39.0404 28.7948C39.6441 27.9586 40.0869 26.9694 40.3646 25.8521C40.6303 24.7811 40.7913 23.5535 40.8356 22.2121C40.8557 21.6606 40.8678 21.0806 40.8839 20.4792C40.8839 20.2408 40.8919 19.9953 40.8959 19.7498H51.3491C51.3491 19.7498 51.3329 19.7249 51.3249 19.7107C50.9666 19.0773 50.7614 18.3656 50.7614 17.6113C50.7614 16.857 50.9747 16.1027 51.3571 15.4586C51.3571 15.4515 51.3651 15.4444 51.3691 15.4372H51.3651ZM35.446 20.4792C35.438 21.0841 35.4259 21.6463 35.4098 22.1623C35.3816 23.3187 35.273 24.3043 35.0999 25.0835C34.9389 25.8023 34.6893 26.3752 34.3552 26.7879C34.0332 27.1758 33.5864 27.4711 32.9787 27.6882C32.3065 27.9266 31.429 28.0902 30.3624 28.1721C29.2394 28.2575 27.8386 28.3002 26.2004 28.3002H14.7934C13.1391 28.3002 11.7303 28.2575 10.6073 28.1721C9.54472 28.0938 8.66323 27.9301 7.99507 27.6882C7.38729 27.4711 6.94452 27.1793 6.63057 26.7915C6.30051 26.3787 6.05097 25.8059 5.88997 25.0835C5.71287 24.3043 5.61224 23.3187 5.58003 22.1623C5.54783 20.9738 5.52771 19.5256 5.52771 17.8604C5.52771 16.1952 5.53977 14.7399 5.56795 13.555C5.5921 12.3986 5.69272 11.4165 5.86983 10.6372C6.0268 9.91847 6.28043 9.34559 6.61853 8.93284C6.93651 8.54143 7.38729 8.24969 7.99507 8.02908C8.66323 7.79068 9.54472 7.62701 10.6073 7.54517C11.7303 7.45977 13.1391 7.41708 14.7934 7.41708H26.2004C27.8547 7.41708 29.2635 7.45977 30.3825 7.54517C31.4451 7.62701 32.3186 7.78712 32.9827 8.02552C33.5824 8.24257 34.0332 8.53791 34.3512 8.92932C34.6853 9.34207 34.9348 9.91135 35.0958 10.6337C35.273 11.4129 35.3776 12.3986 35.4057 13.555C35.4178 13.9144 35.4259 14.2986 35.4339 14.7007C35.4339 14.9356 35.442 15.1811 35.446 15.4301H25.5604C25.9509 16.0813 26.1682 16.8214 26.1682 17.6042C26.1682 18.387 25.959 19.1022 25.5806 19.7427H35.4501C35.4501 19.9917 35.4501 20.2373 35.446 20.4721V20.4792Z" fill="url(#paint6_linear_762_1294)"/>
<path d="M60.4175 16.818C60.0392 15.1776 58.5056 13.9073 56.6058 13.701C56.4247 13.6796 56.2355 13.6689 56.0463 13.6689C54.879 13.6689 53.8245 14.0639 53.0315 14.708C52.7619 14.925 52.5244 15.1705 52.3271 15.4374C52.3191 15.4445 52.3151 15.4516 52.311 15.4587C51.8522 16.0779 51.5825 16.8179 51.5825 17.6114C51.5825 18.4049 51.8321 19.1023 52.2668 19.7108C52.2748 19.725 52.2829 19.7357 52.295 19.7499C52.4882 20.0203 52.7216 20.2659 52.9832 20.4794C53.7802 21.1483 54.8549 21.5539 56.0423 21.5539C56.2475 21.5539 56.4528 21.5433 56.6501 21.5148C58.5418 21.2871 60.0593 20.0097 60.4175 18.3693C60.4739 18.1238 60.5021 17.8676 60.5021 17.6079C60.5021 17.3481 60.4698 17.0706 60.4135 16.8144L60.4175 16.818ZM59.1295 18.138C58.8759 19.2873 57.8495 20.1662 56.5575 20.3513L56.4569 20.3655C56.3321 20.3833 56.1952 20.3904 56.0463 20.3904C55.2413 20.3904 54.4765 20.12 53.8929 19.6325C53.7037 19.4759 53.5427 19.3051 53.4099 19.1201L53.3817 19.0845C53.0678 18.6469 52.9028 18.1345 52.9028 17.6114C52.9028 17.0884 53.0637 16.5902 53.3696 16.1526L53.43 16.0743C53.5669 15.8893 53.7279 15.7185 53.9211 15.5655C54.5047 15.0922 55.2614 14.8289 56.0503 14.8289C56.1832 14.8289 56.312 14.836 56.4287 14.8503C57.7771 14.9997 58.8558 15.8821 59.1295 17.0457C59.1698 17.2271 59.1939 17.4193 59.1939 17.6079C59.1939 17.7964 59.1738 17.9708 59.1335 18.1345L59.1295 18.138Z" fill="url(#paint7_linear_762_1294)"/>
<path d="M77.3831 -0.00878906C74.9238 -0.00878906 72.9274 1.74898 72.9193 3.92305V3.93729C72.9193 5.54916 74.0141 6.93687 75.5839 7.54888C76.1313 7.76593 76.7431 7.88333 77.3831 7.88333C79.8464 7.88333 81.8469 6.11847 81.8469 3.93729C81.8469 1.75611 79.8464 -0.00878906 77.3831 -0.00878906ZM77.3831 6.71623C76.9403 6.71623 76.5137 6.63794 76.1232 6.48494C74.9761 6.0366 74.2395 5.04034 74.2395 3.93729C74.2436 2.40015 75.6563 1.15831 77.3831 1.15831C79.1098 1.15831 80.5267 2.40371 80.5267 3.93729C80.5267 5.47088 79.1139 6.71623 77.3831 6.71623Z" fill="url(#paint8_linear_762_1294)"/>
<path d="M77.3831 26.6032C76.4412 26.6032 75.5718 26.8629 74.8513 27.3006C73.684 28.0086 72.9193 29.2007 72.9193 30.5492C72.9193 30.8766 72.9636 31.1933 73.0481 31.4957C73.5271 33.2179 75.286 34.4917 77.3791 34.4917C79.2628 34.4917 80.8769 33.4563 81.5289 31.9939C81.5974 31.8444 81.6496 31.695 81.6979 31.5384C81.7905 31.2217 81.8428 30.8908 81.8428 30.5457C81.8428 28.3681 79.8424 26.5996 77.3791 26.5996L77.3831 26.6032ZM80.4261 31.2502C80.3979 31.3534 80.3536 31.4637 80.3093 31.5669C79.8303 32.6379 78.6832 33.3282 77.3831 33.3282C75.93 33.3282 74.6783 32.46 74.3321 31.2146C74.2717 30.9975 74.2395 30.777 74.2395 30.5457C74.2395 29.6312 74.7467 28.7772 75.6 28.2577C76.1273 27.9375 76.7391 27.7667 77.3831 27.7667C79.1139 27.7667 80.5267 29.0121 80.5267 30.5457C80.5267 30.7805 80.4945 31.0189 80.4261 31.2466V31.2502Z" fill="url(#paint9_linear_762_1294)"/>
<path d="M24.6065 15.4374C24.4093 15.1705 24.1718 14.9214 23.9021 14.708C23.1092 14.0604 22.0506 13.6689 20.8874 13.6689C18.424 13.6689 16.4236 15.4374 16.4236 17.615C16.4236 19.7926 18.42 21.5611 20.8874 21.5611C22.0707 21.5611 23.1454 21.1519 23.9464 20.4865C24.208 20.2694 24.4415 20.0239 24.6347 19.757C25.0896 19.1415 25.3471 18.4085 25.3471 17.6185C25.3471 16.8286 25.0775 16.0672 24.6065 15.4445V15.4374ZM23.5278 19.1165C23.387 19.3087 23.2299 19.4795 23.0448 19.6289C22.4531 20.1235 21.6883 20.394 20.8833 20.394C19.1485 20.394 17.7398 19.1486 17.7398 17.615C17.7398 16.0814 19.1485 14.836 20.8833 14.836C21.6722 14.836 22.429 15.0958 23.0086 15.569C23.2018 15.7256 23.3628 15.8928 23.4996 16.0779C23.8458 16.5369 24.0269 17.067 24.0269 17.615C24.0269 18.1629 23.8539 18.6753 23.5278 19.1201V19.1165Z" fill="url(#paint10_linear_762_1294)"/>
<defs>
<linearGradient id="paint0_linear_762_1294" x1="105.184" y1="-16.5017" x2="105.184" y2="45.5392" gradientUnits="userSpaceOnUse">
<stop stop-color="#00A3DC"/>
<stop offset="1" stop-color="#006CC0"/>
</linearGradient>
<linearGradient id="paint1_linear_762_1294" x1="46.9697" y1="-9.7369" x2="46.9697" y2="36.89" gradientUnits="userSpaceOnUse">
<stop stop-color="#00A3DC"/>
<stop offset="1" stop-color="#006CC0"/>
</linearGradient>
<linearGradient id="paint2_linear_762_1294" x1="66.1814" y1="-9.73686" x2="66.1814" y2="36.8899" gradientUnits="userSpaceOnUse">
<stop stop-color="#00A3DC"/>
<stop offset="1" stop-color="#006CC0"/>
</linearGradient>
<linearGradient id="paint3_linear_762_1294" x1="46.9697" y1="-9.50827" x2="46.9697" y2="37.1185" gradientUnits="userSpaceOnUse">
<stop stop-color="#00A3DC"/>
<stop offset="1" stop-color="#006CC0"/>
</linearGradient>
<linearGradient id="paint4_linear_762_1294" x1="65.8594" y1="-9.73689" x2="65.8594" y2="36.8899" gradientUnits="userSpaceOnUse">
<stop stop-color="#00A3DC"/>
<stop offset="1" stop-color="#006CC0"/>
</linearGradient>
<linearGradient id="paint5_linear_762_1294" x1="82.4225" y1="-9.77757" x2="82.4225" y2="36.8947" gradientUnits="userSpaceOnUse">
<stop stop-color="#00A3DC"/>
<stop offset="1" stop-color="#006CC0"/>
</linearGradient>
<linearGradient id="paint6_linear_762_1294" x1="25.7255" y1="-9.73705" x2="25.7255" y2="36.8897" gradientUnits="userSpaceOnUse">
<stop stop-color="#00A3DC"/>
<stop offset="1" stop-color="#006CC0"/>
</linearGradient>
<linearGradient id="paint7_linear_762_1294" x1="56.0463" y1="-9.74054" x2="56.0463" y2="36.8934" gradientUnits="userSpaceOnUse">
<stop stop-color="#00A3DC"/>
<stop offset="1" stop-color="#006CC0"/>
</linearGradient>
<linearGradient id="paint8_linear_762_1294" x1="77.3831" y1="-9.74051" x2="77.3831" y2="36.8935" gradientUnits="userSpaceOnUse">
<stop stop-color="#00A3DC"/>
<stop offset="1" stop-color="#006CC0"/>
</linearGradient>
<linearGradient id="paint9_linear_762_1294" x1="77.3831" y1="-9.74045" x2="77.3831" y2="36.8935" gradientUnits="userSpaceOnUse">
<stop stop-color="#00A3DC"/>
<stop offset="1" stop-color="#006CC0"/>
</linearGradient>
<linearGradient id="paint10_linear_762_1294" x1="20.8833" y1="-9.74056" x2="20.8833" y2="36.8934" gradientUnits="userSpaceOnUse">
<stop stop-color="#00A3DC"/>
<stop offset="1" stop-color="#006CC0"/>
</linearGradient>
</defs>
</svg>
