<svg width="196" height="31" viewBox="0 0 196 31" fill="none" xmlns="http://www.w3.org/2000/svg">
<path d="M0.136364 4.78409V0.727272H19.25V4.78409H12.125V24H7.26136V4.78409H0.136364ZM24.9091 24.3295C23.7955 24.3295 22.803 24.1364 21.9318 23.75C21.0606 23.3561 20.3712 22.7765 19.8636 22.0114C19.3636 21.2386 19.1136 20.2765 19.1136 19.125C19.1136 18.1553 19.2917 17.3409 19.6477 16.6818C20.0038 16.0227 20.4886 15.4924 21.1023 15.0909C21.7159 14.6894 22.4129 14.3864 23.1932 14.1818C23.9811 13.9773 24.8068 13.8333 25.6705 13.75C26.6856 13.6439 27.5038 13.5455 28.125 13.4545C28.7462 13.3561 29.197 13.2121 29.4773 13.0227C29.7576 12.8333 29.8977 12.553 29.8977 12.1818V12.1136C29.8977 11.3939 29.6705 10.8371 29.2159 10.4432C28.7689 10.0492 28.1326 9.85227 27.3068 9.85227C26.4356 9.85227 25.7424 10.0455 25.2273 10.4318C24.7121 10.8106 24.3712 11.2879 24.2045 11.8636L19.7273 11.5C19.9545 10.4394 20.4015 9.52273 21.0682 8.75C21.7348 7.9697 22.5947 7.37121 23.6477 6.95454C24.7083 6.5303 25.9356 6.31818 27.3295 6.31818C28.2992 6.31818 29.2273 6.43182 30.1136 6.65909C31.0076 6.88636 31.7992 7.23864 32.4886 7.71591C33.1856 8.19318 33.7348 8.80682 34.1364 9.55682C34.5379 10.2992 34.7386 11.1894 34.7386 12.2273V24H30.1477V21.5795H30.0114C29.7311 22.125 29.3561 22.6061 28.8864 23.0227C28.4167 23.4318 27.8523 23.7538 27.1932 23.9886C26.5341 24.2159 25.7727 24.3295 24.9091 24.3295ZM26.2955 20.9886C27.0076 20.9886 27.6364 20.8485 28.1818 20.5682C28.7273 20.2803 29.1553 19.8939 29.4659 19.4091C29.7765 18.9242 29.9318 18.375 29.9318 17.7614V15.9091C29.7803 16.0076 29.572 16.0985 29.3068 16.1818C29.0492 16.2576 28.7576 16.3295 28.4318 16.3977C28.1061 16.4583 27.7803 16.5152 27.4545 16.5682C27.1288 16.6136 26.8333 16.6553 26.5682 16.6932C26 16.7765 25.5038 16.9091 25.0795 17.0909C24.6553 17.2727 24.3258 17.5189 24.0909 17.8295C23.8561 18.1326 23.7386 18.5114 23.7386 18.9659C23.7386 19.625 23.9773 20.1288 24.4545 20.4773C24.9394 20.8182 25.553 20.9886 26.2955 20.9886ZM38.4943 24V6.54545H43.108V9.625H43.3125C43.6761 8.60227 44.2822 7.79545 45.1307 7.20454C45.9792 6.61364 46.9943 6.31818 48.1761 6.31818C49.3731 6.31818 50.392 6.61742 51.233 7.21591C52.0739 7.80682 52.6345 8.60985 52.9148 9.625H53.0966C53.4527 8.625 54.0966 7.82576 55.0284 7.22727C55.9678 6.62121 57.0777 6.31818 58.358 6.31818C59.9867 6.31818 61.3087 6.83712 62.3239 7.875C63.3466 8.9053 63.858 10.3674 63.858 12.2614V24H59.0284V13.2159C59.0284 12.2462 58.7708 11.5189 58.2557 11.0341C57.7405 10.5492 57.0966 10.3068 56.3239 10.3068C55.4451 10.3068 54.7595 10.5871 54.267 11.1477C53.7746 11.7008 53.5284 12.4318 53.5284 13.3409V24H48.8352V13.1136C48.8352 12.2576 48.589 11.5758 48.0966 11.0682C47.6117 10.5606 46.9716 10.3068 46.1761 10.3068C45.6383 10.3068 45.1534 10.4432 44.7216 10.7159C44.2973 10.9811 43.9602 11.3561 43.7102 11.8409C43.4602 12.3182 43.3352 12.8788 43.3352 13.5227V24H38.4943ZM67.6818 24V6.54545H72.2955V9.625H72.5C72.8636 8.60227 73.4697 7.79545 74.3182 7.20454C75.1667 6.61364 76.1818 6.31818 77.3636 6.31818C78.5606 6.31818 79.5795 6.61742 80.4205 7.21591C81.2614 7.80682 81.822 8.60985 82.1023 9.625H82.2841C82.6402 8.625 83.2841 7.82576 84.2159 7.22727C85.1553 6.62121 86.2652 6.31818 87.5455 6.31818C89.1742 6.31818 90.4962 6.83712 91.5114 7.875C92.5341 8.9053 93.0455 10.3674 93.0455 12.2614V24H88.2159V13.2159C88.2159 12.2462 87.9583 11.5189 87.4432 11.0341C86.928 10.5492 86.2841 10.3068 85.5114 10.3068C84.6326 10.3068 83.947 10.5871 83.4545 11.1477C82.9621 11.7008 82.7159 12.4318 82.7159 13.3409V24H78.0227V13.1136C78.0227 12.2576 77.7765 11.5758 77.2841 11.0682C76.7992 10.5606 76.1591 10.3068 75.3636 10.3068C74.8258 10.3068 74.3409 10.4432 73.9091 10.7159C73.4848 10.9811 73.1477 11.3561 72.8977 11.8409C72.6477 12.3182 72.5227 12.8788 72.5227 13.5227V24H67.6818ZM99.233 30.5455C98.6193 30.5455 98.0436 30.4962 97.5057 30.3977C96.9754 30.3068 96.536 30.1894 96.1875 30.0455L97.2784 26.4318C97.8466 26.6061 98.358 26.7008 98.8125 26.7159C99.2746 26.7311 99.6723 26.625 100.006 26.3977C100.347 26.1705 100.623 25.7841 100.835 25.2386L101.119 24.5L94.858 6.54545H99.9489L103.562 19.3636H103.744L107.392 6.54545H112.517L105.733 25.8864C105.407 26.8258 104.964 27.6439 104.403 28.3409C103.85 29.0455 103.15 29.5871 102.301 29.9659C101.453 30.3523 100.43 30.5455 99.233 30.5455Z" fill="#3C3C3C"/>
<path d="M122.491 24V0.727272H137.901V4.78409H127.412V10.3295H136.878V14.3864H127.412V24H122.491ZM147.724 24.3409C145.959 24.3409 144.433 23.9659 143.145 23.2159C141.865 22.4583 140.876 21.4053 140.179 20.0568C139.482 18.7008 139.134 17.1288 139.134 15.3409C139.134 13.5379 139.482 11.9621 140.179 10.6136C140.876 9.25758 141.865 8.20454 143.145 7.45454C144.433 6.69697 145.959 6.31818 147.724 6.31818C149.49 6.31818 151.012 6.69697 152.293 7.45454C153.58 8.20454 154.573 9.25758 155.27 10.6136C155.967 11.9621 156.315 13.5379 156.315 15.3409C156.315 17.1288 155.967 18.7008 155.27 20.0568C154.573 21.4053 153.58 22.4583 152.293 23.2159C151.012 23.9659 149.49 24.3409 147.724 24.3409ZM147.747 20.5909C148.55 20.5909 149.221 20.3636 149.759 19.9091C150.296 19.447 150.702 18.8182 150.974 18.0227C151.255 17.2273 151.395 16.322 151.395 15.3068C151.395 14.2917 151.255 13.3864 150.974 12.5909C150.702 11.7955 150.296 11.1667 149.759 10.7045C149.221 10.2424 148.55 10.0114 147.747 10.0114C146.937 10.0114 146.255 10.2424 145.702 10.7045C145.156 11.1667 144.743 11.7955 144.463 12.5909C144.19 13.3864 144.054 14.2917 144.054 15.3068C144.054 16.322 144.19 17.2273 144.463 18.0227C144.743 18.8182 145.156 19.447 145.702 19.9091C146.255 20.3636 146.937 20.5909 147.747 20.5909ZM167.349 24.3409C165.584 24.3409 164.058 23.9659 162.77 23.2159C161.49 22.4583 160.501 21.4053 159.804 20.0568C159.107 18.7008 158.759 17.1288 158.759 15.3409C158.759 13.5379 159.107 11.9621 159.804 10.6136C160.501 9.25758 161.49 8.20454 162.77 7.45454C164.058 6.69697 165.584 6.31818 167.349 6.31818C169.115 6.31818 170.637 6.69697 171.918 7.45454C173.205 8.20454 174.198 9.25758 174.895 10.6136C175.592 11.9621 175.94 13.5379 175.94 15.3409C175.94 17.1288 175.592 18.7008 174.895 20.0568C174.198 21.4053 173.205 22.4583 171.918 23.2159C170.637 23.9659 169.115 24.3409 167.349 24.3409ZM167.372 20.5909C168.175 20.5909 168.846 20.3636 169.384 19.9091C169.921 19.447 170.327 18.8182 170.599 18.0227C170.88 17.2273 171.02 16.322 171.02 15.3068C171.02 14.2917 170.88 13.3864 170.599 12.5909C170.327 11.7955 169.921 11.1667 169.384 10.7045C168.846 10.2424 168.175 10.0114 167.372 10.0114C166.562 10.0114 165.88 10.2424 165.327 10.7045C164.781 11.1667 164.368 11.7955 164.088 12.5909C163.815 13.3864 163.679 14.2917 163.679 15.3068C163.679 16.322 163.815 17.2273 164.088 18.0227C164.368 18.8182 164.781 19.447 165.327 19.9091C165.88 20.3636 166.562 20.5909 167.372 20.5909ZM185.52 24.2841C184.194 24.2841 182.993 23.9432 181.918 23.2614C180.849 22.572 180.001 21.5606 179.372 20.2273C178.751 18.8864 178.44 17.2424 178.44 15.2955C178.44 13.2955 178.762 11.6326 179.406 10.3068C180.05 8.97348 180.906 7.97727 181.974 7.31818C183.05 6.65152 184.228 6.31818 185.509 6.31818C186.486 6.31818 187.3 6.48485 187.952 6.81818C188.611 7.14394 189.141 7.55303 189.543 8.04545C189.952 8.5303 190.262 9.00758 190.474 9.47727H190.622V0.727272H195.452V24H190.679V21.2045H190.474C190.247 21.6894 189.925 22.1705 189.509 22.6477C189.099 23.1174 188.565 23.5076 187.906 23.8182C187.255 24.1288 186.459 24.2841 185.52 24.2841ZM187.054 20.4318C187.834 20.4318 188.493 20.2197 189.031 19.7955C189.577 19.3636 189.993 18.7614 190.281 17.9886C190.577 17.2159 190.724 16.3106 190.724 15.2727C190.724 14.2348 190.58 13.3333 190.293 12.5682C190.005 11.803 189.588 11.2121 189.043 10.7955C188.497 10.3788 187.834 10.1705 187.054 10.1705C186.259 10.1705 185.588 10.3864 185.043 10.8182C184.497 11.25 184.084 11.8485 183.804 12.6136C183.524 13.3788 183.384 14.2652 183.384 15.2727C183.384 16.2879 183.524 17.1856 183.804 17.9659C184.092 18.7386 184.505 19.3447 185.043 19.7841C185.588 20.2159 186.259 20.4318 187.054 20.4318Z" fill="#FCC647"/>
</svg>
