<svg width="461" height="144" viewBox="0 0 461 144" fill="none" xmlns="http://www.w3.org/2000/svg">
<path d="M150.355 39.7236L150.522 39.0952H149.872H123.378H122.971L122.888 39.4937L107.936 111.61H107.085L89.3935 39.4761L89.3001 39.0952H88.9079H63.4223H63.0296L62.9365 39.4767L45.3363 111.61H44.4858L29.5337 39.4937L29.4511 39.0952H29.0441H2H1.34927L1.51687 39.724L28.4693 140.842L28.5683 141.213H28.9525H57.005H57.3931L57.4894 140.837L75.2697 71.448H76.1448L94.1077 140.838L94.2047 141.213H94.5918H123.011H123.396L123.494 140.841L150.355 39.7236ZM225.556 67.6646L225.558 67.6676C229.446 72.991 231.421 80.4514 231.421 90.1081C231.421 99.8893 229.476 107.411 225.649 112.734C221.838 117.972 216.494 120.594 209.552 120.594C202.549 120.594 197.175 117.972 193.366 112.736C189.598 107.412 187.684 99.8898 187.684 90.1081C187.684 80.4501 189.628 72.9884 193.457 67.6646C197.268 62.3646 202.613 59.7136 209.552 59.7136C216.429 59.7136 221.744 62.3633 225.556 67.6646ZM172.61 129.229L172.611 129.231C181.586 138.701 193.922 143.413 209.552 143.413C225.183 143.413 237.488 138.701 246.403 129.229C255.375 119.762 259.832 106.7 259.832 90.1081C259.832 73.637 255.343 60.6361 246.311 51.1694C237.336 41.6385 225.062 36.895 209.552 36.895C194.041 36.895 181.738 41.6388 172.703 51.1689L173.066 51.5129L172.703 51.169C163.731 60.636 159.273 73.6371 159.273 90.1081C159.273 106.699 163.699 119.762 172.61 129.229ZM280.65 140.713V141.213H281.15H307.828H308.328V140.713V84.6993C308.328 77.7869 310.516 72.3684 314.857 68.3839C319.269 64.39 325.099 62.3722 332.397 62.3722C338.001 62.3722 342.143 62.9225 344.866 63.988L345.548 64.2549V63.5224V39.2285V38.8767L345.217 38.7579C342.752 37.873 339.2 37.445 334.597 37.445C328.147 37.445 322.454 39.1523 317.535 42.5768L317.532 42.5785C312.794 45.9194 309.697 50.138 308.27 55.23H307.503V39.5952V39.0952H307.003H281.15H280.65V39.5952V140.713ZM397.795 100.418L426.966 141.005L427.116 141.213H427.372H459H459.97L459.407 140.423L418.476 82.9916L456.715 39.9272L457.454 39.0952H456.341H425.997H425.767L425.617 39.27L391.939 78.6071H391.019V1V0.5H390.519H363.841H363.341V1V140.713V141.213H363.841H390.519H391.019V140.713V107.363L397.795 100.418Z" stroke="#474747" stroke-opacity="0.1"/>
</svg>
