<svg width="217" height="86" viewBox="0 0 217 86" fill="none" xmlns="http://www.w3.org/2000/svg">
<path d="M193.219 61.3233V44.75C193.219 44.1977 193.667 43.75 194.219 43.75H198.132C198.501 43.75 198.84 43.9533 199.014 44.2788L204.227 54.0388C204.604 54.7439 205.615 54.7439 205.992 54.0388L211.205 44.2788C211.379 43.9533 211.718 43.75 212.087 43.75H216C216.552 43.75 217 44.1977 217 44.75V61.3233C217 61.8756 216.552 62.3233 216 62.3233H212.488C211.936 62.3233 211.488 61.8756 211.488 61.3233V57.6273C211.488 56.5805 210.083 56.2373 209.6 57.1662L207.201 61.7844C207.029 62.1155 206.686 62.3233 206.313 62.3233H204.054C203.686 62.3233 203.347 62.121 203.173 61.7968L200.612 57.0329C200.12 56.1175 198.731 56.4671 198.731 57.5064V61.3233C198.731 61.8756 198.284 62.3233 197.731 62.3233H194.219C193.667 62.3233 193.219 61.8756 193.219 61.3233Z" fill="#545454"/>
<path d="M150.612 61.3233V44.75C150.612 44.1977 151.06 43.75 151.612 43.75H165.664C166.216 43.75 166.664 44.1977 166.664 44.75V47.4965C166.664 48.0488 166.216 48.4965 165.664 48.4965H156.821C156.269 48.4965 155.821 48.9442 155.821 49.4965V49.7333C155.821 50.2839 156.266 50.7309 156.817 50.7333L163.488 50.7623C164.039 50.7646 164.484 51.2117 164.484 51.7622V54.3067C164.484 54.859 164.036 55.3067 163.484 55.3067H156.821C156.269 55.3067 155.821 55.7544 155.821 56.3067V56.5768C155.821 57.1291 156.269 57.5768 156.821 57.5768H165.664C166.216 57.5768 166.664 58.0245 166.664 58.5768V61.3233C166.664 61.8756 166.216 62.3233 165.664 62.3233H151.612C151.06 62.3233 150.612 61.8756 150.612 61.3233Z" fill="#545454"/>
<path d="M175.186 61.3233V44.75C175.186 44.1977 175.633 43.75 176.186 43.75H190.238C190.79 43.75 191.238 44.1977 191.238 44.75V47.4965C191.238 48.0488 190.79 48.4965 190.238 48.4965H181.395C180.842 48.4965 180.395 48.9442 180.395 49.4965V50.6952C180.395 51.2475 180.842 51.6952 181.395 51.6952H188.058C188.61 51.6952 189.058 52.1429 189.058 52.6952V55.1322C189.058 55.6845 188.61 56.1322 188.058 56.1322H181.395C180.842 56.1322 180.395 56.5799 180.395 57.1322V61.3233C180.395 61.8756 179.947 62.3233 179.395 62.3233H176.186C175.633 62.3233 175.186 61.8756 175.186 61.3233Z" fill="#545454"/>
<path d="M6.56638 43.7505H1.81619C1.02825 43.7505 0.549832 44.6194 0.971168 45.2852L7.75443 56.0047C7.85566 56.1647 7.9094 56.3501 7.9094 56.5395V61.3238C7.9094 61.876 8.35712 62.3238 8.9094 62.3238H12.7932C13.3455 62.3238 13.7932 61.876 13.7932 61.3238V56.5424C13.7932 56.3512 13.848 56.1641 13.9512 56.0031L20.8131 45.2898C21.2394 44.6243 20.7615 43.7505 19.971 43.7505H15.2327C14.8787 43.7505 14.551 43.9377 14.3712 44.2427L11.761 48.6713C11.3742 49.3277 10.4249 49.3277 10.038 48.6713L7.42788 44.2427C7.2481 43.9377 6.92044 43.7505 6.56638 43.7505Z" fill="#545454"/>
<path d="M44.9855 44.75C44.9855 44.1977 45.4332 43.75 45.9855 43.75H50.6783C50.9931 43.75 51.2895 43.8982 51.4784 44.1501L57.4291 52.0868C58.0056 52.8558 59.2292 52.448 59.2292 51.4869V44.75C59.2292 44.1977 59.6769 43.75 60.2292 43.75H63.8028C64.3551 43.75 64.8028 44.1977 64.8028 44.75V53.0366V53.6171V54.1975V54.4877V54.7779V55.3583V57.68V61.3233C64.8028 61.8756 64.3551 62.3233 63.8028 62.3233H59.7293C59.4145 62.3233 59.118 62.175 58.9292 61.9232L52.9785 53.9864C52.4019 53.2175 51.1784 53.6252 51.1784 54.5863V61.3233C51.1784 61.8756 50.7307 62.3233 50.1784 62.3233H45.9855C45.4332 62.3233 44.9855 61.8756 44.9855 61.3233V53.0366V52.4562V51.8758V51.5856V51.2954V50.715V48.3933V44.75Z" fill="#545454"/>
<path d="M128.457 44.7139C128.457 44.1616 128.904 43.7139 129.457 43.7139H134.149C134.464 43.7139 134.761 43.8621 134.95 44.114L140.9 52.0507C141.477 52.8196 142.7 52.4119 142.7 51.4508V44.7139C142.7 44.1616 143.148 43.7139 143.7 43.7139H147.274C147.826 43.7139 148.274 44.1616 148.274 44.7139V53.0005V53.5809V54.1613V54.4515V54.7417V55.3222V57.6438V61.2871C148.274 61.8394 147.826 62.2871 147.274 62.2871H143.2C142.886 62.2871 142.589 62.1389 142.4 61.887L136.45 53.9503C135.873 53.1814 134.65 53.5891 134.65 54.5502V61.2871C134.65 61.8394 134.202 62.2871 133.65 62.2871H129.457C128.904 62.2871 128.457 61.8394 128.457 61.2871V53.0005V52.4201V51.8397V51.5495V51.2593V50.6788V48.3572V44.7139Z" fill="#545454"/>
<path d="M66.7845 44.75C66.7845 44.1977 67.2323 43.75 67.7845 43.75H72.1352H77.5355H81.6384C82.1907 43.75 82.6384 44.1977 82.6384 44.75V47.3933C82.6384 47.9456 82.1907 48.3933 81.6384 48.3933H78.5355C77.9832 48.3933 77.5355 48.841 77.5355 49.3933V61.3233C77.5355 61.8756 77.0877 62.3233 76.5355 62.3233H73.1352C72.5829 62.3233 72.1352 61.8756 72.1352 61.3233V49.3933C72.1352 48.841 71.6875 48.3933 71.1352 48.3933H67.7845C67.2323 48.3933 66.7845 47.9456 66.7845 47.3933V44.75Z" fill="#545454"/>
<path fill-rule="evenodd" clip-rule="evenodd" d="M107.021 43.75C106.469 43.75 106.023 44.1977 106.023 44.75V61.3233C106.023 61.8756 106.471 62.3233 107.023 62.3233H110.661C111.213 62.3233 111.661 61.8756 111.661 61.3233V57.1046C111.661 56.5523 112.108 56.1045 112.661 56.1045H113.385C113.385 56.1045 114.601 56.1045 115.316 56.1045C116.868 56.1045 119.677 60.3817 120.59 61.8417C120.777 62.1406 121.102 62.3233 121.455 62.3233H125.538C126.193 62.3233 126.645 61.7122 126.379 61.1143C125.834 59.8888 124.718 57.8976 122.624 55.9298C122.171 55.5038 122.209 54.7518 122.695 54.3633C123.184 53.9719 123.485 53.731 123.888 53.2854C124.254 52.8818 124.452 52.6477 124.684 52.2075C124.933 51.7371 125.082 50.9638 125.082 50.9637C125.082 50.9637 125.082 50.9637 125.082 50.9637C125.082 50.9636 125.219 50.2573 125.215 49.8029C125.211 49.3807 125.184 49.1424 125.082 48.725C124.978 48.2979 124.895 48.0585 124.684 47.6471C124.444 47.1774 124.261 46.9209 123.888 46.4862C123.569 46.1141 123.319 45.8179 122.868 45.5041C122.424 45.1959 122.182 45.0122 121.679 44.7819C121.204 44.5645 120.489 44.2659 120.489 44.2659C120.489 44.2659 119.689 44.0102 119.3 43.9564C119.013 43.9164 118.518 43.8544 118.339 43.8329C118.171 43.8127 117.776 43.7817 117.702 43.776C117.694 43.7754 117.687 43.7748 117.679 43.7744C117.603 43.7706 117.196 43.75 117.021 43.75C113.395 43.75 108.967 43.75 107.021 43.75ZM116.888 48.1512C116.851 48.1465 116.815 48.1446 116.778 48.1446H112.661C112.108 48.1446 111.661 48.5923 111.661 49.1446V50.71C111.661 51.2623 112.108 51.71 112.661 51.71H116.762C116.81 51.71 116.857 51.7067 116.903 51.6992C117.084 51.6703 117.576 51.5847 117.895 51.4612C118.164 51.3567 118.344 51.3252 118.558 51.1296C118.68 51.0178 118.745 50.9446 118.823 50.7979C118.932 50.5927 118.93 50.4486 118.956 50.2175C118.981 49.9922 118.987 49.8615 118.956 49.6371C118.928 49.4378 118.917 49.3171 118.823 49.1396C118.745 48.9928 118.676 48.9242 118.558 48.8079C118.34 48.5932 118.173 48.5183 117.895 48.3933C117.572 48.2487 117.055 48.1729 116.888 48.1512Z" fill="#545454"/>
<path d="M168.646 58.5771C168.646 58.0249 169.093 57.5771 169.646 57.5771H172.204C172.756 57.5771 173.204 58.0249 173.204 58.5771V61.3237C173.204 61.8759 172.756 62.3237 172.204 62.3237H169.646C169.093 62.3237 168.646 61.8759 168.646 61.3237V58.5771Z" fill="#545454"/>
<path d="M37.8757 15.7961C36.8792 14.8568 36.7511 13.3073 37.6542 12.2779C40.8573 8.62698 44.6616 5.6713 48.8707 3.57379C53.774 1.13031 59.1056 -0.0882888 64.4849 0.00497622C69.8643 0.0982412 75.1586 1.50107 79.9899 4.11333C84.1406 6.35751 87.8615 9.44676 90.9606 13.211C91.8291 14.266 91.6531 15.8076 90.6293 16.7128C89.4563 17.75 87.6512 17.5435 86.6258 16.3602C84.0741 13.4156 81.0671 10.9843 77.7389 9.18474C73.5839 6.9382 69.0308 5.73177 64.4046 5.65156C59.7784 5.57135 55.1932 6.61935 50.9763 8.72074C47.6046 10.401 44.5349 12.7215 41.9038 15.5692C40.8372 16.7235 39.0194 16.8742 37.8757 15.7961Z" fill="#CC0100"/>
<path d="M28.343 33.9999C30.2554 24.6433 34.8682 16.3203 41.4204 10.4039C47.9725 4.48748 56.0726 1.33117 64.3842 1.45569C72.6959 1.58021 80.7225 4.97812 87.14 11.0888C93.5575 17.1995 97.9823 25.658 99.6846 35.0687L97.5382 35.5882C95.9381 26.7421 91.7787 18.7911 85.7462 13.0471C79.7138 7.30299 72.1688 4.10896 64.3558 3.99192C56.5429 3.87487 48.9288 6.84179 42.7698 12.4032C36.6108 17.9646 32.2747 25.7883 30.477 34.5835L28.343 33.9999Z" fill="#CC0100"/>
<path d="M31.9677 35.477C31.9677 33.4601 40.3738 33.4601 40.3738 35.477C40.3738 43.5849 40.3738 57.6985 40.3738 64.1168C40.3738 66.1337 31.9677 66.1337 31.9677 64.1168C31.9676 57.4611 31.9677 43.7463 31.9677 35.477Z" fill="#CC0100"/>
<path d="M23.7808 43.6113C23.7808 40.4221 26.3662 37.8367 29.5554 37.8367C32.7447 37.8367 35.3301 40.4221 35.3301 43.6113V55.8613C35.3301 59.0505 32.7447 61.6359 29.5554 61.6359C26.3662 61.6359 23.7808 59.0505 23.7808 55.8613V43.6113Z" fill="#CC0100"/>
<path d="M27.3625 36.0131C27.3625 34.035 28.9661 32.4314 30.9442 32.4314V40.2569H27.3625V36.0131Z" fill="#CC0100"/>
<path d="M95.8544 35.477C95.8544 33.4601 87.4482 33.4601 87.4482 35.477C87.4482 43.5849 87.4482 57.6985 87.4482 64.1168C87.4482 66.1337 95.8544 66.1337 95.8544 64.1168C95.8544 57.4611 95.8544 43.7463 95.8544 35.477Z" fill="#CC0100"/>
<path d="M104.041 43.6113C104.041 40.4221 101.456 37.8367 98.2665 37.8367C95.0772 37.8367 92.4918 40.4221 92.4918 43.6113V55.8613C92.4918 59.0505 95.0772 61.6359 98.2665 61.6359C101.456 61.6359 104.041 59.0505 104.041 55.8613V43.6113Z" fill="#CC0100"/>
<path d="M100.459 36.0131C100.459 34.035 98.8558 32.4314 96.8776 32.4314V40.2569H100.459V36.0131Z" fill="#CC0100"/>
</svg>
