<svg width="189" height="174" viewBox="0 0 189 174" fill="none" xmlns="http://www.w3.org/2000/svg">
<path d="M2.17371 1.33736V1.37555C2.16422 1.58375 2.07735 1.78144 1.92937 1.92942C1.77233 2.08646 1.55933 2.17469 1.33728 2.17469C1.11522 2.17469 0.902223 2.08646 0.745184 1.92942C0.588175 1.77241 0.499969 1.55945 0.499969 1.33736C0.499969 1.1154 0.588139 0.902531 0.745076 0.745594C0.902012 0.588658 1.11488 0.500488 1.33684 0.500488C1.5588 0.500488 1.77167 0.588658 1.92861 0.745594C2.08554 0.902531 2.17371 1.1154 2.17371 1.33736Z" stroke="#4831D4" stroke-opacity="0.5"/>
<path d="M19.0788 1.33731C19.0788 1.55928 18.9906 1.77214 18.8337 1.92908C18.6768 2.08601 18.4639 2.17418 18.2419 2.17418C18.02 2.17418 17.8072 2.08603 17.6502 1.92908C17.4932 1.77211 17.4051 1.55922 17.4051 1.33731C17.4051 1.1154 17.4932 0.902522 17.6502 0.745549C17.8072 0.588597 18.02 0.500443 18.2419 0.500443C18.4639 0.500443 18.6768 0.588612 18.8337 0.745549C18.9906 0.902485 19.0788 1.11535 19.0788 1.33731Z" stroke="#4831D4" stroke-opacity="0.5"/>
<path d="M35.984 1.33731C35.984 1.5594 35.8958 1.77236 35.7388 1.92937C35.5817 2.08641 35.3687 2.17464 35.1467 2.17464C34.9246 2.17464 34.7116 2.08641 34.5546 1.92937C34.3976 1.77236 34.3094 1.5594 34.3094 1.33731C34.3094 1.11521 34.3976 0.902252 34.5546 0.745242C34.7116 0.588222 34.9246 0.5 35.1467 0.5C35.3688 0.5 35.5818 0.588222 35.7388 0.745242C35.8958 0.902252 35.984 1.11521 35.984 1.33731Z" stroke="#4831D4" stroke-opacity="0.5"/>
<path d="M52.8883 1.33731V1.37549C52.8788 1.58365 52.7919 1.78136 52.6439 1.92938C52.4869 2.08643 52.2739 2.17465 52.0519 2.17465C51.8298 2.17465 51.6168 2.08642 51.4598 1.92938C51.3028 1.77237 51.2146 1.55941 51.2146 1.33731C51.2146 1.11535 51.3027 0.902485 51.4597 0.745549C51.6166 0.588612 51.8295 0.500443 52.0514 0.500443C52.2734 0.500443 52.4862 0.588597 52.6432 0.745549C52.8001 0.902522 52.8883 1.1154 52.8883 1.33731Z" stroke="#4831D4" stroke-opacity="0.5"/>
<path d="M69.7935 1.33731V1.37667C69.7838 1.58439 69.6969 1.78163 69.5492 1.92938C69.3921 2.08642 69.1791 2.17465 68.9571 2.17465C68.7351 2.17465 68.5221 2.08643 68.3651 1.92938C68.208 1.77233 68.1198 1.55936 68.1198 1.33731C68.1198 1.11535 68.208 0.902485 68.3649 0.745549C68.5218 0.588612 68.7347 0.500443 68.9567 0.500443C69.1786 0.500443 69.3915 0.588612 69.5484 0.745549C69.7054 0.902485 69.7935 1.11535 69.7935 1.33731Z" stroke="#4831D4" stroke-opacity="0.5"/>
<path d="M86.6987 1.33731C86.6987 1.55928 86.6105 1.77214 86.4536 1.92908C86.2967 2.08601 86.0838 2.17418 85.8618 2.17418C85.6399 2.17418 85.427 2.08601 85.2701 1.92908C85.1131 1.77214 85.025 1.55928 85.025 1.33731C85.025 1.11535 85.1131 0.902485 85.2701 0.745549C85.427 0.588612 85.6399 0.500443 85.8618 0.500443C86.0838 0.500443 86.2967 0.588612 86.4536 0.745549C86.6105 0.902485 86.6987 1.11535 86.6987 1.33731Z" stroke="#4831D4" stroke-opacity="0.5"/>
<path d="M103.604 1.33731C103.604 1.55928 103.516 1.77214 103.359 1.92908C103.202 2.08601 102.989 2.17418 102.767 2.17418C102.545 2.17418 102.332 2.08601 102.175 1.92908C102.018 1.77214 101.93 1.55928 101.93 1.33731C101.93 1.11535 102.018 0.902485 102.175 0.745549C102.332 0.588612 102.545 0.500443 102.767 0.500443C102.989 0.500443 103.202 0.588612 103.359 0.745549C103.516 0.902485 103.604 1.11535 103.604 1.33731Z" stroke="#4831D4" stroke-opacity="0.5"/>
<path d="M120.51 1.33731C120.51 1.55935 120.422 1.77232 120.265 1.92937C120.108 2.08642 119.895 2.17464 119.673 2.17464C119.451 2.17464 119.238 2.08641 119.081 1.92937C118.924 1.77232 118.835 1.55935 118.835 1.33731C118.835 1.11526 118.924 0.902288 119.081 0.745242C119.238 0.588222 119.451 0.5 119.673 0.5C119.895 0.5 120.108 0.588206 120.265 0.745242C120.422 0.902288 120.51 1.11526 120.51 1.33731Z" stroke="#4831D4" stroke-opacity="0.5"/>
<path d="M137.414 1.33731V1.3755C137.405 1.5837 137.318 1.78139 137.17 1.92938C137.013 2.08642 136.8 2.17465 136.578 2.17465C136.356 2.17465 136.143 2.08643 135.986 1.92938C135.829 1.77233 135.741 1.55936 135.741 1.33731C135.741 1.11535 135.829 0.902485 135.986 0.745549C136.143 0.588612 136.355 0.500443 136.577 0.500443C136.799 0.500443 137.012 0.588612 137.169 0.745549C137.326 0.902485 137.414 1.11535 137.414 1.33731Z" stroke="#4831D4" stroke-opacity="0.5"/>
<path d="M154.319 1.33731V1.37551C154.31 1.58379 154.223 1.78161 154.075 1.9297C153.918 2.08682 153.705 2.17507 153.483 2.17507C153.26 2.17507 153.047 2.0868 152.89 1.9297C152.733 1.77258 152.645 1.55949 152.645 1.33731C152.645 1.11526 152.733 0.902288 152.89 0.745242C153.047 0.588222 153.26 0.5 153.482 0.5C153.704 0.5 153.917 0.588206 154.074 0.745242C154.231 0.902288 154.319 1.11526 154.319 1.33731Z" stroke="#4831D4" stroke-opacity="0.5"/>
<path d="M171.225 1.33731C171.225 1.55922 171.137 1.77211 170.98 1.92908C170.823 2.08603 170.61 2.17418 170.388 2.17418C170.166 2.17418 169.953 2.08601 169.796 1.92908C169.639 1.77214 169.551 1.55928 169.551 1.33731C169.551 1.11535 169.639 0.902485 169.796 0.745549C169.953 0.588612 170.166 0.500443 170.388 0.500443C170.61 0.500443 170.823 0.588597 170.98 0.745549C171.137 0.902522 171.225 1.1154 171.225 1.33731Z" stroke="#4831D4" stroke-opacity="0.5"/>
<path d="M188.13 1.33731C188.13 1.5594 188.042 1.77236 187.885 1.92937C187.728 2.08641 187.515 2.17464 187.293 2.17464C187.07 2.17464 186.857 2.08641 186.7 1.92937C186.543 1.77236 186.455 1.5594 186.455 1.33731C186.455 1.11521 186.543 0.902252 186.7 0.745242C186.857 0.588222 187.07 0.5 187.293 0.5C187.515 0.5 187.728 0.588222 187.885 0.745242C188.042 0.902252 188.13 1.11521 188.13 1.33731Z" stroke="#4831D4" stroke-opacity="0.5"/>
<path d="M2.1737 18.5077C2.16925 18.6047 2.14798 18.7002 2.11077 18.79C2.06866 18.8915 2.00694 18.9838 1.92916 19.0616C1.8514 19.1393 1.75906 19.2009 1.65742 19.243C1.55583 19.285 1.44698 19.3066 1.33701 19.3066C1.22704 19.3066 1.11813 19.2849 1.01657 19.2427C0.915013 19.2006 0.822773 19.139 0.74503 19.0612C0.667276 18.9834 0.605618 18.891 0.563587 18.7895C0.52155 18.6879 0.499933 18.579 0.49997 18.469C0.500044 18.2471 0.588286 18.0342 0.745284 17.8773C0.90229 17.7204 1.11517 17.6323 1.33711 17.6324C1.55905 17.6325 1.77186 17.7207 1.92876 17.8777C2.08568 18.0348 2.17379 18.2476 2.17371 18.4696L2.1737 18.5077Z" stroke="#4831D4" stroke-opacity="0.5"/>
<path d="M19.0788 18.4696C19.0787 18.6916 18.9905 18.9044 18.8335 19.0612C18.6766 19.2181 18.4636 19.3062 18.2417 19.3062C18.0197 19.3061 17.8069 19.2178 17.65 19.0608C17.4931 18.9038 17.405 18.6909 17.4051 18.469C17.4051 18.2471 17.4934 18.0342 17.6504 17.8773C17.8074 17.7205 18.0203 17.6323 18.2423 17.6324C18.4642 17.6325 18.677 17.7207 18.8339 17.8777C18.9908 18.0347 19.0789 18.2476 19.0788 18.4696Z" stroke="#4831D4" stroke-opacity="0.5"/>
<path d="M35.984 18.4695C35.984 18.5796 35.9623 18.6884 35.9202 18.79C35.8781 18.8915 35.8164 18.9838 35.7386 19.0616C35.6608 19.1393 35.5685 19.2009 35.4668 19.243C35.3652 19.285 35.2564 19.3066 35.1464 19.3066C35.0365 19.3065 34.9275 19.2848 34.826 19.2427C34.7244 19.2006 34.6322 19.139 34.5544 19.0612C34.4767 18.9834 34.415 18.891 34.373 18.7895C34.331 18.6879 34.3094 18.579 34.3094 18.469C34.3095 18.2469 34.3977 18.034 34.5548 17.877C34.7119 17.72 34.9249 17.6319 35.147 17.632C35.369 17.632 35.582 17.7203 35.7389 17.8774C35.8959 18.0345 35.9841 18.2475 35.984 18.4695Z" stroke="#4831D4" stroke-opacity="0.5"/>
<path d="M52.8883 18.5077C52.8838 18.6046 52.8626 18.7001 52.8253 18.79C52.7832 18.8916 52.7215 18.9839 52.6438 19.0616C52.566 19.1393 52.4737 19.2009 52.372 19.243C52.2704 19.285 52.1616 19.3066 52.0516 19.3066C51.9416 19.3066 51.8327 19.2849 51.7312 19.2427C51.6296 19.2006 51.5373 19.1389 51.4596 19.0612C51.3819 18.9834 51.3203 18.8911 51.2782 18.7895C51.2362 18.6879 51.2145 18.579 51.2146 18.469C51.2146 18.247 51.3029 18.0342 51.4598 17.8773C51.6168 17.7205 51.8297 17.6323 52.0517 17.6324C52.2736 17.6325 52.4865 17.7207 52.6434 17.8777C52.8003 18.0348 52.8884 18.2476 52.8883 18.4696L52.8883 18.5077Z" stroke="#4831D4" stroke-opacity="0.5"/>
<path d="M69.7935 18.5089C69.7889 18.6054 69.7677 18.7005 69.7306 18.79C69.6885 18.8915 69.6268 18.9838 69.549 19.0616C69.4712 19.1393 69.3789 19.2009 69.2773 19.243C69.1757 19.285 69.0668 19.3066 68.9568 19.3066C68.8469 19.3066 68.738 19.2849 68.6364 19.2427C68.5348 19.2006 68.4425 19.1389 68.3648 19.0612C68.2871 18.9834 68.2254 18.891 68.1834 18.7895C68.1414 18.6879 68.1197 18.579 68.1198 18.469C68.1199 18.2471 68.2081 18.0342 68.3651 17.8773C68.5221 17.7204 68.735 17.6323 68.9569 17.6324C69.1789 17.6325 69.3917 17.7207 69.5486 17.8777C69.7055 18.0347 69.7936 18.2476 69.7935 18.4696L69.7935 18.5089Z" stroke="#4831D4" stroke-opacity="0.5"/>
<path d="M86.6987 18.4697C86.6987 18.6917 86.6105 18.9045 86.4536 19.0615C86.2967 19.2184 86.0838 19.3066 85.8618 19.3066C85.6399 19.3066 85.427 19.2184 85.2701 19.0615C85.1131 18.9045 85.025 18.6917 85.025 18.4697C85.025 18.2478 85.1131 18.0349 85.2701 17.878C85.427 17.721 85.6399 17.6328 85.8618 17.6328C86.0838 17.6328 86.2966 17.721 86.4536 17.878C86.6105 18.0349 86.6987 18.2478 86.6987 18.4697Z" stroke="#4831D4" stroke-opacity="0.5"/>
<path d="M103.604 18.4697C103.604 18.6917 103.516 18.9045 103.359 19.0615C103.202 19.2184 102.989 19.3066 102.767 19.3066C102.545 19.3066 102.332 19.2184 102.175 19.0615C102.018 18.9045 101.93 18.6917 101.93 18.4697C101.93 18.2478 102.018 18.0349 102.175 17.878C102.332 17.721 102.545 17.6328 102.767 17.6328C102.989 17.6328 103.202 17.721 103.359 17.878C103.516 18.0349 103.604 18.2478 103.604 18.4697Z" stroke="#4831D4" stroke-opacity="0.5"/>
<path d="M120.51 18.4695C120.51 18.6916 120.422 18.9046 120.265 19.0616C120.107 19.2185 119.894 19.3067 119.672 19.3066C119.45 19.3065 119.237 19.2182 119.08 19.0612C118.923 18.9041 118.835 18.6911 118.835 18.469C118.835 18.247 118.924 18.034 119.081 17.877C119.238 17.72 119.451 17.6319 119.673 17.632C119.895 17.632 120.108 17.7203 120.265 17.8774C120.422 18.0345 120.51 18.2475 120.51 18.4695Z" stroke="#4831D4" stroke-opacity="0.5"/>
<path d="M137.414 18.5077C137.405 18.7159 137.318 18.9136 137.17 19.0616C137.013 19.2185 136.8 19.3067 136.578 19.3066C136.355 19.3065 136.143 19.2182 135.986 19.0612C135.829 18.9041 135.74 18.6911 135.741 18.469C135.741 18.2471 135.829 18.0342 135.986 17.8773C136.143 17.7204 136.356 17.6323 136.578 17.6324C136.8 17.6325 137.012 17.7207 137.169 17.8777C137.326 18.0347 137.414 18.2476 137.414 18.4696L137.414 18.5077Z" stroke="#4831D4" stroke-opacity="0.5"/>
<path d="M154.319 18.5077C154.315 18.6047 154.294 18.7003 154.256 18.7901C154.214 18.8917 154.153 18.9841 154.075 19.0619C153.997 19.1396 153.905 19.2013 153.803 19.2434C153.701 19.2855 153.592 19.3071 153.482 19.307C153.372 19.307 153.263 19.2853 153.162 19.2432C153.06 19.2011 152.968 19.1393 152.89 19.0615C152.812 18.9836 152.75 18.8912 152.708 18.7896C152.666 18.6879 152.645 18.579 152.645 18.469C152.645 18.247 152.733 18.034 152.89 17.877C153.047 17.72 153.26 17.6319 153.482 17.632C153.704 17.632 153.917 17.7203 154.074 17.8774C154.231 18.0345 154.32 18.2475 154.319 18.4695L154.319 18.5077Z" stroke="#4831D4" stroke-opacity="0.5"/>
<path d="M171.225 18.4696C171.225 18.5794 171.203 18.6883 171.161 18.7898C171.119 18.8913 171.057 18.9835 170.979 19.0612C170.902 19.1389 170.809 19.2005 170.708 19.2426C170.606 19.2846 170.497 19.3062 170.388 19.3062C170.278 19.3061 170.169 19.2844 170.067 19.2423C169.966 19.2003 169.874 19.1386 169.796 19.0608C169.718 18.9831 169.657 18.8908 169.615 18.7893C169.573 18.6878 169.551 18.579 169.551 18.469C169.551 18.247 169.639 18.0342 169.796 17.8773C169.953 17.7205 170.166 17.6323 170.388 17.6324C170.61 17.6325 170.823 17.7207 170.98 17.8777C171.137 18.0348 171.225 18.2476 171.225 18.4696Z" stroke="#4831D4" stroke-opacity="0.5"/>
<path d="M188.13 18.4695C188.13 18.6916 188.041 18.9046 187.884 19.0616C187.727 19.2185 187.514 19.3067 187.292 19.3066C187.07 19.3065 186.857 19.2182 186.7 19.0612C186.543 18.9041 186.455 18.6911 186.455 18.469C186.455 18.2469 186.544 18.034 186.701 17.877C186.858 17.72 187.071 17.6319 187.293 17.632C187.515 17.632 187.728 17.7203 187.885 17.8774C188.042 18.0345 188.13 18.2475 188.13 18.4695Z" stroke="#4831D4" stroke-opacity="0.5"/>
<path d="M0.49997 35.6024V35.6022C0.49997 35.3802 0.588139 35.1674 0.745076 35.0104C0.902012 34.8535 1.11488 34.7653 1.33684 34.7653C1.5588 34.7653 1.77167 34.8535 1.92861 35.0104C2.08554 35.1674 2.17371 35.3802 2.17371 35.6022V35.6408C2.16929 35.7379 2.14802 35.8335 2.11077 35.9233C2.06866 36.0249 2.00694 36.1172 1.92916 36.1949C1.8514 36.2726 1.75906 36.3343 1.65742 36.3763C1.55583 36.4184 1.44698 36.44 1.33701 36.4399C1.22704 36.4399 1.11813 36.4182 1.01657 36.3761C0.915013 36.334 0.822773 36.2723 0.74503 36.1945C0.667276 36.1167 0.605618 36.0244 0.563587 35.9228C0.52155 35.8212 0.499933 35.7123 0.49997 35.6024Z" stroke="#4831D4" stroke-opacity="0.5"/>
<path d="M17.4051 35.6024V35.6022C17.4051 35.3803 17.4932 35.1674 17.6502 35.0104C17.8072 34.8535 18.02 34.7653 18.2419 34.7653C18.4639 34.7653 18.6768 34.8535 18.8337 35.0104C18.9906 35.1674 19.0788 35.3802 19.0788 35.6022V35.6029C19.0788 35.603 19.0788 35.603 19.0788 35.6031C19.0787 35.825 18.9905 36.0378 18.8335 36.1946C18.6766 36.3515 18.4636 36.4396 18.2417 36.4395C18.0197 36.4394 17.8069 36.3512 17.65 36.1942C17.4931 36.0372 17.405 35.8243 17.4051 35.6024Z" stroke="#4831D4" stroke-opacity="0.5"/>
<path d="M34.3094 35.6024V35.6022C34.3094 35.3801 34.3976 35.1671 34.5546 35.0101C34.7116 34.8531 34.9246 34.7649 35.1467 34.7649C35.3688 34.7649 35.5818 34.8531 35.7388 35.0101C35.8958 35.1671 35.984 35.3801 35.984 35.6022V35.6029C35.984 35.603 35.984 35.603 35.984 35.6031C35.9839 35.713 35.9623 35.8219 35.9202 35.9233C35.8781 36.0249 35.8164 36.1172 35.7386 36.1949C35.6608 36.2726 35.5685 36.3343 35.4668 36.3763C35.3652 36.4184 35.2564 36.44 35.1464 36.44C35.0365 36.4399 34.9275 36.4182 34.826 36.3761C34.7244 36.334 34.6322 36.2723 34.5544 36.1945C34.4767 36.1167 34.415 36.0244 34.373 35.9228C34.331 35.8212 34.3094 35.7124 34.3094 35.6024Z" stroke="#4831D4" stroke-opacity="0.5"/>
<path d="M51.2146 35.6024V35.6022C51.2146 35.3802 51.3027 35.1674 51.4597 35.0104C51.6166 34.8535 51.8295 34.7653 52.0514 34.7653C52.2734 34.7653 52.4862 34.8535 52.6432 35.0104C52.8001 35.1674 52.8883 35.3803 52.8883 35.6022V35.6408C52.8839 35.7378 52.8626 35.8334 52.8253 35.9233C52.7832 36.025 52.7215 36.1172 52.6438 36.1949C52.566 36.2726 52.4737 36.3343 52.372 36.3763C52.2704 36.4184 52.1616 36.44 52.0516 36.4399C51.9416 36.4399 51.8327 36.4182 51.7312 36.3761C51.6296 36.334 51.5373 36.2723 51.4596 36.1945C51.3819 36.1168 51.3203 36.0244 51.2782 35.9228C51.2362 35.8212 51.2145 35.7123 51.2146 35.6024Z" stroke="#4831D4" stroke-opacity="0.5"/>
<path d="M68.1198 35.6024V35.6022C68.1198 35.3802 68.208 35.1674 68.3649 35.0104C68.5218 34.8535 68.7347 34.7653 68.9567 34.7653C69.1786 34.7653 69.3915 34.8535 69.5484 35.0104C69.7054 35.1674 69.7935 35.3802 69.7935 35.6022V35.6419C69.789 35.7385 69.7677 35.8337 69.7306 35.9233C69.6885 36.0249 69.6268 36.1172 69.549 36.1949C69.4712 36.2726 69.3789 36.3343 69.2773 36.3763C69.1757 36.4183 69.0668 36.44 68.9568 36.4399C68.8469 36.4399 68.738 36.4182 68.6364 36.3761C68.5348 36.334 68.4425 36.2723 68.3648 36.1945C68.2871 36.1167 68.2254 36.0244 68.1834 35.9228C68.1414 35.8212 68.1197 35.7123 68.1198 35.6024Z" stroke="#4831D4" stroke-opacity="0.5"/>
<path d="M86.6987 35.6031C86.6987 35.825 86.6105 36.0379 86.4536 36.1948C86.2967 36.3518 86.0838 36.4399 85.8618 36.4399C85.6399 36.4399 85.427 36.3518 85.2701 36.1948C85.1131 36.0379 85.025 35.825 85.025 35.6031C85.025 35.3811 85.1131 35.1683 85.2701 35.0113C85.427 34.8544 85.6399 34.7662 85.8618 34.7662C86.0838 34.7662 86.2966 34.8544 86.4536 35.0113C86.6105 35.1683 86.6987 35.3811 86.6987 35.6031Z" stroke="#4831D4" stroke-opacity="0.5"/>
<path d="M103.604 35.6031C103.604 35.825 103.516 36.0379 103.359 36.1948C103.202 36.3518 102.989 36.4399 102.767 36.4399C102.545 36.4399 102.332 36.3518 102.175 36.1948C102.018 36.0379 101.93 35.825 101.93 35.6031C101.93 35.3811 102.018 35.1683 102.175 35.0113C102.332 34.8544 102.545 34.7662 102.767 34.7662C102.989 34.7662 103.202 34.8544 103.359 35.0113C103.516 35.1683 103.604 35.3811 103.604 35.6031Z" stroke="#4831D4" stroke-opacity="0.5"/>
<path d="M118.835 35.6024V35.6022C118.835 35.3802 118.924 35.1672 119.081 35.0101C119.238 34.8531 119.451 34.7649 119.673 34.7649C119.895 34.7649 120.108 34.8531 120.265 35.0101C120.422 35.1672 120.51 35.3802 120.51 35.6022V35.6029C120.51 35.603 120.51 35.603 120.51 35.6031C120.51 35.8251 120.422 36.038 120.265 36.1949C120.107 36.3519 119.894 36.44 119.672 36.44C119.45 36.4399 119.237 36.3516 119.08 36.1945C118.923 36.0374 118.835 35.8244 118.835 35.6024Z" stroke="#4831D4" stroke-opacity="0.5"/>
<path d="M135.741 35.6024V35.6022C135.741 35.3802 135.829 35.1674 135.986 35.0104C136.143 34.8535 136.355 34.7653 136.577 34.7653C136.799 34.7653 137.012 34.8535 137.169 35.0104C137.326 35.1674 137.414 35.3802 137.414 35.6022V35.6408C137.405 35.8491 137.318 36.0469 137.17 36.1949C137.013 36.3519 136.8 36.44 136.578 36.4399C136.355 36.4399 136.143 36.3516 135.986 36.1945C135.829 36.0374 135.74 35.8244 135.741 35.6024Z" stroke="#4831D4" stroke-opacity="0.5"/>
<path d="M152.645 35.6024V35.6022C152.645 35.3802 152.733 35.1672 152.89 35.0101C153.047 34.8531 153.26 34.7649 153.482 34.7649C153.704 34.7649 153.917 34.8531 154.074 35.0101C154.231 35.1672 154.319 35.3802 154.319 35.6022V35.6408C154.31 35.8492 154.223 36.0471 154.075 36.1952C153.918 36.3523 153.704 36.4405 153.482 36.4404C153.26 36.4403 153.047 36.352 152.89 36.1948C152.733 36.0376 152.645 35.8245 152.645 35.6024Z" stroke="#4831D4" stroke-opacity="0.5"/>
<path d="M169.551 35.6024V35.6022C169.551 35.3802 169.639 35.1674 169.796 35.0104C169.953 34.8535 170.166 34.7653 170.388 34.7653C170.61 34.7653 170.823 34.8535 170.98 35.0104C171.137 35.1674 171.225 35.3803 171.225 35.6022V35.6029C171.225 35.603 171.225 35.603 171.225 35.6031C171.225 35.7129 171.203 35.8217 171.161 35.9231C171.119 36.0247 171.057 36.1169 170.979 36.1946C170.902 36.2723 170.809 36.3339 170.708 36.3759C170.606 36.4179 170.497 36.4395 170.388 36.4395C170.278 36.4395 170.169 36.4178 170.067 36.3757C169.966 36.3336 169.874 36.2719 169.796 36.1942C169.718 36.1164 169.657 36.0241 169.615 35.9226C169.573 35.8211 169.551 35.7123 169.551 35.6024Z" stroke="#4831D4" stroke-opacity="0.5"/>
<path d="M186.455 35.6024V35.6022C186.455 35.3801 186.543 35.1671 186.7 35.0101C186.857 34.8531 187.07 34.7649 187.293 34.7649C187.515 34.7649 187.728 34.8531 187.885 35.0101C188.042 35.1671 188.13 35.3801 188.13 35.6022V35.6029C188.13 35.603 188.13 35.603 188.13 35.6031C188.13 35.8251 188.041 36.038 187.884 36.1949C187.727 36.3519 187.514 36.44 187.292 36.44C187.07 36.4399 186.857 36.3516 186.7 36.1945C186.543 36.0374 186.455 35.8244 186.455 35.6024Z" stroke="#4831D4" stroke-opacity="0.5"/>
<path d="M2.17371 52.7347V52.7729C2.16422 52.9811 2.07735 53.1787 1.92937 53.3267C1.77235 53.4838 1.55936 53.572 1.33728 53.572C1.1152 53.572 0.902205 53.4838 0.745184 53.3267C0.588175 53.1697 0.499969 52.9568 0.499969 52.7347C0.499969 52.5127 0.588139 52.2998 0.745076 52.1429C0.902012 51.986 1.11488 51.8978 1.33684 51.8978C1.5588 51.8978 1.77167 51.986 1.92861 52.1429C2.08554 52.2998 2.17371 52.5127 2.17371 52.7347Z" stroke="#4831D4" stroke-opacity="0.5"/>
<path d="M19.0788 52.7347C19.0788 52.9566 18.9906 53.1695 18.8337 53.3264C18.6768 53.4834 18.4639 53.5715 18.2419 53.5715C18.02 53.5715 17.8072 53.4834 17.6502 53.3264C17.4932 53.1695 17.4051 52.9566 17.4051 52.7347C17.4051 52.5128 17.4932 52.2999 17.6502 52.1429C17.8072 51.986 18.02 51.8978 18.2419 51.8978C18.4639 51.8978 18.6768 51.986 18.8337 52.1429C18.9906 52.2998 19.0788 52.5127 19.0788 52.7347Z" stroke="#4831D4" stroke-opacity="0.5"/>
<path d="M35.984 52.7346C35.984 52.9567 35.8958 53.1697 35.7388 53.3267C35.5818 53.4837 35.3688 53.572 35.1467 53.572C34.9246 53.572 34.7116 53.4837 34.5546 53.3267C34.3976 53.1697 34.3094 52.9567 34.3094 52.7346C34.3094 52.5125 34.3976 52.2996 34.5546 52.1426C34.7116 51.9856 34.9246 51.8973 35.1467 51.8973C35.3688 51.8973 35.5818 51.9856 35.7388 52.1426C35.8958 52.2996 35.984 52.5125 35.984 52.7346Z" stroke="#4831D4" stroke-opacity="0.5"/>
<path d="M52.8883 52.7347V52.7728C52.8788 52.981 52.7919 53.1787 52.6439 53.3267C52.4869 53.4838 52.2739 53.572 52.0519 53.572C51.8298 53.572 51.6168 53.4838 51.4598 53.3267C51.3028 53.1697 51.2146 52.9568 51.2146 52.7347C51.2146 52.5127 51.3027 52.2998 51.4597 52.1429C51.6166 51.986 51.8295 51.8978 52.0514 51.8978C52.2734 51.8978 52.4862 51.986 52.6432 52.1429C52.8001 52.2999 52.8883 52.5128 52.8883 52.7347Z" stroke="#4831D4" stroke-opacity="0.5"/>
<path d="M69.7935 52.7347V52.774C69.7838 52.9817 69.6969 53.179 69.5492 53.3267C69.3922 53.4838 69.1792 53.572 68.9571 53.572C68.735 53.572 68.5221 53.4838 68.3651 53.3267C68.208 53.1697 68.1198 52.9567 68.1198 52.7347C68.1198 52.5127 68.208 52.2998 68.3649 52.1429C68.5218 51.986 68.7347 51.8978 68.9567 51.8978C69.1786 51.8978 69.3915 51.986 69.5484 52.1429C69.7054 52.2998 69.7935 52.5127 69.7935 52.7347Z" stroke="#4831D4" stroke-opacity="0.5"/>
<path d="M86.6987 52.7347C86.6987 52.9566 86.6105 53.1695 86.4536 53.3264C86.2967 53.4834 86.0838 53.5715 85.8618 53.5715C85.6399 53.5715 85.427 53.4834 85.2701 53.3264C85.1131 53.1695 85.025 52.9566 85.025 52.7347C85.025 52.5127 85.1131 52.2998 85.2701 52.1429C85.427 51.986 85.6399 51.8978 85.8618 51.8978C86.0838 51.8978 86.2967 51.986 86.4536 52.1429C86.6105 52.2998 86.6987 52.5127 86.6987 52.7347Z" stroke="#4831D4" stroke-opacity="0.5"/>
<path d="M103.604 52.7347C103.604 52.9566 103.516 53.1695 103.359 53.3264C103.202 53.4834 102.989 53.5715 102.767 53.5715C102.545 53.5715 102.332 53.4834 102.175 53.3264C102.018 53.1695 101.93 52.9566 101.93 52.7347C101.93 52.5127 102.018 52.2998 102.175 52.1429C102.332 51.986 102.545 51.8978 102.767 51.8978C102.989 51.8978 103.202 51.986 103.359 52.1429C103.516 52.2998 103.604 52.5127 103.604 52.7347Z" stroke="#4831D4" stroke-opacity="0.5"/>
<path d="M120.51 52.7346C120.51 52.9567 120.422 53.1697 120.265 53.3267C120.108 53.4837 119.895 53.572 119.673 53.572C119.451 53.572 119.238 53.4837 119.081 53.3267C118.924 53.1697 118.835 52.9567 118.835 52.7346C118.835 52.5126 118.924 52.2996 119.081 52.1426C119.238 51.9856 119.451 51.8973 119.673 51.8973C119.895 51.8973 120.108 51.9855 120.265 52.1426C120.422 52.2996 120.51 52.5126 120.51 52.7346Z" stroke="#4831D4" stroke-opacity="0.5"/>
<path d="M137.414 52.7347V52.7729C137.405 52.9811 137.318 53.1787 137.17 53.3267C137.013 53.4838 136.8 53.572 136.578 53.572C136.356 53.572 136.143 53.4838 135.986 53.3267C135.829 53.1697 135.741 52.9567 135.741 52.7347C135.741 52.5127 135.829 52.2998 135.986 52.1429C136.143 51.986 136.355 51.8978 136.577 51.8978C136.799 51.8978 137.012 51.986 137.169 52.1429C137.326 52.2998 137.414 52.5127 137.414 52.7347Z" stroke="#4831D4" stroke-opacity="0.5"/>
<path d="M154.319 52.7346V52.7728C154.31 52.9811 154.223 53.179 154.075 53.327C153.918 53.4842 153.705 53.5724 153.483 53.5724C153.26 53.5724 153.047 53.4841 152.89 53.327C152.733 53.1699 152.645 52.9568 152.645 52.7346C152.645 52.5126 152.733 52.2996 152.89 52.1426C153.047 51.9856 153.26 51.8973 153.482 51.8973C153.704 51.8973 153.917 51.9855 154.074 52.1426C154.231 52.2996 154.319 52.5126 154.319 52.7346Z" stroke="#4831D4" stroke-opacity="0.5"/>
<path d="M171.225 52.7347C171.225 52.9566 171.137 53.1695 170.98 53.3264C170.823 53.4834 170.61 53.5715 170.388 53.5715C170.166 53.5715 169.953 53.4834 169.796 53.3264C169.639 53.1695 169.551 52.9566 169.551 52.7347C169.551 52.5127 169.639 52.2998 169.796 52.1429C169.953 51.986 170.166 51.8978 170.388 51.8978C170.61 51.8978 170.823 51.986 170.98 52.1429C171.137 52.2999 171.225 52.5128 171.225 52.7347Z" stroke="#4831D4" stroke-opacity="0.5"/>
<path d="M188.13 52.7346C188.13 52.9567 188.042 53.1697 187.885 53.3267C187.728 53.4837 187.515 53.572 187.293 53.572C187.07 53.572 186.857 53.4837 186.7 53.3267C186.543 53.1697 186.455 52.9567 186.455 52.7346C186.455 52.5125 186.543 52.2996 186.7 52.1426C186.857 51.9856 187.07 51.8973 187.293 51.8973C187.515 51.8973 187.728 51.9856 187.885 52.1426C188.042 52.2996 188.13 52.5125 188.13 52.7346Z" stroke="#4831D4" stroke-opacity="0.5"/>
<path d="M2.1746 69.8671C2.1746 70.0891 2.08643 70.3019 1.92949 70.4589C1.77255 70.6158 1.55969 70.704 1.33773 70.704C1.11576 70.704 0.902897 70.6158 0.745961 70.4589C0.589024 70.3019 0.500854 70.0891 0.500854 69.8671C0.500854 69.6452 0.589017 69.4323 0.745961 69.2754C0.902915 69.1184 1.11579 69.0302 1.33773 69.0302C1.55966 69.0302 1.77254 69.1184 1.92949 69.2754C2.08643 69.4323 2.1746 69.6452 2.1746 69.8671Z" stroke="#4831D4" stroke-opacity="0.5"/>
<path d="M19.0788 69.8671C19.0788 70.0891 18.9906 70.3019 18.8337 70.4589C18.6768 70.6158 18.4639 70.704 18.2419 70.704C18.02 70.704 17.8072 70.6158 17.6502 70.4589C17.4932 70.3019 17.4051 70.089 17.4051 69.8671C17.4051 69.6452 17.4932 69.4324 17.6502 69.2754C17.8072 69.1184 18.02 69.0302 18.2419 69.0302C18.4639 69.0302 18.6767 69.1184 18.8337 69.2754C18.9906 69.4323 19.0788 69.6452 19.0788 69.8671Z" stroke="#4831D4" stroke-opacity="0.5"/>
<path d="M35.984 69.8671C35.984 70.0891 35.8958 70.3019 35.7389 70.4589C35.5819 70.6158 35.3691 70.704 35.1471 70.704C34.9252 70.704 34.7123 70.6158 34.5553 70.4589C34.3984 70.3019 34.3102 70.0891 34.3102 69.8671C34.3102 69.6452 34.3984 69.4323 34.5553 69.2754C34.7123 69.1184 34.9252 69.0302 35.1471 69.0302C35.369 69.0302 35.5819 69.1184 35.7389 69.2754C35.8958 69.4323 35.984 69.6452 35.984 69.8671Z" stroke="#4831D4" stroke-opacity="0.5"/>
<path d="M52.8892 69.8671C52.8892 70.0891 52.801 70.3019 52.6441 70.4589C52.4872 70.6158 52.2743 70.704 52.0523 70.704C51.8304 70.704 51.6175 70.6158 51.4606 70.4589C51.3036 70.3019 51.2155 70.0891 51.2155 69.8671C51.2155 69.6452 51.3036 69.4323 51.4606 69.2754C51.6175 69.1184 51.8304 69.0302 52.0523 69.0302C52.2743 69.0302 52.4871 69.1184 52.6441 69.2754C52.801 69.4323 52.8892 69.6452 52.8892 69.8671Z" stroke="#4831D4" stroke-opacity="0.5"/>
<path d="M69.7944 69.8671C69.7944 70.089 69.7062 70.3019 69.5492 70.4589C69.3923 70.6158 69.1794 70.704 68.9575 70.704C68.7355 70.704 68.5227 70.6158 68.3657 70.4589C68.2088 70.3019 68.1206 70.0891 68.1206 69.8671C68.1206 69.6452 68.2088 69.4323 68.3657 69.2754C68.5227 69.1184 68.7356 69.0302 68.9575 69.0302C69.1794 69.0302 69.3922 69.1184 69.5492 69.2754C69.7062 69.4324 69.7944 69.6452 69.7944 69.8671Z" stroke="#4831D4" stroke-opacity="0.5"/>
<path d="M86.699 69.8855C86.7032 69.9979 86.6846 70.11 86.6445 70.2151C86.6043 70.3202 86.5434 70.4161 86.4654 70.497C86.3874 70.578 86.2938 70.6425 86.1903 70.6865C86.0868 70.7305 85.9755 70.7532 85.863 70.7532C85.7505 70.7533 85.6392 70.7306 85.5356 70.6867C85.4321 70.6427 85.3385 70.5784 85.2604 70.4974C85.1823 70.4165 85.1214 70.3206 85.0811 70.2156C85.0409 70.1106 85.0223 69.9985 85.0264 69.8861C85.0342 69.6696 85.1257 69.4645 85.2816 69.3141C85.4376 69.1637 85.6458 69.0796 85.8624 69.0795C86.0791 69.0794 86.2873 69.1634 86.4433 69.3137C86.5994 69.4641 86.691 69.669 86.699 69.8855Z" stroke="#4831D4" stroke-opacity="0.5"/>
<path d="M103.604 69.8855C103.608 69.9979 103.59 70.11 103.55 70.2151C103.51 70.3201 103.449 70.416 103.371 70.497C103.292 70.5781 103.199 70.6425 103.096 70.6865C102.992 70.7305 102.881 70.7532 102.768 70.7532C102.656 70.7533 102.544 70.7306 102.441 70.6867C102.337 70.6427 102.244 70.5784 102.166 70.4974C102.088 70.4165 102.027 70.3206 101.986 70.2156C101.946 70.1105 101.928 69.9984 101.932 69.8861C101.939 69.6696 102.031 69.4646 102.187 69.3141C102.343 69.1637 102.551 69.0796 102.768 69.0795C102.984 69.0794 103.193 69.1634 103.349 69.3137C103.505 69.4641 103.596 69.669 103.604 69.8855Z" stroke="#4831D4" stroke-opacity="0.5"/>
<path d="M120.51 69.8671C120.51 70.0891 120.422 70.3019 120.265 70.4589C120.108 70.6158 119.895 70.704 119.673 70.704C119.451 70.704 119.238 70.6158 119.081 70.4589C118.924 70.3019 118.836 70.0891 118.836 69.8671C118.836 69.6452 118.924 69.4323 119.081 69.2754C119.238 69.1184 119.451 69.0302 119.673 69.0302C119.895 69.0302 120.108 69.1184 120.265 69.2754C120.422 69.4323 120.51 69.6452 120.51 69.8671Z" stroke="#4831D4" stroke-opacity="0.5"/>
<path d="M137.415 69.8671C137.415 70.0891 137.327 70.3019 137.17 70.4589C137.013 70.6158 136.8 70.704 136.578 70.704C136.356 70.704 136.144 70.6158 135.987 70.4589C135.83 70.3019 135.741 70.089 135.741 69.8671C135.741 69.6452 135.83 69.4324 135.987 69.2754C136.144 69.1184 136.356 69.0302 136.578 69.0302C136.8 69.0302 137.013 69.1184 137.17 69.2754C137.327 69.4323 137.415 69.6452 137.415 69.8671Z" stroke="#4831D4" stroke-opacity="0.5"/>
<path d="M154.32 69.8671C154.32 70.0891 154.232 70.3019 154.075 70.4589C153.918 70.6158 153.705 70.704 153.483 70.704C153.262 70.704 153.049 70.6158 152.892 70.4589C152.735 70.3019 152.647 70.0891 152.647 69.8671C152.647 69.6452 152.735 69.4323 152.892 69.2754C153.049 69.1184 153.262 69.0302 153.483 69.0302C153.705 69.0302 153.918 69.1184 154.075 69.2754C154.232 69.4323 154.32 69.6452 154.32 69.8671Z" stroke="#4831D4" stroke-opacity="0.5"/>
<path d="M171.225 69.8671C171.225 70.089 171.137 70.3019 170.98 70.4589C170.823 70.6158 170.61 70.704 170.388 70.704C170.166 70.704 169.953 70.6158 169.796 70.4589C169.639 70.3019 169.551 70.0891 169.551 69.8671C169.551 69.6452 169.639 69.4323 169.796 69.2754C169.953 69.1184 170.166 69.0302 170.388 69.0302C170.61 69.0302 170.823 69.1184 170.98 69.2754C171.137 69.4324 171.225 69.6452 171.225 69.8671Z" stroke="#4831D4" stroke-opacity="0.5"/>
<path d="M188.13 69.8671C188.13 70.0891 188.042 70.3019 187.885 70.4589C187.728 70.6158 187.515 70.704 187.293 70.704C187.071 70.704 186.858 70.6158 186.701 70.4589C186.544 70.3019 186.456 70.0891 186.456 69.8671C186.456 69.6452 186.544 69.4323 186.701 69.2754C186.858 69.1184 187.071 69.0302 187.293 69.0302C187.515 69.0302 187.728 69.1184 187.885 69.2754C188.042 69.4323 188.13 69.6452 188.13 69.8671Z" stroke="#4831D4" stroke-opacity="0.5"/>
<path d="M0.49997 86.9998V86.9996C0.49997 86.7776 0.588139 86.5648 0.745076 86.4078C0.902012 86.2509 1.11488 86.1627 1.33684 86.1627C1.5588 86.1627 1.77167 86.2509 1.92861 86.4078C2.08554 86.5648 2.17371 86.7776 2.17371 86.9996V87.0382C2.16929 87.1352 2.14802 87.2308 2.11077 87.3207C2.06866 87.4222 2.00694 87.5145 1.92916 87.5923C1.85137 87.67 1.75902 87.7317 1.65742 87.7737C1.55583 87.8158 1.44698 87.8374 1.33701 87.8373C1.22698 87.8373 1.11808 87.8156 1.01657 87.7735C0.915054 87.7314 0.822804 87.6697 0.74503 87.5919C0.667297 87.5141 0.605629 87.4218 0.563587 87.3202C0.521546 87.2186 0.499933 87.1097 0.49997 86.9998Z" stroke="#4831D4" stroke-opacity="0.5"/>
<path d="M17.4051 86.9998V86.9996C17.4051 86.7777 17.4932 86.5648 17.6502 86.4078C17.8072 86.2509 18.02 86.1627 18.2419 86.1627C18.4639 86.1627 18.6768 86.2509 18.8337 86.4078C18.9906 86.5648 19.0788 86.7776 19.0788 86.9996V87.0003C19.0788 87.0003 19.0788 87.0004 19.0788 87.0005C19.0787 87.2224 18.9905 87.4352 18.8335 87.592C18.6766 87.7489 18.4636 87.837 18.2417 87.8369C18.0197 87.8368 17.8069 87.7486 17.65 87.5916C17.4931 87.4346 17.405 87.2217 17.4051 86.9998Z" stroke="#4831D4" stroke-opacity="0.5"/>
<path d="M34.3094 86.9998V86.9996C34.3094 86.7775 34.3976 86.5645 34.5546 86.4075C34.7116 86.2505 34.9246 86.1623 35.1467 86.1623C35.3688 86.1623 35.5818 86.2505 35.7388 86.4075C35.8958 86.5645 35.984 86.7775 35.984 86.9996V87.0003C35.984 87.0004 35.984 87.0004 35.984 87.0005C35.9839 87.1104 35.9623 87.2192 35.9202 87.3207C35.8781 87.4223 35.8164 87.5145 35.7386 87.5923C35.6608 87.67 35.5684 87.7317 35.4668 87.7737C35.3652 87.8158 35.2564 87.8374 35.1464 87.8373C35.0364 87.8373 34.9275 87.8156 34.826 87.7735C34.7245 87.7314 34.6322 87.6697 34.5544 87.5919C34.4767 87.5141 34.415 87.4218 34.373 87.3202C34.331 87.2186 34.3094 87.1097 34.3094 86.9998Z" stroke="#4831D4" stroke-opacity="0.5"/>
<path d="M51.2146 86.9998V86.9996C51.2146 86.7776 51.3027 86.5648 51.4597 86.4078C51.6166 86.2509 51.8295 86.1627 52.0514 86.1627C52.2734 86.1627 52.4862 86.2509 52.6432 86.4078C52.8001 86.5648 52.8883 86.7777 52.8883 86.9996V87.0382C52.8839 87.1351 52.8626 87.2307 52.8253 87.3207C52.7832 87.4223 52.7215 87.5146 52.6438 87.5923C52.566 87.67 52.4736 87.7317 52.372 87.7737C52.2704 87.8158 52.1616 87.8374 52.0516 87.8373C51.9416 87.8373 51.8327 87.8156 51.7312 87.7735C51.6296 87.7314 51.5373 87.6697 51.4596 87.5919C51.3819 87.5142 51.3203 87.4218 51.2782 87.3202C51.2361 87.2186 51.2145 87.1097 51.2146 86.9998Z" stroke="#4831D4" stroke-opacity="0.5"/>
<path d="M68.1198 86.9998V86.9996C68.1198 86.7776 68.208 86.5648 68.3649 86.4078C68.5218 86.2509 68.7347 86.1627 68.9567 86.1627C69.1786 86.1627 69.3915 86.2509 69.5484 86.4078C69.7054 86.5648 69.7935 86.7776 69.7935 86.9996V87.0393C69.789 87.1359 69.7677 87.2311 69.7306 87.3207C69.6885 87.4222 69.6268 87.5145 69.549 87.5923C69.4711 87.67 69.3788 87.7317 69.2773 87.7737C69.1757 87.8157 69.0668 87.8374 68.9568 87.8373C68.8468 87.8373 68.738 87.8156 68.6364 87.7735C68.5349 87.7314 68.4426 87.6697 68.3648 87.5919C68.2871 87.5141 68.2254 87.4218 68.1834 87.3202C68.1414 87.2186 68.1197 87.1097 68.1198 86.9998Z" stroke="#4831D4" stroke-opacity="0.5"/>
<path d="M86.6987 87.0005C86.6987 87.2224 86.6105 87.4353 86.4536 87.5922C86.2967 87.7492 86.0838 87.8373 85.8618 87.8373C85.6399 87.8373 85.427 87.7492 85.2701 87.5922C85.1131 87.4353 85.025 87.2224 85.025 87.0005C85.025 86.7785 85.1131 86.5656 85.2701 86.4087C85.427 86.2518 85.6399 86.1636 85.8618 86.1636C86.0838 86.1636 86.2967 86.2518 86.4536 86.4087C86.6105 86.5656 86.6987 86.7785 86.6987 87.0005Z" stroke="#4831D4" stroke-opacity="0.5"/>
<path d="M103.604 87.0005C103.604 87.2224 103.516 87.4353 103.359 87.5922C103.202 87.7492 102.989 87.8373 102.767 87.8373C102.545 87.8373 102.332 87.7492 102.175 87.5922C102.018 87.4353 101.93 87.2224 101.93 87.0005C101.93 86.7785 102.018 86.5656 102.175 86.4087C102.332 86.2518 102.545 86.1636 102.767 86.1636C102.989 86.1636 103.202 86.2518 103.359 86.4087C103.516 86.5656 103.604 86.7785 103.604 87.0005Z" stroke="#4831D4" stroke-opacity="0.5"/>
<path d="M118.835 86.9998V86.9996C118.835 86.7775 118.924 86.5645 119.081 86.4075C119.238 86.2505 119.451 86.1623 119.673 86.1623C119.895 86.1623 120.108 86.2505 120.265 86.4075C120.422 86.5645 120.51 86.7775 120.51 86.9996V87.0003C120.51 87.0004 120.51 87.0004 120.51 87.0005C120.51 87.2224 120.422 87.4353 120.265 87.5923C120.107 87.7493 119.894 87.8374 119.672 87.8373C119.45 87.8373 119.237 87.749 119.08 87.5919C118.923 87.4348 118.835 87.2218 118.835 86.9998Z" stroke="#4831D4" stroke-opacity="0.5"/>
<path d="M135.741 86.9998V86.9996C135.741 86.7776 135.829 86.5648 135.986 86.4078C136.143 86.2509 136.355 86.1627 136.577 86.1627C136.799 86.1627 137.012 86.2509 137.169 86.4078C137.326 86.5648 137.414 86.7776 137.414 86.9996V87.0382C137.405 87.2465 137.318 87.4443 137.17 87.5923C137.013 87.7493 136.8 87.8374 136.578 87.8373C136.355 87.8373 136.143 87.749 135.986 87.5919C135.829 87.4348 135.74 87.2218 135.741 86.9998Z" stroke="#4831D4" stroke-opacity="0.5"/>
<path d="M152.645 86.9998V86.9996C152.645 86.7775 152.733 86.5645 152.89 86.4075C153.047 86.2505 153.26 86.1623 153.482 86.1623C153.704 86.1623 153.917 86.2505 154.074 86.4075C154.231 86.5645 154.319 86.7775 154.319 86.9996V87.0382C154.31 87.2466 154.223 87.4445 154.075 87.5926C153.918 87.7497 153.704 87.8378 153.482 87.8378C153.26 87.8377 153.047 87.7494 152.89 87.5922C152.733 87.4351 152.645 87.2219 152.645 86.9998Z" stroke="#4831D4" stroke-opacity="0.5"/>
<path d="M169.551 86.9998V86.9996C169.551 86.7776 169.639 86.5648 169.796 86.4078C169.953 86.2509 170.166 86.1627 170.388 86.1627C170.61 86.1627 170.823 86.2509 170.98 86.4078C171.137 86.5648 171.225 86.7777 171.225 86.9996V87.0003C171.225 87.0004 171.225 87.0004 171.225 87.0005C171.225 87.1103 171.203 87.219 171.161 87.3205C171.119 87.4221 171.057 87.5143 170.979 87.592C170.902 87.6696 170.809 87.7312 170.708 87.7733C170.606 87.8153 170.497 87.8369 170.388 87.8369C170.278 87.8369 170.169 87.8152 170.067 87.7731C169.966 87.731 169.874 87.6693 169.796 87.5916C169.718 87.5138 169.657 87.4215 169.615 87.32C169.573 87.2185 169.551 87.1097 169.551 86.9998Z" stroke="#4831D4" stroke-opacity="0.5"/>
<path d="M186.455 86.9998V86.9996C186.455 86.7775 186.543 86.5645 186.7 86.4075C186.857 86.2505 187.07 86.1623 187.293 86.1623C187.515 86.1623 187.728 86.2505 187.885 86.4075C188.042 86.5645 188.13 86.7775 188.13 86.9996V87.0003C188.13 87.0004 188.13 87.0004 188.13 87.0005C188.13 87.2225 188.041 87.4354 187.884 87.5923C187.727 87.7493 187.514 87.8374 187.292 87.8373C187.07 87.8373 186.857 87.749 186.7 87.5919C186.543 87.4348 186.455 87.2218 186.455 86.9998Z" stroke="#4831D4" stroke-opacity="0.5"/>
<path d="M2.1746 104.133C2.1746 104.355 2.08643 104.568 1.92949 104.725C1.77255 104.882 1.55969 104.97 1.33773 104.97C1.11576 104.97 0.902897 104.882 0.745961 104.725C0.589024 104.568 0.500854 104.355 0.500854 104.133C0.500854 103.911 0.589024 103.698 0.745961 103.541C0.902897 103.384 1.11576 103.296 1.33773 103.296C1.55969 103.296 1.77255 103.384 1.92949 103.541C2.08643 103.698 2.1746 103.911 2.1746 104.133Z" stroke="#4831D4" stroke-opacity="0.5"/>
<path d="M19.0788 104.133C19.0788 104.355 18.9906 104.568 18.8337 104.725C18.6768 104.882 18.4639 104.97 18.2419 104.97C18.02 104.97 17.8072 104.882 17.6502 104.725C17.4932 104.568 17.4051 104.355 17.4051 104.133C17.4051 103.911 17.4932 103.698 17.6502 103.541C17.8072 103.384 18.02 103.296 18.2419 103.296C18.4639 103.296 18.6768 103.384 18.8337 103.541C18.9906 103.698 19.0788 103.911 19.0788 104.133Z" stroke="#4831D4" stroke-opacity="0.5"/>
<path d="M35.984 104.133C35.984 104.355 35.8958 104.568 35.7389 104.725C35.5819 104.882 35.3691 104.97 35.1471 104.97C34.9252 104.97 34.7123 104.882 34.5553 104.725C34.3984 104.568 34.3102 104.355 34.3102 104.133C34.3102 103.911 34.3984 103.698 34.5553 103.541C34.7123 103.384 34.9252 103.296 35.1471 103.296C35.3691 103.296 35.5819 103.384 35.7389 103.541C35.8958 103.698 35.984 103.911 35.984 104.133Z" stroke="#4831D4" stroke-opacity="0.5"/>
<path d="M52.8892 104.133C52.8892 104.355 52.801 104.568 52.6441 104.725C52.4872 104.882 52.2743 104.97 52.0523 104.97C51.8304 104.97 51.6175 104.882 51.4606 104.725C51.3036 104.568 51.2155 104.355 51.2155 104.133C51.2155 103.911 51.3036 103.698 51.4606 103.541C51.6175 103.384 51.8304 103.296 52.0523 103.296C52.2743 103.296 52.4872 103.384 52.6441 103.541C52.801 103.698 52.8892 103.911 52.8892 104.133Z" stroke="#4831D4" stroke-opacity="0.5"/>
<path d="M69.7944 104.133C69.7944 104.355 69.7062 104.568 69.5492 104.725C69.3923 104.882 69.1794 104.97 68.9575 104.97C68.7355 104.97 68.5227 104.882 68.3657 104.725C68.2088 104.568 68.1206 104.355 68.1206 104.133C68.1206 103.911 68.2088 103.698 68.3657 103.541C68.5227 103.384 68.7355 103.296 68.9575 103.296C69.1794 103.296 69.3923 103.384 69.5492 103.541C69.7062 103.698 69.7944 103.911 69.7944 104.133Z" stroke="#4831D4" stroke-opacity="0.5"/>
<path d="M86.699 104.151C86.7031 104.264 86.6845 104.376 86.6444 104.481C86.6042 104.586 86.5433 104.682 86.4652 104.763C86.3872 104.843 86.2936 104.908 86.19 104.952C86.0865 104.996 85.9751 105.019 85.8627 105.019C85.7503 105.019 85.639 104.996 85.5354 104.952C85.4318 104.908 85.3382 104.843 85.2602 104.763C85.1822 104.682 85.1212 104.586 85.0811 104.481C85.0409 104.376 85.0223 104.264 85.0264 104.151C85.0343 103.935 85.1259 103.73 85.2819 103.579C85.4379 103.429 85.6461 103.345 85.8627 103.345C86.0793 103.345 86.2876 103.429 86.4436 103.579C86.5995 103.73 86.6911 103.935 86.699 104.151Z" stroke="#4831D4" stroke-opacity="0.5"/>
<path d="M103.604 104.151C103.608 104.264 103.59 104.376 103.55 104.481C103.509 104.586 103.448 104.682 103.37 104.763C103.292 104.844 103.199 104.908 103.095 104.952C102.992 104.996 102.88 105.019 102.768 105.019C102.655 105.019 102.544 104.996 102.441 104.952C102.337 104.908 102.244 104.844 102.165 104.763C102.087 104.682 102.026 104.586 101.986 104.481C101.946 104.376 101.927 104.264 101.932 104.151C101.939 103.935 102.031 103.73 102.187 103.579C102.343 103.429 102.551 103.345 102.768 103.345C102.985 103.345 103.193 103.429 103.349 103.579C103.505 103.73 103.596 103.935 103.604 104.151Z" stroke="#4831D4" stroke-opacity="0.5"/>
<path d="M120.51 104.133C120.51 104.355 120.422 104.568 120.265 104.725C120.108 104.882 119.895 104.97 119.673 104.97C119.451 104.97 119.238 104.882 119.081 104.725C118.924 104.568 118.836 104.355 118.836 104.133C118.836 103.911 118.924 103.698 119.081 103.541C119.238 103.384 119.451 103.296 119.673 103.296C119.895 103.296 120.108 103.384 120.265 103.541C120.422 103.698 120.51 103.911 120.51 104.133Z" stroke="#4831D4" stroke-opacity="0.5"/>
<path d="M137.415 104.133C137.415 104.355 137.327 104.568 137.17 104.725C137.013 104.882 136.8 104.97 136.578 104.97C136.356 104.97 136.144 104.882 135.987 104.725C135.83 104.568 135.741 104.355 135.741 104.133C135.741 103.911 135.83 103.698 135.987 103.541C136.144 103.384 136.356 103.296 136.578 103.296C136.8 103.296 137.013 103.384 137.17 103.541C137.327 103.698 137.415 103.911 137.415 104.133Z" stroke="#4831D4" stroke-opacity="0.5"/>
<path d="M154.32 104.133C154.32 104.355 154.232 104.568 154.075 104.725C153.918 104.882 153.705 104.97 153.483 104.97C153.262 104.97 153.049 104.882 152.892 104.725C152.735 104.568 152.647 104.355 152.647 104.133C152.647 103.911 152.735 103.698 152.892 103.541C153.049 103.384 153.262 103.296 153.483 103.296C153.705 103.296 153.918 103.384 154.075 103.541C154.232 103.698 154.32 103.911 154.32 104.133Z" stroke="#4831D4" stroke-opacity="0.5"/>
<path d="M171.225 104.133C171.225 104.355 171.137 104.568 170.98 104.725C170.823 104.882 170.61 104.97 170.388 104.97C170.166 104.97 169.953 104.882 169.796 104.725C169.639 104.568 169.551 104.355 169.551 104.133C169.551 103.911 169.639 103.698 169.796 103.541C169.953 103.384 170.166 103.296 170.388 103.296C170.61 103.296 170.823 103.384 170.98 103.541C171.137 103.698 171.225 103.911 171.225 104.133Z" stroke="#4831D4" stroke-opacity="0.5"/>
<path d="M188.13 104.133C188.13 104.355 188.042 104.568 187.885 104.725C187.728 104.882 187.515 104.97 187.293 104.97C187.071 104.97 186.858 104.882 186.701 104.725C186.544 104.568 186.456 104.355 186.456 104.133C186.456 103.911 186.544 103.698 186.701 103.541C186.858 103.384 187.071 103.296 187.293 103.296C187.515 103.296 187.728 103.384 187.885 103.541C188.042 103.698 188.13 103.911 188.13 104.133Z" stroke="#4831D4" stroke-opacity="0.5"/>
<path d="M2.1737 121.303C2.16924 121.4 2.14798 121.496 2.11077 121.586C2.06866 121.687 2.00694 121.779 1.92916 121.857C1.85144 121.935 1.7591 121.997 1.65742 122.039C1.55583 122.081 1.44698 122.102 1.33701 122.102C1.22698 122.102 1.11808 122.08 1.01657 122.038C0.915054 121.996 0.822804 121.935 0.74503 121.857C0.667255 121.779 0.605606 121.687 0.563587 121.585C0.521554 121.484 0.499933 121.375 0.49997 121.265C0.500044 121.043 0.588279 120.83 0.745284 120.673C0.902308 120.516 1.1152 120.428 1.33711 120.428C1.55905 120.428 1.77186 120.516 1.92876 120.673C2.08568 120.83 2.17379 121.043 2.17371 121.265L2.1737 121.303Z" stroke="#4831D4" stroke-opacity="0.5"/>
<path d="M19.0788 121.265C19.0787 121.487 18.9905 121.7 18.8335 121.857C18.6766 122.014 18.4636 122.102 18.2417 122.102C18.0197 122.102 17.8069 122.013 17.65 121.856C17.4931 121.699 17.405 121.487 17.4051 121.265C17.4051 121.043 17.4934 120.83 17.6504 120.673C17.8074 120.516 18.0203 120.428 18.2423 120.428C18.4642 120.428 18.677 120.516 18.8339 120.673C18.9908 120.83 19.0789 121.043 19.0788 121.265Z" stroke="#4831D4" stroke-opacity="0.5"/>
<path d="M35.984 121.265C35.984 121.375 35.9623 121.484 35.9202 121.586C35.8781 121.687 35.8164 121.779 35.7386 121.857C35.6609 121.935 35.5685 121.997 35.4668 122.039C35.3652 122.081 35.2564 122.102 35.1464 122.102C35.0364 122.102 34.9275 122.08 34.826 122.038C34.7245 121.996 34.6322 121.935 34.5544 121.857C34.4767 121.779 34.415 121.687 34.373 121.585C34.331 121.484 34.3094 121.375 34.3094 121.265C34.3095 121.043 34.3977 120.83 34.5548 120.673C34.7119 120.516 34.9249 120.428 35.147 120.428C35.369 120.428 35.582 120.516 35.7389 120.673C35.8959 120.83 35.9841 121.043 35.984 121.265Z" stroke="#4831D4" stroke-opacity="0.5"/>
<path d="M52.8883 121.303C52.8838 121.4 52.8626 121.496 52.8253 121.586C52.7832 121.687 52.7215 121.78 52.6438 121.857C52.566 121.935 52.4737 121.997 52.372 122.039C52.2704 122.081 52.1616 122.102 52.0516 122.102C51.9416 122.102 51.8327 122.08 51.7312 122.038C51.6296 121.996 51.5373 121.935 51.4596 121.857C51.3819 121.779 51.3202 121.687 51.2782 121.585C51.2362 121.484 51.2145 121.375 51.2146 121.265C51.2146 121.043 51.3029 120.83 51.4598 120.673C51.6168 120.516 51.8298 120.428 52.0517 120.428C52.2736 120.428 52.4865 120.516 52.6434 120.673C52.8003 120.83 52.8884 121.043 52.8883 121.265L52.8883 121.303Z" stroke="#4831D4" stroke-opacity="0.5"/>
<path d="M69.7935 121.304C69.7889 121.401 69.7677 121.496 69.7306 121.586C69.6885 121.687 69.6268 121.779 69.549 121.857C69.4712 121.935 69.3789 121.997 69.2773 122.039C69.1757 122.081 69.0668 122.102 68.9568 122.102C68.8468 122.102 68.738 122.08 68.6364 122.038C68.5349 121.996 68.4426 121.935 68.3648 121.857C68.2871 121.779 68.2254 121.687 68.1834 121.585C68.1414 121.484 68.1197 121.375 68.1198 121.265C68.1199 121.043 68.2081 120.83 68.3651 120.673C68.5221 120.516 68.735 120.428 68.9569 120.428C69.1789 120.428 69.3917 120.516 69.5486 120.673C69.7055 120.83 69.7936 121.043 69.7935 121.265L69.7935 121.304Z" stroke="#4831D4" stroke-opacity="0.5"/>
<path d="M86.6987 121.265C86.6987 121.487 86.6105 121.7 86.4536 121.857C86.2967 122.014 86.0838 122.102 85.8618 122.102C85.6399 122.102 85.427 122.014 85.2701 121.857C85.1131 121.7 85.025 121.487 85.025 121.265C85.025 121.043 85.1131 120.831 85.2701 120.674C85.427 120.517 85.6399 120.428 85.8618 120.428C86.0837 120.428 86.2966 120.517 86.4536 120.674C86.6106 120.831 86.6987 121.043 86.6987 121.265Z" stroke="#4831D4" stroke-opacity="0.5"/>
<path d="M103.604 121.265C103.604 121.487 103.516 121.7 103.359 121.857C103.202 122.014 102.989 122.102 102.767 122.102C102.545 122.102 102.332 122.014 102.175 121.857C102.018 121.7 101.93 121.487 101.93 121.265C101.93 121.043 102.018 120.831 102.175 120.674C102.332 120.517 102.545 120.428 102.767 120.428C102.989 120.428 103.202 120.517 103.359 120.674C103.516 120.831 103.604 121.043 103.604 121.265Z" stroke="#4831D4" stroke-opacity="0.5"/>
<path d="M120.51 121.265C120.51 121.487 120.422 121.7 120.265 121.857C120.107 122.014 119.895 122.102 119.672 122.102C119.45 122.102 119.237 122.014 119.08 121.857C118.923 121.7 118.835 121.487 118.835 121.265C118.835 121.155 118.857 121.046 118.899 120.944C118.941 120.843 119.003 120.75 119.081 120.673C119.159 120.595 119.251 120.533 119.353 120.491C119.454 120.449 119.563 120.428 119.673 120.428C119.783 120.428 119.892 120.449 119.993 120.491C120.095 120.534 120.187 120.595 120.265 120.673C120.343 120.751 120.404 120.843 120.446 120.945C120.488 121.046 120.51 121.155 120.51 121.265Z" stroke="#4831D4" stroke-opacity="0.5"/>
<path d="M137.414 121.303C137.405 121.512 137.318 121.709 137.17 121.857C137.013 122.014 136.8 122.102 136.578 122.102C136.355 122.102 136.143 122.014 135.986 121.857C135.829 121.7 135.74 121.487 135.741 121.265C135.741 121.043 135.829 120.83 135.986 120.673C136.143 120.516 136.356 120.428 136.578 120.428C136.8 120.428 137.012 120.516 137.169 120.673C137.326 120.83 137.414 121.043 137.414 121.265L137.414 121.303Z" stroke="#4831D4" stroke-opacity="0.5"/>
<path d="M154.319 121.303C154.31 121.512 154.223 121.709 154.075 121.857C153.918 122.015 153.704 122.103 153.482 122.103C153.26 122.103 153.047 122.014 152.89 121.857C152.733 121.7 152.645 121.487 152.645 121.265C152.645 121.155 152.667 121.046 152.709 120.944C152.751 120.843 152.812 120.75 152.89 120.673C152.968 120.595 153.06 120.533 153.162 120.491C153.264 120.449 153.372 120.428 153.482 120.428C153.592 120.428 153.701 120.449 153.803 120.491C153.904 120.534 153.997 120.595 154.074 120.673C154.152 120.751 154.214 120.843 154.256 120.945C154.298 121.046 154.319 121.155 154.319 121.265L154.319 121.303Z" stroke="#4831D4" stroke-opacity="0.5"/>
<path d="M171.225 121.265C171.225 121.375 171.203 121.484 171.161 121.585C171.119 121.687 171.057 121.779 170.979 121.857C170.902 121.935 170.809 121.996 170.708 122.038C170.606 122.08 170.497 122.102 170.388 122.102C170.278 122.102 170.169 122.08 170.067 122.038C169.966 121.996 169.874 121.934 169.796 121.856C169.718 121.779 169.657 121.686 169.615 121.585C169.573 121.483 169.551 121.375 169.551 121.265C169.551 121.043 169.639 120.83 169.796 120.673C169.953 120.516 170.166 120.428 170.388 120.428C170.61 120.428 170.823 120.516 170.98 120.673C171.137 120.83 171.225 121.043 171.225 121.265Z" stroke="#4831D4" stroke-opacity="0.5"/>
<path d="M188.13 121.265C188.13 121.487 188.041 121.7 187.884 121.857C187.727 122.014 187.514 122.102 187.292 122.102C187.07 122.102 186.857 122.014 186.7 121.857C186.543 121.7 186.455 121.487 186.455 121.265C186.455 121.155 186.477 121.046 186.519 120.944C186.561 120.843 186.623 120.75 186.701 120.673C186.778 120.595 186.871 120.533 186.972 120.491C187.074 120.449 187.183 120.428 187.293 120.428C187.403 120.428 187.512 120.449 187.613 120.491C187.715 120.534 187.807 120.595 187.885 120.673C187.962 120.751 188.024 120.843 188.066 120.945C188.108 121.046 188.13 121.155 188.13 121.265Z" stroke="#4831D4" stroke-opacity="0.5"/>
<path d="M0.49997 138.397V138.397C0.49997 138.175 0.588139 137.962 0.745076 137.805C0.902012 137.648 1.11488 137.56 1.33684 137.56C1.5588 137.56 1.77167 137.648 1.92861 137.805C2.08554 137.962 2.17371 138.175 2.17371 138.397V138.436C2.16929 138.533 2.14802 138.628 2.11077 138.718C2.06866 138.82 2.00694 138.912 1.92916 138.99C1.85137 139.067 1.75902 139.129 1.65742 139.171C1.55583 139.213 1.44698 139.235 1.33701 139.235C1.22698 139.235 1.11808 139.213 1.01657 139.171C0.915054 139.129 0.822804 139.067 0.74503 138.989C0.667297 138.911 0.605629 138.819 0.563587 138.718C0.521546 138.616 0.499933 138.507 0.49997 138.397Z" stroke="#4831D4" stroke-opacity="0.5"/>
<path d="M17.4051 138.397V138.397C17.4051 138.175 17.4932 137.962 17.6502 137.805C17.8072 137.648 18.02 137.56 18.2419 137.56C18.4639 137.56 18.6768 137.648 18.8337 137.805C18.9906 137.962 19.0788 138.175 19.0788 138.397V138.398C19.0788 138.398 19.0788 138.398 19.0788 138.398C19.0787 138.62 18.9905 138.832 18.8335 138.989C18.6765 139.146 18.4636 139.234 18.2417 139.234C18.0197 139.234 17.8069 139.146 17.65 138.989C17.4931 138.832 17.405 138.619 17.4051 138.397Z" stroke="#4831D4" stroke-opacity="0.5"/>
<path d="M34.3094 138.397V138.397C34.3094 138.175 34.3976 137.962 34.5546 137.805C34.7116 137.648 34.9246 137.56 35.1467 137.56C35.3687 137.56 35.5817 137.648 35.7388 137.805C35.8958 137.962 35.984 138.175 35.984 138.397V138.398C35.984 138.398 35.984 138.398 35.984 138.398C35.9839 138.508 35.9623 138.617 35.9202 138.718C35.8781 138.82 35.8164 138.912 35.7386 138.99C35.6608 139.067 35.5684 139.129 35.4668 139.171C35.3652 139.213 35.2564 139.235 35.1464 139.235C35.0364 139.235 34.9275 139.213 34.826 139.171C34.7245 139.129 34.6322 139.067 34.5544 138.989C34.4767 138.911 34.415 138.819 34.373 138.718C34.331 138.616 34.3094 138.507 34.3094 138.397Z" stroke="#4831D4" stroke-opacity="0.5"/>
<path d="M51.2146 138.397V138.397C51.2146 138.175 51.3027 137.962 51.4597 137.805C51.6166 137.648 51.8295 137.56 52.0514 137.56C52.2734 137.56 52.4862 137.648 52.6432 137.805C52.8001 137.962 52.8883 138.175 52.8883 138.397V138.436C52.8839 138.533 52.8626 138.628 52.8253 138.718C52.7832 138.82 52.7215 138.912 52.6438 138.99C52.566 139.067 52.4736 139.129 52.372 139.171C52.2704 139.213 52.1616 139.235 52.0516 139.235C51.9416 139.235 51.8327 139.213 51.7312 139.171C51.6296 139.129 51.5373 139.067 51.4596 138.989C51.3819 138.912 51.3203 138.819 51.2782 138.718C51.2361 138.616 51.2145 138.507 51.2146 138.397Z" stroke="#4831D4" stroke-opacity="0.5"/>
<path d="M68.1198 138.397V138.397C68.1198 138.175 68.208 137.962 68.3649 137.805C68.5218 137.648 68.7347 137.56 68.9567 137.56C69.1786 137.56 69.3915 137.648 69.5484 137.805C69.7054 137.962 69.7935 138.175 69.7935 138.397V138.437C69.789 138.533 69.7677 138.628 69.7306 138.718C69.6885 138.82 69.6268 138.912 69.549 138.99C69.4711 139.067 69.3788 139.129 69.2773 139.171C69.1757 139.213 69.0668 139.235 68.9568 139.235C68.8468 139.235 68.738 139.213 68.6364 139.171C68.5349 139.129 68.4426 139.067 68.3648 138.989C68.2871 138.911 68.2254 138.819 68.1834 138.718C68.1414 138.616 68.1197 138.507 68.1198 138.397Z" stroke="#4831D4" stroke-opacity="0.5"/>
<path d="M86.6987 138.398C86.6987 138.62 86.6105 138.833 86.4536 138.99C86.2967 139.147 86.0838 139.235 85.8618 139.235C85.6399 139.235 85.427 139.147 85.2701 138.99C85.1131 138.833 85.025 138.62 85.025 138.398C85.025 138.176 85.1131 137.963 85.2701 137.806C85.427 137.649 85.6399 137.561 85.8618 137.561C86.0838 137.561 86.2967 137.649 86.4536 137.806C86.6105 137.963 86.6987 138.176 86.6987 138.398Z" stroke="#4831D4" stroke-opacity="0.5"/>
<path d="M103.604 138.398C103.604 138.62 103.516 138.833 103.359 138.99C103.202 139.147 102.989 139.235 102.767 139.235C102.545 139.235 102.332 139.147 102.175 138.99C102.018 138.833 101.93 138.62 101.93 138.398C101.93 138.176 102.018 137.963 102.175 137.806C102.332 137.649 102.545 137.561 102.767 137.561C102.989 137.561 103.202 137.649 103.359 137.806C103.516 137.963 103.604 138.176 103.604 138.398Z" stroke="#4831D4" stroke-opacity="0.5"/>
<path d="M118.835 138.397V138.397C118.835 138.175 118.924 137.962 119.081 137.805C119.238 137.648 119.451 137.56 119.673 137.56C119.895 137.56 120.108 137.648 120.265 137.805C120.422 137.962 120.51 138.175 120.51 138.397V138.398C120.51 138.398 120.51 138.398 120.51 138.398C120.51 138.62 120.422 138.833 120.265 138.99C120.107 139.147 119.894 139.235 119.672 139.235C119.45 139.235 119.237 139.146 119.08 138.989C118.923 138.832 118.835 138.619 118.835 138.397Z" stroke="#4831D4" stroke-opacity="0.5"/>
<path d="M135.741 138.397V138.397C135.741 138.175 135.829 137.962 135.986 137.805C136.143 137.648 136.355 137.56 136.577 137.56C136.799 137.56 137.012 137.648 137.169 137.805C137.326 137.962 137.414 138.175 137.414 138.397V138.436C137.405 138.644 137.318 138.842 137.17 138.99C137.013 139.147 136.8 139.235 136.578 139.235C136.355 139.235 136.143 139.146 135.986 138.989C135.829 138.832 135.74 138.619 135.741 138.397Z" stroke="#4831D4" stroke-opacity="0.5"/>
<path d="M152.645 138.397V138.397C152.645 138.175 152.733 137.962 152.89 137.805C153.047 137.648 153.26 137.56 153.482 137.56C153.704 137.56 153.917 137.648 154.074 137.805C154.231 137.962 154.319 138.175 154.319 138.397V138.436C154.315 138.533 154.294 138.628 154.256 138.718C154.214 138.82 154.153 138.912 154.075 138.99C153.997 139.068 153.905 139.129 153.803 139.171C153.701 139.214 153.592 139.235 153.482 139.235C153.372 139.235 153.263 139.213 153.162 139.171C153.06 139.129 152.968 139.067 152.89 138.99C152.812 138.912 152.75 138.819 152.708 138.718C152.666 138.616 152.645 138.507 152.645 138.397Z" stroke="#4831D4" stroke-opacity="0.5"/>
<path d="M169.551 138.397V138.397C169.551 138.175 169.639 137.962 169.796 137.805C169.953 137.648 170.166 137.56 170.388 137.56C170.61 137.56 170.823 137.648 170.98 137.805C171.137 137.962 171.225 138.175 171.225 138.397V138.398C171.225 138.398 171.225 138.398 171.225 138.398C171.225 138.508 171.203 138.616 171.161 138.718C171.119 138.819 171.057 138.912 170.979 138.989C170.902 139.067 170.809 139.129 170.708 139.171C170.606 139.213 170.497 139.234 170.388 139.234C170.278 139.234 170.169 139.213 170.067 139.17C169.966 139.128 169.874 139.067 169.796 138.989C169.718 138.911 169.657 138.819 169.615 138.717C169.573 138.616 169.551 138.507 169.551 138.397Z" stroke="#4831D4" stroke-opacity="0.5"/>
<path d="M186.455 138.397V138.397C186.455 138.175 186.543 137.962 186.7 137.805C186.857 137.648 187.07 137.56 187.293 137.56C187.515 137.56 187.728 137.648 187.885 137.805C188.042 137.962 188.13 138.175 188.13 138.397V138.398C188.13 138.398 188.13 138.398 188.13 138.398C188.13 138.62 188.041 138.833 187.884 138.99C187.727 139.147 187.514 139.235 187.292 139.235C187.07 139.235 186.857 139.146 186.7 138.989C186.543 138.832 186.455 138.619 186.455 138.397Z" stroke="#4831D4" stroke-opacity="0.5"/>
<path d="M2.1746 155.529C2.1746 155.751 2.08643 155.964 1.92949 156.121C1.77255 156.278 1.55969 156.366 1.33773 156.366C1.11576 156.366 0.902897 156.278 0.745961 156.121C0.589024 155.964 0.500854 155.751 0.500854 155.529C0.500854 155.307 0.589024 155.095 0.745961 154.938C0.902897 154.781 1.11576 154.692 1.33773 154.692C1.55969 154.692 1.77255 154.781 1.92949 154.938C2.08643 155.095 2.1746 155.307 2.1746 155.529Z" stroke="#4831D4" stroke-opacity="0.5"/>
<path d="M19.0788 155.529C19.0788 155.751 18.9906 155.964 18.8337 156.121C18.6768 156.278 18.4639 156.366 18.2419 156.366C18.02 156.366 17.8072 156.278 17.6502 156.121C17.4932 155.964 17.4051 155.751 17.4051 155.529C17.4051 155.307 17.4932 155.095 17.6502 154.938C17.8072 154.781 18.02 154.692 18.2419 154.692C18.4639 154.692 18.6768 154.781 18.8337 154.938C18.9906 155.095 19.0788 155.307 19.0788 155.529Z" stroke="#4831D4" stroke-opacity="0.5"/>
<path d="M35.984 155.529C35.984 155.751 35.8958 155.964 35.7389 156.121C35.5819 156.278 35.3691 156.366 35.1471 156.366C34.9252 156.366 34.7123 156.278 34.5553 156.121C34.3984 155.964 34.3102 155.751 34.3102 155.529C34.3102 155.307 34.3984 155.095 34.5553 154.938C34.7123 154.781 34.9252 154.692 35.1471 154.692C35.3691 154.692 35.5819 154.781 35.7389 154.938C35.8958 155.095 35.984 155.307 35.984 155.529Z" stroke="#4831D4" stroke-opacity="0.5"/>
<path d="M52.8892 155.529C52.8892 155.751 52.801 155.964 52.6441 156.121C52.4872 156.278 52.2743 156.366 52.0523 156.366C51.8304 156.366 51.6175 156.278 51.4606 156.121C51.3036 155.964 51.2155 155.751 51.2155 155.529C51.2155 155.307 51.3036 155.095 51.4606 154.938C51.6175 154.781 51.8304 154.692 52.0523 154.692C52.2743 154.692 52.4872 154.781 52.6441 154.938C52.801 155.095 52.8892 155.307 52.8892 155.529Z" stroke="#4831D4" stroke-opacity="0.5"/>
<path d="M69.7944 155.529C69.7944 155.751 69.7062 155.964 69.5492 156.121C69.3923 156.278 69.1794 156.366 68.9575 156.366C68.7355 156.366 68.5227 156.278 68.3657 156.121C68.2088 155.964 68.1206 155.751 68.1206 155.529C68.1206 155.307 68.2088 155.095 68.3657 154.938C68.5227 154.781 68.7355 154.692 68.9575 154.692C69.1794 154.692 69.3923 154.781 69.5492 154.938C69.7062 155.095 69.7944 155.307 69.7944 155.529Z" stroke="#4831D4" stroke-opacity="0.5"/>
<path d="M86.699 155.548C86.7032 155.66 86.6847 155.772 86.6445 155.878C86.6044 155.983 86.5435 156.079 86.4656 156.16C86.3876 156.241 86.294 156.305 86.1905 156.349C86.0871 156.393 85.9757 156.416 85.8632 156.416C85.7508 156.416 85.6394 156.393 85.5359 156.35C85.4324 156.306 85.3388 156.241 85.2606 156.16C85.1825 156.079 85.1215 155.984 85.0813 155.879C85.041 155.774 85.0224 155.661 85.0264 155.549C85.0342 155.333 85.1256 155.127 85.2814 154.977C85.4373 154.827 85.6455 154.742 85.8622 154.742C86.0788 154.742 86.2871 154.826 86.4432 154.976C86.5992 155.126 86.6909 155.331 86.699 155.548Z" stroke="#4831D4" stroke-opacity="0.5"/>
<path d="M103.604 155.548C103.608 155.66 103.59 155.772 103.55 155.878C103.51 155.983 103.449 156.079 103.371 156.16C103.293 156.241 103.199 156.305 103.096 156.349C102.992 156.393 102.881 156.416 102.768 156.416C102.656 156.416 102.545 156.393 102.441 156.35C102.338 156.306 102.244 156.241 102.166 156.16C102.088 156.079 102.027 155.984 101.986 155.879C101.946 155.774 101.928 155.661 101.932 155.549C101.939 155.333 102.031 155.128 102.187 154.977C102.343 154.827 102.551 154.742 102.767 154.742C102.984 154.742 103.192 154.826 103.348 154.976C103.504 155.126 103.596 155.331 103.604 155.548Z" stroke="#4831D4" stroke-opacity="0.5"/>
<path d="M120.51 155.529C120.51 155.751 120.422 155.964 120.265 156.121C120.108 156.278 119.895 156.366 119.673 156.366C119.451 156.366 119.238 156.278 119.081 156.121C118.924 155.964 118.836 155.751 118.836 155.529C118.836 155.307 118.924 155.095 119.081 154.938C119.238 154.781 119.451 154.692 119.673 154.692C119.895 154.692 120.108 154.781 120.265 154.938C120.422 155.095 120.51 155.307 120.51 155.529Z" stroke="#4831D4" stroke-opacity="0.5"/>
<path d="M137.415 155.529C137.415 155.751 137.327 155.964 137.17 156.121C137.013 156.278 136.8 156.366 136.578 156.366C136.356 156.366 136.144 156.278 135.987 156.121C135.83 155.964 135.741 155.751 135.741 155.529C135.741 155.307 135.83 155.095 135.987 154.938C136.144 154.781 136.356 154.692 136.578 154.692C136.8 154.692 137.013 154.781 137.17 154.938C137.327 155.095 137.415 155.307 137.415 155.529Z" stroke="#4831D4" stroke-opacity="0.5"/>
<path d="M154.32 155.529C154.32 155.751 154.232 155.964 154.075 156.121C153.918 156.278 153.705 156.366 153.483 156.366C153.262 156.366 153.049 156.278 152.892 156.121C152.735 155.964 152.647 155.751 152.647 155.529C152.647 155.307 152.735 155.095 152.892 154.938C153.049 154.781 153.262 154.692 153.483 154.692C153.705 154.692 153.918 154.781 154.075 154.938C154.232 155.095 154.32 155.307 154.32 155.529Z" stroke="#4831D4" stroke-opacity="0.5"/>
<path d="M171.225 155.529C171.225 155.751 171.137 155.964 170.98 156.121C170.823 156.278 170.61 156.366 170.388 156.366C170.166 156.366 169.953 156.278 169.796 156.121C169.639 155.964 169.551 155.751 169.551 155.529C169.551 155.307 169.639 155.095 169.796 154.938C169.953 154.781 170.166 154.692 170.388 154.692C170.61 154.692 170.823 154.781 170.98 154.938C171.137 155.095 171.225 155.307 171.225 155.529Z" stroke="#4831D4" stroke-opacity="0.5"/>
<path d="M188.13 155.529C188.13 155.751 188.042 155.964 187.885 156.121C187.728 156.278 187.515 156.366 187.293 156.366C187.071 156.366 186.858 156.278 186.701 156.121C186.544 155.964 186.456 155.751 186.456 155.529C186.456 155.307 186.544 155.095 186.701 154.938C186.858 154.781 187.071 154.692 187.293 154.692C187.515 154.692 187.728 154.781 187.885 154.938C188.042 155.095 188.13 155.307 188.13 155.529Z" stroke="#4831D4" stroke-opacity="0.5"/>
<path d="M0.49997 172.662V172.662C0.49997 172.44 0.588139 172.227 0.745076 172.07C0.902012 171.913 1.11488 171.825 1.33684 171.825C1.5588 171.825 1.77167 171.913 1.92861 172.07C2.08554 172.227 2.17371 172.44 2.17371 172.662V172.7C2.16929 172.798 2.14801 172.893 2.11077 172.983C2.06866 173.085 2.00694 173.177 1.92916 173.255C1.85144 173.332 1.7591 173.394 1.65742 173.436C1.55583 173.478 1.44698 173.5 1.33701 173.5C1.22698 173.5 1.11808 173.478 1.01657 173.436C0.915054 173.394 0.822804 173.332 0.74503 173.254C0.667297 173.176 0.605629 173.084 0.563587 172.982C0.521546 172.881 0.499933 172.772 0.49997 172.662Z" stroke="#4831D4" stroke-opacity="0.5"/>
<path d="M17.4051 172.662V172.662C17.4051 172.44 17.4932 172.227 17.6502 172.07C17.8072 171.913 18.02 171.825 18.2419 171.825C18.4639 171.825 18.6768 171.913 18.8337 172.07C18.9906 172.227 19.0788 172.44 19.0788 172.662V172.663C19.0788 172.663 19.0788 172.663 19.0788 172.663C19.0787 172.885 18.9905 173.097 18.8335 173.254C18.6766 173.411 18.4636 173.499 18.2417 173.499C18.0197 173.499 17.8069 173.411 17.65 173.254C17.4931 173.097 17.405 172.884 17.4051 172.662Z" stroke="#4831D4" stroke-opacity="0.5"/>
<path d="M34.3094 172.662V172.662C34.3094 172.44 34.3976 172.227 34.5546 172.07C34.7116 171.913 34.9246 171.825 35.1467 171.825C35.3688 171.825 35.5818 171.913 35.7388 172.07C35.8958 172.227 35.984 172.44 35.984 172.662V172.663C35.984 172.663 35.984 172.663 35.984 172.663C35.9839 172.773 35.9622 172.882 35.9202 172.983C35.8781 173.085 35.8164 173.177 35.7386 173.255C35.6609 173.332 35.5685 173.394 35.4668 173.436C35.3652 173.478 35.2564 173.5 35.1464 173.5C35.0364 173.5 34.9275 173.478 34.826 173.436C34.7245 173.394 34.6322 173.332 34.5544 173.254C34.4767 173.176 34.415 173.084 34.373 172.982C34.331 172.881 34.3094 172.772 34.3094 172.662Z" stroke="#4831D4" stroke-opacity="0.5"/>
<path d="M51.2146 172.662V172.662C51.2146 172.44 51.3027 172.227 51.4597 172.07C51.6166 171.913 51.8295 171.825 52.0514 171.825C52.2734 171.825 52.4862 171.913 52.6432 172.07C52.8001 172.227 52.8883 172.44 52.8883 172.662V172.7C52.8839 172.797 52.8626 172.893 52.8253 172.983C52.7832 173.085 52.7215 173.177 52.6438 173.255C52.566 173.332 52.4737 173.394 52.372 173.436C52.2704 173.478 52.1616 173.5 52.0516 173.5C51.9416 173.5 51.8327 173.478 51.7312 173.436C51.6296 173.394 51.5373 173.332 51.4596 173.254C51.3819 173.176 51.3203 173.084 51.2782 172.982C51.2361 172.881 51.2145 172.772 51.2146 172.662Z" stroke="#4831D4" stroke-opacity="0.5"/>
<path d="M68.1198 172.662V172.662C68.1198 172.44 68.208 172.227 68.3649 172.07C68.5218 171.913 68.7347 171.825 68.9567 171.825C69.1786 171.825 69.3915 171.913 69.5484 172.07C69.7054 172.227 69.7935 172.44 69.7935 172.662V172.702C69.789 172.798 69.7677 172.893 69.7306 172.983C69.6885 173.085 69.6268 173.177 69.549 173.255C69.4712 173.332 69.3789 173.394 69.2773 173.436C69.1757 173.478 69.0668 173.5 68.9568 173.5C68.8468 173.5 68.738 173.478 68.6364 173.436C68.5349 173.394 68.4426 173.332 68.3648 173.254C68.2871 173.176 68.2254 173.084 68.1834 172.982C68.1414 172.881 68.1197 172.772 68.1198 172.662Z" stroke="#4831D4" stroke-opacity="0.5"/>
<path d="M86.6987 172.663C86.6987 172.885 86.6105 173.098 86.4536 173.254C86.2967 173.411 86.0838 173.5 85.8618 173.5C85.6399 173.5 85.427 173.411 85.2701 173.254C85.1131 173.098 85.025 172.885 85.025 172.663C85.025 172.441 85.1131 172.228 85.2701 172.071C85.427 171.914 85.6399 171.826 85.8618 171.826C86.0838 171.826 86.2967 171.914 86.4536 172.071C86.6105 172.228 86.6987 172.441 86.6987 172.663Z" stroke="#4831D4" stroke-opacity="0.5"/>
<path d="M103.604 172.663C103.604 172.885 103.516 173.098 103.359 173.254C103.202 173.411 102.989 173.5 102.767 173.5C102.545 173.5 102.332 173.411 102.175 173.254C102.018 173.098 101.93 172.885 101.93 172.663C101.93 172.441 102.018 172.228 102.175 172.071C102.332 171.914 102.545 171.826 102.767 171.826C102.989 171.826 103.202 171.914 103.359 172.071C103.516 172.228 103.604 172.441 103.604 172.663Z" stroke="#4831D4" stroke-opacity="0.5"/>
<path d="M118.835 172.662V172.662C118.835 172.44 118.924 172.227 119.081 172.07C119.238 171.913 119.451 171.825 119.673 171.825C119.895 171.825 120.108 171.913 120.265 172.07C120.422 172.227 120.51 172.44 120.51 172.662V172.663C120.51 172.663 120.51 172.663 120.51 172.663C120.51 172.885 120.422 173.098 120.265 173.255C120.107 173.412 119.895 173.5 119.672 173.5C119.45 173.499 119.237 173.411 119.08 173.254C118.923 173.097 118.835 172.884 118.835 172.662Z" stroke="#4831D4" stroke-opacity="0.5"/>
<path d="M135.741 172.662V172.662C135.741 172.44 135.829 172.227 135.986 172.07C136.143 171.913 136.355 171.825 136.577 171.825C136.799 171.825 137.012 171.913 137.169 172.07C137.326 172.227 137.414 172.44 137.414 172.662V172.7C137.405 172.909 137.318 173.107 137.17 173.255C137.013 173.412 136.8 173.5 136.578 173.5C136.355 173.499 136.143 173.411 135.986 173.254C135.829 173.097 135.74 172.884 135.741 172.662Z" stroke="#4831D4" stroke-opacity="0.5"/>
<path d="M152.645 172.662V172.662C152.645 172.44 152.733 172.227 152.89 172.07C153.047 171.913 153.26 171.825 153.482 171.825C153.704 171.825 153.917 171.913 154.074 172.07C154.231 172.227 154.319 172.44 154.319 172.662V172.7C154.31 172.909 154.223 173.107 154.075 173.255C153.918 173.412 153.704 173.5 153.482 173.5C153.26 173.5 153.047 173.412 152.89 173.254C152.733 173.097 152.645 172.884 152.645 172.662Z" stroke="#4831D4" stroke-opacity="0.5"/>
<path d="M169.551 172.662V172.662C169.551 172.44 169.639 172.227 169.796 172.07C169.953 171.913 170.166 171.825 170.388 171.825C170.61 171.825 170.823 171.913 170.98 172.07C171.137 172.227 171.225 172.44 171.225 172.662V172.663C171.225 172.663 171.225 172.663 171.225 172.663C171.225 172.773 171.203 172.881 171.161 172.983C171.119 173.084 171.057 173.177 170.979 173.254C170.902 173.332 170.809 173.393 170.708 173.436C170.606 173.478 170.497 173.499 170.388 173.499C170.278 173.499 170.169 173.477 170.067 173.435C169.966 173.393 169.874 173.332 169.796 173.254C169.718 173.176 169.657 173.084 169.615 172.982C169.573 172.881 169.551 172.772 169.551 172.662Z" stroke="#4831D4" stroke-opacity="0.5"/>
<path d="M186.455 172.662V172.662C186.455 172.44 186.543 172.227 186.7 172.07C186.857 171.913 187.07 171.825 187.293 171.825C187.515 171.825 187.728 171.913 187.885 172.07C188.042 172.227 188.13 172.44 188.13 172.662V172.663C188.13 172.663 188.13 172.663 188.13 172.663C188.13 172.885 188.041 173.098 187.884 173.255C187.727 173.412 187.514 173.5 187.292 173.5C187.07 173.499 186.857 173.411 186.7 173.254C186.543 173.097 186.455 172.884 186.455 172.662Z" stroke="#4831D4" stroke-opacity="0.5"/>
</svg>
