<svg width="212" height="196" viewBox="0 0 212 196" fill="none" xmlns="http://www.w3.org/2000/svg">
<path d="M2.50198 1.5C2.50198 1.76522 2.39662 2.01957 2.20908 2.20711C2.02155 2.39464 1.76719 2.5 1.50198 2.5C1.23676 2.5 0.982408 2.39464 0.794871 2.20711C0.607335 2.01957 0.501978 1.76522 0.501978 1.5C0.501978 1.23478 0.607335 0.98043 0.794871 0.792893C0.982408 0.605357 1.23676 0.5 1.50198 0.5C1.76719 0.5 2.02155 0.605357 2.20908 0.792893C2.39662 0.980429 2.50198 1.23478 2.50198 1.5Z" stroke="#CCF381"/>
<path d="M21.469 1.5C21.469 1.76522 21.3636 2.01957 21.1761 2.20711C20.9885 2.39464 20.7342 2.5 20.469 2.5C20.2038 2.5 19.9494 2.39464 19.7619 2.20711C19.5743 2.01957 19.469 1.76522 19.469 1.5C19.469 1.23478 19.5743 0.98043 19.7619 0.792893C19.9494 0.605357 20.2038 0.5 20.469 0.5C20.7342 0.5 20.9885 0.605357 21.1761 0.792893C21.3636 0.98043 21.469 1.23478 21.469 1.5Z" stroke="#CCF381"/>
<path d="M40.4371 1.51307C40.4406 1.64652 40.4174 1.77931 40.3687 1.90363C40.3201 2.02794 40.247 2.14126 40.1539 2.2369C40.0608 2.33253 39.9494 2.40855 39.8264 2.46048C39.7035 2.5124 39.5713 2.53917 39.4378 2.53921C39.3043 2.53926 39.1722 2.51257 39.0492 2.46073C38.9261 2.4089 38.8147 2.33295 38.7215 2.23737C38.6283 2.1418 38.5552 2.02853 38.5065 1.90425C38.4578 1.77997 38.4344 1.64719 38.4378 1.51373C38.4445 1.25307 38.5527 1.00531 38.7393 0.823272C38.926 0.64123 39.1764 0.539302 39.4372 0.539215C39.6979 0.539128 39.9484 0.64089 40.1352 0.822807C40.322 1.00472 40.4303 1.25241 40.4371 1.51307Z" stroke="#CCF381"/>
<path d="M59.4051 1.51307C59.4086 1.64652 59.3854 1.77931 59.3367 1.90363C59.2881 2.02794 59.215 2.14126 59.1219 2.2369C59.0288 2.33253 58.9174 2.40855 58.7944 2.46048C58.6715 2.5124 58.5393 2.53917 58.4058 2.53921C58.2723 2.53926 58.1402 2.51258 58.0172 2.46073C57.8941 2.4089 57.7827 2.33295 57.6895 2.23737C57.5963 2.1418 57.5232 2.02853 57.4745 1.90425C57.4258 1.77996 57.4024 1.64718 57.4058 1.51373C57.4125 1.25307 57.5207 1.00532 57.7073 0.823272C57.894 0.64123 58.1444 0.539302 58.4052 0.539215C58.6659 0.539128 58.9164 0.640889 59.1032 0.822807C59.29 1.00472 59.3983 1.25241 59.4051 1.51307Z" stroke="#CCF381"/>
<path d="M78.373 1.5C78.373 1.76522 78.2676 2.01957 78.0801 2.20711C77.8925 2.39464 77.6382 2.5 77.373 2.5C77.1078 2.5 76.8534 2.39464 76.6659 2.20711C76.4783 2.01957 76.373 1.76522 76.373 1.5C76.373 1.23478 76.4783 0.980429 76.6659 0.792893C76.8534 0.605357 77.1078 0.5 77.373 0.5C77.6382 0.5 77.8925 0.605357 78.0801 0.792893C78.2676 0.980429 78.373 1.23478 78.373 1.5Z" stroke="#CCF381"/>
<path d="M97.341 1.5C97.341 1.76521 97.2356 2.01957 97.0481 2.20711C96.8605 2.39464 96.6062 2.5 96.341 2.5C96.0758 2.5 95.8214 2.39464 95.6339 2.20711C95.4463 2.01957 95.341 1.76522 95.341 1.5C95.341 1.23478 95.4463 0.980429 95.6339 0.792893C95.8214 0.605357 96.0758 0.5 96.341 0.5C96.6062 0.5 96.8605 0.605355 97.0481 0.792893C97.2356 0.980434 97.341 1.23479 97.341 1.5Z" stroke="#CCF381"/>
<path d="M116.309 1.51307C116.313 1.64652 116.289 1.77931 116.241 1.90363C116.192 2.02794 116.119 2.14126 116.026 2.2369C115.933 2.33253 115.821 2.40855 115.698 2.46048C115.575 2.5124 115.443 2.53917 115.31 2.53921C115.176 2.53926 115.044 2.51257 114.921 2.46073C114.798 2.4089 114.687 2.33295 114.594 2.23737C114.5 2.14181 114.427 2.02854 114.378 1.90425C114.33 1.77996 114.306 1.64717 114.31 1.51373C114.316 1.25307 114.425 1.00532 114.611 0.823272C114.798 0.64123 115.048 0.539302 115.309 0.539215C115.57 0.539128 115.82 0.640889 116.007 0.822807C116.194 1.00472 116.302 1.25241 116.309 1.51307Z" stroke="#CCF381"/>
<path d="M135.276 1.51843C135.281 1.65274 135.259 1.78666 135.211 1.9122C135.163 2.03772 135.09 2.15231 134.997 2.24911C134.904 2.3459 134.792 2.42288 134.668 2.47548C134.545 2.52809 134.412 2.55522 134.277 2.55527C134.143 2.55531 134.01 2.52827 133.886 2.47575C133.763 2.42323 133.651 2.34631 133.557 2.24959C133.464 2.15286 133.391 2.03832 133.343 1.91282C133.295 1.78732 133.273 1.65341 133.278 1.51909C133.287 1.26036 133.396 1.01535 133.583 0.835601C133.769 0.655846 134.018 0.555354 134.277 0.555267C134.536 0.555181 134.784 0.655506 134.971 0.835138C135.157 1.01477 135.267 1.25971 135.276 1.51843Z" stroke="#CCF381"/>
<path d="M154.245 1.50015C154.245 1.63149 154.219 1.76153 154.169 1.88286C154.119 2.00421 154.045 2.11447 153.952 2.20736C153.859 2.30025 153.749 2.37395 153.628 2.42424C153.507 2.47453 153.377 2.50044 153.245 2.50049C153.114 2.50053 152.984 2.47471 152.863 2.4245C152.741 2.37428 152.631 2.30066 152.538 2.20783C152.445 2.11501 152.372 2.00479 152.321 1.88348C152.271 1.76216 152.245 1.63213 152.245 1.50082C152.245 1.23561 152.35 0.981222 152.538 0.793617C152.725 0.606019 152.979 0.500577 153.245 0.500488C153.51 0.5004 153.764 0.605672 153.952 0.793146C154.139 0.980613 154.245 1.23493 154.245 1.50015Z" stroke="#CCF381"/>
<path d="M173.212 1.5C173.212 1.76521 173.107 2.01957 172.919 2.20711C172.732 2.39464 172.477 2.5 172.212 2.5C171.947 2.5 171.692 2.39464 171.505 2.20711C171.317 2.01958 171.212 1.76522 171.212 1.5C171.212 1.23478 171.317 0.980424 171.505 0.792893C171.692 0.605359 171.947 0.5 172.212 0.5C172.477 0.5 172.732 0.605355 172.919 0.792893C173.107 0.980434 173.212 1.23479 173.212 1.5Z" stroke="#CCF381"/>
<path d="M192.18 1.51843C192.185 1.65274 192.163 1.78666 192.115 1.9122C192.067 2.03774 191.994 2.15233 191.901 2.24911C191.808 2.34588 191.696 2.42288 191.572 2.47548C191.449 2.52809 191.316 2.55522 191.181 2.55527C191.047 2.55531 190.914 2.52827 190.79 2.47575C190.666 2.42322 190.555 2.3463 190.461 2.24959C190.368 2.15287 190.295 2.03834 190.247 1.91282C190.199 1.78732 190.177 1.65341 190.182 1.51909C190.191 1.26036 190.3 1.01535 190.487 0.835601C190.673 0.655842 190.922 0.555354 191.181 0.555267C191.44 0.555181 191.688 0.655506 191.875 0.835138C192.061 1.01477 192.171 1.25971 192.18 1.51843Z" stroke="#CCF381"/>
<path d="M211.148 1.51307C211.152 1.64652 211.128 1.77931 211.08 1.90363C211.031 2.02795 210.958 2.14127 210.865 2.2369C210.772 2.33253 210.66 2.40855 210.537 2.46048C210.414 2.5124 210.282 2.53917 210.149 2.53921C210.015 2.53926 209.883 2.51257 209.76 2.46073C209.637 2.4089 209.526 2.33295 209.433 2.23737C209.339 2.14179 209.266 2.02852 209.217 1.90425C209.169 1.77998 209.145 1.6472 209.149 1.51373C209.155 1.25307 209.264 1.00531 209.45 0.823272C209.637 0.64123 209.887 0.539302 210.148 0.539215C210.409 0.539128 210.659 0.64089 210.846 0.822807C211.033 1.00472 211.141 1.2524 211.148 1.51307Z" stroke="#CCF381"/>
<path d="M2.50198 20.723C2.50198 20.9885 2.39651 21.2431 2.20879 21.4308C2.02107 21.6186 1.76646 21.724 1.50098 21.724C1.2355 21.724 0.980887 21.6186 0.793163 21.4308C0.60544 21.2431 0.499977 20.9885 0.499977 20.723C0.499977 20.4575 0.605439 20.2029 0.793163 20.0152C0.980887 19.8275 1.2355 19.722 1.50098 19.722C1.76646 19.722 2.02107 19.8275 2.20879 20.0152C2.39651 20.2029 2.50198 20.4575 2.50198 20.723Z" stroke="#CCF381"/>
<path d="M21.469 20.723C21.469 20.9882 21.3636 21.2426 21.1761 21.4301C20.9885 21.6177 20.7342 21.723 20.469 21.723C20.2038 21.723 19.9494 21.6177 19.7619 21.4301C19.5743 21.2426 19.469 20.9882 19.469 20.723C19.469 20.4578 19.5743 20.2035 19.7619 20.0159C19.9494 19.8284 20.2038 19.723 20.469 19.723C20.7342 19.723 20.9885 19.8284 21.1761 20.0159C21.3636 20.2035 21.469 20.4578 21.469 20.723Z" stroke="#CCF381"/>
<path d="M40.437 20.723C40.437 20.9882 40.3316 21.2426 40.1441 21.4301C39.9565 21.6177 39.7022 21.723 39.437 21.723C39.1718 21.723 38.9174 21.6177 38.7299 21.4301C38.5423 21.2426 38.437 20.9882 38.437 20.723C38.437 20.4578 38.5423 20.2035 38.7299 20.0159C38.9174 19.8284 39.1718 19.723 39.437 19.723C39.7022 19.723 39.9565 19.8284 40.1441 20.0159C40.3316 20.2035 40.437 20.4578 40.437 20.723Z" stroke="#CCF381"/>
<path d="M59.405 20.723C59.405 20.9882 59.2996 21.2426 59.1121 21.4301C58.9245 21.6177 58.6702 21.723 58.405 21.723C58.1398 21.723 57.8854 21.6177 57.6979 21.4301C57.5103 21.2426 57.405 20.9882 57.405 20.723C57.405 20.4578 57.5103 20.2035 57.6979 20.0159C57.8854 19.8284 58.1398 19.723 58.405 19.723C58.6702 19.723 58.9245 19.8284 59.1121 20.0159C59.2996 20.2035 59.405 20.4578 59.405 20.723Z" stroke="#CCF381"/>
<path d="M78.373 20.723C78.373 20.9884 78.2676 21.2428 78.0799 21.4305C77.8923 21.6181 77.6378 21.7235 77.3725 21.7235C77.1071 21.7235 76.8526 21.6181 76.665 21.4305C76.4774 21.2428 76.372 20.9884 76.372 20.723C76.372 20.4577 76.4774 20.2032 76.665 20.0155C76.8526 19.8279 77.1071 19.7225 77.3725 19.7225C77.6378 19.7225 77.8923 19.8279 78.0799 20.0155C78.2676 20.2032 78.373 20.4577 78.373 20.723Z" stroke="#CCF381"/>
<path d="M97.34 20.723V20.7679C97.3348 20.8839 97.3094 20.9983 97.2648 21.1059C97.2145 21.2272 97.1408 21.3375 97.0479 21.4305C96.955 21.5234 96.8447 21.5971 96.7234 21.6473C96.602 21.6976 96.4719 21.7235 96.3405 21.7235C96.2091 21.7235 96.079 21.6976 95.9576 21.6473C95.8362 21.5971 95.7259 21.5234 95.633 21.4305C95.5401 21.3375 95.4664 21.2272 95.4161 21.1059C95.3659 20.9845 95.34 20.8544 95.34 20.723C95.34 20.4578 95.4453 20.2034 95.6329 20.0159C95.8204 19.8283 96.0748 19.723 96.34 19.723C96.6052 19.723 96.8595 19.8283 97.0471 20.0159C97.2346 20.2034 97.34 20.4578 97.34 20.723Z" stroke="#CCF381"/>
<path d="M116.309 20.723C116.309 20.9882 116.204 21.2426 116.016 21.4301C115.829 21.6177 115.574 21.723 115.309 21.723C115.044 21.723 114.789 21.6177 114.602 21.4301C114.414 21.2426 114.309 20.9882 114.309 20.723C114.309 20.4578 114.414 20.2035 114.602 20.0159C114.789 19.8284 115.044 19.723 115.309 19.723C115.574 19.723 115.829 19.8284 116.016 20.0159C116.204 20.2035 116.309 20.4578 116.309 20.723Z" stroke="#CCF381"/>
<path d="M135.276 20.723C135.276 20.9882 135.171 21.2426 134.983 21.4301C134.796 21.6177 134.541 21.723 134.276 21.723C134.011 21.723 133.756 21.6177 133.569 21.4301C133.381 21.2426 133.276 20.9882 133.276 20.723C133.276 20.4578 133.381 20.2035 133.569 20.0159C133.756 19.8284 134.011 19.723 134.276 19.723C134.541 19.723 134.796 19.8284 134.983 20.0159C135.171 20.2035 135.276 20.4578 135.276 20.723Z" stroke="#CCF381"/>
<path d="M154.245 20.723C154.245 20.9882 154.14 21.2426 153.952 21.4301C153.765 21.6177 153.51 21.723 153.245 21.723C152.98 21.723 152.725 21.6177 152.538 21.4301C152.35 21.2426 152.245 20.9882 152.245 20.723C152.245 20.4578 152.35 20.2035 152.538 20.0159C152.725 19.8284 152.98 19.723 153.245 19.723C153.51 19.723 153.765 19.8284 153.952 20.0159C154.14 20.2034 154.245 20.4578 154.245 20.723Z" stroke="#CCF381"/>
<path d="M173.212 20.723C173.212 20.9882 173.107 21.2426 172.919 21.4301C172.732 21.6177 172.477 21.723 172.212 21.723C171.947 21.723 171.692 21.6177 171.505 21.4301C171.317 21.2426 171.212 20.9882 171.212 20.723C171.212 20.4578 171.317 20.2034 171.505 20.0159C171.692 19.8284 171.947 19.723 172.212 19.723C172.477 19.723 172.732 19.8284 172.919 20.0159C173.107 20.2035 173.212 20.4578 173.212 20.723Z" stroke="#CCF381"/>
<path d="M192.18 20.723C192.18 20.9882 192.075 21.2426 191.887 21.4301C191.7 21.6177 191.445 21.723 191.18 21.723C190.915 21.723 190.66 21.6177 190.473 21.4301C190.285 21.2426 190.18 20.9882 190.18 20.723C190.18 20.4578 190.285 20.2035 190.473 20.0159C190.66 19.8284 190.915 19.723 191.18 19.723C191.445 19.723 191.7 19.8284 191.887 20.0159C192.075 20.2034 192.18 20.4578 192.18 20.723Z" stroke="#CCF381"/>
<path d="M211.148 20.723C211.148 20.9882 211.043 21.2426 210.855 21.4301C210.668 21.6177 210.413 21.723 210.148 21.723C209.883 21.723 209.628 21.6177 209.441 21.4301C209.253 21.2426 209.148 20.9882 209.148 20.723C209.148 20.4578 209.253 20.2035 209.441 20.0159C209.628 19.8284 209.883 19.723 210.148 19.723C210.413 19.723 210.668 19.8284 210.855 20.0159C211.043 20.2034 211.148 20.4578 211.148 20.723Z" stroke="#CCF381"/>
<path d="M2.50198 39.946C2.50198 40.2112 2.39662 40.4656 2.20908 40.6531C2.02155 40.8407 1.7672 40.946 1.50198 40.946C1.23676 40.946 0.982407 40.8407 0.794871 40.6531C0.607335 40.4656 0.501978 40.2112 0.501978 39.946C0.501978 39.6808 0.607335 39.4264 0.794871 39.2389C0.982407 39.0514 1.23676 38.946 1.50198 38.946C1.7672 38.946 2.02155 39.0514 2.20908 39.2389C2.39662 39.4264 2.50198 39.6808 2.50198 39.946Z" stroke="#CCF381"/>
<path d="M21.469 39.946C21.469 40.2112 21.3636 40.4656 21.1761 40.6531C20.9885 40.8407 20.7342 40.946 20.469 40.946C20.2038 40.946 19.9494 40.8407 19.7619 40.6531C19.5743 40.4656 19.469 40.2112 19.469 39.946C19.469 39.6808 19.5743 39.4264 19.7619 39.2389C19.9494 39.0514 20.2038 38.946 20.469 38.946C20.7342 38.946 20.9885 39.0514 21.1761 39.2389C21.3636 39.4264 21.469 39.6808 21.469 39.946Z" stroke="#CCF381"/>
<path d="M40.4371 39.9591C40.4406 40.0925 40.4174 40.2253 40.3687 40.3496C40.3201 40.474 40.247 40.5873 40.1539 40.6829C40.0608 40.7785 39.9494 40.8546 39.8264 40.9065C39.7034 40.9584 39.5713 40.9852 39.4378 40.9852C39.3043 40.9853 39.1722 40.9586 39.0492 40.9067C38.9261 40.8549 38.8147 40.779 38.7215 40.6834C38.6283 40.5878 38.5552 40.4745 38.5065 40.3503C38.4578 40.226 38.4344 40.0932 38.4378 39.9597C38.4445 39.6991 38.5527 39.4513 38.7393 39.2693C38.926 39.0872 39.1764 38.9853 39.4372 38.9852C39.6979 38.9851 39.9484 39.0869 40.1352 39.2688C40.322 39.4507 40.4303 39.6984 40.4371 39.9591Z" stroke="#CCF381"/>
<path d="M59.4051 39.9591C59.4086 40.0925 59.3854 40.2253 59.3367 40.3496C59.2881 40.474 59.215 40.5873 59.1219 40.6829C59.0288 40.7785 58.9174 40.8546 58.7944 40.9065C58.6715 40.9584 58.5393 40.9852 58.4058 40.9852C58.2723 40.9853 58.1402 40.9586 58.0172 40.9067C57.8941 40.8549 57.7827 40.779 57.6895 40.6834C57.5963 40.5878 57.5232 40.4745 57.4745 40.3503C57.4258 40.226 57.4024 40.0932 57.4058 39.9597C57.4125 39.6991 57.5207 39.4513 57.7073 39.2693C57.894 39.0872 58.1444 38.9853 58.4052 38.9852C58.6659 38.9851 58.9164 39.0869 59.1032 39.2688C59.29 39.4507 59.3983 39.6984 59.4051 39.9591Z" stroke="#CCF381"/>
<path d="M78.373 39.946C78.373 40.2112 78.2676 40.4656 78.0801 40.6531C77.8926 40.8407 77.6382 40.946 77.373 40.946C77.1078 40.946 76.8534 40.8407 76.6659 40.6531C76.4783 40.4656 76.373 40.2112 76.373 39.946C76.373 39.6808 76.4783 39.4264 76.6659 39.2389C76.8534 39.0514 77.1078 38.946 77.373 38.946C77.6382 38.946 77.8926 39.0514 78.0801 39.2389C78.2676 39.4264 78.373 39.6808 78.373 39.946Z" stroke="#CCF381"/>
<path d="M97.341 39.946C97.341 40.2112 97.2356 40.4656 97.0481 40.6531C96.8605 40.8407 96.6062 40.946 96.341 40.946C96.0758 40.946 95.8214 40.8407 95.6339 40.6531C95.4463 40.4656 95.341 40.2112 95.341 39.946C95.341 39.6808 95.4463 39.4264 95.6339 39.2389C95.8214 39.0514 96.0758 38.946 96.341 38.946C96.6062 38.946 96.8605 39.0514 97.0481 39.2389C97.2356 39.4264 97.341 39.6808 97.341 39.946Z" stroke="#CCF381"/>
<path d="M116.309 39.9591C116.313 40.0925 116.289 40.2253 116.241 40.3496C116.192 40.474 116.119 40.5873 116.026 40.6829C115.933 40.7785 115.821 40.8546 115.698 40.9065C115.575 40.9584 115.443 40.9852 115.31 40.9852C115.176 40.9853 115.044 40.9586 114.921 40.9067C114.798 40.8549 114.687 40.779 114.594 40.6834C114.5 40.5878 114.427 40.4746 114.378 40.3503C114.33 40.226 114.306 40.0932 114.31 39.9597C114.316 39.6991 114.425 39.4513 114.611 39.2693C114.798 39.0872 115.048 38.9853 115.309 38.9852C115.57 38.9851 115.82 39.0869 116.007 39.2688C116.194 39.4507 116.302 39.6984 116.309 39.9591Z" stroke="#CCF381"/>
<path d="M135.276 39.9644C135.281 40.0987 135.259 40.2327 135.211 40.3582C135.163 40.4837 135.09 40.5983 134.997 40.6951C134.904 40.7919 134.792 40.8689 134.668 40.9215C134.545 40.9741 134.412 41.0012 134.277 41.0013C134.143 41.0013 134.01 40.9743 133.886 40.9217C133.763 40.8692 133.651 40.7923 133.557 40.6956C133.464 40.5988 133.391 40.4843 133.343 40.3588C133.295 40.2333 133.273 40.0994 133.278 39.9651C133.287 39.7063 133.396 39.4613 133.583 39.2816C133.769 39.1018 134.018 39.0013 134.277 39.0013C134.536 39.0012 134.784 39.1015 134.971 39.2811C135.157 39.4608 135.267 39.7057 135.276 39.9644Z" stroke="#CCF381"/>
<path d="M154.245 39.9462C154.245 40.0775 154.219 40.2075 154.169 40.3289C154.119 40.4502 154.045 40.5605 153.952 40.6534C153.859 40.7463 153.749 40.82 153.628 40.8703C153.507 40.9205 153.377 40.9465 153.245 40.9465C153.114 40.9465 152.984 40.9207 152.863 40.8705C152.741 40.8203 152.631 40.7467 152.538 40.6538C152.445 40.561 152.372 40.4508 152.321 40.3295C152.271 40.2082 152.245 40.0781 152.245 39.9468C152.245 39.6816 152.35 39.4272 152.538 39.2396C152.725 39.052 152.979 38.9466 153.245 38.9465C153.51 38.9464 153.764 39.0517 153.952 39.2392C154.139 39.4266 154.245 39.6809 154.245 39.9462Z" stroke="#CCF381"/>
<path d="M173.212 39.946C173.212 40.2112 173.107 40.4656 172.919 40.6531C172.732 40.8407 172.477 40.946 172.212 40.946C171.947 40.946 171.692 40.8407 171.505 40.6531C171.317 40.4656 171.212 40.2112 171.212 39.946C171.212 39.6808 171.317 39.4264 171.505 39.2389C171.692 39.0514 171.947 38.946 172.212 38.946C172.477 38.946 172.732 39.0514 172.919 39.2389C173.107 39.4264 173.212 39.6808 173.212 39.946Z" stroke="#CCF381"/>
<path d="M192.18 39.9644C192.185 40.0987 192.163 40.2327 192.115 40.3582C192.067 40.4837 191.994 40.5983 191.901 40.6951C191.808 40.7919 191.696 40.8689 191.572 40.9215C191.449 40.9741 191.316 41.0012 191.181 41.0013C191.047 41.0013 190.914 40.9743 190.79 40.9217C190.666 40.8692 190.555 40.7923 190.461 40.6956C190.368 40.5989 190.295 40.4843 190.247 40.3588C190.199 40.2333 190.177 40.0994 190.182 39.9651C190.191 39.7063 190.3 39.4613 190.487 39.2816C190.673 39.1018 190.922 39.0013 191.181 39.0013C191.44 39.0012 191.688 39.1015 191.875 39.2811C192.061 39.4608 192.171 39.7057 192.18 39.9644Z" stroke="#CCF381"/>
<path d="M211.148 39.9591C211.152 40.0925 211.128 40.2253 211.08 40.3496C211.031 40.474 210.958 40.5873 210.865 40.6829C210.772 40.7785 210.66 40.8546 210.537 40.9065C210.414 40.9584 210.282 40.9852 210.149 40.9852C210.015 40.9853 209.883 40.9586 209.76 40.9067C209.637 40.8549 209.526 40.779 209.433 40.6834C209.339 40.5878 209.266 40.4745 209.217 40.3503C209.169 40.226 209.145 40.0932 209.149 39.9597C209.155 39.6991 209.264 39.4513 209.45 39.2693C209.637 39.0872 209.887 38.9853 210.148 38.9852C210.409 38.9851 210.659 39.0869 210.846 39.2688C211.033 39.4507 211.141 39.6984 211.148 39.9591Z" stroke="#CCF381"/>
<path d="M0.499977 59.1692V59.169C0.499977 58.9035 0.605439 58.6489 0.793163 58.4612C0.980887 58.2735 1.2355 58.168 1.50098 58.168C1.76646 58.168 2.02107 58.2735 2.20879 58.4612C2.39651 58.6489 2.50198 58.9035 2.50198 59.169V59.1698C2.50198 59.1699 2.50198 59.1699 2.50198 59.17C2.50184 59.4354 2.3963 59.6899 2.20856 59.8775C2.02077 60.0652 1.76613 60.1706 1.50064 60.1705C1.23516 60.1704 0.980589 60.0649 0.792928 59.8771C0.605266 59.6893 0.499889 59.4346 0.499977 59.1692Z" stroke="#CCF381"/>
<path d="M19.469 59.1692V59.169C19.469 58.9038 19.5743 58.6494 19.7619 58.4619C19.9494 58.2744 20.2038 58.169 20.469 58.169C20.7342 58.169 20.9885 58.2744 21.1761 58.4619C21.3636 58.6494 21.469 58.9038 21.469 59.169V59.1698C21.469 59.1699 21.469 59.17 21.469 59.17C21.4689 59.3013 21.443 59.4312 21.3927 59.5525C21.3424 59.6738 21.2687 59.784 21.1758 59.8768C21.083 59.9697 20.9727 60.0433 20.8514 60.0935C20.73 60.1437 20.6 60.1695 20.4686 60.1695C20.3373 60.1695 20.2073 60.1436 20.086 60.0933C19.9647 60.043 19.8545 59.9693 19.7616 59.8764C19.6688 59.7835 19.5952 59.6732 19.545 59.5519C19.4948 59.4305 19.4689 59.3005 19.469 59.1692Z" stroke="#CCF381"/>
<path d="M40.437 59.17C40.437 59.4352 40.3316 59.6896 40.1441 59.8771C39.9565 60.0646 39.7022 60.17 39.437 60.17C39.1718 60.17 38.9174 60.0646 38.7299 59.8771C38.5423 59.6896 38.437 59.4352 38.437 59.17C38.437 58.9048 38.5423 58.6504 38.7299 58.4629C38.9174 58.2754 39.1718 58.17 39.437 58.17C39.7022 58.17 39.9565 58.2754 40.1441 58.4629C40.3316 58.6504 40.437 58.9048 40.437 59.17Z" stroke="#CCF381"/>
<path d="M59.405 59.17C59.405 59.4352 59.2996 59.6896 59.1121 59.8771C58.9245 60.0646 58.6702 60.17 58.405 60.17C58.1398 60.17 57.8854 60.0646 57.6979 59.8771C57.5103 59.6896 57.405 59.4352 57.405 59.17C57.405 58.9048 57.5103 58.6504 57.6979 58.4629C57.8854 58.2754 58.1398 58.17 58.405 58.17C58.6702 58.17 58.9245 58.2754 59.1121 58.4629C59.2996 58.6504 59.405 58.9048 59.405 59.17Z" stroke="#CCF381"/>
<path d="M76.372 59.1692V59.169C76.372 58.9037 76.4774 58.6492 76.665 58.4615C76.8526 58.2739 77.1071 58.1685 77.3725 58.1685C77.6378 58.1685 77.8923 58.2739 78.0799 58.4615C78.2676 58.6492 78.373 58.9037 78.373 59.169V59.1698C78.373 59.1699 78.373 59.1699 78.373 59.17C78.3729 59.3013 78.347 59.4314 78.2967 59.5527C78.2464 59.6741 78.1726 59.7843 78.0797 59.8772C77.9868 59.9701 77.8764 60.0437 77.755 60.094C77.6336 60.1442 77.5035 60.17 77.3721 60.17C77.2408 60.17 77.1107 60.144 76.9893 60.0937C76.8679 60.0434 76.7577 59.9697 76.6648 59.8767C76.5719 59.7838 76.4983 59.6735 76.448 59.5521C76.3978 59.4307 76.3719 59.3006 76.372 59.1692Z" stroke="#CCF381"/>
<path d="M95.34 59.1692V59.169C95.34 58.9038 95.4453 58.6494 95.6329 58.4619C95.8204 58.2744 96.0748 58.169 96.34 58.169C96.6052 58.169 96.8595 58.2744 97.0471 58.4619C97.2346 58.6494 97.34 58.9038 97.34 59.169V59.2144C97.3288 59.4635 97.2249 59.7002 97.0477 59.8772C96.86 60.0648 96.6055 60.1701 96.3401 60.17C96.0748 60.1699 95.8203 60.0644 95.6328 59.8767C95.4452 59.689 95.3399 59.4345 95.34 59.1692Z" stroke="#CCF381"/>
<path d="M116.309 59.17C116.309 59.4352 116.204 59.6896 116.016 59.8771C115.829 60.0646 115.574 60.17 115.309 60.17C115.044 60.17 114.789 60.0646 114.602 59.8771C114.414 59.6896 114.309 59.4352 114.309 59.17C114.309 58.9048 114.414 58.6504 114.602 58.4629C114.789 58.2754 115.044 58.17 115.309 58.17C115.574 58.17 115.829 58.2754 116.016 58.4629C116.204 58.6504 116.309 58.9048 116.309 59.17Z" stroke="#CCF381"/>
<path d="M135.276 59.17C135.276 59.4352 135.171 59.6896 134.983 59.8771C134.796 60.0646 134.541 60.17 134.276 60.17C134.011 60.17 133.756 60.0646 133.569 59.8771C133.381 59.6896 133.276 59.4352 133.276 59.17C133.276 58.9048 133.381 58.6504 133.569 58.4629C133.756 58.2754 134.011 58.17 134.276 58.17C134.541 58.17 134.796 58.2754 134.983 58.4629C135.171 58.6504 135.276 58.9048 135.276 59.17Z" stroke="#CCF381"/>
<path d="M154.245 59.17C154.245 59.4352 154.14 59.6896 153.952 59.8771C153.765 60.0646 153.51 60.17 153.245 60.17C152.98 60.17 152.725 60.0646 152.538 59.8771C152.35 59.6896 152.245 59.4352 152.245 59.17C152.245 58.9048 152.35 58.6504 152.538 58.4629C152.725 58.2754 152.98 58.17 153.245 58.17C153.51 58.17 153.765 58.2754 153.952 58.4629C154.14 58.6504 154.245 58.9048 154.245 59.17Z" stroke="#CCF381"/>
<path d="M171.212 59.1692V59.169C171.212 58.9038 171.317 58.6494 171.505 58.4619C171.692 58.2744 171.947 58.169 172.212 58.169C172.477 58.169 172.732 58.2744 172.919 58.4619C173.107 58.6494 173.212 58.9038 173.212 59.169V59.1698C173.212 59.1699 173.212 59.17 173.212 59.17C173.212 59.4352 173.106 59.6894 172.919 59.8768C172.731 60.0643 172.477 60.1696 172.212 60.1695C171.946 60.1694 171.692 60.064 171.505 59.8764C171.317 59.6888 171.212 59.4344 171.212 59.1692Z" stroke="#CCF381"/>
<path d="M192.18 59.17C192.18 59.4352 192.075 59.6896 191.887 59.8771C191.7 60.0646 191.445 60.17 191.18 60.17C190.915 60.17 190.66 60.0646 190.473 59.8771C190.285 59.6896 190.18 59.4352 190.18 59.17C190.18 58.9048 190.285 58.6504 190.473 58.4629C190.66 58.2754 190.915 58.17 191.18 58.17C191.445 58.17 191.7 58.2754 191.887 58.4629C192.075 58.6504 192.18 58.9048 192.18 59.17Z" stroke="#CCF381"/>
<path d="M211.148 59.17C211.148 59.4352 211.043 59.6896 210.855 59.8771C210.668 60.0646 210.413 60.17 210.148 60.17C209.883 60.17 209.628 60.0646 209.441 59.8771C209.253 59.6896 209.148 59.4352 209.148 59.17C209.148 58.9048 209.253 58.6504 209.441 58.4629C209.628 58.2754 209.883 58.17 210.148 58.17C210.413 58.17 210.668 58.2754 210.855 58.4629C211.043 58.6504 211.148 58.9048 211.148 59.17Z" stroke="#CCF381"/>
<path d="M2.50198 78.392C2.50198 78.6575 2.39651 78.9121 2.20879 79.0998C2.02107 79.2875 1.76646 79.393 1.50098 79.393C1.23549 79.393 0.980885 79.2875 0.793163 79.0998C0.60544 78.9121 0.499977 78.6575 0.499977 78.392C0.499977 78.1265 0.605438 77.8719 0.793163 77.6842C0.980889 77.4965 1.2355 77.391 1.50098 77.391C1.76646 77.391 2.02106 77.4965 2.20879 77.6842C2.39652 77.8719 2.50198 78.1265 2.50198 78.392Z" stroke="#CCF381"/>
<path d="M21.469 78.392C21.469 78.6572 21.3636 78.9116 21.1761 79.0991C20.9885 79.2866 20.7342 79.392 20.469 79.392C20.2038 79.392 19.9494 79.2866 19.7619 79.0991C19.5743 78.9116 19.469 78.6572 19.469 78.392C19.469 78.1268 19.5743 77.8724 19.7619 77.6849C19.9494 77.4974 20.2038 77.392 20.469 77.392C20.7342 77.392 20.9885 77.4974 21.1761 77.6849C21.3636 77.8724 21.469 78.1268 21.469 78.392Z" stroke="#CCF381"/>
<path d="M40.437 78.392C40.437 78.6572 40.3316 78.9116 40.1441 79.0991C39.9565 79.2866 39.7022 79.392 39.437 79.392C39.1718 79.392 38.9174 79.2866 38.7299 79.0991C38.5423 78.9116 38.437 78.6572 38.437 78.392C38.437 78.1268 38.5423 77.8724 38.7299 77.6849C38.9174 77.4974 39.1718 77.392 39.437 77.392C39.7022 77.392 39.9565 77.4974 40.1441 77.6849C40.3316 77.8724 40.437 78.1268 40.437 78.392Z" stroke="#CCF381"/>
<path d="M59.405 78.392C59.405 78.6572 59.2996 78.9116 59.1121 79.0991C58.9245 79.2866 58.6702 79.392 58.405 79.392C58.1398 79.392 57.8854 79.2866 57.6979 79.0991C57.5103 78.9116 57.405 78.6572 57.405 78.392C57.405 78.1268 57.5103 77.8724 57.6979 77.6849C57.8854 77.4974 58.1398 77.392 58.405 77.392C58.6702 77.392 58.9245 77.4974 59.1121 77.6849C59.2996 77.8724 59.405 78.1268 59.405 78.392Z" stroke="#CCF381"/>
<path d="M78.373 78.392C78.373 78.6574 78.2676 78.9118 78.0799 79.0995C77.8923 79.2871 77.6378 79.3925 77.3725 79.3925C77.1071 79.3925 76.8526 79.2871 76.665 79.0995C76.4774 78.9118 76.372 78.6574 76.372 78.392C76.372 78.1267 76.4774 77.8722 76.665 77.6846C76.8526 77.4969 77.1071 77.3915 77.3725 77.3915C77.6378 77.3915 77.8923 77.4969 78.0799 77.6846C78.2676 77.8722 78.373 78.1267 78.373 78.392Z" stroke="#CCF381"/>
<path d="M97.34 78.392V78.4369C97.3348 78.5529 97.3094 78.6673 97.2648 78.7749C97.2145 78.8963 97.1408 79.0065 97.0479 79.0995C96.955 79.1924 96.8447 79.2661 96.7234 79.3163C96.602 79.3666 96.4719 79.3925 96.3405 79.3925C96.2091 79.3925 96.079 79.3666 95.9576 79.3163C95.8362 79.2661 95.7259 79.1924 95.633 79.0995C95.5401 79.0065 95.4664 78.8963 95.4161 78.7749C95.3659 78.6535 95.34 78.5234 95.34 78.392C95.34 78.1268 95.4453 77.8724 95.6329 77.6849C95.8204 77.4974 96.0748 77.392 96.34 77.392C96.6052 77.392 96.8595 77.4974 97.0471 77.6849C97.2346 77.8724 97.34 78.1268 97.34 78.392Z" stroke="#CCF381"/>
<path d="M116.309 78.392C116.309 78.6572 116.204 78.9116 116.016 79.0991C115.829 79.2866 115.574 79.392 115.309 79.392C115.044 79.392 114.789 79.2866 114.602 79.0991C114.414 78.9116 114.309 78.6572 114.309 78.392C114.309 78.1268 114.414 77.8724 114.602 77.6849C114.789 77.4974 115.044 77.392 115.309 77.392C115.574 77.392 115.829 77.4974 116.016 77.6849C116.204 77.8724 116.309 78.1268 116.309 78.392Z" stroke="#CCF381"/>
<path d="M135.276 78.392C135.276 78.6572 135.171 78.9116 134.983 79.0991C134.796 79.2866 134.541 79.392 134.276 79.392C134.011 79.392 133.756 79.2866 133.569 79.0991C133.381 78.9116 133.276 78.6572 133.276 78.392C133.276 78.1268 133.381 77.8724 133.569 77.6849C133.756 77.4974 134.011 77.392 134.276 77.392C134.541 77.392 134.796 77.4974 134.983 77.6849C135.171 77.8724 135.276 78.1268 135.276 78.392Z" stroke="#CCF381"/>
<path d="M154.245 78.392C154.245 78.6572 154.14 78.9116 153.952 79.0991C153.765 79.2866 153.51 79.392 153.245 79.392C152.98 79.392 152.725 79.2866 152.538 79.0991C152.35 78.9116 152.245 78.6572 152.245 78.392C152.245 78.1268 152.35 77.8724 152.538 77.6849C152.725 77.4974 152.98 77.392 153.245 77.392C153.51 77.392 153.765 77.4974 153.952 77.6849C154.14 77.8724 154.245 78.1268 154.245 78.392Z" stroke="#CCF381"/>
<path d="M173.212 78.392C173.212 78.6572 173.107 78.9116 172.919 79.0991C172.732 79.2866 172.477 79.392 172.212 79.392C171.947 79.392 171.692 79.2866 171.505 79.0991C171.317 78.9116 171.212 78.6572 171.212 78.392C171.212 78.1268 171.317 77.8724 171.505 77.6849C171.692 77.4974 171.947 77.392 172.212 77.392C172.477 77.392 172.732 77.4974 172.919 77.6849C173.107 77.8724 173.212 78.1268 173.212 78.392Z" stroke="#CCF381"/>
<path d="M192.18 78.392C192.18 78.6572 192.075 78.9116 191.887 79.0991C191.7 79.2866 191.445 79.392 191.18 79.392C190.915 79.392 190.66 79.2866 190.473 79.0991C190.285 78.9116 190.18 78.6572 190.18 78.392C190.18 78.1268 190.285 77.8724 190.473 77.6849C190.66 77.4974 190.915 77.392 191.18 77.392C191.445 77.392 191.7 77.4974 191.887 77.6849C192.075 77.8724 192.18 78.1268 192.18 78.392Z" stroke="#CCF381"/>
<path d="M211.148 78.392C211.148 78.6572 211.043 78.9116 210.855 79.0991C210.668 79.2866 210.413 79.392 210.148 79.392C209.883 79.392 209.628 79.2866 209.441 79.0991C209.253 78.9116 209.148 78.6572 209.148 78.392C209.148 78.1268 209.253 77.8724 209.441 77.6849C209.628 77.4974 209.883 77.392 210.148 77.392C210.413 77.392 210.668 77.4974 210.855 77.6849C211.043 77.8724 211.148 78.1268 211.148 78.392Z" stroke="#CCF381"/>
<path d="M2.50198 97.6158C2.50189 97.8813 2.39634 98.1359 2.20856 98.3235C2.02077 98.5112 1.76612 98.6166 1.50064 98.6165C1.23516 98.6164 0.980589 98.5109 0.792928 98.3231C0.605267 98.1353 0.499889 97.8806 0.499977 97.6152C0.500066 97.3497 0.605612 97.0951 0.793399 96.9075C0.981185 96.7198 1.23583 96.6144 1.50131 96.6145C1.7668 96.6146 2.02137 96.7201 2.20903 96.9079C2.39669 97.0957 2.50207 97.3503 2.50198 97.6158Z" stroke="#CCF381"/>
<path d="M21.469 97.6158C21.4689 97.7472 21.443 97.8772 21.3927 97.9985C21.3424 98.1198 21.2687 98.23 21.1758 98.3228C21.083 98.4157 20.9727 98.4893 20.8514 98.5395C20.73 98.5897 20.6 98.6156 20.4686 98.6155C20.3373 98.6155 20.2073 98.5896 20.086 98.5393C19.9647 98.489 19.8545 98.4153 19.7616 98.3224C19.6688 98.2295 19.5952 98.1192 19.545 97.9979C19.4948 97.8765 19.4689 97.7465 19.469 97.6152C19.4691 97.35 19.5745 97.0956 19.7621 96.9082C19.9497 96.7207 20.2041 96.6154 20.4693 96.6155C20.7345 96.6156 20.9889 96.721 21.1763 96.9086C21.3638 97.0962 21.4691 97.3506 21.469 97.6158Z" stroke="#CCF381"/>
<path d="M40.437 97.616C40.437 97.8812 40.3316 98.1356 40.1441 98.3231C39.9565 98.5106 39.7022 98.616 39.437 98.616C39.1718 98.616 38.9174 98.5106 38.7299 98.3231C38.5423 98.1356 38.437 97.8812 38.437 97.616C38.437 97.3508 38.5423 97.0964 38.7299 96.9089C38.9174 96.7214 39.1718 96.616 39.437 96.616C39.7022 96.616 39.9565 96.7214 40.1441 96.9089C40.3316 97.0964 40.437 97.3508 40.437 97.616Z" stroke="#CCF381"/>
<path d="M59.405 97.616C59.405 97.8812 59.2996 98.1356 59.1121 98.3231C58.9245 98.5106 58.6702 98.616 58.405 98.616C58.1398 98.616 57.8854 98.5106 57.6979 98.3231C57.5103 98.1356 57.405 97.8812 57.405 97.616C57.405 97.3508 57.5103 97.0964 57.6979 96.9089C57.8854 96.7214 58.1398 96.616 58.405 96.616C58.6702 96.616 58.9245 96.7214 59.1121 96.9089C59.2996 97.0964 59.405 97.3508 59.405 97.616Z" stroke="#CCF381"/>
<path d="M78.373 97.6158C78.3729 97.7472 78.347 97.8773 78.2967 97.9987C78.2464 98.1201 78.1726 98.2303 78.0797 98.3232C77.9868 98.4161 77.8764 98.4897 77.755 98.54C77.6336 98.5902 77.5035 98.616 77.3721 98.616C77.2408 98.616 77.1107 98.59 76.9893 98.5397C76.8679 98.4894 76.7577 98.4157 76.6648 98.3227C76.5719 98.2298 76.4982 98.1195 76.448 97.9981C76.3978 97.8767 76.3719 97.7466 76.372 97.6152C76.3721 97.3498 76.4776 97.0954 76.6652 96.9078C76.8529 96.7202 77.1075 96.6149 77.3728 96.615C77.6382 96.6151 77.8926 96.7206 78.0802 96.9083C78.2677 97.096 78.3731 97.3505 78.373 97.6158Z" stroke="#CCF381"/>
<path d="M97.34 97.6607C97.3287 97.9097 97.2248 98.1462 97.0477 98.3232C96.86 98.5108 96.6055 98.6161 96.3401 98.616C96.0748 98.6159 95.8203 98.5104 95.6328 98.3227C95.4452 98.135 95.3399 97.8805 95.34 97.6152C95.3401 97.35 95.4455 97.0956 95.6331 96.9082C95.8207 96.7207 96.0751 96.6154 96.3403 96.6155C96.6055 96.6156 96.8599 96.721 97.0473 96.9086C97.2348 97.0962 97.3401 97.3506 97.34 97.6158L97.34 97.6607Z" stroke="#CCF381"/>
<path d="M116.309 97.616C116.309 97.8812 116.204 98.1356 116.016 98.3231C115.829 98.5106 115.574 98.616 115.309 98.616C115.044 98.616 114.789 98.5106 114.602 98.3231C114.414 98.1356 114.309 97.8812 114.309 97.616C114.309 97.3508 114.414 97.0964 114.602 96.9089C114.789 96.7214 115.044 96.616 115.309 96.616C115.574 96.616 115.829 96.7214 116.016 96.9089C116.204 97.0964 116.309 97.3508 116.309 97.616Z" stroke="#CCF381"/>
<path d="M135.276 97.616C135.276 97.8812 135.171 98.1356 134.983 98.3231C134.796 98.5106 134.541 98.616 134.276 98.616C134.011 98.616 133.756 98.5106 133.569 98.3231C133.381 98.1356 133.276 97.8812 133.276 97.616C133.276 97.3508 133.381 97.0964 133.569 96.9089C133.756 96.7214 134.011 96.616 134.276 96.616C134.541 96.616 134.796 96.7214 134.983 96.9089C135.171 97.0964 135.276 97.3508 135.276 97.616Z" stroke="#CCF381"/>
<path d="M154.245 97.616C154.245 97.8812 154.14 98.1356 153.952 98.3231C153.765 98.5106 153.51 98.616 153.245 98.616C152.98 98.616 152.725 98.5106 152.538 98.3231C152.35 98.1356 152.245 97.8812 152.245 97.616C152.245 97.3508 152.35 97.0964 152.538 96.9089C152.725 96.7214 152.98 96.616 153.245 96.616C153.51 96.616 153.765 96.7214 153.952 96.9089C154.14 97.0964 154.245 97.3508 154.245 97.616Z" stroke="#CCF381"/>
<path d="M173.212 97.6158C173.212 97.7471 173.186 97.8772 173.136 97.9985C173.085 98.1198 173.012 98.23 172.919 98.3228C172.826 98.4157 172.716 98.4893 172.594 98.5395C172.473 98.5897 172.343 98.6156 172.212 98.6155C172.08 98.6155 171.95 98.5896 171.829 98.5393C171.708 98.489 171.597 98.4153 171.505 98.3224C171.412 98.2295 171.338 98.1192 171.288 97.9979C171.238 97.8766 171.212 97.7465 171.212 97.6152C171.212 97.3499 171.318 97.0956 171.505 96.9082C171.693 96.7207 171.947 96.6154 172.212 96.6155C172.478 96.6156 172.732 96.721 172.919 96.9086C173.107 97.0962 173.212 97.3506 173.212 97.6158Z" stroke="#CCF381"/>
<path d="M192.18 97.616C192.18 97.8812 192.075 98.1356 191.887 98.3231C191.7 98.5106 191.445 98.616 191.18 98.616C190.915 98.616 190.66 98.5106 190.473 98.3231C190.285 98.1356 190.18 97.8812 190.18 97.616C190.18 97.3508 190.285 97.0964 190.473 96.9089C190.66 96.7214 190.915 96.616 191.18 96.616C191.445 96.616 191.7 96.7214 191.887 96.9089C192.075 97.0964 192.18 97.3508 192.18 97.616Z" stroke="#CCF381"/>
<path d="M211.148 97.616C211.148 97.8812 211.043 98.1356 210.855 98.3231C210.668 98.5106 210.413 98.616 210.148 98.616C209.883 98.616 209.628 98.5106 209.441 98.3231C209.253 98.1356 209.148 97.8812 209.148 97.616C209.148 97.3508 209.253 97.0964 209.441 96.9089C209.628 96.7214 209.883 96.616 210.148 96.616C210.413 96.616 210.668 96.7214 210.855 96.9089C211.043 97.0964 211.148 97.3508 211.148 97.616Z" stroke="#CCF381"/>
<path d="M0.499977 116.838V116.838C0.499977 116.573 0.605438 116.318 0.793163 116.13C0.980889 115.942 1.2355 115.837 1.50098 115.837C1.76646 115.837 2.02106 115.942 2.20879 116.13C2.39652 116.318 2.50198 116.573 2.50198 116.838V116.839C2.50198 116.839 2.50198 116.839 2.50198 116.839C2.50184 117.104 2.3963 117.359 2.20856 117.547C2.02077 117.734 1.76613 117.84 1.50064 117.84C1.23516 117.839 0.980589 117.734 0.792928 117.546C0.605267 117.358 0.499889 117.104 0.499977 116.838Z" stroke="#CCF381"/>
<path d="M19.469 116.838V116.838C19.469 116.573 19.5743 116.318 19.7619 116.131C19.9494 115.943 20.2038 115.838 20.469 115.838C20.7342 115.838 20.9885 115.943 21.1761 116.131C21.3636 116.318 21.469 116.573 21.469 116.838V116.839C21.469 116.839 21.469 116.839 21.469 116.839C21.4689 116.97 21.443 117.1 21.3927 117.221C21.3424 117.343 21.2687 117.453 21.1758 117.546C21.083 117.639 20.9727 117.712 20.8514 117.763C20.73 117.813 20.6 117.839 20.4686 117.839C20.3373 117.838 20.2073 117.813 20.086 117.762C19.9647 117.712 19.8545 117.638 19.7616 117.545C19.6688 117.452 19.5952 117.342 19.545 117.221C19.4948 117.1 19.4689 116.969 19.469 116.838Z" stroke="#CCF381"/>
<path d="M40.437 116.839C40.437 117.104 40.3316 117.359 40.1441 117.546C39.9565 117.734 39.7022 117.839 39.437 117.839C39.1718 117.839 38.9174 117.734 38.7299 117.546C38.5423 117.359 38.437 117.104 38.437 116.839C38.437 116.574 38.5423 116.319 38.7299 116.132C38.9174 115.944 39.1718 115.839 39.437 115.839C39.7022 115.839 39.9565 115.944 40.1441 116.132C40.3316 116.319 40.437 116.574 40.437 116.839Z" stroke="#CCF381"/>
<path d="M59.405 116.839C59.405 117.104 59.2996 117.359 59.1121 117.546C58.9245 117.734 58.6702 117.839 58.405 117.839C58.1398 117.839 57.8854 117.734 57.6979 117.546C57.5103 117.359 57.405 117.104 57.405 116.839C57.405 116.574 57.5103 116.319 57.6979 116.132C57.8854 115.944 58.1398 115.839 58.405 115.839C58.6702 115.839 58.9245 115.944 59.1121 116.132C59.2996 116.319 59.405 116.574 59.405 116.839Z" stroke="#CCF381"/>
<path d="M76.372 116.838V116.838C76.372 116.573 76.4774 116.318 76.665 116.131C76.8526 115.943 77.1071 115.837 77.3725 115.837C77.6378 115.837 77.8923 115.943 78.0799 116.131C78.2676 116.318 78.373 116.573 78.373 116.838V116.839C78.373 116.839 78.373 116.839 78.373 116.839C78.3729 116.97 78.347 117.1 78.2967 117.222C78.2464 117.343 78.1726 117.453 78.0797 117.546C77.9868 117.639 77.8764 117.713 77.755 117.763C77.6336 117.813 77.5035 117.839 77.3721 117.839C77.2408 117.839 77.1107 117.813 76.9893 117.763C76.8679 117.712 76.7577 117.639 76.6648 117.546C76.5719 117.453 76.4983 117.342 76.448 117.221C76.3978 117.1 76.3719 116.97 76.372 116.838Z" stroke="#CCF381"/>
<path d="M95.34 116.838V116.838C95.34 116.573 95.4453 116.318 95.6329 116.131C95.8204 115.943 96.0748 115.838 96.34 115.838C96.6052 115.838 96.8595 115.943 97.0471 116.131C97.2346 116.318 97.34 116.573 97.34 116.838V116.883C97.3348 117 97.3093 117.114 97.2647 117.222C97.2144 117.343 97.1406 117.453 97.0477 117.546C96.9548 117.639 96.8444 117.713 96.723 117.763C96.6016 117.813 96.4715 117.839 96.3401 117.839C96.2088 117.839 96.0787 117.813 95.9573 117.763C95.8359 117.712 95.7256 117.639 95.6328 117.546C95.5399 117.453 95.4662 117.342 95.416 117.221C95.3658 117.1 95.3399 116.97 95.34 116.838Z" stroke="#CCF381"/>
<path d="M116.309 116.839C116.309 117.104 116.204 117.359 116.016 117.546C115.829 117.734 115.574 117.839 115.309 117.839C115.044 117.839 114.789 117.734 114.602 117.546C114.414 117.359 114.309 117.104 114.309 116.839C114.309 116.574 114.414 116.319 114.602 116.132C114.789 115.944 115.044 115.839 115.309 115.839C115.574 115.839 115.829 115.944 116.016 116.132C116.204 116.319 116.309 116.574 116.309 116.839Z" stroke="#CCF381"/>
<path d="M135.276 116.839C135.276 117.104 135.171 117.359 134.983 117.546C134.796 117.734 134.541 117.839 134.276 117.839C134.011 117.839 133.756 117.734 133.569 117.546C133.381 117.359 133.276 117.104 133.276 116.839C133.276 116.574 133.381 116.319 133.569 116.132C133.756 115.944 134.011 115.839 134.276 115.839C134.541 115.839 134.796 115.944 134.983 116.132C135.171 116.319 135.276 116.574 135.276 116.839Z" stroke="#CCF381"/>
<path d="M154.245 116.839C154.245 117.104 154.14 117.359 153.952 117.546C153.765 117.734 153.51 117.839 153.245 117.839C152.98 117.839 152.725 117.734 152.538 117.546C152.35 117.359 152.245 117.104 152.245 116.839C152.245 116.574 152.35 116.319 152.538 116.132C152.725 115.944 152.98 115.839 153.245 115.839C153.51 115.839 153.765 115.944 153.952 116.132C154.14 116.319 154.245 116.574 154.245 116.839Z" stroke="#CCF381"/>
<path d="M171.212 116.838V116.838C171.212 116.573 171.317 116.318 171.505 116.131C171.692 115.943 171.947 115.838 172.212 115.838C172.477 115.838 172.732 115.943 172.919 116.131C173.107 116.318 173.212 116.573 173.212 116.838V116.839C173.212 116.839 173.212 116.839 173.212 116.839C173.212 117.104 173.106 117.358 172.919 117.546C172.731 117.733 172.477 117.839 172.212 117.839C171.946 117.838 171.692 117.733 171.505 117.545C171.317 117.358 171.212 117.103 171.212 116.838Z" stroke="#CCF381"/>
<path d="M192.18 116.839C192.18 117.104 192.075 117.359 191.887 117.546C191.7 117.734 191.445 117.839 191.18 117.839C190.915 117.839 190.66 117.734 190.473 117.546C190.285 117.359 190.18 117.104 190.18 116.839C190.18 116.574 190.285 116.319 190.473 116.132C190.66 115.944 190.915 115.839 191.18 115.839C191.445 115.839 191.7 115.944 191.887 116.132C192.075 116.319 192.18 116.574 192.18 116.839Z" stroke="#CCF381"/>
<path d="M211.148 116.839C211.148 117.104 211.043 117.359 210.855 117.546C210.668 117.734 210.413 117.839 210.148 117.839C209.883 117.839 209.628 117.734 209.441 117.546C209.253 117.359 209.148 117.104 209.148 116.839C209.148 116.574 209.253 116.319 209.441 116.132C209.628 115.944 209.883 115.839 210.148 115.839C210.413 115.839 210.668 115.944 210.855 116.132C211.043 116.319 211.148 116.574 211.148 116.839Z" stroke="#CCF381"/>
<path d="M2.50198 136.061C2.50198 136.326 2.39662 136.581 2.20908 136.768C2.02154 136.956 1.76719 137.061 1.50198 137.061C1.23677 137.061 0.982411 136.956 0.794871 136.768C0.607333 136.581 0.501978 136.326 0.501978 136.061C0.501978 135.796 0.607337 135.541 0.794871 135.354C0.982402 135.166 1.23675 135.061 1.50198 135.061C1.7672 135.061 2.02155 135.166 2.20908 135.354C2.39662 135.541 2.50198 135.796 2.50198 136.061Z" stroke="#CCF381"/>
<path d="M21.469 136.061C21.469 136.326 21.3636 136.581 21.1761 136.768C20.9885 136.956 20.7342 137.061 20.469 137.061C20.2038 137.061 19.9494 136.956 19.7619 136.768C19.5743 136.581 19.469 136.326 19.469 136.061C19.469 135.796 19.5743 135.541 19.7619 135.354C19.9494 135.166 20.2038 135.061 20.469 135.061C20.7342 135.061 20.9886 135.166 21.1761 135.354C21.3636 135.541 21.469 135.796 21.469 136.061Z" stroke="#CCF381"/>
<path d="M40.4372 136.074C40.4407 136.208 40.4175 136.34 40.3689 136.465C40.3202 136.589 40.2472 136.703 40.1541 136.798C40.061 136.894 39.9497 136.97 39.8268 137.022C39.7038 137.074 39.5717 137.101 39.4382 137.101C39.3047 137.101 39.1725 137.074 39.0495 137.022C38.9264 136.971 38.815 136.895 38.7218 136.799C38.6286 136.704 38.5554 136.59 38.5066 136.466C38.4579 136.342 38.4345 136.209 38.4378 136.076C38.4444 135.815 38.5525 135.567 38.7391 135.385C38.9257 135.203 39.1761 135.101 39.4368 135.101C39.6976 135.101 39.9481 135.202 40.1349 135.384C40.3218 135.566 40.4303 135.814 40.4372 136.074Z" stroke="#CCF381"/>
<path d="M59.4052 136.074C59.4087 136.208 59.3855 136.34 59.3369 136.465C59.2883 136.589 59.2152 136.702 59.1221 136.798C59.029 136.894 58.9177 136.97 58.7948 137.022C58.6718 137.074 58.5397 137.101 58.4062 137.101C58.2727 137.101 58.1405 137.074 58.0175 137.022C57.8944 136.971 57.783 136.895 57.6898 136.799C57.5966 136.704 57.5234 136.59 57.4746 136.466C57.4259 136.342 57.4025 136.209 57.4058 136.076C57.4124 135.815 57.5205 135.567 57.7071 135.385C57.8937 135.203 58.1441 135.101 58.4048 135.101C58.6656 135.101 58.9161 135.202 59.1029 135.384C59.2898 135.566 59.3982 135.814 59.4052 136.074Z" stroke="#CCF381"/>
<path d="M78.373 136.061C78.373 136.326 78.2676 136.581 78.0801 136.768C77.8925 136.956 77.6382 137.061 77.373 137.061C77.1078 137.061 76.8534 136.956 76.6659 136.768C76.4783 136.581 76.373 136.326 76.373 136.061C76.373 135.796 76.4783 135.541 76.6659 135.354C76.8534 135.166 77.1078 135.061 77.373 135.061C77.6382 135.061 77.8926 135.166 78.0801 135.354C78.2676 135.541 78.373 135.796 78.373 136.061Z" stroke="#CCF381"/>
<path d="M97.341 136.061C97.341 136.326 97.2356 136.581 97.0481 136.768C96.8605 136.956 96.6062 137.061 96.341 137.061C96.0758 137.061 95.8214 136.956 95.6339 136.768C95.4463 136.581 95.341 136.326 95.341 136.061C95.341 135.796 95.4463 135.541 95.6339 135.354C95.8214 135.166 96.0758 135.061 96.341 135.061C96.6062 135.061 96.8605 135.166 97.0481 135.354C97.2356 135.541 97.341 135.796 97.341 136.061Z" stroke="#CCF381"/>
<path d="M116.309 136.074C116.313 136.208 116.289 136.34 116.241 136.465C116.192 136.589 116.119 136.703 116.026 136.798C115.933 136.894 115.822 136.97 115.699 137.022C115.576 137.074 115.444 137.101 115.31 137.101C115.177 137.101 115.045 137.074 114.921 137.022C114.798 136.971 114.687 136.895 114.594 136.799C114.501 136.704 114.427 136.59 114.379 136.466C114.33 136.342 114.306 136.209 114.31 136.076C114.316 135.815 114.424 135.567 114.611 135.385C114.798 135.203 115.048 135.101 115.309 135.101C115.57 135.101 115.82 135.202 116.007 135.384C116.194 135.566 116.302 135.814 116.309 136.074Z" stroke="#CCF381"/>
<path d="M135.276 136.08C135.281 136.214 135.259 136.348 135.211 136.473C135.163 136.599 135.091 136.714 134.997 136.81C134.904 136.907 134.792 136.984 134.669 137.037C134.545 137.089 134.412 137.117 134.278 137.117C134.143 137.117 134.01 137.09 133.887 137.037C133.763 136.985 133.651 136.908 133.558 136.811C133.464 136.715 133.391 136.6 133.343 136.475C133.295 136.349 133.273 136.215 133.278 136.081C133.287 135.822 133.396 135.577 133.582 135.397C133.769 135.218 134.017 135.117 134.276 135.117C134.535 135.117 134.784 135.217 134.971 135.396C135.157 135.576 135.267 135.821 135.276 136.08Z" stroke="#CCF381"/>
<path d="M154.245 136.061C154.245 136.193 154.219 136.323 154.169 136.444C154.119 136.565 154.045 136.676 153.953 136.769C153.86 136.862 153.75 136.935 153.628 136.986C153.507 137.036 153.377 137.062 153.246 137.062C153.114 137.062 152.984 137.036 152.863 136.986C152.742 136.936 152.631 136.862 152.538 136.77C152.445 136.677 152.372 136.567 152.321 136.445C152.271 136.324 152.245 136.194 152.245 136.063C152.245 135.797 152.35 135.543 152.537 135.355C152.725 135.168 152.979 135.062 153.244 135.062C153.51 135.062 153.764 135.167 153.952 135.354C154.139 135.542 154.245 135.796 154.245 136.061Z" stroke="#CCF381"/>
<path d="M173.212 136.061C173.212 136.326 173.107 136.581 172.919 136.768C172.732 136.956 172.477 137.061 172.212 137.061C171.947 137.061 171.692 136.956 171.505 136.768C171.317 136.581 171.212 136.326 171.212 136.061C171.212 135.796 171.317 135.541 171.505 135.354C171.692 135.166 171.947 135.061 172.212 135.061C172.477 135.061 172.732 135.166 172.919 135.354C173.107 135.541 173.212 135.796 173.212 136.061Z" stroke="#CCF381"/>
<path d="M192.18 136.08C192.185 136.214 192.163 136.348 192.115 136.473C192.067 136.599 191.995 136.714 191.901 136.81C191.808 136.907 191.696 136.984 191.573 137.037C191.449 137.089 191.316 137.117 191.182 137.117C191.047 137.117 190.914 137.09 190.791 137.037C190.667 136.985 190.555 136.908 190.462 136.811C190.368 136.715 190.295 136.6 190.247 136.475C190.199 136.349 190.177 136.215 190.182 136.081C190.191 135.822 190.3 135.577 190.486 135.397C190.673 135.218 190.921 135.117 191.18 135.117C191.439 135.117 191.688 135.217 191.875 135.396C192.061 135.576 192.171 135.821 192.18 136.08Z" stroke="#CCF381"/>
<path d="M211.148 136.074C211.152 136.208 211.128 136.34 211.08 136.465C211.031 136.589 210.958 136.702 210.865 136.798C210.772 136.894 210.661 136.97 210.538 137.022C210.415 137.074 210.283 137.101 210.149 137.101C210.016 137.101 209.884 137.074 209.76 137.022C209.637 136.971 209.526 136.895 209.433 136.799C209.34 136.704 209.266 136.59 209.218 136.466C209.169 136.342 209.145 136.209 209.149 136.076C209.155 135.815 209.263 135.567 209.45 135.385C209.637 135.203 209.887 135.101 210.148 135.101C210.409 135.101 210.659 135.202 210.846 135.384C211.033 135.566 211.141 135.814 211.148 136.074Z" stroke="#CCF381"/>
<path d="M0.499977 155.284V155.284C0.499977 155.019 0.60544 154.764 0.793163 154.576C0.98088 154.388 1.23549 154.283 1.50098 154.283C1.76647 154.283 2.02107 154.388 2.20879 154.576C2.39651 154.764 2.50198 155.019 2.50198 155.284V155.285C2.50198 155.285 2.50198 155.285 2.50198 155.285C2.50191 155.416 2.47598 155.547 2.42565 155.668C2.37531 155.789 2.30154 155.9 2.20856 155.993C2.11558 156.085 2.0052 156.159 1.88374 156.209C1.76228 156.26 1.63211 156.286 1.50064 156.285C1.36918 156.285 1.23902 156.26 1.1176 156.209C0.996184 156.159 0.885856 156.085 0.792928 155.992C0.700002 155.899 0.626308 155.789 0.576046 155.667C0.525782 155.546 0.499933 155.416 0.499977 155.284Z" stroke="#CCF381"/>
<path d="M19.469 155.284V155.284C19.469 155.019 19.5743 154.764 19.7619 154.577C19.9494 154.389 20.2038 154.284 20.469 154.284C20.7342 154.284 20.9885 154.389 21.1761 154.577C21.3636 154.764 21.469 155.019 21.469 155.284V155.285C21.469 155.285 21.469 155.285 21.469 155.285C21.4689 155.416 21.443 155.546 21.3927 155.667C21.3424 155.789 21.2687 155.899 21.1758 155.992C21.083 156.085 20.9727 156.158 20.8514 156.208C20.73 156.259 20.6 156.285 20.4686 156.285C20.3373 156.284 20.2073 156.259 20.086 156.208C19.9647 156.158 19.8545 156.084 19.7616 155.991C19.6688 155.898 19.5952 155.788 19.545 155.667C19.4948 155.546 19.4689 155.415 19.469 155.284Z" stroke="#CCF381"/>
<path d="M40.437 155.285C40.437 155.55 40.3316 155.805 40.1441 155.992C39.9565 156.18 39.7022 156.285 39.437 156.285C39.1718 156.285 38.9174 156.18 38.7299 155.992C38.5423 155.805 38.437 155.55 38.437 155.285C38.437 155.02 38.5423 154.765 38.7299 154.578C38.9174 154.39 39.1718 154.285 39.437 154.285C39.7022 154.285 39.9566 154.39 40.1441 154.578C40.3316 154.765 40.437 155.02 40.437 155.285Z" stroke="#CCF381"/>
<path d="M59.405 155.285C59.405 155.55 59.2996 155.805 59.1121 155.992C58.9245 156.18 58.6702 156.285 58.405 156.285C58.1398 156.285 57.8854 156.18 57.6979 155.992C57.5103 155.805 57.405 155.55 57.405 155.285C57.405 155.02 57.5103 154.765 57.6979 154.578C57.8854 154.39 58.1398 154.285 58.405 154.285C58.6702 154.285 58.9246 154.39 59.1121 154.578C59.2996 154.765 59.405 155.02 59.405 155.285Z" stroke="#CCF381"/>
<path d="M76.372 155.284V155.284C76.372 155.019 76.4774 154.764 76.665 154.577C76.8527 154.389 77.1071 154.283 77.3725 154.283C77.6378 154.283 77.8923 154.389 78.0799 154.577C78.2676 154.764 78.373 155.019 78.373 155.284V155.285C78.373 155.285 78.373 155.285 78.373 155.285C78.3729 155.416 78.347 155.546 78.2967 155.668C78.2464 155.789 78.1726 155.899 78.0797 155.992C77.9868 156.085 77.8764 156.159 77.755 156.209C77.6336 156.259 77.5035 156.285 77.3721 156.285C77.2408 156.285 77.1107 156.259 76.9893 156.209C76.8679 156.158 76.7577 156.085 76.6648 155.992C76.5719 155.899 76.4983 155.788 76.448 155.667C76.3978 155.546 76.3719 155.416 76.372 155.284Z" stroke="#CCF381"/>
<path d="M95.34 155.284V155.284C95.34 155.019 95.4453 154.764 95.6329 154.577C95.8204 154.389 96.0748 154.284 96.34 154.284C96.6052 154.284 96.8595 154.389 97.0471 154.577C97.2346 154.764 97.34 155.019 97.34 155.284V155.329C97.3348 155.446 97.3093 155.56 97.2647 155.668C97.2144 155.789 97.1406 155.899 97.0477 155.992C96.9548 156.085 96.8444 156.159 96.723 156.209C96.6016 156.259 96.4715 156.285 96.3401 156.285C96.2088 156.285 96.0787 156.259 95.9573 156.209C95.8359 156.158 95.7257 156.085 95.6328 155.992C95.5399 155.899 95.4662 155.788 95.416 155.667C95.3658 155.546 95.3399 155.416 95.34 155.284Z" stroke="#CCF381"/>
<path d="M116.309 155.285C116.309 155.55 116.204 155.805 116.016 155.992C115.829 156.18 115.574 156.285 115.309 156.285C115.044 156.285 114.789 156.18 114.602 155.992C114.414 155.805 114.309 155.55 114.309 155.285C114.309 155.02 114.414 154.765 114.602 154.578C114.789 154.39 115.044 154.285 115.309 154.285C115.574 154.285 115.829 154.39 116.016 154.578C116.204 154.765 116.309 155.02 116.309 155.285Z" stroke="#CCF381"/>
<path d="M135.276 155.285C135.276 155.55 135.171 155.805 134.983 155.992C134.796 156.18 134.541 156.285 134.276 156.285C134.011 156.285 133.756 156.18 133.569 155.992C133.381 155.805 133.276 155.55 133.276 155.285C133.276 155.02 133.381 154.765 133.569 154.578C133.756 154.39 134.011 154.285 134.276 154.285C134.541 154.285 134.796 154.39 134.983 154.578C135.171 154.765 135.276 155.02 135.276 155.285Z" stroke="#CCF381"/>
<path d="M154.245 155.285C154.245 155.55 154.14 155.805 153.952 155.992C153.765 156.18 153.51 156.285 153.245 156.285C152.98 156.285 152.725 156.18 152.538 155.992C152.35 155.805 152.245 155.55 152.245 155.285C152.245 155.02 152.35 154.765 152.538 154.578C152.725 154.39 152.98 154.285 153.245 154.285C153.51 154.285 153.765 154.39 153.952 154.578C154.14 154.765 154.245 155.02 154.245 155.285Z" stroke="#CCF381"/>
<path d="M171.212 155.284V155.284C171.212 155.019 171.317 154.764 171.505 154.577C171.692 154.389 171.947 154.284 172.212 154.284C172.477 154.284 172.732 154.389 172.919 154.577C173.107 154.764 173.212 155.019 173.212 155.284V155.285C173.212 155.285 173.212 155.285 173.212 155.285C173.212 155.55 173.106 155.804 172.919 155.992C172.731 156.179 172.477 156.285 172.212 156.285C171.946 156.284 171.692 156.179 171.505 155.991C171.317 155.804 171.212 155.549 171.212 155.284Z" stroke="#CCF381"/>
<path d="M192.18 155.285C192.18 155.55 192.075 155.805 191.887 155.992C191.7 156.18 191.445 156.285 191.18 156.285C190.915 156.285 190.66 156.18 190.473 155.992C190.285 155.805 190.18 155.55 190.18 155.285C190.18 155.02 190.285 154.765 190.473 154.578C190.66 154.39 190.915 154.285 191.18 154.285C191.445 154.285 191.7 154.39 191.887 154.578C192.075 154.765 192.18 155.02 192.18 155.285Z" stroke="#CCF381"/>
<path d="M211.148 155.285C211.148 155.55 211.043 155.805 210.855 155.992C210.668 156.18 210.413 156.285 210.148 156.285C209.883 156.285 209.628 156.18 209.441 155.992C209.253 155.805 209.148 155.55 209.148 155.285C209.148 155.02 209.253 154.765 209.441 154.578C209.628 154.39 209.883 154.285 210.148 154.285C210.413 154.285 210.668 154.39 210.855 154.578C211.043 154.765 211.148 155.02 211.148 155.285Z" stroke="#CCF381"/>
<path d="M2.50198 174.508C2.50198 174.773 2.39662 175.028 2.20908 175.215C2.02155 175.403 1.7672 175.508 1.50198 175.508C1.23675 175.508 0.982402 175.403 0.794871 175.215C0.607337 175.028 0.501978 174.773 0.501978 174.508C0.501978 174.243 0.607333 173.988 0.794871 173.801C0.982411 173.613 1.23677 173.508 1.50198 173.508C1.76719 173.508 2.02154 173.613 2.20908 173.801C2.39662 173.988 2.50198 174.243 2.50198 174.508Z" stroke="#CCF381"/>
<path d="M21.469 174.508C21.469 174.773 21.3636 175.028 21.1761 175.215C20.9886 175.403 20.7342 175.508 20.469 175.508C20.2038 175.508 19.9494 175.403 19.7619 175.215C19.5743 175.028 19.469 174.773 19.469 174.508C19.469 174.243 19.5743 173.988 19.7619 173.801C19.9494 173.613 20.2038 173.508 20.469 173.508C20.7342 173.508 20.9885 173.613 21.1761 173.801C21.3636 173.988 21.469 174.243 21.469 174.508Z" stroke="#CCF381"/>
<path d="M40.4371 174.521C40.4406 174.655 40.4174 174.787 40.3687 174.912C40.3201 175.036 40.247 175.149 40.1539 175.245C40.0608 175.341 39.9494 175.417 39.8264 175.468C39.7034 175.52 39.5713 175.547 39.4378 175.547C39.3043 175.547 39.1722 175.521 39.0492 175.469C38.9261 175.417 38.8147 175.341 38.7215 175.245C38.6283 175.15 38.5552 175.037 38.5065 174.912C38.4578 174.788 38.4344 174.655 38.4378 174.522C38.4445 174.261 38.5527 174.013 38.7393 173.831C38.926 173.649 39.1764 173.547 39.4372 173.547C39.6979 173.547 39.9484 173.649 40.1352 173.831C40.322 174.013 40.4303 174.26 40.4371 174.521Z" stroke="#CCF381"/>
<path d="M59.4051 174.521C59.4086 174.655 59.3854 174.787 59.3367 174.912C59.2881 175.036 59.215 175.149 59.1219 175.245C59.0288 175.341 58.9174 175.417 58.7944 175.468C58.6714 175.52 58.5393 175.547 58.4058 175.547C58.2723 175.547 58.1402 175.521 58.0172 175.469C57.8941 175.417 57.7827 175.341 57.6895 175.245C57.5964 175.15 57.5232 175.037 57.4745 174.912C57.4258 174.788 57.4024 174.655 57.4058 174.522C57.4125 174.261 57.5207 174.013 57.7073 173.831C57.894 173.649 58.1444 173.547 58.4052 173.547C58.6659 173.547 58.9164 173.649 59.1032 173.831C59.29 174.013 59.3983 174.26 59.4051 174.521Z" stroke="#CCF381"/>
<path d="M78.373 174.508C78.373 174.773 78.2676 175.028 78.0801 175.215C77.8926 175.403 77.6382 175.508 77.373 175.508C77.1078 175.508 76.8534 175.403 76.6659 175.215C76.4783 175.028 76.373 174.773 76.373 174.508C76.373 174.243 76.4783 173.988 76.6659 173.801C76.8534 173.613 77.1078 173.508 77.373 173.508C77.6382 173.508 77.8925 173.613 78.0801 173.801C78.2676 173.988 78.373 174.243 78.373 174.508Z" stroke="#CCF381"/>
<path d="M97.341 174.508C97.341 174.773 97.2356 175.028 97.0481 175.215C96.8605 175.403 96.6062 175.508 96.341 175.508C96.0758 175.508 95.8214 175.403 95.6339 175.215C95.4463 175.028 95.341 174.773 95.341 174.508C95.341 174.243 95.4463 173.988 95.6339 173.801C95.8214 173.613 96.0758 173.508 96.341 173.508C96.6062 173.508 96.8605 173.613 97.0481 173.801C97.2356 173.988 97.341 174.243 97.341 174.508Z" stroke="#CCF381"/>
<path d="M116.309 174.521C116.313 174.655 116.289 174.787 116.241 174.912C116.192 175.036 116.119 175.149 116.026 175.245C115.933 175.341 115.821 175.417 115.698 175.468C115.575 175.52 115.443 175.547 115.31 175.547C115.176 175.547 115.044 175.521 114.921 175.469C114.798 175.417 114.687 175.341 114.594 175.245C114.5 175.15 114.427 175.037 114.378 174.912C114.33 174.788 114.306 174.655 114.31 174.522C114.316 174.261 114.425 174.013 114.611 173.831C114.798 173.649 115.048 173.547 115.309 173.547C115.57 173.547 115.82 173.649 116.007 173.831C116.194 174.013 116.302 174.26 116.309 174.521Z" stroke="#CCF381"/>
<path d="M135.276 174.526C135.281 174.661 135.259 174.795 135.211 174.92C135.163 175.046 135.09 175.16 134.997 175.257C134.904 175.354 134.792 175.431 134.668 175.483C134.545 175.536 134.412 175.563 134.277 175.563C134.143 175.563 134.01 175.536 133.886 175.484C133.763 175.431 133.651 175.354 133.557 175.258C133.464 175.161 133.391 175.046 133.343 174.921C133.295 174.795 133.273 174.661 133.278 174.527C133.287 174.268 133.396 174.023 133.583 173.844C133.769 173.664 134.018 173.563 134.277 173.563C134.536 173.563 134.784 173.663 134.971 173.843C135.157 174.023 135.267 174.268 135.276 174.526Z" stroke="#CCF381"/>
<path d="M154.245 174.508C154.245 174.639 154.219 174.77 154.169 174.891C154.119 175.012 154.045 175.122 153.952 175.215C153.859 175.308 153.749 175.382 153.628 175.432C153.507 175.483 153.377 175.508 153.245 175.508C153.114 175.509 152.984 175.483 152.863 175.433C152.741 175.382 152.631 175.309 152.538 175.216C152.445 175.123 152.372 175.013 152.321 174.891C152.271 174.77 152.245 174.64 152.245 174.509C152.245 174.244 152.35 173.989 152.538 173.802C152.725 173.614 152.979 173.509 153.245 173.508C153.51 173.508 153.764 173.614 153.952 173.801C154.139 173.989 154.245 174.243 154.245 174.508Z" stroke="#CCF381"/>
<path d="M173.212 174.508C173.212 174.773 173.107 175.028 172.919 175.215C172.732 175.403 172.477 175.508 172.212 175.508C171.947 175.508 171.692 175.403 171.505 175.215C171.317 175.028 171.212 174.773 171.212 174.508C171.212 174.243 171.317 173.988 171.505 173.801C171.692 173.613 171.947 173.508 172.212 173.508C172.477 173.508 172.732 173.613 172.919 173.801C173.107 173.988 173.212 174.243 173.212 174.508Z" stroke="#CCF381"/>
<path d="M192.18 174.526C192.185 174.661 192.163 174.795 192.115 174.92C192.067 175.046 191.994 175.16 191.901 175.257C191.808 175.354 191.696 175.431 191.572 175.483C191.449 175.536 191.316 175.563 191.181 175.563C191.047 175.563 190.914 175.536 190.79 175.484C190.666 175.431 190.555 175.354 190.461 175.258C190.368 175.161 190.295 175.046 190.247 174.921C190.199 174.795 190.177 174.661 190.182 174.527C190.191 174.268 190.3 174.023 190.487 173.844C190.673 173.664 190.922 173.563 191.181 173.563C191.44 173.563 191.688 173.663 191.875 173.843C192.061 174.023 192.171 174.268 192.18 174.526Z" stroke="#CCF381"/>
<path d="M211.148 174.521C211.152 174.655 211.128 174.787 211.08 174.912C211.031 175.036 210.958 175.149 210.865 175.245C210.772 175.341 210.66 175.417 210.537 175.468C210.414 175.52 210.282 175.547 210.149 175.547C210.015 175.547 209.883 175.521 209.76 175.469C209.637 175.417 209.526 175.341 209.433 175.245C209.339 175.15 209.266 175.037 209.217 174.912C209.169 174.788 209.145 174.655 209.149 174.522C209.155 174.261 209.264 174.013 209.45 173.831C209.637 173.649 209.887 173.547 210.148 173.547C210.409 173.547 210.659 173.649 210.846 173.831C211.033 174.013 211.141 174.26 211.148 174.521Z" stroke="#CCF381"/>
<path d="M2.50198 193.731C2.50198 193.996 2.39652 194.251 2.20879 194.439C2.02106 194.627 1.76646 194.732 1.50098 194.732C1.2355 194.732 0.980889 194.627 0.793163 194.439C0.605436 194.251 0.499977 193.996 0.499977 193.731C0.499977 193.466 0.60544 193.211 0.793163 193.023C0.980889 192.835 1.2355 192.73 1.50098 192.73C1.76646 192.73 2.02106 192.835 2.20879 193.023C2.39651 193.211 2.50198 193.466 2.50198 193.731Z" stroke="#CCF381"/>
<path d="M21.469 193.731C21.469 193.996 21.3636 194.251 21.1761 194.438C20.9885 194.626 20.7342 194.731 20.469 194.731C20.2038 194.731 19.9494 194.626 19.7619 194.438C19.5743 194.251 19.469 193.996 19.469 193.731C19.469 193.466 19.5743 193.211 19.7619 193.024C19.9494 192.836 20.2038 192.731 20.469 192.731C20.7342 192.731 20.9886 192.836 21.1761 193.024C21.3636 193.211 21.469 193.466 21.469 193.731Z" stroke="#CCF381"/>
<path d="M40.437 193.731C40.437 193.996 40.3316 194.251 40.1441 194.438C39.9565 194.626 39.7022 194.731 39.437 194.731C39.1718 194.731 38.9174 194.626 38.7299 194.438C38.5423 194.251 38.437 193.996 38.437 193.731C38.437 193.466 38.5423 193.211 38.7299 193.024C38.9174 192.836 39.1718 192.731 39.437 192.731C39.7022 192.731 39.9566 192.836 40.1441 193.024C40.3316 193.211 40.437 193.466 40.437 193.731Z" stroke="#CCF381"/>
<path d="M59.405 193.731C59.405 193.996 59.2996 194.251 59.1121 194.438C58.9245 194.626 58.6702 194.731 58.405 194.731C58.1398 194.731 57.8854 194.626 57.6979 194.438C57.5103 194.251 57.405 193.996 57.405 193.731C57.405 193.466 57.5103 193.211 57.6979 193.024C57.8854 192.836 58.1398 192.731 58.405 192.731C58.6702 192.731 58.9246 192.836 59.1121 193.024C59.2996 193.211 59.405 193.466 59.405 193.731Z" stroke="#CCF381"/>
<path d="M78.373 193.731C78.373 193.996 78.2676 194.251 78.0799 194.438C77.8923 194.626 77.6378 194.731 77.3725 194.731C77.1071 194.731 76.8526 194.626 76.665 194.438C76.4774 194.251 76.372 193.996 76.372 193.731C76.372 193.466 76.4774 193.211 76.665 193.024C76.8526 192.836 77.1071 192.73 77.3725 192.73C77.6378 192.73 77.8923 192.836 78.0799 193.024C78.2676 193.211 78.373 193.466 78.373 193.731Z" stroke="#CCF381"/>
<path d="M97.34 193.731V193.776C97.3348 193.892 97.3094 194.006 97.2648 194.114C97.2145 194.235 97.1409 194.346 97.0479 194.438C96.955 194.531 96.8447 194.605 96.7234 194.655C96.602 194.706 96.4719 194.731 96.3405 194.731C96.2091 194.731 96.079 194.706 95.9576 194.655C95.8362 194.605 95.7259 194.531 95.633 194.438C95.5401 194.346 95.4664 194.235 95.4161 194.114C95.3659 193.992 95.34 193.862 95.34 193.731C95.34 193.466 95.4453 193.211 95.6329 193.024C95.8204 192.836 96.0748 192.731 96.34 192.731C96.6052 192.731 96.8596 192.836 97.0471 193.024C97.2346 193.211 97.34 193.466 97.34 193.731Z" stroke="#CCF381"/>
<path d="M116.309 193.731C116.309 193.996 116.204 194.251 116.016 194.438C115.829 194.626 115.574 194.731 115.309 194.731C115.044 194.731 114.789 194.626 114.602 194.438C114.414 194.251 114.309 193.996 114.309 193.731C114.309 193.466 114.414 193.211 114.602 193.024C114.789 192.836 115.044 192.731 115.309 192.731C115.574 192.731 115.829 192.836 116.016 193.024C116.204 193.211 116.309 193.466 116.309 193.731Z" stroke="#CCF381"/>
<path d="M135.276 193.731C135.276 193.996 135.171 194.251 134.983 194.438C134.796 194.626 134.541 194.731 134.276 194.731C134.011 194.731 133.756 194.626 133.569 194.438C133.381 194.251 133.276 193.996 133.276 193.731C133.276 193.466 133.381 193.211 133.569 193.024C133.756 192.836 134.011 192.731 134.276 192.731C134.541 192.731 134.796 192.836 134.983 193.024C135.171 193.211 135.276 193.466 135.276 193.731Z" stroke="#CCF381"/>
<path d="M154.245 193.731C154.245 193.996 154.14 194.251 153.952 194.438C153.765 194.626 153.51 194.731 153.245 194.731C152.98 194.731 152.725 194.626 152.538 194.438C152.35 194.251 152.245 193.996 152.245 193.731C152.245 193.466 152.35 193.211 152.538 193.024C152.725 192.836 152.98 192.731 153.245 192.731C153.51 192.731 153.765 192.836 153.952 193.024C154.14 193.211 154.245 193.466 154.245 193.731Z" stroke="#CCF381"/>
<path d="M173.212 193.731C173.212 193.996 173.107 194.251 172.919 194.438C172.732 194.626 172.477 194.731 172.212 194.731C171.947 194.731 171.692 194.626 171.505 194.438C171.317 194.251 171.212 193.996 171.212 193.731C171.212 193.466 171.317 193.211 171.505 193.024C171.692 192.836 171.947 192.731 172.212 192.731C172.477 192.731 172.732 192.836 172.919 193.024C173.107 193.211 173.212 193.466 173.212 193.731Z" stroke="#CCF381"/>
<path d="M192.18 193.731C192.18 193.996 192.075 194.251 191.887 194.438C191.7 194.626 191.445 194.731 191.18 194.731C190.915 194.731 190.66 194.626 190.473 194.438C190.285 194.251 190.18 193.996 190.18 193.731C190.18 193.466 190.285 193.211 190.473 193.024C190.66 192.836 190.915 192.731 191.18 192.731C191.445 192.731 191.7 192.836 191.887 193.024C192.075 193.211 192.18 193.466 192.18 193.731Z" stroke="#CCF381"/>
<path d="M211.148 193.731C211.148 193.996 211.043 194.251 210.855 194.438C210.668 194.626 210.413 194.731 210.148 194.731C209.883 194.731 209.628 194.626 209.441 194.438C209.253 194.251 209.148 193.996 209.148 193.731C209.148 193.466 209.253 193.211 209.441 193.024C209.628 192.836 209.883 192.731 210.148 192.731C210.413 192.731 210.668 192.836 210.855 193.024C211.043 193.211 211.148 193.466 211.148 193.731Z" stroke="#CCF381"/>
</svg>
