<svg width="427" height="124" viewBox="0 0 427 124" fill="none" xmlns="http://www.w3.org/2000/svg">
<path d="M0.9375 6.75V5.75H-0.0625V6.75H0.9375ZM67.625 18.4375L66.8987 19.1249L66.9025 19.1289L67.625 18.4375ZM67.6875 85.125L66.954 84.4453L66.9539 84.4454L67.6875 85.125ZM0.9375 97H-0.0625V98H0.9375V97ZM19.8125 22.875V21.875H18.8125V22.875H19.8125ZM19.8125 80.875H18.8125V81.875H19.8125V80.875ZM52.75 73.375L53.4933 74.044L53.496 74.0409L52.75 73.375ZM52.625 30.4375L51.8851 31.1102L51.8878 31.1132L52.625 30.4375ZM0.9375 7.75H36.4375V5.75H0.9375V7.75ZM36.4375 7.75C49.6528 7.75 59.7577 11.5804 66.8987 19.1249L68.3513 17.7501C60.7423 9.71122 50.0556 5.75 36.4375 5.75V7.75ZM66.9025 19.1289C74.0904 26.6398 77.75 37.2985 77.75 51.25H79.75C79.75 36.9515 75.993 25.7352 68.3475 17.7461L66.9025 19.1289ZM77.75 51.25C77.75 65.7122 74.1054 76.7283 66.954 84.4453L68.421 85.8047C76.0196 77.6051 79.75 66.0378 79.75 51.25H77.75ZM66.9539 84.4454C59.8552 92.1088 49.7337 96 36.4375 96V98C50.1413 98 60.8531 93.9746 68.4211 85.8046L66.9539 84.4454ZM36.4375 96H0.9375V98H36.4375V96ZM1.9375 97V6.75H-0.0625V97H1.9375ZM18.8125 22.875V80.875H20.8125V22.875H18.8125ZM19.8125 81.875H33.4375V79.875H19.8125V81.875ZM33.4375 81.875C42.0213 81.875 48.7588 79.3045 53.4933 74.044L52.0067 72.706C47.7412 77.4455 41.6037 79.875 33.4375 79.875V81.875ZM53.496 74.0409C58.2155 68.7534 60.5 61.2088 60.5 51.5625H58.5C58.5 60.9162 56.2845 67.9133 52.004 72.7091L53.496 74.0409ZM60.5 51.5625C60.5 42.3154 58.165 35.0013 53.3622 29.7618L51.8878 31.1132C56.2516 35.8737 58.5 42.643 58.5 51.5625H60.5ZM53.3649 29.7648C48.5537 24.4725 41.865 21.875 33.4375 21.875V23.875C41.4267 23.875 47.5296 26.3192 51.8851 31.1102L53.3649 29.7648ZM33.4375 21.875H19.8125V23.875H33.4375V21.875ZM114.125 44.5625L113.423 43.85L113.418 43.8554L114.125 44.5625ZM109.562 55.3125L108.565 55.2379L108.485 56.3125H109.562V55.3125ZM138.938 55.3125V56.3125H139.984L139.936 55.2671L138.938 55.3125ZM134.75 44.5L134.026 45.1899L134.032 45.1957L134.037 45.2014L134.75 44.5ZM139.312 77.375V76.375H138.647L138.39 76.9892L139.312 77.375ZM156.25 77.375L157.229 77.5807L157.482 76.375H156.25V77.375ZM145.75 92.875L146.308 93.7051L146.309 93.7042L145.75 92.875ZM100.188 89.125L99.4566 89.8075L99.4589 89.8099L100.188 89.125ZM100.25 36.3125L99.5105 35.6394L100.25 36.3125ZM148.25 35.75L147.516 36.4291L147.518 36.4318L148.25 35.75ZM156.812 66.9375V67.9375H157.812V66.9375H156.812ZM109.5 66.9375V65.9375H108.5V66.9375H109.5ZM109.5 67.875H108.5V67.8872L108.5 67.8994L109.5 67.875ZM113.875 80.0625L113.143 80.7437L113.148 80.749L113.153 80.7542L113.875 80.0625ZM134.25 82.6875L134.697 83.582L134.709 83.5757L134.25 82.6875ZM124.562 39.5C120.118 39.5 116.378 40.9399 113.423 43.85L114.827 45.275C117.372 42.7684 120.591 41.5 124.562 41.5V39.5ZM113.418 43.8554C110.513 46.7607 108.913 50.583 108.565 55.2379L110.56 55.3871C110.878 51.1253 112.321 47.7809 114.832 45.2696L113.418 43.8554ZM109.562 56.3125H138.938V54.3125H109.562V56.3125ZM139.936 55.2671C139.72 50.5003 138.259 46.6398 135.463 43.7986L134.037 45.2014C136.408 47.6102 137.739 50.958 137.939 55.3579L139.936 55.2671ZM135.474 43.8101C132.714 40.9145 129.04 39.5 124.562 39.5V41.5C128.585 41.5 131.703 42.7522 134.026 45.1899L135.474 43.8101ZM139.312 78.375H156.25V76.375H139.312V78.375ZM155.271 77.1693C153.951 83.4523 150.604 88.3971 145.191 92.0458L146.309 93.7042C152.146 89.7696 155.799 84.381 157.229 77.5807L155.271 77.1693ZM145.192 92.0449C139.811 95.6592 133.018 97.5 124.75 97.5V99.5C133.315 99.5 140.522 97.5908 146.308 93.7051L145.192 92.0449ZM124.75 97.5C114.46 97.5 106.561 94.4453 100.916 88.4401L99.4589 89.8099C105.564 96.3047 114.04 99.5 124.75 99.5V97.5ZM100.918 88.4425C95.2635 82.3866 92.375 73.9089 92.375 62.875H90.375C90.375 74.2578 93.3615 83.2801 99.4566 89.8075L100.918 88.4425ZM92.375 62.875C92.375 51.8448 95.2827 43.2551 100.99 36.9856L99.5105 35.6394C93.3839 42.3699 90.375 51.4886 90.375 62.875H92.375ZM100.99 36.9856C106.685 30.729 114.48 27.5625 124.5 27.5625V25.5625C114.02 25.5625 105.649 28.896 99.5105 35.6394L100.99 36.9856ZM124.5 27.5625C134.454 27.5625 142.079 30.5524 147.516 36.4291L148.984 35.0709C143.088 28.6976 134.88 25.5625 124.5 25.5625V27.5625ZM147.518 36.4318C153.006 42.3202 155.812 50.5893 155.812 61.375H157.812C157.812 50.244 154.91 41.4298 148.982 35.0682L147.518 36.4318ZM155.812 61.375V66.9375H157.812V61.375H155.812ZM156.812 65.9375H109.5V67.9375H156.812V65.9375ZM108.5 66.9375V67.875H110.5V66.9375H108.5ZM108.5 67.8994C108.63 73.2051 110.146 77.5232 113.143 80.7437L114.607 79.3813C112.021 76.6018 110.62 72.7949 110.5 67.8506L108.5 67.8994ZM113.153 80.7542C116.205 83.9413 120.275 85.5 125.25 85.5V83.5C120.725 83.5 117.211 82.1004 114.597 79.3708L113.153 80.7542ZM125.25 85.5C128.94 85.5 132.104 84.8785 134.697 83.5819L133.803 81.7931C131.563 82.9131 128.727 83.5 125.25 83.5V85.5ZM134.709 83.5757C137.313 82.2289 139.177 80.2903 140.235 77.7608L138.39 76.9892C137.531 79.043 136.02 80.6461 133.791 81.7993L134.709 83.5757ZM178.062 32.5625L178.665 33.361L178.666 33.3602L178.062 32.5625ZM219.438 31.875L218.856 32.6887L218.859 32.691L219.438 31.875ZM227.688 47.0625V48.0625H228.766L228.685 46.9868L227.688 47.0625ZM210.875 47.0625L209.895 47.2621L210.058 48.0625H210.875V47.0625ZM207.062 41.8125L206.528 42.6576L206.538 42.6639L206.548 42.67L207.062 41.8125ZM190.875 41.9375L191.407 42.7846L191.418 42.7771L190.875 41.9375ZM189.938 51.375L189.338 52.175L189.345 52.1804L189.352 52.1857L189.938 51.375ZM197 54.0625L196.784 55.039L196.788 55.0397L197 54.0625ZM224.625 63.5625L223.928 64.2792L223.932 64.2839L224.625 63.5625ZM168.5 77.8125V76.8125H167.401L167.504 77.9064L168.5 77.8125ZM186.25 77.8125L187.209 77.5281L186.996 76.8125H186.25V77.8125ZM207.938 83.1875L208.454 84.0436L208.466 84.0364L207.938 83.1875ZM209.188 73.6875L208.569 74.473L208.576 74.4789L208.584 74.4846L209.188 73.6875ZM202.562 71.0625L202.343 72.0381L202.348 72.0393L202.562 71.0625ZM190.062 68.25L190.282 67.2744L190.275 67.2728L190.062 68.25ZM175.062 61.1875L174.351 61.8901L174.36 61.8991L175.062 61.1875ZM171.188 48.3125C171.188 42.0866 173.664 37.1315 178.665 33.361L177.46 31.764C171.961 35.9102 169.188 41.4551 169.188 48.3125H171.188ZM178.666 33.3602C183.738 29.5256 190.445 27.5625 198.875 27.5625V25.5625C190.138 25.5625 182.97 27.5994 177.459 31.7648L178.666 33.3602ZM198.875 27.5625C207.504 27.5625 214.127 29.3106 218.856 32.6887L220.019 31.0613C214.831 27.356 207.746 25.5625 198.875 25.5625V27.5625ZM218.859 32.691C223.596 36.046 226.211 40.8255 226.69 47.1382L228.685 46.9868C228.164 40.1328 225.279 34.7874 220.016 31.059L218.859 32.691ZM227.688 46.0625H210.875V48.0625H227.688V46.0625ZM211.855 46.8629C211.337 44.3206 209.885 42.3399 207.577 40.955L206.548 42.67C208.407 43.7851 209.496 45.3044 209.895 47.2621L211.855 46.8629ZM207.597 40.9674C205.346 39.543 202.453 38.875 199 38.875V40.875C202.213 40.875 204.696 41.4987 206.528 42.6576L207.597 40.9674ZM199 38.875C195.573 38.875 192.661 39.591 190.332 41.0979L191.418 42.7771C193.339 41.534 195.844 40.875 199 40.875V38.875ZM190.344 41.0904C187.981 42.5728 186.688 44.6173 186.688 47.1875H188.688C188.688 45.4243 189.519 43.9689 191.406 42.7846L190.344 41.0904ZM186.688 47.1875C186.688 49.2115 187.622 50.8882 189.338 52.175L190.537 50.575C189.253 49.6118 188.688 48.4969 188.688 47.1875H186.688ZM189.352 52.1857C191.018 53.3886 193.53 54.3205 196.784 55.039L197.216 53.086C194.053 52.3878 191.857 51.5281 190.523 50.5643L189.352 52.1857ZM196.788 55.0397L209.725 57.8522L210.15 55.8978L197.212 53.0853L196.788 55.0397ZM209.725 57.8522C216.35 59.2923 221.036 61.4658 223.928 64.2792L225.322 62.8458C222.047 59.6592 216.942 57.3744 210.15 55.8978L209.725 57.8522ZM223.932 64.2839C226.825 67.061 228.312 70.8434 228.312 75.75H230.312C230.312 70.4066 228.675 66.064 225.318 62.8411L223.932 64.2839ZM228.312 75.75C228.312 82.2605 225.676 87.4663 220.339 91.4486L221.536 93.0514C227.366 88.7004 230.312 82.9061 230.312 75.75H228.312ZM220.339 91.4486C214.975 95.452 207.871 97.5 198.938 97.5V99.5C208.171 99.5 215.733 97.3813 221.536 93.0514L220.339 91.4486ZM198.938 97.5C189.973 97.5 183.006 95.7302 177.936 92.297L176.814 93.953C182.328 97.6865 189.735 99.5 198.938 99.5V97.5ZM177.936 92.297C172.903 88.8889 170.094 84.0603 169.496 77.7186L167.504 77.9064C168.156 84.8147 171.264 90.1944 176.814 93.953L177.936 92.297ZM168.5 78.8125H186.25V76.8125H168.5V78.8125ZM185.291 78.0969C186.092 80.7967 187.708 82.8543 190.118 84.2145C192.497 85.5581 195.588 86.1875 199.312 86.1875V84.1875C195.787 84.1875 193.076 83.5877 191.101 82.473C189.156 81.3749 187.866 79.7449 187.209 77.5281L185.291 78.0969ZM199.312 86.1875C202.971 86.1875 206.042 85.4999 208.454 84.0436L207.421 82.3314C205.416 83.5418 202.737 84.1875 199.312 84.1875V86.1875ZM208.466 84.0364C210.906 82.5169 212.25 80.4326 212.25 77.8125H210.25C210.25 79.6091 209.385 81.1081 207.409 82.3386L208.466 84.0364ZM212.25 77.8125C212.25 75.7875 211.413 74.1189 209.791 72.8904L208.584 74.4846C209.712 75.3394 210.25 76.4208 210.25 77.8125H212.25ZM209.806 72.902C208.253 71.6784 205.868 70.7633 202.777 70.0857L202.348 72.0393C205.34 72.6951 207.372 73.53 208.569 74.473L209.806 72.902ZM202.782 70.0869L190.282 67.2744L189.843 69.2256L202.343 72.0381L202.782 70.0869ZM190.275 67.2728C183.668 65.8365 178.871 63.543 175.765 60.4759L174.36 61.8991C177.837 65.332 183.041 67.7468 189.85 69.2272L190.275 67.2728ZM175.774 60.4849C172.736 57.4077 171.188 53.3822 171.188 48.3125H169.188C169.188 53.8261 170.889 58.384 174.351 61.8901L175.774 60.4849ZM244.375 97H243.375V98H244.375V97ZM244.375 28.0625V27.0625H243.375V28.0625H244.375ZM262.562 28.0625H263.562V27.0625H262.562V28.0625ZM262.562 97V98H263.562V97H262.562ZM245.688 2.625L246.336 3.3866L246.345 3.37857L245.688 2.625ZM261.312 2.625L260.655 3.37863L260.664 3.38654L261.312 2.625ZM261.25 15.875L260.6 15.1146L260.593 15.1214L261.25 15.875ZM245.375 97V28.0625H243.375V97H245.375ZM244.375 29.0625H262.562V27.0625H244.375V29.0625ZM261.562 28.0625V97H263.562V28.0625H261.562ZM262.562 96H244.375V98H262.562V96ZM253.5 17.4375C250.429 17.4375 248.079 16.634 246.345 15.1214L245.03 16.6286C247.213 18.5327 250.071 19.4375 253.5 19.4375V17.4375ZM246.345 15.1214C244.614 13.612 243.75 11.6833 243.75 9.25H241.75C241.75 12.2333 242.844 14.7214 245.03 16.6286L246.345 15.1214ZM243.75 9.25C243.75 6.77002 244.618 4.84871 246.336 3.38654L245.039 1.86346C242.841 3.73463 241.75 6.22998 241.75 9.25H243.75ZM246.345 3.37857C248.079 1.86599 250.429 1.0625 253.5 1.0625V-0.9375C250.071 -0.9375 247.213 -0.0326574 245.03 1.87143L246.345 3.37857ZM253.5 1.0625C256.571 1.0625 258.921 1.86599 260.655 3.37857L261.97 1.87143C259.787 -0.0326574 256.929 -0.9375 253.5 -0.9375V1.0625ZM260.664 3.38654C262.382 4.84871 263.25 6.77002 263.25 9.25H265.25C265.25 6.22998 264.159 3.73463 261.961 1.86346L260.664 3.38654ZM263.25 9.25C263.25 11.6758 262.371 13.6027 260.601 15.1146L261.899 16.6354C264.129 14.7307 265.25 12.2409 265.25 9.25H263.25ZM260.593 15.1214C258.856 16.636 256.526 17.4375 253.5 17.4375V19.4375C256.891 19.4375 259.727 18.5307 261.907 16.6286L260.593 15.1214ZM323.188 76.375L323.969 76.9986L323.973 76.994L323.188 76.375ZM323.125 47.5L322.34 48.1191L322.344 48.1247L323.125 47.5ZM300.188 47.5L299.398 46.8867L299.397 46.888L300.188 47.5ZM300.188 76.375L299.393 76.9825L299.397 76.987L300.188 76.375ZM289.188 117.562L289.732 116.724L289.731 116.723L289.188 117.562ZM279.812 102.938V101.938H278.712L278.817 103.033L279.812 102.938ZM297.812 102.938L298.79 102.727L298.62 101.938H297.812V102.938ZM302.188 108L301.734 108.891L302.188 108ZM323.125 106.625L322.508 105.838L322.5 105.844L323.125 106.625ZM327.188 84.875H328.188V83.875H327.188V84.875ZM326.062 84.875V83.875H325.46L325.178 84.408L326.062 84.875ZM284.938 86.8125L284.161 87.4423L284.163 87.4449L284.938 86.8125ZM285 36.4375L284.22 35.8116L284.22 35.8122L285 36.4375ZM318.25 30.1875L317.746 31.0509L317.75 31.0534L318.25 30.1875ZM326.625 39.125L325.725 39.5603L325.998 40.125H326.625V39.125ZM327.75 39.125V40.125H328.75V39.125H327.75ZM327.75 28.0625V27.0625H326.75V28.0625H327.75ZM345.375 28.0625H346.375V27.0625H345.375V28.0625ZM323.973 76.994C326.945 73.2232 328.375 68.1674 328.375 61.9375H326.375C326.375 67.8742 325.013 72.4435 322.402 75.756L323.973 76.994ZM328.375 61.9375C328.375 55.7045 326.923 50.6465 323.906 46.8753L322.344 48.1247C324.994 51.4368 326.375 56.0038 326.375 61.9375H328.375ZM323.91 46.881C320.912 43.0772 316.778 41.1875 311.625 41.1875V43.1875C316.222 43.1875 319.755 44.8395 322.34 48.119L323.91 46.881ZM311.625 41.1875C306.472 41.1875 302.355 43.0776 299.398 46.8867L300.977 48.1133C303.52 44.8391 307.028 43.1875 311.625 43.1875V41.1875ZM299.397 46.888C296.51 50.6185 295.125 55.652 295.125 61.875H297.125C297.125 55.9314 298.448 51.3815 300.978 48.112L299.397 46.888ZM295.125 61.875C295.125 68.1387 296.509 73.2115 299.393 76.9825L300.982 75.7675C298.449 72.4551 297.125 67.8613 297.125 61.875H295.125ZM299.397 76.987C302.317 80.7612 306.438 82.625 311.625 82.625V80.625C306.978 80.625 303.474 78.9888 300.978 75.763L299.397 76.987ZM311.625 82.625C316.812 82.625 320.968 80.7619 323.969 76.9986L322.406 75.7514C319.824 78.9881 316.271 80.625 311.625 80.625V82.625ZM311.375 122.125C302.422 122.125 295.233 120.297 289.732 116.724L288.643 118.401C294.559 122.245 302.161 124.125 311.375 124.125V122.125ZM289.731 116.723C284.29 113.202 281.359 108.587 280.808 102.842L278.817 103.033C279.433 109.455 282.752 114.589 288.644 118.402L289.731 116.723ZM279.812 103.938H297.812V101.938H279.812V103.938ZM296.835 103.148C297.373 105.644 299.086 107.545 301.734 108.891L302.641 107.109C300.372 105.955 299.168 104.481 298.79 102.727L296.835 103.148ZM301.734 108.891C304.379 110.236 307.738 110.875 311.75 110.875V108.875C307.929 108.875 304.912 108.264 302.641 107.109L301.734 108.891ZM311.75 110.875C316.762 110.875 320.804 109.762 323.75 107.406L322.5 105.844C320.029 107.821 316.488 108.875 311.75 108.875V110.875ZM323.742 107.412C326.725 105.072 328.188 101.763 328.188 97.625H326.188C326.188 101.237 324.942 103.928 322.508 105.838L323.742 107.412ZM328.188 97.625V84.875H326.188V97.625H328.188ZM327.188 83.875H326.062V85.875H327.188V83.875ZM325.178 84.408C321.47 91.4305 314.94 95 305.312 95V97C315.518 97 322.822 93.1529 326.947 85.342L325.178 84.408ZM305.312 95C297 95 290.504 92.0507 285.712 86.1801L284.163 87.4449C289.371 93.8243 296.458 97 305.312 97V95ZM285.714 86.1827C280.898 80.2431 278.438 72.197 278.438 61.9375H276.438C276.438 72.5113 278.977 81.0485 284.161 87.4423L285.714 86.1827ZM278.438 61.9375C278.438 51.3817 280.921 43.1264 285.78 37.0628L284.22 35.8122C278.995 42.3319 276.438 51.0766 276.438 61.9375H278.438ZM285.78 37.0634C290.658 30.9855 297.257 27.9375 305.688 27.9375V25.9375C296.701 25.9375 289.508 29.2228 284.22 35.8116L285.78 37.0634ZM305.688 27.9375C310.193 27.9375 314.203 28.9814 317.746 31.0509L318.754 29.3241C314.88 27.0603 310.516 25.9375 305.688 25.9375V27.9375ZM317.75 31.0534C321.331 33.1228 323.981 35.9543 325.725 39.5603L327.525 38.6897C325.602 34.7123 322.669 31.5855 318.75 29.3216L317.75 31.0534ZM326.625 40.125H327.75V38.125H326.625V40.125ZM328.75 39.125V28.0625H326.75V39.125H328.75ZM327.75 29.0625H345.375V27.0625H327.75V29.0625ZM344.375 28.0625V96.75H346.375V28.0625H344.375ZM344.375 96.75C344.375 104.54 341.443 110.658 335.575 115.21L336.8 116.79C343.182 111.842 346.375 105.127 346.375 96.75H344.375ZM335.575 115.21C329.677 119.784 321.646 122.125 311.375 122.125V124.125C321.938 124.125 330.448 121.716 336.8 116.79L335.575 115.21ZM363.625 97H362.625V98H363.625V97ZM363.625 28.0625V27.0625H362.625V28.0625H363.625ZM381.25 28.0625H382.25V27.0625H381.25V28.0625ZM381.25 39.125H380.25V40.125H381.25V39.125ZM382.375 39.125V40.125H383.045L383.3 39.5048L382.375 39.125ZM390 29.875L389.466 29.0293L389.462 29.0322L390 29.875ZM420.25 33.3125L419.506 33.9807L419.509 33.9841L420.25 33.3125ZM426.312 97V98H427.312V97H426.312ZM408.125 97H407.125V98H408.125V97ZM385.438 46.375L384.692 45.7085L384.691 45.7092L385.438 46.375ZM381.812 97V98H382.812V97H381.812ZM364.625 97V28.0625H362.625V97H364.625ZM363.625 29.0625H381.25V27.0625H363.625V29.0625ZM380.25 28.0625V39.125H382.25V28.0625H380.25ZM381.25 40.125H382.375V38.125H381.25V40.125ZM383.3 39.5048C384.85 35.7283 387.261 32.8104 390.538 30.7178L389.462 29.0322C385.822 31.3563 383.15 34.6051 381.45 38.7452L383.3 39.5048ZM390.534 30.7207C393.843 28.6324 397.899 27.5625 402.75 27.5625V25.5625C397.601 25.5625 393.157 26.7009 389.466 29.0293L390.534 30.7207ZM402.75 27.5625C410.17 27.5625 415.701 29.7444 419.506 33.9807L420.994 32.6443C416.715 27.8806 410.58 25.5625 402.75 25.5625V27.5625ZM419.509 33.9841C423.33 38.1989 425.312 44.2997 425.312 52.4375H427.312C427.312 43.992 425.253 37.3428 420.991 32.6409L419.509 33.9841ZM425.312 52.4375V97H427.312V52.4375H425.312ZM426.312 96H408.125V98H426.312V96ZM409.125 97V56.75H407.125V97H409.125ZM409.125 56.75C409.125 51.7929 408.044 47.8883 405.706 45.2165C403.346 42.5192 399.858 41.25 395.438 41.25V43.25C399.475 43.25 402.332 44.3975 404.201 46.5335C406.092 48.6951 407.125 52.0404 407.125 56.75H409.125ZM395.438 41.25C390.989 41.25 387.368 42.7153 384.692 45.7085L386.183 47.0415C388.424 44.5347 391.469 43.25 395.438 43.25V41.25ZM384.691 45.7092C382.073 48.6435 380.812 52.5268 380.812 57.25H382.812C382.812 52.8899 383.969 49.5232 386.184 47.0408L384.691 45.7092ZM380.812 57.25V97H382.812V57.25H380.812ZM381.812 96H363.625V98H381.812V96Z" fill="#474747" fill-opacity="0.1"/>
</svg>
