<svg width="578" height="416" viewBox="0 0 578 416" fill="none" xmlns="http://www.w3.org/2000/svg">
<g clip-path="url(#clip0_120_2)">
<path d="M252.868 242.513H232.122M242.495 252.884V232.142M413.186 172.162L426.037 172.507L425.692 159.659L438.542 160.004L438.197 147.156L451.048 147.501L450.702 134.653L463.553 134.998L463.207 122.15M137.844 9.04594C137.844 11.5811 135.77 13.5977 133.234 13.5401C130.756 13.5401 128.739 11.5235 128.739 9.04594C128.739 6.51076 130.756 4.49414 133.292 4.49414C135.827 4.49414 137.844 6.51076 137.844 9.04594ZM154.037 9.04594C154.037 11.5811 152.02 13.5977 149.485 13.5977C146.949 13.5977 144.932 11.5811 144.932 9.04594C144.932 6.51076 146.949 4.49414 149.485 4.49414C151.963 4.49414 153.98 6.56838 154.037 9.04594V9.04594ZM170.173 9.04594C170.173 11.5811 168.098 13.5977 165.563 13.5401C163.085 13.5401 161.068 11.5235 161.068 9.04594C161.068 6.51076 163.085 4.49414 165.62 4.49414C168.156 4.49414 170.173 6.51076 170.173 9.04594V9.04594ZM186.366 9.04594C186.366 11.5811 184.349 13.5977 181.814 13.5977C179.278 13.5977 177.261 11.5811 177.261 9.04594C177.261 6.51076 179.278 4.49414 181.814 4.49414C184.349 4.49414 186.366 6.56838 186.366 9.04594V9.04594ZM202.559 9.04594C202.559 11.5811 200.485 13.5977 197.949 13.5401C195.471 13.5401 193.454 11.5235 193.454 9.04594C193.454 6.51076 195.471 4.49414 198.007 4.49414C200.542 4.49414 202.559 6.56838 202.559 9.04594V9.04594ZM394.4 410.641C394.4 413.177 392.383 415.193 389.847 415.193C387.312 415.193 385.295 413.177 385.295 410.641C385.295 408.106 387.312 406.09 389.847 406.09C392.383 406.147 394.4 408.164 394.4 410.641ZM410.593 410.641C410.593 413.177 408.576 415.193 406.041 415.193C403.505 415.193 401.488 413.177 401.488 410.641C401.488 408.106 403.505 406.09 406.041 406.09C408.576 406.09 410.593 408.164 410.593 410.641ZM426.729 410.641C426.729 413.177 424.712 415.193 422.176 415.193C419.641 415.193 417.624 413.177 417.624 410.641C417.624 408.106 419.641 406.09 422.176 406.09C424.712 406.147 426.729 408.164 426.729 410.641ZM442.922 410.641C442.922 413.177 440.905 415.193 438.37 415.193C435.834 415.193 433.817 413.177 433.817 410.641C433.817 408.106 435.834 406.09 438.37 406.09C440.905 406.09 442.922 408.164 442.922 410.641ZM459.115 410.641C459.115 413.177 457.098 415.193 454.563 415.193C452.027 415.193 450.01 413.177 450.01 410.641C450.01 408.106 452.027 406.09 454.563 406.09C457.041 406.147 459.115 408.164 459.115 410.641Z" stroke="#4831D4" stroke-width="2" stroke-miterlimit="50"/>
<path d="M540.369 118.52C540.369 127.566 533.051 134.883 524.003 134.883C514.956 134.883 507.637 127.566 507.637 118.52C507.637 109.474 514.956 102.156 524.003 102.156C533.051 102.156 540.369 109.474 540.369 118.52ZM535.356 90.1718H512.593V-0.0576172H535.356V90.1718ZM228.319 233.928C228.319 242.974 221 250.291 211.952 250.291C202.905 250.291 195.586 242.974 195.586 233.928C195.586 224.882 202.905 217.565 211.952 217.565C221 217.565 228.319 224.882 228.319 233.928ZM223.305 205.58H200.542V115.351H223.305V205.58ZM46.1016 306.411C16.8847 306.411 -1.21022 274.606 13.7152 249.485C28.2949 224.94 63.8508 224.94 78.4305 249.485C93.4135 274.606 75.3186 306.411 46.1016 306.411ZM329.512 103.539C300.295 103.539 282.2 71.7341 297.125 46.6127C311.705 22.0676 347.261 22.0676 361.841 46.6127C376.824 71.7341 358.729 103.539 329.512 103.539ZM540.024 333.607C510.807 333.607 492.712 301.802 507.637 276.68C522.217 252.135 557.773 252.135 572.352 276.68C587.336 301.802 569.241 333.607 540.024 333.607ZM93.5864 124.166C93.5864 133.212 86.2677 140.53 77.2203 140.53C68.1728 140.53 60.8542 133.212 60.8542 124.166C60.8542 115.12 68.1728 107.803 77.2203 107.803C86.2677 107.803 93.5864 115.12 93.5864 124.166ZM88.5152 95.8183H65.7525V5.58892H88.5152V95.8183Z" fill="#EFEFEF"/>
<path d="M346.397 46.4399L346.454 49.4361L346.397 46.4399Z" fill="#3361C2"/>
<path d="M426.786 34.3403V128.833H346.454V14.9807H407.424L426.786 34.3403Z" fill="#432FC6"/>
<path d="M346.397 73.5779L331.241 74.2117C331.241 74.2117 337.58 43.0982 346.339 39.6987L346.397 56.9264C349.451 54.3913 352.678 52.0865 353.831 52.7203C356.02 53.9303 346.397 73.5779 346.397 73.5779Z" fill="#FACAB0"/>
<path d="M346.339 39.6987C346.339 39.6987 338.559 40.5054 331.241 73.8084" stroke="white" stroke-width="1.5" stroke-miterlimit="50" stroke-linecap="square"/>
<path d="M408.403 349.163L408.058 368.984C408 373.363 412.149 376.647 416.414 375.552L461.478 363.914C465.108 362.992 465.108 357.806 461.478 356.827L440.617 351.353L408.403 349.163ZM458.424 159.198L472.024 160.177C476.403 160.523 479.919 156.547 479.054 152.226L471.102 112.124C470.353 108.494 465.339 108.091 464.071 111.606L454.505 138.686L458.424 159.198ZM266.986 208.403L274.075 233.064L313.549 222.174L323.98 254.152L262.376 279.734C250.678 284.574 237.481 277.602 234.888 265.272C228.319 233.582 223.766 179.134 266.583 169.857C277.878 167.38 306.98 120.824 306.98 120.824L314.644 75.4793L348.183 72.0798L344.207 127.739C343.803 133.673 341.729 139.377 338.214 144.217L310.092 183.052L335.332 225.804L270.559 262.679L266.986 208.403Z" fill="#3D155F"/>
<path d="M329.512 246.143C330.146 245.509 337.522 203.506 342.19 176.483C344.553 162.885 354.522 151.938 367.834 148.366L452.2 125.664L465.8 167.84L390.136 193.538L385.525 247.872L329.512 246.143Z" fill="#CCF381"/>
<path d="M272.058 251.732L275.112 258.704C281.566 273.396 296.607 282.385 312.569 281.059L366.105 276.68L399.356 362.07C399.356 362.07 449.319 349.682 447.878 347.781C446.841 346.398 423.905 283.767 410.19 246.201C404.312 230.068 387.946 220.157 370.946 222.404L294.993 232.43L272.058 251.732Z" fill="#CCF381"/>
<path d="M277.244 273.569L323.98 254.152L314.529 225.055L263.356 237.443L277.244 273.569Z" fill="#3D155F"/>
<path d="M265.142 229.664C264.739 234.965 260.071 238.883 254.769 238.48C249.468 238.077 245.549 233.41 245.952 228.109C246.356 222.808 251.024 218.89 256.325 219.293C261.627 219.697 265.546 224.364 265.142 229.664Z" fill="#432FC6"/>
<path d="M303.81 232.776C303.407 238.077 298.739 241.995 293.437 241.591C288.136 241.188 284.217 236.521 284.62 231.22C285.024 225.919 289.692 222.001 294.993 222.405C300.295 222.865 304.271 227.475 303.81 232.776Z" fill="#432FC6"/>
<path d="M342.536 235.945C342.132 241.245 337.464 245.163 332.163 244.76C326.861 244.357 322.942 239.69 323.346 234.389C323.749 229.088 328.417 225.17 333.719 225.573C339.02 225.977 342.939 230.644 342.536 235.945Z" fill="#432FC6"/>
<path d="M286.637 204.485C286.234 209.786 281.566 213.704 276.264 213.301C270.963 212.898 267.044 208.231 267.447 202.93C267.851 197.629 272.519 193.711 277.82 194.114C283.122 194.518 287.098 199.185 286.637 204.485Z" fill="#432FC6"/>
<path d="M325.363 207.597C324.959 212.898 320.291 216.816 314.99 216.412C309.688 216.009 305.769 211.342 306.173 206.041C306.576 200.74 311.244 196.822 316.546 197.226C321.847 197.687 325.766 202.296 325.363 207.597Z" fill="#432FC6"/>
<path d="M364.031 210.766C363.627 216.067 358.959 219.985 353.658 219.581C348.356 219.178 344.437 214.511 344.841 209.21C345.244 203.909 349.912 199.991 355.214 200.395C360.515 200.855 364.492 205.465 364.031 210.766Z" fill="#432FC6"/>
<path d="M247.969 201.316C247.566 206.617 242.898 210.535 237.597 210.132C232.295 209.728 228.376 205.061 228.78 199.761C229.183 194.46 233.851 190.542 239.153 190.945C244.454 191.406 248.373 196.015 247.969 201.316Z" fill="#432FC6"/>
<path d="M282.2 257.955C281.797 263.255 277.129 267.173 271.827 266.77C266.525 266.367 262.607 261.7 263.01 256.399C263.414 251.098 268.081 247.18 273.383 247.583C278.685 248.044 282.661 252.654 282.2 257.955Z" fill="#432FC6"/>
<path d="M320.925 261.124C320.522 266.424 315.854 270.342 310.553 269.939C305.251 269.536 301.332 264.869 301.736 259.568C302.139 254.267 306.807 250.349 312.108 250.752C317.41 251.156 321.329 255.823 320.925 261.124Z" fill="#432FC6"/>
<path d="M359.593 264.235C359.19 269.536 354.522 273.454 349.22 273.05C343.919 272.647 340 267.98 340.403 262.679C340.807 257.378 345.475 253.46 350.776 253.864C356.078 254.325 360.054 258.934 359.593 264.235Z" fill="#432FC6"/>
<path d="M243.475 254.786C243.071 260.087 238.403 264.005 233.102 263.601C227.8 263.198 223.881 258.531 224.285 253.23C224.688 247.929 229.356 244.011 234.658 244.415C240.017 244.875 243.936 249.485 243.475 254.786Z" fill="#432FC6"/>
<path d="M273.959 122.668C273.556 127.969 268.888 131.887 263.586 131.484C258.285 131.08 254.366 126.413 254.77 121.112C255.173 115.812 259.841 111.894 265.142 112.297C270.444 112.758 274.363 117.367 273.959 122.668Z" fill="#432FC6"/>
<path d="M312.685 125.837C312.281 131.138 307.613 135.056 302.312 134.653C297.01 134.249 293.091 129.582 293.495 124.282C293.898 118.981 298.566 115.063 303.868 115.466C309.169 115.869 313.088 120.536 312.685 125.837Z" fill="#432FC6"/>
<path d="M351.353 128.949C350.949 134.249 346.281 138.167 340.98 137.764C335.678 137.361 331.759 132.694 332.163 127.393C332.566 122.092 337.234 118.174 342.536 118.577C347.837 119.038 351.814 123.648 351.353 128.949Z" fill="#432FC6"/>
<path d="M235.234 119.499C234.83 124.8 230.163 128.718 224.861 128.315C219.559 127.911 215.641 123.244 216.044 117.943C216.447 112.643 221.115 108.725 226.417 109.128C231.719 109.531 235.695 114.256 235.234 119.499Z" fill="#432FC6"/>
<path d="M291.017 150.958C290.614 156.259 285.946 160.177 280.644 159.774C275.342 159.371 271.424 154.703 271.827 149.403C272.231 144.102 276.898 140.184 282.2 140.587C287.502 140.99 291.478 145.715 291.017 150.958Z" fill="#432FC6"/>
<path d="M329.742 154.128C329.339 159.428 324.671 163.346 319.37 162.943C314.068 162.54 310.149 157.873 310.553 152.572C310.956 147.271 315.624 143.353 320.925 143.756C326.227 144.217 330.146 148.827 329.742 154.128Z" fill="#432FC6"/>
<path d="M252.349 147.847C251.946 153.148 247.278 157.066 241.976 156.663C236.675 156.259 232.756 151.592 233.159 146.291C233.563 140.99 238.23 137.072 243.532 137.476C248.834 137.879 252.752 142.546 252.349 147.847Z" fill="#432FC6"/>
<path d="M295.512 97.4891C295.108 102.79 290.441 106.708 285.139 106.305C279.837 105.901 275.919 101.234 276.322 95.9334C276.725 90.6326 281.393 86.7146 286.695 87.1179C291.997 87.5788 295.973 92.1883 295.512 97.4891Z" fill="#432FC6"/>
<path d="M334.237 100.658C333.834 105.959 329.166 109.877 323.864 109.474C318.563 109.07 314.644 104.403 315.047 99.1026C315.451 93.8018 320.119 89.8838 325.42 90.2871C330.722 90.6904 334.641 95.3574 334.237 100.658Z" fill="#432FC6"/>
<path d="M256.844 94.3778C256.441 99.6786 251.773 103.597 246.471 103.193C241.17 102.79 237.251 98.1229 237.654 92.8221C238.058 87.5212 242.725 83.6032 248.027 84.0066C253.329 84.4099 257.248 89.0769 256.844 94.3778Z" fill="#432FC6"/>
<path d="M308.247 179.306C307.844 184.607 303.176 188.525 297.875 188.122C292.573 187.719 288.654 183.052 289.058 177.751C289.461 172.45 294.129 168.532 299.43 168.935C304.732 169.396 308.708 174.006 308.247 179.306Z" fill="#432FC6"/>
<path d="M346.973 182.475C346.569 187.776 341.902 191.694 336.6 191.291C331.298 190.888 327.38 186.221 327.783 180.92C328.186 175.619 332.854 171.701 338.156 172.104C343.458 172.508 347.376 177.175 346.973 182.475Z" fill="#432FC6"/>
<path d="M230.854 173.026C230.451 178.327 225.783 182.245 220.481 181.841C215.18 181.438 211.261 176.771 211.664 171.47C212.068 166.169 216.736 162.251 222.037 162.655C227.339 163.058 231.315 167.725 230.854 173.026Z" fill="#432FC6"/>
<path d="M266.814 183.974C266.41 183.974 266.007 183.974 265.603 183.916C260.071 183.282 256.153 178.269 256.786 172.738L261.166 135.517C261.8 129.986 266.814 126.068 272.346 126.701C277.878 127.335 281.797 132.348 281.163 137.879L276.783 175.158C276.149 180.228 271.827 183.974 266.814 183.974Z" fill="#3D155F"/>
<path d="M372.329 277.141L365.01 276.392L367.43 267.173M264.336 236.002L270.905 234.331" stroke="white" stroke-width="1.5" stroke-miterlimit="50" stroke-linecap="square"/>
<path d="M319.312 240.266C319.312 240.208 333.027 227.705 333.027 227.705L349.278 224.306C349.278 224.306 335.908 211.457 315.393 227.936L319.312 240.266Z" fill="#FACAB0"/>
<path d="M390.654 185.99L391.692 194.46L380.8 194.287M264.969 208.403L270.905 234.447L313.607 222.116L319.6 240.554L333.488 226.956L371.407 221.943C371.407 221.943 382.356 220.215 387.773 223.672" stroke="white" stroke-width="1.5" stroke-miterlimit="50" stroke-linecap="square"/>
<path d="M230.681 179.306V266.885H53.8237V198.666L73.1864 179.306H230.681ZM575.349 183.973V252.654H437.62L418.258 233.352V184.031L575.349 183.973ZM191.034 362.703H367.603V281.29H171.671V343.286L191.034 362.703ZM519.105 116.964H484.644V59.0005H519.105V116.964Z" fill="#432FC6"/>
<path d="M192.071 58.8852C182.678 58.8852 176.858 48.6869 181.698 40.6204C186.366 32.7268 197.776 32.7268 202.502 40.6204C207.285 48.6869 201.464 58.8852 192.071 58.8852Z" fill="#CCF381"/>
<path d="M291.19 87.0603C291.19 91.3241 287.732 94.8387 283.41 94.8387C279.088 94.8387 275.63 91.3817 275.63 87.0603C275.63 82.7966 279.088 79.2819 283.41 79.2819C287.732 79.3396 291.19 82.7966 291.19 87.0603ZM288.827 73.693H278.051V30.9983H288.827V73.693Z" fill="#432FC6"/>
<path d="M144.932 249.312C144.932 250.81 143.78 252.02 142.281 252.02C140.783 252.02 139.573 250.867 139.573 249.369V249.312C139.573 247.814 140.841 246.661 142.281 246.661C143.722 246.719 144.875 247.871 144.932 249.312ZM512.19 83.027C512.19 84.3522 511.095 85.447 509.769 85.447C508.444 85.447 507.349 84.3522 507.349 83.027C507.349 81.7018 508.444 80.6071 509.769 80.6071C511.095 80.6071 512.19 81.7018 512.19 83.027ZM511.441 78.8209H508.041V65.396H511.441V78.8209Z" fill="#CCF381"/>
<path d="M556.332 198.436H564.861M560.597 194.172V202.699M180.142 294.369H189.42M184.752 289.702V298.979M61.9491 255.823H70.7084M66.3288 251.444V260.202M214.891 190.484H225.091M219.963 185.414V195.612M412.264 118.808H419.18" stroke="#FFEB5C" stroke-width="2" stroke-miterlimit="50"/>
<path d="M415.722 115.351V122.265" stroke="#FFEB5C" stroke-width="2" stroke-miterlimit="50"/>
<path d="M488.678 109.243H494.729" stroke="#FFEB5C" stroke-width="2" stroke-miterlimit="50"/>
<path d="M491.732 106.247V112.297" stroke="#FFEB5C" stroke-width="2" stroke-miterlimit="50"/>
<path d="M535.932 368.35H486.488V327.729H535.932V368.35Z" fill="#432FC6"/>
<path d="M535.932 368.35H486.488V327.729H535.932V368.35Z" fill="#432FC6"/>
<path d="M506.6 348.069H515.82" stroke="#FFEB5C" stroke-width="2" stroke-miterlimit="50"/>
<path d="M511.21 343.459V352.678" stroke="#FFEB5C" stroke-width="2" stroke-miterlimit="50"/>
<path d="M193.224 123.475C193.224 125.146 191.841 126.529 190.169 126.529C188.498 126.529 187.115 125.146 187.115 123.475C187.115 121.804 188.498 120.421 190.169 120.421C191.841 120.421 193.224 121.804 193.224 123.475Z" fill="#432FC6"/>
<path d="M192.244 118.232H188.037V101.522H192.244V118.232Z" fill="#432FC6"/>
<path d="M233.448 76.6316L242.034 85.2166" stroke="#FFEB5C" stroke-width="2" stroke-miterlimit="50"/>
<path d="M242.034 76.6316L233.448 85.2166" stroke="#FFEB5C" stroke-width="2" stroke-miterlimit="50"/>
<path d="M277.244 171.125L270.617 170.318L276.783 175.158L277.244 171.125Z" fill="#24272D"/>
<path d="M331.817 219.812C331.817 219.812 342.478 216.988 349.278 224.248" stroke="white" stroke-width="1.5" stroke-miterlimit="50" stroke-linecap="square"/>
<path d="M272.922 171.297H275.169C286.176 171.182 294.359 160.408 292.169 148.942L289.634 135.574C287.963 126.644 280.471 120.306 271.942 120.479C262.203 120.709 254.539 129.294 254.769 139.608L255.058 153.033C255.346 163.231 263.298 171.413 272.922 171.297Z" fill="#FACAB0"/>
<path d="M279.952 142.431L281.739 149.691C282.2 151.535 281.105 153.436 279.203 153.897L278.8 154.012" stroke="#252B2D" stroke-width="1.5" stroke-miterlimit="50" stroke-linecap="round" stroke-linejoin="round"/>
<path d="M262.319 153.494L265.085 133.27L265.719 128.488C267.044 129.582 268.542 130.447 270.156 131.08C275.976 133.328 292.285 130.101 293.149 118.289C293.841 108.667 284.505 115.293 279.319 115.351C271.193 115.408 264.969 111.375 254.712 118.693C242.437 127.451 250.851 144.16 250.851 144.16C250.851 144.16 256.383 141.164 262.319 153.494Z" fill="#24272D"/>
<path d="M270.386 145.6C270.905 146.522 272.058 146.868 273.037 146.349C273.959 145.831 274.305 144.678 273.786 143.699C273.268 142.777 272.058 142.489 271.136 143.007C270.214 143.583 269.868 144.678 270.386 145.6Z" fill="#24272D"/>
<path d="M282.258 144.333C282.776 145.254 283.929 145.6 284.909 145.082C285.831 144.563 286.176 143.411 285.658 142.431C285.139 141.509 283.929 141.221 283.007 141.74C282.085 142.316 281.739 143.468 282.258 144.333Z" fill="#24272D"/>
<path d="M270.329 157.815C270.329 157.815 270.905 161.791 275.4 162.021" stroke="#252B2D" stroke-width="1.5" stroke-miterlimit="50" stroke-linecap="round" stroke-linejoin="round"/>
<path d="M263.471 160.177C266.41 157.815 266.929 153.436 264.566 150.498L260.417 145.312C258.054 142.373 253.675 141.855 250.736 144.217C247.797 146.58 247.278 150.959 249.641 153.897L253.79 159.083C256.153 162.079 260.532 162.54 263.471 160.177Z" fill="#FACAB0"/>
<path d="M253.098 149.921L257.247 153.321" stroke="#252B2D" stroke-width="1.5" stroke-miterlimit="50" stroke-linecap="round" stroke-linejoin="round"/>
<path d="M73.1864 179.306V198.666H53.8237L73.1864 179.306Z" fill="#3D155F"/>
<path d="M191.034 362.704L171.671 343.344H191.034V362.704Z" fill="#3D155F"/>
<path d="M437.678 233.352V252.711L418.258 233.352H437.678Z" fill="#3D155F"/>
<path d="M407.424 14.9231L426.786 34.2827H407.424V14.9231Z" fill="#3D155F"/>
<path d="M166.254 160.465H123.552V99.2755L133.291 90.8633H166.254V160.465Z" fill="#432FC6"/>
<path d="M133.291 99.2755H123.552L133.291 90.8633V99.2755Z" fill="#3D155F"/>
<path d="M157.552 98.8145H162.163M159.858 96.5098V101.119" stroke="#FFEB5C" stroke-width="1.5" stroke-miterlimit="10"/>
<path d="M211.292 325.962L205.33 314.808H209.268L212.986 322.288L216.616 314.808H220.554L214.482 325.962V331H211.292V325.962ZM224.532 331.264C223.638 331.264 222.824 331.088 222.09 330.736C221.372 330.369 220.8 329.812 220.374 329.064C219.949 328.316 219.736 327.363 219.736 326.204C219.736 325.119 219.956 324.18 220.396 323.388C220.836 322.596 221.416 321.987 222.134 321.562C222.853 321.122 223.616 320.902 224.422 320.902C225.361 320.902 226.072 321.056 226.556 321.364C227.04 321.657 227.444 321.995 227.766 322.376L227.964 321.386H230.824V331H227.744V329.812C227.598 329.959 227.378 330.149 227.084 330.384C226.806 330.619 226.454 330.824 226.028 331C225.603 331.176 225.104 331.264 224.532 331.264ZM225.412 328.756C226.483 328.756 227.26 328.272 227.744 327.304V324.95C227.568 324.481 227.26 324.107 226.82 323.828C226.395 323.549 225.889 323.41 225.302 323.41C224.642 323.41 224.07 323.659 223.586 324.158C223.102 324.642 222.86 325.273 222.86 326.05C222.86 326.563 222.978 327.025 223.212 327.436C223.447 327.847 223.755 328.169 224.136 328.404C224.532 328.639 224.958 328.756 225.412 328.756ZM236.792 321.386L237.012 322.926C237.349 322.325 237.826 321.841 238.442 321.474C239.058 321.107 239.806 320.924 240.686 320.924C241.595 320.924 242.351 321.195 242.952 321.738C243.568 322.266 243.883 322.955 243.898 323.806V331H240.818V324.95C240.803 324.525 240.686 324.187 240.466 323.938C240.261 323.674 239.909 323.542 239.41 323.542C238.691 323.542 238.119 323.879 237.694 324.554C237.283 325.214 237.078 326.057 237.078 327.084V331H233.998V321.386H236.792ZM247.963 317.162H251.043V321.342H253.375V323.74H251.043V331H247.963V323.74H246.467V321.342H247.963V317.162ZM259.767 331.264C258.872 331.264 258.058 331.088 257.325 330.736C256.606 330.369 256.034 329.812 255.609 329.064C255.183 328.316 254.971 327.363 254.971 326.204C254.971 325.119 255.191 324.18 255.631 323.388C256.071 322.596 256.65 321.987 257.369 321.562C258.087 321.122 258.85 320.902 259.657 320.902C260.595 320.902 261.307 321.056 261.791 321.364C262.275 321.657 262.678 321.995 263.001 322.376L263.199 321.386H266.059V331H262.979V329.812C262.832 329.959 262.612 330.149 262.319 330.384C262.04 330.619 261.688 330.824 261.263 331C260.837 331.176 260.339 331.264 259.767 331.264ZM260.647 328.756C261.717 328.756 262.495 328.272 262.979 327.304V324.95C262.803 324.481 262.495 324.107 262.055 323.828C261.629 323.549 261.123 323.41 260.537 323.41C259.877 323.41 259.305 323.659 258.821 324.158C258.337 324.642 258.095 325.273 258.095 326.05C258.095 326.563 258.212 327.025 258.447 327.436C258.681 327.847 258.989 328.169 259.371 328.404C259.767 328.639 260.192 328.756 260.647 328.756ZM272.004 321.386L272.246 323.586C272.525 323.029 272.906 322.552 273.39 322.156C273.874 321.745 274.351 321.437 274.82 321.232C275.29 321.012 275.649 320.902 275.898 320.902L275.744 323.982C275.026 323.894 274.41 324.011 273.896 324.334C273.383 324.657 272.987 325.082 272.708 325.61C272.43 326.138 272.29 326.681 272.29 327.238V331H269.232V321.386H272.004ZM281.05 321.386L281.27 322.926C281.607 322.325 282.084 321.841 282.7 321.474C283.316 321.107 284.064 320.924 284.944 320.924C285.853 320.924 286.609 321.195 287.21 321.738C287.826 322.266 288.141 322.955 288.156 323.806V331H285.076V324.95C285.061 324.525 284.944 324.187 284.724 323.938C284.519 323.674 284.167 323.542 283.668 323.542C282.949 323.542 282.377 323.879 281.952 324.554C281.541 325.214 281.336 326.057 281.336 327.084V331H278.256V321.386H281.05ZM296.048 331.264C294.875 331.264 293.878 331.044 293.056 330.604C292.25 330.164 291.634 329.555 291.208 328.778C290.783 328.001 290.57 327.106 290.57 326.094C290.57 325.126 290.82 324.253 291.318 323.476C291.817 322.699 292.484 322.083 293.32 321.628C294.156 321.159 295.088 320.924 296.114 320.924C297.493 320.924 298.622 321.327 299.502 322.134C300.397 322.926 300.976 324.077 301.24 325.588L294.2 327.832C294.67 328.375 295.308 328.646 296.114 328.646C296.452 328.646 296.774 328.587 297.082 328.47C297.405 328.353 297.72 328.199 298.028 328.008L299.392 330.296C298.879 330.589 298.322 330.824 297.72 331C297.134 331.176 296.576 331.264 296.048 331.264ZM293.606 326.116L297.83 324.686C297.698 324.319 297.486 324.004 297.192 323.74C296.899 323.461 296.459 323.322 295.872 323.322C295.183 323.322 294.633 323.557 294.222 324.026C293.812 324.495 293.606 325.126 293.606 325.918C293.606 325.977 293.606 326.043 293.606 326.116ZM302.225 329.416C302.225 328.961 302.386 328.58 302.709 328.272C303.046 327.964 303.413 327.81 303.809 327.81C304.175 327.81 304.52 327.964 304.843 328.272C305.18 328.58 305.349 328.961 305.349 329.416C305.349 329.9 305.18 330.289 304.843 330.582C304.52 330.861 304.175 331 303.809 331C303.413 331 303.046 330.861 302.709 330.582C302.386 330.289 302.225 329.9 302.225 329.416ZM307.766 314.808H317.886V317.888H310.956V321.562H316.962V324.642H310.956V331H307.766V314.808ZM320.957 331V314.148H320.979L329.185 325.786L337.589 314.148H337.633V331H334.443V323.278L329.163 330.78H329.119L324.037 323.762V331H320.957Z" fill="#CCF381"/>
<path d="M79.52 232V219.744H79.536L85.504 228.208L91.616 219.744H91.648V232H89.328V226.384L85.488 231.84H85.456L81.76 226.736V232H79.52ZM94.8839 235.36L96.5639 231.632L93.3319 225.008H95.8439L97.6839 229.136L99.5399 225.008H101.556L97.0439 235.36H94.8839ZM102.871 232V219.376H105.111V227.28L108.439 224.832L109.799 226.032L107.319 227.904L110.055 232H107.447L105.735 229.088L105.111 229.552V232H102.871ZM110.905 228.416C110.905 227.701 111.07 227.061 111.401 226.496C111.742 225.931 112.217 225.488 112.825 225.168C113.433 224.837 114.132 224.672 114.921 224.672C115.721 224.672 116.414 224.837 117.001 225.168C117.588 225.488 118.036 225.931 118.345 226.496C118.665 227.061 118.825 227.701 118.825 228.416C118.825 229.131 118.665 229.776 118.345 230.352C118.036 230.917 117.588 231.365 117.001 231.696C116.414 232.027 115.71 232.192 114.889 232.192C114.121 232.192 113.433 232.043 112.825 231.744C112.228 231.445 111.758 231.013 111.417 230.448C111.076 229.883 110.905 229.205 110.905 228.416ZM113.161 228.432C113.161 228.987 113.321 229.451 113.641 229.824C113.961 230.187 114.366 230.368 114.857 230.368C115.38 230.368 115.796 230.187 116.105 229.824C116.414 229.451 116.569 228.987 116.569 228.432C116.569 227.877 116.414 227.419 116.105 227.056C115.796 226.683 115.38 226.496 114.857 226.496C114.366 226.496 113.961 226.683 113.641 227.056C113.321 227.419 113.161 227.877 113.161 228.432ZM120.59 219.376H122.83V232H120.59V219.376ZM128.08 232.192C127.43 232.192 126.838 232.064 126.304 231.808C125.782 231.541 125.366 231.136 125.056 230.592C124.747 230.048 124.592 229.355 124.592 228.512C124.592 227.723 124.752 227.04 125.072 226.464C125.392 225.888 125.814 225.445 126.336 225.136C126.859 224.816 127.414 224.656 128 224.656C128.683 224.656 129.2 224.768 129.552 224.992C129.904 225.205 130.198 225.451 130.432 225.728L130.576 225.008H132.656V232H130.416V231.136C130.31 231.243 130.15 231.381 129.936 231.552C129.734 231.723 129.478 231.872 129.168 232C128.859 232.128 128.496 232.192 128.08 232.192ZM128.72 230.368C129.499 230.368 130.064 230.016 130.416 229.312V227.6C130.288 227.259 130.064 226.987 129.744 226.784C129.435 226.581 129.067 226.48 128.64 226.48C128.16 226.48 127.744 226.661 127.392 227.024C127.04 227.376 126.864 227.835 126.864 228.4C126.864 228.773 126.95 229.109 127.12 229.408C127.291 229.707 127.515 229.941 127.792 230.112C128.08 230.283 128.39 230.368 128.72 230.368ZM137.237 232.144C136.661 232.144 136.122 232.043 135.621 231.84C135.13 231.637 134.714 231.355 134.373 230.992L135.301 229.76C135.642 230.069 135.957 230.293 136.245 230.432C136.543 230.56 136.81 230.624 137.045 230.624C137.322 230.624 137.551 230.581 137.733 230.496C137.914 230.411 138.005 230.272 138.005 230.08C138.005 229.899 137.93 229.755 137.781 229.648C137.642 229.541 137.461 229.456 137.237 229.392C137.013 229.317 136.773 229.243 136.517 229.168C135.877 228.965 135.413 228.672 135.125 228.288C134.847 227.893 134.709 227.467 134.709 227.008C134.709 226.656 134.799 226.304 134.981 225.952C135.173 225.589 135.471 225.291 135.877 225.056C136.293 224.811 136.826 224.688 137.477 224.688C138.063 224.688 138.559 224.747 138.965 224.864C139.37 224.981 139.754 225.173 140.117 225.44L139.269 226.752C139.066 226.592 138.837 226.459 138.581 226.352C138.335 226.235 138.106 226.171 137.893 226.16C137.605 226.149 137.381 226.203 137.221 226.32C137.061 226.427 136.981 226.555 136.981 226.704C136.97 226.96 137.087 227.147 137.333 227.264C137.589 227.371 137.871 227.467 138.181 227.552C138.255 227.573 138.325 227.595 138.389 227.616C138.463 227.637 138.533 227.659 138.597 227.68C139.098 227.851 139.498 228.096 139.797 228.416C140.095 228.725 140.245 229.141 140.245 229.664C140.245 230.091 140.133 230.496 139.909 230.88C139.695 231.253 139.365 231.557 138.917 231.792C138.479 232.027 137.919 232.144 137.237 232.144ZM141.833 227.36H144.841V229.312H141.833V227.36ZM150.627 235.52C149.998 235.52 149.465 235.445 149.027 235.296C148.601 235.147 148.238 234.965 147.939 234.752C147.641 234.539 147.374 234.336 147.139 234.144L148.451 232.608C148.697 232.832 148.979 233.045 149.299 233.248C149.63 233.461 150.062 233.568 150.595 233.568C151.129 233.568 151.593 233.429 151.987 233.152C152.393 232.885 152.595 232.491 152.595 231.968V230.976C152.393 231.307 152.078 231.595 151.651 231.84C151.225 232.075 150.67 232.192 149.987 232.192C149.358 232.192 148.771 232.032 148.227 231.712C147.694 231.381 147.267 230.939 146.947 230.384C146.627 229.819 146.467 229.179 146.467 228.464C146.467 227.728 146.638 227.077 146.979 226.512C147.321 225.936 147.763 225.483 148.307 225.152C148.851 224.821 149.427 224.656 150.035 224.656C150.643 224.656 151.166 224.741 151.603 224.912C152.041 225.083 152.371 225.296 152.595 225.552L152.771 225.008H154.835V232C154.835 232.683 154.643 233.285 154.259 233.808C153.875 234.341 153.363 234.757 152.723 235.056C152.094 235.365 151.395 235.52 150.627 235.52ZM148.723 228.4C148.723 228.955 148.91 229.424 149.283 229.808C149.657 230.181 150.115 230.368 150.659 230.368C151.555 230.368 152.201 230.016 152.595 229.312V227.6C152.446 227.259 152.201 226.987 151.859 226.784C151.518 226.581 151.118 226.48 150.659 226.48C150.115 226.48 149.657 226.661 149.283 227.024C148.91 227.376 148.723 227.835 148.723 228.4ZM160.08 232.192C159.43 232.192 158.838 232.064 158.304 231.808C157.782 231.541 157.366 231.136 157.056 230.592C156.747 230.048 156.592 229.355 156.592 228.512C156.592 227.723 156.752 227.04 157.072 226.464C157.392 225.888 157.814 225.445 158.336 225.136C158.859 224.816 159.414 224.656 160 224.656C160.683 224.656 161.2 224.768 161.552 224.992C161.904 225.205 162.198 225.451 162.432 225.728L162.576 225.008H164.656V232H162.416V231.136C162.31 231.243 162.15 231.381 161.936 231.552C161.734 231.723 161.478 231.872 161.168 232C160.859 232.128 160.496 232.192 160.08 232.192ZM160.72 230.368C161.499 230.368 162.064 230.016 162.416 229.312V227.6C162.288 227.259 162.064 226.987 161.744 226.784C161.435 226.581 161.067 226.48 160.64 226.48C160.16 226.48 159.744 226.661 159.392 227.024C159.04 227.376 158.864 227.835 158.864 228.4C158.864 228.773 158.95 229.109 159.12 229.408C159.291 229.707 159.515 229.941 159.792 230.112C160.08 230.283 160.39 230.368 160.72 230.368ZM168.053 226.832C167.669 226.832 167.333 226.693 167.045 226.416C166.757 226.139 166.613 225.765 166.613 225.296V224.336H168.293V224.56C168.293 224.784 168.33 224.917 168.405 224.96C168.49 224.992 168.634 225.008 168.837 225.008H173.269L169.717 230.176H173.221V232H166.133L169.685 226.832H168.053ZM178.764 232.192C177.911 232.192 177.185 232.032 176.588 231.712C176.001 231.392 175.553 230.949 175.244 230.384C174.935 229.819 174.78 229.168 174.78 228.432C174.78 227.728 174.961 227.093 175.324 226.528C175.687 225.963 176.172 225.515 176.78 225.184C177.388 224.843 178.065 224.672 178.812 224.672C179.815 224.672 180.636 224.965 181.276 225.552C181.927 226.128 182.348 226.965 182.54 228.064L177.42 229.696C177.761 230.091 178.225 230.288 178.812 230.288C179.057 230.288 179.292 230.245 179.516 230.16C179.751 230.075 179.98 229.963 180.204 229.824L181.196 231.488C180.823 231.701 180.417 231.872 179.98 232C179.553 232.128 179.148 232.192 178.764 232.192ZM176.988 228.448L180.06 227.408C179.964 227.141 179.809 226.912 179.596 226.72C179.383 226.517 179.063 226.416 178.636 226.416C178.135 226.416 177.735 226.587 177.436 226.928C177.137 227.269 176.988 227.728 176.988 228.304C176.988 228.347 176.988 228.395 176.988 228.448ZM188.76 232.192C188.226 232.192 187.768 232.112 187.384 231.952C187.01 231.792 186.685 231.573 186.408 231.296V232H184.168V219.376H186.392V225.488C186.669 225.253 187.037 225.056 187.496 224.896C187.954 224.736 188.477 224.656 189.064 224.656C189.672 224.656 190.226 224.8 190.728 225.088C191.229 225.376 191.629 225.797 191.928 226.352C192.237 226.896 192.392 227.563 192.392 228.352C192.392 229.141 192.221 229.824 191.88 230.4C191.549 230.976 191.106 231.419 190.552 231.728C189.997 232.037 189.4 232.192 188.76 232.192ZM188.264 230.304C188.594 230.304 188.898 230.219 189.176 230.048C189.464 229.877 189.693 229.643 189.864 229.344C190.034 229.045 190.12 228.709 190.12 228.336C190.12 227.963 190.034 227.632 189.864 227.344C189.693 227.056 189.464 226.832 189.176 226.672C188.898 226.501 188.594 226.416 188.264 226.416C187.826 226.416 187.442 226.517 187.112 226.72C186.781 226.923 186.546 227.195 186.408 227.536V229.248C186.792 229.952 187.41 230.304 188.264 230.304ZM193.608 228.416C193.608 227.701 193.773 227.061 194.104 226.496C194.445 225.931 194.92 225.488 195.528 225.168C196.136 224.837 196.835 224.672 197.624 224.672C198.424 224.672 199.117 224.837 199.704 225.168C200.291 225.488 200.739 225.931 201.048 226.496C201.368 227.061 201.528 227.701 201.528 228.416C201.528 229.131 201.368 229.776 201.048 230.352C200.739 230.917 200.291 231.365 199.704 231.696C199.117 232.027 198.413 232.192 197.592 232.192C196.824 232.192 196.136 232.043 195.528 231.744C194.931 231.445 194.461 231.013 194.12 230.448C193.779 229.883 193.608 229.205 193.608 228.416ZM195.864 228.432C195.864 228.987 196.024 229.451 196.344 229.824C196.664 230.187 197.069 230.368 197.56 230.368C198.083 230.368 198.499 230.187 198.808 229.824C199.117 229.451 199.272 228.987 199.272 228.432C199.272 227.877 199.117 227.419 198.808 227.056C198.499 226.683 198.083 226.496 197.56 226.496C197.069 226.496 196.664 226.683 196.344 227.056C196.024 227.419 195.864 227.877 195.864 228.432ZM205.565 232.144C204.989 232.144 204.45 232.043 203.949 231.84C203.458 231.637 203.042 231.355 202.701 230.992L203.629 229.76C203.97 230.069 204.285 230.293 204.573 230.432C204.871 230.56 205.138 230.624 205.373 230.624C205.65 230.624 205.879 230.581 206.061 230.496C206.242 230.411 206.333 230.272 206.333 230.08C206.333 229.899 206.258 229.755 206.109 229.648C205.97 229.541 205.789 229.456 205.565 229.392C205.341 229.317 205.101 229.243 204.845 229.168C204.205 228.965 203.741 228.672 203.453 228.288C203.175 227.893 203.037 227.467 203.037 227.008C203.037 226.656 203.127 226.304 203.309 225.952C203.501 225.589 203.799 225.291 204.205 225.056C204.621 224.811 205.154 224.688 205.805 224.688C206.391 224.688 206.887 224.747 207.293 224.864C207.698 224.981 208.082 225.173 208.445 225.44L207.597 226.752C207.394 226.592 207.165 226.459 206.909 226.352C206.663 226.235 206.434 226.171 206.221 226.16C205.933 226.149 205.709 226.203 205.549 226.32C205.389 226.427 205.309 226.555 205.309 226.704C205.298 226.96 205.415 227.147 205.661 227.264C205.917 227.371 206.199 227.467 206.509 227.552C206.583 227.573 206.653 227.595 206.717 227.616C206.791 227.637 206.861 227.659 206.925 227.68C207.426 227.851 207.826 228.096 208.125 228.416C208.423 228.725 208.573 229.141 208.573 229.664C208.573 230.091 208.461 230.496 208.237 230.88C208.023 231.253 207.693 231.557 207.245 231.792C206.807 232.027 206.247 232.144 205.565 232.144Z" fill="#CCF381"/>
<path d="M139.936 143.192V140.952H142.976V139.256H144.72V140.952H150V143.192H144.72V144.28H142.976V143.192H139.936ZM146.416 138.095C145.701 138.095 145.061 137.93 144.496 137.599C143.931 137.258 143.488 136.783 143.168 136.175C142.837 135.567 142.672 134.868 142.672 134.079C142.672 133.279 142.837 132.586 143.168 131.999C143.488 131.412 143.931 130.964 144.496 130.655C145.061 130.335 145.701 130.175 146.416 130.175C147.131 130.175 147.776 130.335 148.352 130.655C148.917 130.964 149.365 131.412 149.696 131.999C150.027 132.586 150.192 133.29 150.192 134.111C150.192 134.879 150.043 135.567 149.744 136.175C149.445 136.772 149.013 137.242 148.448 137.583C147.883 137.924 147.205 138.095 146.416 138.095ZM146.432 135.839C146.987 135.839 147.451 135.679 147.824 135.359C148.187 135.039 148.368 134.634 148.368 134.143C148.368 133.62 148.187 133.204 147.824 132.895C147.451 132.586 146.987 132.431 146.432 132.431C145.877 132.431 145.419 132.586 145.056 132.895C144.683 133.204 144.496 133.62 144.496 134.143C144.496 134.634 144.683 135.039 145.056 135.359C145.419 135.679 145.877 135.839 146.432 135.839ZM150.192 125.562C150.192 126.213 150.043 126.794 149.744 127.306C149.435 127.818 148.992 128.224 148.416 128.522C147.84 128.81 147.157 128.954 146.368 128.954C145.579 128.954 144.907 128.794 144.352 128.474C143.797 128.154 143.376 127.717 143.088 127.162C142.8 126.608 142.656 125.978 142.656 125.274C142.656 124.826 142.725 124.4 142.864 123.994C143.003 123.578 143.216 123.232 143.504 122.954H137.376V120.73H150V122.97H149.264C149.531 123.312 149.755 123.696 149.936 124.122C150.107 124.549 150.192 125.029 150.192 125.562ZM148.304 124.826C148.304 124.378 148.219 124.005 148.048 123.706C147.867 123.408 147.6 123.162 147.248 122.97H145.536C145.195 123.098 144.923 123.328 144.72 123.658C144.517 123.989 144.416 124.378 144.416 124.826C144.416 125.157 144.501 125.466 144.672 125.754C144.832 126.032 145.056 126.256 145.344 126.426C145.632 126.597 145.963 126.682 146.336 126.682C146.709 126.682 147.045 126.597 147.344 126.426C147.643 126.256 147.877 126.032 148.048 125.754C148.219 125.466 148.304 125.157 148.304 124.826ZM146.416 118.97C145.701 118.97 145.061 118.805 144.496 118.474C143.931 118.133 143.488 117.658 143.168 117.05C142.837 116.442 142.672 115.743 142.672 114.954C142.672 114.154 142.837 113.461 143.168 112.874C143.488 112.287 143.931 111.839 144.496 111.53C145.061 111.21 145.701 111.05 146.416 111.05C147.131 111.05 147.776 111.21 148.352 111.53C148.917 111.839 149.365 112.287 149.696 112.874C150.027 113.461 150.192 114.165 150.192 114.986C150.192 115.754 150.043 116.442 149.744 117.05C149.445 117.647 149.013 118.117 148.448 118.458C147.883 118.799 147.205 118.97 146.416 118.97ZM146.432 116.714C146.987 116.714 147.451 116.554 147.824 116.234C148.187 115.914 148.368 115.509 148.368 115.018C148.368 114.495 148.187 114.079 147.824 113.77C147.451 113.461 146.987 113.306 146.432 113.306C145.877 113.306 145.419 113.461 145.056 113.77C144.683 114.079 144.496 114.495 144.496 115.018C144.496 115.509 144.683 115.914 145.056 116.234C145.419 116.554 145.877 116.714 146.432 116.714Z" fill="#CCF381"/>
<path d="M441.06 214.476L441.204 215.844C441.48 215.316 441.864 214.908 442.356 214.62C442.86 214.32 443.43 214.17 444.066 214.17C444.678 214.17 445.188 214.314 445.596 214.602C446.016 214.878 446.28 215.268 446.388 215.772C446.7 215.268 447.096 214.878 447.576 214.602C448.056 214.314 448.566 214.17 449.106 214.17C449.85 214.17 450.438 214.38 450.87 214.8C451.302 215.208 451.524 215.748 451.536 216.42V222H449.736V217.104C449.724 216.72 449.634 216.402 449.466 216.15C449.31 215.898 449.022 215.76 448.602 215.736C448.17 215.736 447.786 215.868 447.45 216.132C447.126 216.396 446.868 216.738 446.676 217.158C446.496 217.578 446.4 218.028 446.388 218.508V222H444.57V217.104C444.558 216.72 444.462 216.402 444.282 216.15C444.114 215.898 443.82 215.76 443.4 215.736C442.98 215.736 442.602 215.868 442.266 216.132C441.942 216.396 441.69 216.744 441.51 217.176C441.33 217.596 441.24 218.046 441.24 218.526V222H439.422V214.476H441.06ZM453.733 218.166C453.733 217.41 453.913 216.732 454.273 216.132C454.633 215.52 455.131 215.04 455.767 214.692C456.403 214.344 457.129 214.17 457.945 214.17C458.773 214.17 459.493 214.344 460.105 214.692C460.729 215.04 461.209 215.52 461.545 216.132C461.893 216.732 462.067 217.41 462.067 218.166C462.067 218.922 461.893 219.606 461.545 220.218C461.197 220.818 460.711 221.298 460.087 221.658C459.475 222.006 458.749 222.18 457.909 222.18C457.117 222.18 456.403 222.018 455.767 221.694C455.143 221.37 454.645 220.908 454.273 220.308C453.913 219.696 453.733 218.982 453.733 218.166ZM455.569 218.184C455.569 218.652 455.671 219.078 455.875 219.462C456.079 219.834 456.355 220.134 456.703 220.362C457.063 220.578 457.459 220.686 457.891 220.686C458.575 220.686 459.133 220.446 459.565 219.966C460.009 219.486 460.231 218.892 460.231 218.184C460.231 217.476 460.009 216.882 459.565 216.402C459.133 215.91 458.575 215.664 457.891 215.664C457.447 215.664 457.051 215.778 456.703 216.006C456.355 216.234 456.079 216.54 455.875 216.924C455.671 217.308 455.569 217.728 455.569 218.184ZM465.898 214.476L466.024 215.88C466.276 215.364 466.666 214.956 467.194 214.656C467.722 214.344 468.334 214.188 469.03 214.188C469.738 214.188 470.32 214.398 470.776 214.818C471.232 215.226 471.466 215.766 471.478 216.438V222H469.66V217.068C469.648 216.684 469.534 216.372 469.318 216.132C469.102 215.88 468.766 215.748 468.31 215.736C467.674 215.736 467.14 216 466.708 216.528C466.288 217.056 466.078 217.734 466.078 218.562V222H464.26V214.476H465.898ZM473.684 218.166C473.684 217.41 473.864 216.732 474.224 216.132C474.584 215.52 475.082 215.04 475.718 214.692C476.354 214.344 477.08 214.17 477.896 214.17C478.724 214.17 479.444 214.344 480.056 214.692C480.68 215.04 481.16 215.52 481.496 216.132C481.844 216.732 482.018 217.41 482.018 218.166C482.018 218.922 481.844 219.606 481.496 220.218C481.148 220.818 480.662 221.298 480.038 221.658C479.426 222.006 478.7 222.18 477.86 222.18C477.068 222.18 476.354 222.018 475.718 221.694C475.094 221.37 474.596 220.908 474.224 220.308C473.864 219.696 473.684 218.982 473.684 218.166ZM475.52 218.184C475.52 218.652 475.622 219.078 475.826 219.462C476.03 219.834 476.306 220.134 476.654 220.362C477.014 220.578 477.41 220.686 477.842 220.686C478.526 220.686 479.084 220.446 479.516 219.966C479.96 219.486 480.182 218.892 480.182 218.184C480.182 217.476 479.96 216.882 479.516 216.402C479.084 215.91 478.526 215.664 477.842 215.664C477.398 215.664 477.002 215.778 476.654 216.006C476.306 216.234 476.03 216.54 475.826 216.924C475.622 217.308 475.52 217.728 475.52 218.184ZM488.873 222.18C488.249 222.18 487.697 222.066 487.217 221.838C486.737 221.598 486.341 221.286 486.029 220.902V222H484.211V208.014H486.029V215.394C486.329 215.034 486.749 214.74 487.289 214.512C487.829 214.284 488.435 214.17 489.107 214.17C489.779 214.17 490.391 214.332 490.943 214.656C491.495 214.968 491.939 215.418 492.275 216.006C492.611 216.594 492.779 217.296 492.779 218.112C492.779 218.964 492.593 219.696 492.221 220.308C491.861 220.908 491.387 221.37 490.799 221.694C490.211 222.018 489.569 222.18 488.873 222.18ZM488.477 220.65C488.945 220.65 489.365 220.542 489.737 220.326C490.109 220.098 490.397 219.792 490.601 219.408C490.817 219.024 490.925 218.592 490.925 218.112C490.925 217.632 490.817 217.206 490.601 216.834C490.385 216.462 490.091 216.168 489.719 215.952C489.359 215.724 488.945 215.61 488.477 215.61C487.877 215.61 487.355 215.766 486.911 216.078C486.467 216.39 486.173 216.804 486.029 217.32V218.904C486.185 219.408 486.473 219.828 486.893 220.164C487.325 220.488 487.853 220.65 488.477 220.65ZM498.119 222.18C497.411 222.18 496.769 222.03 496.193 221.73C495.617 221.43 495.161 220.992 494.825 220.416C494.489 219.828 494.321 219.102 494.321 218.238C494.321 217.398 494.495 216.678 494.843 216.078C495.203 215.466 495.671 214.998 496.247 214.674C496.835 214.338 497.471 214.17 498.155 214.17C498.851 214.17 499.427 214.314 499.883 214.602C500.339 214.878 500.699 215.214 500.963 215.61L501.089 214.476H502.763V222H500.945V220.812C500.813 220.98 500.615 221.172 500.351 221.388C500.087 221.604 499.769 221.79 499.397 221.946C499.025 222.102 498.599 222.18 498.119 222.18ZM498.605 220.686C499.205 220.686 499.709 220.53 500.117 220.218C500.537 219.894 500.813 219.456 500.945 218.904V217.356C500.801 216.864 500.507 216.456 500.063 216.132C499.631 215.808 499.127 215.646 498.551 215.646C498.119 215.646 497.723 215.754 497.363 215.97C497.003 216.174 496.715 216.468 496.499 216.852C496.283 217.224 496.175 217.656 496.175 218.148C496.175 218.628 496.283 219.06 496.499 219.444C496.727 219.828 497.027 220.134 497.399 220.362C497.771 220.578 498.173 220.686 498.605 220.686ZM507.242 214.476L507.368 215.88C507.62 215.364 508.01 214.956 508.538 214.656C509.066 214.344 509.678 214.188 510.374 214.188C511.082 214.188 511.664 214.398 512.12 214.818C512.576 215.226 512.81 215.766 512.822 216.438V222H511.004V217.068C510.992 216.684 510.878 216.372 510.662 216.132C510.446 215.88 510.11 215.748 509.654 215.736C509.018 215.736 508.484 216 508.052 216.528C507.632 217.056 507.422 217.734 507.422 218.562V222H505.604V214.476H507.242ZM515.676 222V208.014H517.494V217.338L521.328 214.314L522.426 215.286L519.672 217.482L522.786 222H520.662L518.43 218.472L517.494 219.21V222H515.676ZM524.331 217.302H527.679V218.886H524.331V217.302ZM533.398 222.18C532.69 222.18 532.048 222.03 531.472 221.73C530.896 221.43 530.44 220.992 530.104 220.416C529.768 219.828 529.6 219.102 529.6 218.238C529.6 217.398 529.774 216.678 530.122 216.078C530.482 215.466 530.95 214.998 531.526 214.674C532.114 214.338 532.75 214.17 533.434 214.17C534.13 214.17 534.706 214.314 535.162 214.602C535.618 214.878 535.978 215.214 536.242 215.61L536.368 214.476H538.042V222H536.224V220.812C536.092 220.98 535.894 221.172 535.63 221.388C535.366 221.604 535.048 221.79 534.676 221.946C534.304 222.102 533.878 222.18 533.398 222.18ZM533.884 220.686C534.484 220.686 534.988 220.53 535.396 220.218C535.816 219.894 536.092 219.456 536.224 218.904V217.356C536.08 216.864 535.786 216.456 535.342 216.132C534.91 215.808 534.406 215.646 533.83 215.646C533.398 215.646 533.002 215.754 532.642 215.97C532.282 216.174 531.994 216.468 531.778 216.852C531.562 217.224 531.454 217.656 531.454 218.148C531.454 218.628 531.562 219.06 531.778 219.444C532.006 219.828 532.306 220.134 532.678 220.362C533.05 220.578 533.452 220.686 533.884 220.686ZM545.383 222.18C544.855 222.18 544.351 222.072 543.871 221.856C543.391 221.64 543.001 221.334 542.701 220.938V225.618H540.883V214.35H542.449L542.611 215.574C542.971 215.166 543.415 214.83 543.943 214.566C544.471 214.302 545.065 214.17 545.725 214.17C546.433 214.17 547.069 214.338 547.633 214.674C548.197 215.01 548.641 215.484 548.965 216.096C549.289 216.696 549.451 217.404 549.451 218.22C549.451 219.036 549.271 219.744 548.911 220.344C548.563 220.932 548.083 221.388 547.471 221.712C546.859 222.024 546.163 222.18 545.383 222.18ZM545.023 220.74C545.491 220.74 545.917 220.632 546.301 220.416C546.697 220.2 547.009 219.906 547.237 219.534C547.477 219.15 547.597 218.718 547.597 218.238C547.597 217.746 547.489 217.308 547.273 216.924C547.057 216.54 546.763 216.24 546.391 216.024C546.019 215.808 545.605 215.7 545.149 215.7C544.525 215.7 543.997 215.868 543.565 216.204C543.145 216.54 542.857 216.984 542.701 217.536V218.886C542.797 219.426 543.061 219.87 543.493 220.218C543.925 220.566 544.435 220.74 545.023 220.74ZM556.141 222.18C555.613 222.18 555.109 222.072 554.629 221.856C554.149 221.64 553.759 221.334 553.459 220.938V225.618H551.641V214.35H553.207L553.369 215.574C553.729 215.166 554.173 214.83 554.701 214.566C555.229 214.302 555.823 214.17 556.483 214.17C557.191 214.17 557.827 214.338 558.391 214.674C558.955 215.01 559.399 215.484 559.723 216.096C560.047 216.696 560.209 217.404 560.209 218.22C560.209 219.036 560.029 219.744 559.669 220.344C559.321 220.932 558.841 221.388 558.229 221.712C557.617 222.024 556.921 222.18 556.141 222.18ZM555.781 220.74C556.249 220.74 556.675 220.632 557.059 220.416C557.455 220.2 557.767 219.906 557.995 219.534C558.235 219.15 558.355 218.718 558.355 218.238C558.355 217.746 558.247 217.308 558.031 216.924C557.815 216.54 557.521 216.24 557.149 216.024C556.777 215.808 556.363 215.7 555.907 215.7C555.283 215.7 554.755 215.868 554.323 216.204C553.903 216.54 553.615 216.984 553.459 217.536V218.886C553.555 219.426 553.819 219.87 554.251 220.218C554.683 220.566 555.193 220.74 555.781 220.74Z" fill="#CCF381"/>
<path d="M387.976 109.216C388.157 109.429 388.339 109.755 388.52 110.192C388.701 110.619 388.851 111.083 388.968 111.584C389.075 112.085 389.128 112.56 389.128 113.008C389.128 114.245 388.883 115.317 388.392 116.224C387.891 117.131 387.213 117.835 386.36 118.336C385.507 118.827 384.536 119.072 383.448 119.072C382.456 119.072 381.576 118.917 380.808 118.608C380.04 118.288 379.395 117.851 378.872 117.296C378.349 116.741 377.955 116.112 377.688 115.408C377.411 114.693 377.272 113.936 377.272 113.136C377.272 112.443 377.352 111.803 377.512 111.216C377.672 110.629 377.875 110.117 378.12 109.68L379.672 110.24C379.544 110.453 379.427 110.72 379.32 111.04C379.203 111.349 379.112 111.675 379.048 112.016C378.984 112.347 378.952 112.651 378.952 112.928C378.952 113.824 379.128 114.603 379.48 115.264C379.832 115.925 380.333 116.437 380.984 116.8C381.635 117.163 382.408 117.344 383.304 117.344C384.125 117.344 384.851 117.163 385.48 116.8C386.099 116.427 386.584 115.915 386.936 115.264C387.288 114.603 387.464 113.84 387.464 112.976C387.464 112.592 387.427 112.219 387.352 111.856C387.277 111.483 387.165 111.168 387.016 110.912H384.872V113.168H383.256V109.216H387.976ZM382.312 105.249L383.896 105.121C383.512 104.929 383.181 104.673 382.904 104.353C382.627 104.033 382.413 103.702 382.264 103.361C382.115 103.009 382.04 102.71 382.04 102.465L383.64 102.545C383.608 103.046 383.704 103.489 383.928 103.873C384.152 104.246 384.451 104.54 384.824 104.753C385.197 104.966 385.597 105.073 386.024 105.073H389V106.689H382.312V105.249ZM389.16 97.7406C389.16 98.5086 389.011 99.17 388.712 99.7246C388.403 100.279 387.981 100.706 387.448 101.005C386.904 101.303 386.291 101.453 385.608 101.453C384.947 101.453 384.349 101.287 383.816 100.957C383.272 100.615 382.84 100.162 382.52 99.5966C382.2 99.0313 382.04 98.402 382.04 97.7086C382.04 96.8126 382.301 96.0713 382.824 95.4846C383.336 94.8873 384.061 94.4873 385 94.2846L386.808 99.5166C387.117 99.3246 387.357 99.074 387.528 98.7646C387.699 98.4446 387.784 98.0926 387.784 97.7086C387.784 97.4206 387.736 97.1433 387.64 96.8766C387.533 96.61 387.395 96.3593 387.224 96.1246L388.424 95.3886C388.648 95.73 388.829 96.1086 388.968 96.5246C389.096 96.93 389.16 97.3353 389.16 97.7406ZM385.848 99.8366L384.488 96.1086C384.179 96.2473 383.907 96.4553 383.672 96.7326C383.437 96.9993 383.32 97.362 383.32 97.8206C383.32 98.418 383.528 98.9086 383.944 99.2926C384.349 99.666 384.872 99.8526 385.512 99.8526C385.629 99.8526 385.741 99.8473 385.848 99.8366ZM389.16 89.3344C389.16 90.1024 389.011 90.7637 388.712 91.3184C388.403 91.873 387.981 92.2997 387.448 92.5984C386.904 92.897 386.291 93.0464 385.608 93.0464C384.947 93.0464 384.349 92.881 383.816 92.5504C383.272 92.209 382.84 91.7557 382.52 91.1904C382.2 90.625 382.04 89.9957 382.04 89.3024C382.04 88.4064 382.301 87.665 382.824 87.0784C383.336 86.481 384.061 86.081 385 85.8784L386.808 91.1104C387.117 90.9184 387.357 90.6677 387.528 90.3584C387.699 90.0384 387.784 89.6864 387.784 89.3024C387.784 89.0144 387.736 88.737 387.64 88.4704C387.533 88.2037 387.395 87.953 387.224 87.7184L388.424 86.9824C388.648 87.3237 388.829 87.7024 388.968 88.1184C389.096 88.5237 389.16 88.929 389.16 89.3344ZM385.848 91.4304L384.488 87.7024C384.179 87.841 383.907 88.049 383.672 88.3264C383.437 88.593 383.32 88.9557 383.32 89.4144C383.32 90.0117 383.528 90.5024 383.944 90.8864C384.349 91.2597 384.872 91.4464 385.512 91.4464C385.629 91.4464 385.741 91.441 385.848 91.4304ZM382.312 82.6081L383.56 82.4961C383.101 82.2721 382.739 81.9255 382.472 81.4561C382.195 80.9868 382.056 80.4428 382.056 79.8241C382.056 79.1948 382.243 78.6775 382.616 78.2721C382.979 77.8668 383.459 77.6588 384.056 77.6481H389V79.2641H384.616C384.275 79.2748 383.997 79.3761 383.784 79.5681C383.56 79.7601 383.443 80.0588 383.432 80.4641C383.432 81.0295 383.667 81.5041 384.136 81.8881C384.605 82.2615 385.208 82.4481 385.944 82.4481H389V84.0641H382.312V82.6081ZM379.592 66.6169C379.379 67.0222 379.197 67.4595 379.048 67.9289C378.899 68.3982 378.824 68.8515 378.824 69.2889C378.824 69.8969 378.963 70.3769 379.24 70.7289C379.507 71.0809 379.88 71.2569 380.36 71.2569C380.691 71.2569 380.979 71.1395 381.224 70.9049C381.469 70.6702 381.683 70.3662 381.864 69.9929C382.045 69.6195 382.216 69.2249 382.376 68.8089C382.547 68.3289 382.765 67.8649 383.032 67.4169C383.288 66.9689 383.635 66.6009 384.072 66.3129C384.509 66.0249 385.096 65.8809 385.832 65.8809C386.44 65.8809 386.995 66.0355 387.496 66.3449C387.997 66.6542 388.397 67.0969 388.696 67.6729C388.984 68.2382 389.128 68.9209 389.128 69.7209C389.128 70.4675 389.011 71.1769 388.776 71.8489C388.531 72.5102 388.243 73.0809 387.912 73.5609L386.584 72.8089C386.872 72.4355 387.123 71.9769 387.336 71.4329C387.549 70.8889 387.656 70.3715 387.656 69.8809C387.656 69.5182 387.597 69.1662 387.48 68.8249C387.352 68.4835 387.155 68.2009 386.888 67.9769C386.621 67.7422 386.269 67.6249 385.832 67.6249C385.469 67.6249 385.16 67.7262 384.904 67.9289C384.648 68.1315 384.429 68.3982 384.248 68.7289C384.067 69.0489 383.907 69.3955 383.768 69.7689C383.629 70.1315 383.48 70.5049 383.32 70.8889C383.149 71.2622 382.941 71.6089 382.696 71.9289C382.451 72.2382 382.152 72.4942 381.8 72.6969C381.437 72.8889 381 72.9849 380.488 72.9849C379.859 72.9849 379.315 72.8409 378.856 72.5529C378.397 72.2542 378.035 71.8435 377.768 71.3209C377.501 70.7982 377.357 70.2009 377.336 69.5289C377.336 68.7609 377.432 68.0889 377.624 67.5129C377.805 66.9369 378.029 66.4302 378.296 65.9929L379.592 66.6169ZM389 63.7204H376.568V62.1364H383.496C383.08 61.9017 382.739 61.5604 382.472 61.1124C382.195 60.6537 382.056 60.1097 382.056 59.4804C382.056 58.851 382.243 58.3337 382.616 57.9284C382.979 57.523 383.459 57.315 384.056 57.3044H389V58.9204H384.616C384.275 58.931 383.997 59.0324 383.784 59.2244C383.56 59.4164 383.443 59.715 383.432 60.1204C383.432 60.6857 383.672 61.1604 384.152 61.5444C384.621 61.9177 385.219 62.1044 385.944 62.1044H389V63.7204ZM389.16 51.6312C389.16 52.3992 389.011 53.0606 388.712 53.6152C388.403 54.1699 387.981 54.5966 387.448 54.8952C386.904 55.1939 386.291 55.3432 385.608 55.3432C384.947 55.3432 384.349 55.1779 383.816 54.8472C383.272 54.5059 382.84 54.0526 382.52 53.4872C382.2 52.9219 382.04 52.2926 382.04 51.5992C382.04 50.7032 382.301 49.9619 382.824 49.3752C383.336 48.7779 384.061 48.3779 385 48.1752L386.808 53.4072C387.117 53.2152 387.357 52.9646 387.528 52.6552C387.699 52.3352 387.784 51.9832 387.784 51.5992C387.784 51.3112 387.736 51.0339 387.64 50.7672C387.533 50.5006 387.395 50.2499 387.224 50.0152L388.424 49.2792C388.648 49.6206 388.829 49.9992 388.968 50.4152C389.096 50.8206 389.16 51.2259 389.16 51.6312ZM385.848 53.7272L384.488 49.9992C384.179 50.1379 383.907 50.3459 383.672 50.6232C383.437 50.8899 383.32 51.2526 383.32 51.7112C383.32 52.3086 383.528 52.7992 383.944 53.1832C384.349 53.5566 384.872 53.7432 385.512 53.7432C385.629 53.7432 385.741 53.7379 385.848 53.7272ZM376.568 46.361V44.745H389V46.361H376.568ZM379.384 41.5804V39.9484H382.328V38.1564H383.592V39.9484H389V41.5804H383.592V42.7644H382.328V41.5804H379.384ZM389.16 33.2406C389.16 34.0086 389.011 34.67 388.712 35.2246C388.403 35.7793 387.981 36.206 387.448 36.5046C386.904 36.8033 386.291 36.9526 385.608 36.9526C384.947 36.9526 384.349 36.7873 383.816 36.4566C383.272 36.1153 382.84 35.662 382.52 35.0966C382.2 34.5313 382.04 33.902 382.04 33.2086C382.04 32.3126 382.301 31.5713 382.824 30.9846C383.336 30.3873 384.061 29.9873 385 29.7846L386.808 35.0166C387.117 34.8246 387.357 34.574 387.528 34.2646C387.699 33.9446 387.784 33.5926 387.784 33.2086C387.784 32.9206 387.736 32.6433 387.64 32.3766C387.533 32.11 387.395 31.8593 387.224 31.6246L388.424 30.8886C388.648 31.23 388.829 31.6086 388.968 32.0246C389.096 32.43 389.16 32.8353 389.16 33.2406ZM385.848 35.3366L384.488 31.6086C384.179 31.7473 383.907 31.9553 383.672 32.2326C383.437 32.4993 383.32 32.862 383.32 33.3206C383.32 33.918 383.528 34.4086 383.944 34.7926C384.349 35.166 384.872 35.3526 385.512 35.3526C385.629 35.3526 385.741 35.3473 385.848 35.3366ZM382.312 26.5304L383.896 26.4024C383.512 26.2104 383.181 25.9544 382.904 25.6344C382.627 25.3144 382.413 24.9837 382.264 24.6424C382.115 24.2904 382.04 23.9917 382.04 23.7464L383.64 23.8264C383.608 24.3277 383.704 24.7704 383.928 25.1544C384.152 25.5277 384.451 25.821 384.824 26.0344C385.197 26.2477 385.597 26.3544 386.024 26.3544H389V27.9704H382.312V26.5304Z" fill="#CCF381"/>
</g>
<defs>
<clipPath id="clip0_120_2">
<rect width="578" height="416" fill="white"/>
</clipPath>
</defs>
</svg>
